<?xml version="1.0" encoding="UTF-8"?>
<svg id="Layer_2" data-name="Layer 2" xmlns="http://www.w3.org/2000/svg" width="949.85" height="463.64" xmlns:xlink="http://www.w3.org/1999/xlink" viewBox="0 0 949.85 463.64">
  <defs>
    <linearGradient id="linear-gradient" x1="248.59" y1="228" x2="341.07" y2="185.12" gradientUnits="userSpaceOnUse">
      <stop offset="0" stop-color="#6b9cde"/>
      <stop offset="1" stop-color="#6bcfe1"/>
    </linearGradient>
    <linearGradient id="linear-gradient-2" x1="291.38" y1="239.54" x2="374.97" y2="200.78" xlink:href="#linear-gradient"/>
  </defs>
  <g id="Layer_1-2" data-name="Layer 1">
    <g>
      <path d="M0,418.39c0,.94,1.07,1.69,2.41,1.69h945.03c1.33,0,2.41-.75,2.41-1.69s-1.07-1.69-2.41-1.69H2.41c-1.33,0-2.41.75-2.41,1.69Z" style="fill: #2f2e41;"/>
      <path d="M789.19,420.78H162.66V17.31c0-9.54,7.76-17.31,17.31-17.31h591.91c9.54,0,17.31,7.76,17.31,17.31v403.47Z" style="fill: #2f2e40;"/>
      <path d="M841.34,463.64H108.95c-2.53,0-4.6-1.57-5.29-4.01-.68-2.43.27-4.86,2.43-6.17l57.09-34.83h626.22l.18.11,54.72,34.77c2.11,1.34,3.03,3.76,2.33,6.17-.7,2.4-2.77,3.96-5.27,3.96h-.02Z" style="fill: #dedede;"/>
      <rect x="179.09" y="25.72" width="592.95" height="368.63" style="fill: #fff;"/>
      <polygon points="794.9 441.5 159.09 441.5 190.52 416 764.9 416 794.9 441.5" style="fill: #2f2e40;"/>
      <polygon points="626.31 458.64 324.83 458.64 336.26 441.5 614.88 441.5 626.31 458.64" style="fill: #2f2e40;"/>
      <polygon points="838.74 152.18 824.02 157.02 824.02 135.82 837.38 135.82 838.74 152.18" style="fill: #e6a9aa;"/>
      <circle cx="825.84" cy="127.02" r="14.67" style="fill: #e6a9aa;"/>
      <path d="M829.87,125.57c-2.46-.07-4.07-2.56-5.02-4.82-.95-2.27-1.94-4.87-4.21-5.81-1.86-.77-5.15,4.4-6.62,3.03-1.53-1.43-.04-8.81,1.59-10.13s3.85-1.58,5.95-1.68c5.11-.24,10.26.18,15.27,1.22,3.1.65,6.29,1.62,8.53,3.86,2.83,2.84,3.56,7.13,3.76,11.14.21,4.1-.03,8.4-2.02,11.98-1.99,3.59-6.17,6.24-10.17,5.32-.4-2.18,0-4.41.16-6.62.15-2.21,0-4.59-1.35-6.35s-4.23-2.45-5.8-.89" style="fill: #36344c;"/>
      <path d="M847.92,130.65c1.47-1.08,3.22-1.97,5.03-1.75,1.95.24,3.6,1.85,4.1,3.75s-.06,4-1.27,5.55-3,2.58-4.9,3.1c-1.1.3-2.3.42-3.35-.03-1.54-.66-2.37-2.64-1.77-4.2" style="fill: #36344c;"/>
      <rect x="820.09" y="388" width="13.79" height="19.56" style="fill: #e6a9aa;"/>
      <path d="M806.66,419.41c-1.45,0-2.74-.04-3.71-.13-3.66-.34-7.16-3.04-8.92-4.62-.79-.71-1.04-1.84-.63-2.82h0c.29-.7.88-1.22,1.61-1.43l9.68-2.77,15.67-10.58.17.31c.07.12,1.6,2.89,2.12,4.76.2.71.14,1.31-.15,1.77-.21.32-.49.5-.73.61.28.3,1.17.9,3.91,1.34,3.99.64,4.84-3.51,4.87-3.68l.03-.14.12-.08c1.9-1.23,3.07-1.78,3.48-1.66.25.08.67.2,1.81,11.49.11.35.91,2.95.37,5.43-.59,2.7-12.39,1.77-14.75,1.56-.07,0-8.9.64-14.96.64h.01Z" style="fill: #36344c;"/>
      <rect x="865.57" y="374.78" width="13.79" height="19.56" transform="translate(-71.33 519.95) rotate(-31.95)" style="fill: #e6a9aa;"/>
      <path d="M857.61,416.73c-1.62,0-3.11-.19-4.17-.38-1.04-.18-1.86-1.01-2.03-2.06h0c-.12-.75.1-1.5.61-2.07l6.75-7.47,7.7-17.27.31.17c.12.06,2.89,1.6,4.32,2.92.54.5.81,1.03.8,1.58,0,.38-.15.69-.29.9.4.1,1.47.14,4.03-.94,3.73-1.57,2.25-5.54,2.19-5.71l-.05-.13.06-.13c.97-2.05,1.66-3.14,2.07-3.25.25-.07.68-.18,7.61,8.79.28.24,2.33,2.02,3.19,4.42.93,2.6-9.58,8.06-11.69,9.13-.07.05-11.06,8.04-15.57,10.31-1.79.9-3.91,1.18-5.84,1.18h0Z" style="fill: #36344c;"/>
      <path d="M844.04,224.38h-38.61l-3.5,35.92,15.33,132.71h19.71l-7.88-76.65,31.97,69.2,17.52-12.26-24.97-64.6s8.92-56.28,1.91-70.3c-7.01-14.02-11.48-14.02-11.48-14.02h0Z" style="fill: #36344c;"/>
      <polygon points="863.24 226.57 801.92 226.57 820.32 147.3 847.03 147.3 863.24 226.57" style="fill: #6bcfe1;"/>
      <path id="uuid-52db3307-ec3e-496d-a5d4-9d1f33ffc652-45-45-44-44-115" d="M786.69,145.73c-.98-4.82.81-9.23,4-9.84,3.19-.61,6.56,2.8,7.54,7.63.42,1.92.35,3.91-.19,5.81l3.88,20.49-10.02,1.58-2.76-20.36c-1.24-1.55-2.08-3.37-2.45-5.31h0Z" style="fill: #e6a9aa;"/>
      <path d="M846.38,147.3h-23.56l-15.88,31.77-5.99-23.8-13.16,1.4s3.11,46.51,16.73,44.94c13.61-1.57,45.36-43.48,41.87-54.3h-.01Z" style="fill: #6bcfe1;"/>
      <path id="uuid-2800d917-a06e-4fc6-b661-0f9df9cadefc-46-46-45-45-116" d="M872.7,268.11c.98,4.82-.81,9.23-4,9.84s-6.56-2.8-7.54-7.63c-.42-1.92-.35-3.91.19-5.81l-3.88-20.49,10.02-1.58,2.76,20.36c1.24,1.55,2.08,3.37,2.45,5.31h0Z" style="fill: #e6a9aa;"/>
      <path d="M832.95,147.3s13.39-.57,14.08,0c3.65,2.99,25.09,110.66,25.09,110.66h-13.58l-25.6-110.66h0Z" style="fill: #6bcfe1;"/>
      <g>
        <path d="M555.23,185.25v55.71h-11.17v-23.7h-23.87v23.7h-11.17v-55.71h11.17v22.91h23.87v-22.91h11.17Z" style="fill: #333;"/>
        <path d="M571,189.6c-1.3-1.25-1.96-2.81-1.96-4.67s.65-3.42,1.96-4.67c1.3-1.25,2.94-1.88,4.91-1.88s3.6.63,4.91,1.88c1.3,1.25,1.96,2.81,1.96,4.67s-.65,3.42-1.96,4.67c-1.3,1.25-2.94,1.88-4.91,1.88s-3.61-.62-4.91-1.88ZM581.41,196.75v44.22h-11.17v-44.22h11.17Z" style="fill: #333;"/>
        <path d="M614.85,230.67l11.17-33.92h11.89l-16.36,44.22h-13.57l-16.28-44.22h11.97l11.17,33.92Z" style="fill: #333;"/>
        <path d="M689,222.21h-32.33c.27,3.19,1.38,5.69,3.35,7.5,1.97,1.81,4.39,2.71,7.26,2.71,4.15,0,7.1-1.78,8.86-5.35h12.05c-1.28,4.26-3.72,7.76-7.34,10.5-3.62,2.74-8.06,4.11-13.33,4.11-4.26,0-8.07-.94-11.45-2.83-3.38-1.89-6.01-4.56-7.9-8.02-1.89-3.46-2.83-7.45-2.83-11.97s.93-8.59,2.79-12.05c1.86-3.46,4.47-6.12,7.82-7.98,3.35-1.86,7.21-2.79,11.57-2.79s7.97.91,11.29,2.71c3.32,1.81,5.91,4.38,7.74,7.7,1.84,3.33,2.75,7.14,2.75,11.45,0,1.6-.11,3.03-.32,4.31ZM677.75,214.7c-.05-2.87-1.09-5.17-3.11-6.9-2.02-1.73-4.5-2.59-7.42-2.59-2.77,0-5.1.84-6.98,2.51-1.89,1.68-3.05,4-3.47,6.98h20.99Z" style="fill: #333;"/>
        <polygon points="408.45 194.27 408.45 208.24 427.21 208.24 427.21 217.1 408.45 217.1 408.45 231.86 429.6 231.86 429.6 240.96 397.28 240.96 397.28 185.17 429.6 185.17 429.6 194.27 408.45 194.27" style="fill: #6bcfe1;"/>
        <path d="M444.73,198.3c2.47-4.34,5.85-7.72,10.14-10.14,4.28-2.42,9.09-3.63,14.41-3.63,6.23,0,11.68,1.6,16.36,4.79,4.68,3.19,7.95,7.61,9.82,13.25h-12.85c-1.28-2.66-3.07-4.66-5.39-5.99-2.31-1.33-4.99-2-8.02-2-3.25,0-6.13.76-8.66,2.28-2.53,1.52-4.5,3.66-5.91,6.43-1.41,2.77-2.11,6.01-2.11,9.74s.7,6.9,2.11,9.7c1.41,2.79,3.38,4.95,5.91,6.47,2.53,1.52,5.41,2.27,8.66,2.27,3.03,0,5.71-.68,8.02-2.04,2.32-1.36,4.11-3.36,5.39-6.03h12.85c-1.86,5.69-5.12,10.12-9.78,13.29-4.66,3.17-10.12,4.75-16.4,4.75-5.32,0-10.12-1.21-14.41-3.63-4.28-2.42-7.66-5.79-10.14-10.1s-3.71-9.21-3.71-14.69,1.24-10.39,3.71-14.73Z" style="fill: #6bcfe1;"/>
        <g>
          <polygon points="261.81 178.95 261.81 245.44 285.32 259.33 285.32 188.77 328.8 162.89 309.49 151.4 261.81 178.95" style="fill: url(#linear-gradient);"/>
          <polygon points="309.53 198.22 309.53 221.37 342.27 202.25 342.27 226.57 309.53 245.69 309.53 268.67 365.63 235.8 365.63 184.47 349.78 174.91 309.53 198.22" style="fill: url(#linear-gradient-2);"/>
        </g>
      </g>
    </g>
  </g>
</svg>