<?xml version="1.0" encoding="UTF-8"?>
<svg id="Layer_2" data-name="Layer 2" xmlns="http://www.w3.org/2000/svg" width="120.46" height="128.67" xmlns:xlink="http://www.w3.org/1999/xlink" viewBox="0 0 120.46 128.67">
  <defs>
    <linearGradient id="linear-gradient" x1="48.35" y1="262.7" x2="48.35" y2="218.82" gradientTransform="translate(106.58 398.29) rotate(-150) skewX(30)" gradientUnits="userSpaceOnUse">
      <stop offset=".18" stop-color="#c4aa9b"/>
      <stop offset=".98" stop-color="#fff"/>
    </linearGradient>
    <linearGradient id="linear-gradient-2" x1="79.71" y1="278.29" x2="79.71" y2="246.75" xlink:href="#linear-gradient"/>
    <linearGradient id="linear-gradient-3" x1="105.29" y1="275.8" x2="72.87" y2="239.36" xlink:href="#linear-gradient"/>
    <linearGradient id="linear-gradient-4" x1="76.47" y1="247.07" x2="73.57" y2="244.18" xlink:href="#linear-gradient"/>
    <linearGradient id="linear-gradient-5" x1="77.28" y1="248.91" x2="77.28" y2="245.2" xlink:href="#linear-gradient"/>
    <linearGradient id="linear-gradient-6" x1="25.57" y1="224.72" x2="9.69" y2="195.18" gradientTransform="translate(120.46 296.15) rotate(-180)" xlink:href="#linear-gradient"/>
  </defs>
  <g id="Layer_1-2" data-name="Layer 1">
    <g>
      <g>
        <g>
          <polygon points="0 88.98 32.98 69.94 50.21 79.89 17.23 98.93 0 88.98" style="fill: #b09f72;"/>
          <g>
            <polygon points="37.54 75.07 39.42 73.99 36.31 72.19 36.31 72.19 32.88 70.21 31 71.29 37.54 75.07" style="fill: #ccb885;"/>
            <polygon points="40.97 77.05 42.85 75.97 39.74 74.17 37.86 75.26 40.97 77.05" style="fill: #bdaa7b;"/>
            <polygon points="44.41 79.03 46.28 77.95 43.17 76.16 41.3 77.24 44.41 79.03" style="fill: #dbc58e;"/>
            <polygon points="33.63 73.36 30.52 71.57 28.64 72.65 31.75 74.45 33.63 73.36" style="fill: #dbc58e;"/>
            <polygon points="33.95 73.55 32.07 74.64 35.18 76.43 37.06 75.35 33.95 73.55" style="fill: #bdaa7b;"/>
            <polygon points="37.38 75.54 33.15 77.98 36.26 79.77 40.49 77.33 37.38 75.54" style="fill: #ccb885;"/>
            <polygon points="40.82 77.52 38.94 78.6 42.05 80.39 43.93 79.31 40.82 77.52" style="fill: #bdaa7b;"/>
            <polygon points="42.37 80.58 45.48 82.38 47.36 81.29 47.36 81.29 49.72 79.93 46.61 78.14 44.25 79.5 44.25 79.5 42.37 80.58" style="fill: #dbc58e;"/>
            <polygon points="31.27 74.73 28.16 72.93 26.29 74.01 29.39 75.81 31.27 74.73" style="fill: #ccb885;"/>
            <polygon points="31.6 74.91 29.72 76 32.83 77.79 34.7 76.71 31.6 74.91" style="fill: #ccb885;"/>
            <polygon points="39.69 81.76 41.57 80.67 38.46 78.88 36.58 79.96 39.69 81.76" style="fill: #ccb885;"/>
            <polygon points="40.02 81.94 43.13 83.74 45 82.65 41.89 80.86 40.02 81.94" style="fill: #ccb885;"/>
            <polygon points="28.91 76.09 25.8 74.29 21.57 76.74 24.68 78.53 28.91 76.09" style="fill: #bdaa7b;"/>
            <polygon points="29.24 76.27 27.36 77.36 30.47 79.15 32.35 78.07 29.24 76.27" style="fill: #ccb885;"/>
            <polygon points="32.67 78.26 30.79 79.34 33.9 81.13 35.78 80.05 32.67 78.26" style="fill: #bdaa7b;"/>
            <polygon points="37.34 83.12 39.21 82.03 36.1 80.24 34.23 81.32 37.34 83.12" style="fill: #dbc58e;"/>
            <polygon points="37.66 83.3 40.77 85.1 42.64 84.02 39.54 82.22 37.66 83.3" style="fill: #bdaa7b;"/>
            <polygon points="26.88 77.64 25 78.72 28.11 80.51 29.99 79.43 26.88 77.64" style="fill: #ccb885;"/>
            <polygon points="34.98 84.48 36.85 83.39 30.31 79.62 28.44 80.7 34.98 84.48" style="fill: #dbc58e;"/>
            <polygon points="32.95 86.02 36.05 87.82 37.93 86.74 37.93 86.74 40.29 85.37 37.18 83.58 32.95 86.02" style="fill: #ccb885;"/>
            <polygon points="24.2 78.81 21.09 77.01 19.21 78.1 22.32 79.89 24.2 78.81" style="fill: #dbc58e;"/>
            <polygon points="24.52 78.99 22.65 80.08 25.76 81.87 27.63 80.79 24.52 78.99" style="fill: #bdaa7b;"/>
            <polygon points="27.96 80.98 26.08 82.06 29.19 83.86 31.07 82.77 27.96 80.98" style="fill: #ccb885;"/>
            <polygon points="32.62 85.84 34.5 84.75 31.39 82.96 29.51 84.04 32.62 85.84" style="fill: #bdaa7b;"/>
            <polygon points="21.84 80.17 18.73 78.37 16.86 79.46 19.97 81.25 21.84 80.17" style="fill: #ccb885;"/>
            <polygon points="22.17 80.36 20.29 81.44 23.4 83.23 23.4 83.23 26.83 85.22 28.71 84.13 22.17 80.36" style="fill: #bdaa7b;"/>
            <polygon points="30.59 87.39 33.7 89.18 35.57 88.1 32.47 86.3 30.59 87.39" style="fill: #ccb885;"/>
            <polygon points="19.49 81.53 16.38 79.74 14.5 80.82 17.61 82.61 19.49 81.53" style="fill: #bdaa7b;"/>
            <polygon points="15.58 84.16 18.69 85.95 22.92 83.51 19.81 81.72 15.58 84.16" style="fill: #dbc58e;"/>
            <polygon points="24.48 86.58 26.35 85.49 23.24 83.7 21.37 84.78 24.48 86.58" style="fill: #ccb885;"/>
            <polygon points="29.78 87.48 29.78 87.48 32.14 86.11 29.03 84.32 26.68 85.68 26.68 85.68 24.8 86.76 27.91 88.56 29.78 87.48" style="fill: #dbc58e;"/>
            <polygon points="28.23 88.75 31.34 90.54 33.22 89.46 30.11 87.66 28.23 88.75" style="fill: #bdaa7b;"/>
            <polygon points="17.13 82.89 14.02 81.1 12.14 82.18 15.25 83.97 17.13 82.89" style="fill: #ccb885;"/>
            <polygon points="22.12 87.94 23.99 86.85 20.89 85.06 19.01 86.14 22.12 87.94" style="fill: #ccb885;"/>
            <polygon points="28.98 91.9 30.86 90.82 27.75 89.02 27.75 89.02 24.32 87.04 22.44 88.12 25.88 90.11 28.98 91.9" style="fill: #bdaa7b;"/>
            <polygon points="11.66 82.46 9.79 83.54 16.33 87.32 18.2 86.23 15.1 84.44 11.66 82.46" style="fill: #bdaa7b;"/>
            <polygon points="18.53 86.42 16.65 87.5 19.76 89.3 21.64 88.21 18.53 86.42" style="fill: #ccb885;"/>
            <polygon points="25.07 90.2 21.96 88.4 20.09 89.49 23.19 91.28 25.07 90.2" style="fill: #dbc58e;"/>
            <polygon points="12.42 85.61 9.31 83.82 7.43 84.9 10.54 86.7 12.42 85.61" style="fill: #ccb885;"/>
            <polygon points="12.74 85.8 10.86 86.88 13.97 88.68 15.85 87.59 12.74 85.8" style="fill: #ccb885;"/>
            <polygon points="16.17 87.78 11.94 90.23 15.05 92.02 19.28 89.58 16.17 87.78" style="fill: #ccb885;"/>
            <polygon points="20.84 92.64 22.71 91.56 19.61 89.76 17.73 90.85 20.84 92.64" style="fill: #bdaa7b;"/>
            <polygon points="21.16 92.83 24.27 94.62 26.15 93.54 26.15 93.54 28.5 92.18 25.4 90.38 23.04 91.74 23.04 91.74 21.16 92.83" style="fill: #ccb885;"/>
            <polygon points="10.06 86.97 6.95 85.18 5.07 86.26 8.18 88.05 10.06 86.97" style="fill: #dbc58e;"/>
            <polygon points="11.62 90.04 13.49 88.95 10.38 87.16 8.51 88.24 11.62 90.04" style="fill: #bdaa7b;"/>
            <polygon points="18.81 94.19 21.91 95.98 23.79 94.9 20.68 93.11 18.81 94.19" style="fill: #dbc58e;"/>
            <polygon points="7.7 88.33 4.59 86.54 2.72 87.62 5.83 89.42 7.7 88.33" style="fill: #ccb885;"/>
            <polygon points="12.69 93.38 14.57 92.3 8.03 88.52 6.15 89.6 12.69 93.38" style="fill: #dbc58e;"/>
            <polygon points="18 94.28 18 94.28 20.36 92.92 17.25 91.12 14.89 92.48 14.89 92.48 13.02 93.57 16.12 95.36 18 94.28" style="fill: #bdaa7b;"/>
            <polygon points="16.45 95.55 19.56 97.34 21.43 96.26 18.32 94.47 16.45 95.55" style="fill: #ccb885;"/>
            <polygon points=".36 88.98 3.47 90.78 5.35 89.69 2.24 87.9 .36 88.98" style="fill: #bdaa7b;"/>
            <polygon points="5.67 89.88 3.79 90.96 6.9 92.76 8.78 91.68 5.67 89.88" style="fill: #ccb885;"/>
            <polygon points="9.1 91.86 7.23 92.95 10.33 94.74 12.21 93.66 9.1 91.86" style="fill: #dbc58e;"/>
            <polygon points="10.66 94.93 14.09 96.91 14.09 96.91 17.2 98.7 19.08 97.62 18.02 97.01 12.54 93.85 10.66 94.93" style="fill: #bdaa7b;"/>
          </g>
        </g>
        <g>
          <polygon points="17.23 98.93 50.21 79.89 67.44 89.84 34.47 108.88 17.23 98.93" style="fill: #b09f72;"/>
          <g>
            <polygon points="54.77 85.02 56.65 83.94 53.54 82.14 53.54 82.14 50.11 80.16 48.23 81.24 54.77 85.02" style="fill: #ccb885;"/>
            <polygon points="58.21 87 60.08 85.92 56.97 84.12 55.1 85.21 58.21 87" style="fill: #bdaa7b;"/>
            <polygon points="61.64 88.98 63.52 87.9 60.41 86.11 58.53 87.19 61.64 88.98" style="fill: #dbc58e;"/>
            <polygon points="50.86 83.32 47.75 81.52 45.88 82.6 48.98 84.4 50.86 83.32" style="fill: #dbc58e;"/>
            <polygon points="51.18 83.5 49.31 84.58 52.42 86.38 54.29 85.3 51.18 83.5" style="fill: #bdaa7b;"/>
            <polygon points="54.62 85.48 50.38 87.93 53.49 89.72 57.73 87.28 54.62 85.48" style="fill: #ccb885;"/>
            <polygon points="58.05 87.47 56.17 88.55 59.28 90.34 61.16 89.26 58.05 87.47" style="fill: #bdaa7b;"/>
            <polygon points="59.61 90.53 62.72 92.33 64.59 91.24 64.59 91.24 66.95 89.88 63.84 88.09 61.48 89.45 61.48 89.45 59.61 90.53" style="fill: #dbc58e;"/>
            <polygon points="48.5 84.68 45.39 82.88 43.52 83.96 46.63 85.76 48.5 84.68" style="fill: #ccb885;"/>
            <polygon points="48.83 84.86 46.95 85.95 50.06 87.74 51.94 86.66 48.83 84.86" style="fill: #ccb885;"/>
            <polygon points="56.93 91.7 58.8 90.62 55.69 88.83 53.82 89.91 56.93 91.7" style="fill: #ccb885;"/>
            <polygon points="57.25 91.89 60.36 93.69 62.23 92.6 59.13 90.81 57.25 91.89" style="fill: #ccb885;"/>
            <polygon points="46.15 86.04 43.04 84.24 38.8 86.68 41.91 88.48 46.15 86.04" style="fill: #bdaa7b;"/>
            <polygon points="46.47 86.22 44.6 87.31 47.7 89.1 49.58 88.02 46.47 86.22" style="fill: #ccb885;"/>
            <polygon points="49.9 88.21 48.03 89.29 51.14 91.08 53.01 90 49.9 88.21" style="fill: #bdaa7b;"/>
            <polygon points="54.57 93.07 56.45 91.98 53.34 90.19 51.46 91.27 54.57 93.07" style="fill: #dbc58e;"/>
            <polygon points="54.89 93.25 58 95.05 59.88 93.96 56.77 92.17 54.89 93.25" style="fill: #bdaa7b;"/>
            <polygon points="44.11 87.58 42.24 88.67 45.35 90.46 47.22 89.38 44.11 87.58" style="fill: #ccb885;"/>
            <polygon points="52.21 94.43 54.09 93.34 47.55 89.57 45.67 90.65 52.21 94.43" style="fill: #dbc58e;"/>
            <polygon points="50.18 95.97 53.29 97.77 55.16 96.69 55.16 96.69 57.52 95.33 54.41 93.53 50.18 95.97" style="fill: #ccb885;"/>
            <polygon points="41.43 88.76 38.32 86.96 36.45 88.05 39.56 89.84 41.43 88.76" style="fill: #dbc58e;"/>
            <polygon points="41.76 88.95 39.88 90.03 42.99 91.82 44.87 90.74 41.76 88.95" style="fill: #bdaa7b;"/>
            <polygon points="45.19 90.93 43.31 92.01 46.42 93.8 48.3 92.72 45.19 90.93" style="fill: #ccb885;"/>
            <polygon points="49.86 95.79 51.73 94.7 48.62 92.91 46.75 93.99 49.86 95.79" style="fill: #bdaa7b;"/>
            <polygon points="39.08 90.12 35.97 88.32 34.09 89.41 37.2 91.2 39.08 90.12" style="fill: #ccb885;"/>
            <polygon points="39.4 90.31 37.52 91.39 40.63 93.18 40.63 93.18 44.07 95.17 45.94 94.08 39.4 90.31" style="fill: #bdaa7b;"/>
            <polygon points="47.82 97.33 50.93 99.13 52.81 98.05 49.7 96.25 47.82 97.33" style="fill: #ccb885;"/>
            <polygon points="36.72 91.48 33.61 89.68 31.73 90.77 34.84 92.56 36.72 91.48" style="fill: #bdaa7b;"/>
            <polygon points="32.81 94.11 35.92 95.9 40.15 93.46 37.04 91.67 32.81 94.11" style="fill: #dbc58e;"/>
            <polygon points="41.71 96.53 43.58 95.44 40.48 93.65 38.6 94.73 41.71 96.53" style="fill: #ccb885;"/>
            <polygon points="47.02 97.42 47.02 97.42 49.37 96.06 46.27 94.27 43.91 95.63 43.91 95.63 42.03 96.71 45.14 98.51 47.02 97.42" style="fill: #dbc58e;"/>
            <polygon points="45.47 98.7 48.57 100.49 50.45 99.41 47.34 97.61 45.47 98.7" style="fill: #bdaa7b;"/>
            <polygon points="34.36 92.84 31.25 91.05 29.38 92.13 32.49 93.92 34.36 92.84" style="fill: #ccb885;"/>
            <polygon points="39.35 97.89 41.23 96.8 38.12 95.01 36.24 96.09 39.35 97.89" style="fill: #ccb885;"/>
            <polygon points="46.22 101.85 48.09 100.77 44.99 98.97 44.99 98.97 41.55 96.99 39.68 98.07 43.11 100.06 46.22 101.85" style="fill: #bdaa7b;"/>
            <polygon points="28.9 92.41 27.02 93.49 33.56 97.27 35.44 96.18 32.33 94.39 28.9 92.41" style="fill: #bdaa7b;"/>
            <polygon points="35.76 96.37 33.89 97.45 36.99 99.25 38.87 98.16 35.76 96.37" style="fill: #ccb885;"/>
            <polygon points="42.3 100.15 39.2 98.35 37.32 99.43 40.43 101.23 42.3 100.15" style="fill: #dbc58e;"/>
            <polygon points="29.65 95.56 26.54 93.77 24.66 94.85 27.77 96.64 29.65 95.56" style="fill: #ccb885;"/>
            <polygon points="29.97 95.75 28.1 96.83 31.21 98.63 33.08 97.54 29.97 95.75" style="fill: #ccb885;"/>
            <polygon points="33.41 97.73 29.17 100.17 32.28 101.97 36.51 99.52 33.41 97.73" style="fill: #ccb885;"/>
            <polygon points="38.07 102.59 39.95 101.51 36.84 99.71 34.96 100.8 38.07 102.59" style="fill: #bdaa7b;"/>
            <polygon points="38.4 102.78 41.5 104.57 43.38 103.49 43.38 103.49 45.74 102.13 42.63 100.33 40.27 101.69 40.27 101.69 38.4 102.78" style="fill: #ccb885;"/>
            <polygon points="27.29 96.92 24.18 95.13 22.31 96.21 25.42 98.01 27.29 96.92" style="fill: #dbc58e;"/>
            <polygon points="28.85 99.99 30.72 98.9 27.62 97.11 25.74 98.19 28.85 99.99" style="fill: #bdaa7b;"/>
            <polygon points="36.04 104.14 39.15 105.93 41.02 104.85 37.92 103.05 36.04 104.14" style="fill: #dbc58e;"/>
            <polygon points="24.93 98.28 21.83 96.49 19.95 97.57 23.06 99.37 24.93 98.28" style="fill: #ccb885;"/>
            <polygon points="29.92 103.33 31.8 102.25 25.26 98.47 23.38 99.55 29.92 103.33" style="fill: #dbc58e;"/>
            <polygon points="35.23 104.23 35.23 104.23 37.59 102.87 34.48 101.07 32.13 102.43 32.13 102.43 30.25 103.52 33.36 105.31 35.23 104.23" style="fill: #bdaa7b;"/>
            <polygon points="33.68 105.5 36.79 107.29 38.67 106.21 35.56 104.42 33.68 105.5" style="fill: #ccb885;"/>
            <polygon points="17.59 98.93 20.7 100.73 22.58 99.64 19.47 97.85 17.59 98.93" style="fill: #bdaa7b;"/>
            <polygon points="22.9 99.83 21.03 100.91 24.13 102.71 26.01 101.62 22.9 99.83" style="fill: #ccb885;"/>
            <polygon points="26.34 101.81 24.46 102.9 27.57 104.69 29.44 103.61 26.34 101.81" style="fill: #dbc58e;"/>
            <polygon points="27.89 104.88 31.33 106.86 31.33 106.86 34.43 108.65 36.31 107.57 35.25 106.96 29.77 103.8 27.89 104.88" style="fill: #bdaa7b;"/>
          </g>
        </g>
      </g>
      <path d="M44.1,94.89c.09.34.39.62,1.23.87.64.19,1.64.07,1.68.05.8.22,1.69.42,2.52.4.52-.01,1.11-.18,1.52-.4.14-.06.27-.14.38-.21.11,0,.22-.03.31-.06l.9-.26h0c.37-.11.56-.4.48-.85,0,0,0-.02,0-.02.65-.15,1.32-.32,2-.51.22-.06.43-.12.65-.18.24-.07.47-.14.7-.21.45-.14.87-.28,1.26-.42h.03c2.43-.87,3.9-1.71,3.76-2.19h0c.05-.2-.07-.36-.34-.48-1.3-.57-5.77-.03-9.98,1.21-.22.06-.43.13-.63.19,0,0,0,0-.01,0-.61-.26-1.13-.34-1.5-.25h0s-.89.26-.89.26l-.07.02c-.27.06-.43.19-.49.41-.31-.03-.61-.04-.91-.03-.92.03-2.01.57-2.06,1.04-.01.12-.02.25-.01.39l.25.31v.42c-.27.06-.83.21-.76.51Z" style="fill: #bdaa7b;"/>
      <g>
        <g>
          <polygon points="34.27 108.77 67.24 89.73 84.48 99.68 51.5 118.72 34.27 108.77" style="fill: #b09f72;"/>
          <g>
            <polygon points="71.81 94.86 73.68 93.77 70.58 91.98 70.58 91.98 67.14 90 65.27 91.08 71.81 94.86" style="fill: #ccb885;"/>
            <polygon points="75.24 96.84 77.12 95.76 74.01 93.96 72.13 95.04 75.24 96.84" style="fill: #bdaa7b;"/>
            <polygon points="78.67 98.82 80.55 97.74 77.44 95.94 75.57 97.03 78.67 98.82" style="fill: #dbc58e;"/>
            <polygon points="67.89 93.15 64.79 91.36 62.91 92.44 66.02 94.24 67.89 93.15" style="fill: #dbc58e;"/>
            <polygon points="68.22 93.34 66.34 94.42 69.45 96.22 71.33 95.13 68.22 93.34" style="fill: #bdaa7b;"/>
            <polygon points="71.65 95.32 67.42 97.77 70.53 99.56 74.76 97.12 71.65 95.32" style="fill: #ccb885;"/>
            <polygon points="75.08 97.3 73.21 98.39 76.32 100.18 78.19 99.1 75.08 97.3" style="fill: #bdaa7b;"/>
            <polygon points="76.64 100.37 79.75 102.16 81.63 101.08 81.63 101.08 83.98 99.72 80.87 97.92 78.52 99.29 78.52 99.29 76.64 100.37" style="fill: #dbc58e;"/>
            <polygon points="65.54 94.51 62.43 92.72 60.55 93.8 63.66 95.6 65.54 94.51" style="fill: #ccb885;"/>
            <polygon points="65.86 94.7 63.99 95.78 67.1 97.58 68.97 96.49 65.86 94.7" style="fill: #ccb885;"/>
            <polygon points="73.96 101.54 75.84 100.46 72.73 98.67 70.85 99.75 73.96 101.54" style="fill: #ccb885;"/>
            <polygon points="74.28 101.73 77.39 103.52 79.27 102.44 76.16 100.65 74.28 101.73" style="fill: #ccb885;"/>
            <polygon points="63.18 95.87 60.07 94.08 55.84 96.52 58.95 98.32 63.18 95.87" style="fill: #bdaa7b;"/>
            <polygon points="63.51 96.06 61.63 97.14 64.74 98.94 66.61 97.86 63.51 96.06" style="fill: #ccb885;"/>
            <polygon points="66.94 98.04 65.06 99.13 68.17 100.92 70.05 99.84 66.94 98.04" style="fill: #bdaa7b;"/>
            <polygon points="71.6 102.9 73.48 101.82 70.37 100.02 68.5 101.11 71.6 102.9" style="fill: #dbc58e;"/>
            <polygon points="71.93 103.09 75.04 104.89 76.91 103.8 73.8 102.01 71.93 103.09" style="fill: #bdaa7b;"/>
            <polygon points="61.15 97.42 59.27 98.51 62.38 100.3 64.26 99.22 61.15 97.42" style="fill: #ccb885;"/>
            <polygon points="69.25 104.26 71.12 103.18 64.58 99.4 62.71 100.49 69.25 104.26" style="fill: #dbc58e;"/>
            <polygon points="67.21 105.81 70.32 107.61 72.2 106.52 72.2 106.52 74.56 105.16 71.45 103.37 67.21 105.81" style="fill: #ccb885;"/>
            <polygon points="58.47 98.6 55.36 96.8 53.48 97.88 56.59 99.68 58.47 98.6" style="fill: #dbc58e;"/>
            <polygon points="58.79 98.78 56.92 99.87 60.02 101.66 61.9 100.58 58.79 98.78" style="fill: #bdaa7b;"/>
            <polygon points="62.22 100.77 60.35 101.85 63.46 103.64 65.33 102.56 62.22 100.77" style="fill: #ccb885;"/>
            <polygon points="66.89 105.63 68.77 104.54 65.66 102.75 63.78 103.83 66.89 105.63" style="fill: #bdaa7b;"/>
            <polygon points="56.11 99.96 53 98.16 51.13 99.24 54.23 101.04 56.11 99.96" style="fill: #ccb885;"/>
            <polygon points="56.43 100.14 54.56 101.23 57.67 103.02 57.67 103.02 61.1 105 62.98 103.92 56.43 100.14" style="fill: #bdaa7b;"/>
            <polygon points="64.86 107.17 67.97 108.97 69.84 107.88 66.73 106.09 64.86 107.17" style="fill: #ccb885;"/>
            <polygon points="53.75 101.32 50.64 99.52 48.77 100.61 51.88 102.4 53.75 101.32" style="fill: #bdaa7b;"/>
            <polygon points="49.85 103.95 52.95 105.74 57.19 103.3 54.08 101.5 49.85 103.95" style="fill: #dbc58e;"/>
            <polygon points="58.74 106.36 60.62 105.28 57.51 103.49 55.63 104.57 58.74 106.36" style="fill: #ccb885;"/>
            <polygon points="64.05 107.26 64.05 107.26 66.41 105.9 63.3 104.11 60.94 105.47 60.94 105.47 59.07 106.55 62.18 108.35 64.05 107.26" style="fill: #dbc58e;"/>
            <polygon points="62.5 108.53 65.61 110.33 67.49 109.24 64.38 107.45 62.5 108.53" style="fill: #bdaa7b;"/>
            <polygon points="51.4 102.68 48.29 100.88 46.41 101.97 49.52 103.76 51.4 102.68" style="fill: #ccb885;"/>
            <polygon points="56.39 107.73 58.26 106.64 55.15 104.85 53.28 105.93 56.39 107.73" style="fill: #ccb885;"/>
            <polygon points="63.25 111.69 65.13 110.61 62.02 108.81 62.02 108.81 58.59 106.83 56.71 107.91 60.14 109.89 63.25 111.69" style="fill: #bdaa7b;"/>
            <polygon points="45.93 102.24 44.06 103.33 50.6 107.1 52.47 106.02 49.36 104.23 45.93 102.24" style="fill: #bdaa7b;"/>
            <polygon points="52.8 106.21 50.92 107.29 54.03 109.08 55.91 108 52.8 106.21" style="fill: #ccb885;"/>
            <polygon points="59.34 109.98 56.23 108.19 54.35 109.27 57.46 111.07 59.34 109.98" style="fill: #dbc58e;"/>
            <polygon points="46.68 105.4 43.57 103.6 41.7 104.69 44.81 106.48 46.68 105.4" style="fill: #ccb885;"/>
            <polygon points="47.01 105.59 45.13 106.67 48.24 108.46 50.12 107.38 47.01 105.59" style="fill: #ccb885;"/>
            <polygon points="50.44 107.57 46.21 110.01 49.32 111.81 53.55 109.36 50.44 107.57" style="fill: #ccb885;"/>
            <polygon points="55.11 112.43 56.98 111.35 53.87 109.55 52 110.63 55.11 112.43" style="fill: #bdaa7b;"/>
            <polygon points="55.43 112.62 58.54 114.41 60.41 113.33 60.41 113.33 62.77 111.97 59.66 110.17 57.31 111.53 57.31 111.53 55.43 112.62" style="fill: #ccb885;"/>
            <polygon points="44.33 106.76 41.22 104.96 39.34 106.05 42.45 107.84 44.33 106.76" style="fill: #dbc58e;"/>
            <polygon points="45.88 109.83 47.76 108.74 44.65 106.95 42.77 108.03 45.88 109.83" style="fill: #bdaa7b;"/>
            <polygon points="53.07 113.98 56.18 115.77 58.06 114.69 54.95 112.89 53.07 113.98" style="fill: #dbc58e;"/>
            <polygon points="41.97 108.12 38.86 106.33 36.98 107.41 40.09 109.2 41.97 108.12" style="fill: #ccb885;"/>
            <polygon points="46.96 113.17 48.84 112.08 42.29 108.31 40.42 109.39 46.96 113.17" style="fill: #dbc58e;"/>
            <polygon points="52.27 114.07 52.27 114.07 54.63 112.71 51.52 110.91 49.16 112.27 49.16 112.27 47.28 113.36 50.39 115.15 52.27 114.07" style="fill: #bdaa7b;"/>
            <polygon points="50.72 115.34 53.83 117.13 55.7 116.05 52.59 114.25 50.72 115.34" style="fill: #ccb885;"/>
            <polygon points="34.63 108.77 37.74 110.56 39.61 109.48 36.5 107.69 34.63 108.77" style="fill: #bdaa7b;"/>
            <polygon points="39.94 109.67 38.06 110.75 41.17 112.55 43.05 111.46 39.94 109.67" style="fill: #ccb885;"/>
            <polygon points="43.37 111.65 41.49 112.73 44.6 114.53 46.48 113.45 43.37 111.65" style="fill: #dbc58e;"/>
            <polygon points="44.93 114.72 48.36 116.7 48.36 116.7 51.47 118.49 53.35 117.41 52.29 116.8 46.8 113.63 44.93 114.72" style="fill: #bdaa7b;"/>
          </g>
        </g>
        <g>
          <polygon points="51.5 118.72 84.48 99.68 101.71 109.63 68.73 128.67 51.5 118.72" style="fill: #b09f72;"/>
          <g>
            <polygon points="89.04 104.81 90.92 103.72 87.81 101.93 87.81 101.93 84.38 99.95 82.5 101.03 89.04 104.81" style="fill: #ccb885;"/>
            <polygon points="92.47 106.79 94.35 105.71 91.24 103.91 89.37 104.99 92.47 106.79" style="fill: #bdaa7b;"/>
            <polygon points="95.91 108.77 97.78 107.69 94.67 105.89 92.8 106.98 95.91 108.77" style="fill: #dbc58e;"/>
            <polygon points="85.13 103.1 82.02 101.31 80.14 102.39 83.25 104.18 85.13 103.1" style="fill: #dbc58e;"/>
            <polygon points="85.45 103.29 83.58 104.37 86.68 106.17 88.56 105.08 85.45 103.29" style="fill: #bdaa7b;"/>
            <polygon points="88.89 105.27 84.65 107.71 87.76 109.51 91.99 107.07 88.89 105.27" style="fill: #ccb885;"/>
            <polygon points="92.32 107.25 90.44 108.34 93.55 110.13 95.43 109.05 92.32 107.25" style="fill: #bdaa7b;"/>
            <polygon points="93.87 110.32 96.98 112.11 98.86 111.03 98.86 111.03 101.22 109.67 98.11 107.88 95.75 109.24 95.75 109.24 93.87 110.32" style="fill: #dbc58e;"/>
            <polygon points="82.77 104.46 79.66 102.67 77.79 103.75 80.89 105.55 82.77 104.46" style="fill: #ccb885;"/>
            <polygon points="83.1 104.65 81.22 105.73 84.33 107.53 86.2 106.45 83.1 104.65" style="fill: #ccb885;"/>
            <polygon points="91.19 111.49 93.07 110.41 89.96 108.61 88.09 109.7 91.19 111.49" style="fill: #ccb885;"/>
            <polygon points="91.52 111.68 94.63 113.47 96.5 112.39 93.39 110.6 91.52 111.68" style="fill: #ccb885;"/>
            <polygon points="80.41 105.82 77.31 104.03 73.07 106.47 76.18 108.27 80.41 105.82" style="fill: #bdaa7b;"/>
            <polygon points="80.74 106.01 78.86 107.09 81.97 108.89 83.85 107.81 80.74 106.01" style="fill: #ccb885;"/>
            <polygon points="84.17 107.99 82.3 109.08 85.4 110.87 87.28 109.79 84.17 107.99" style="fill: #bdaa7b;"/>
            <polygon points="88.84 112.85 90.71 111.77 87.6 109.98 85.73 111.06 88.84 112.85" style="fill: #dbc58e;"/>
            <polygon points="89.16 113.04 92.27 114.83 94.15 113.75 91.04 111.96 89.16 113.04" style="fill: #bdaa7b;"/>
            <polygon points="78.38 107.37 76.51 108.45 79.61 110.25 81.49 109.17 78.38 107.37" style="fill: #ccb885;"/>
            <polygon points="86.48 114.21 88.36 113.13 81.82 109.35 79.94 110.44 86.48 114.21" style="fill: #dbc58e;"/>
            <polygon points="84.45 115.76 87.56 117.56 89.43 116.47 89.43 116.47 91.79 115.11 88.68 113.32 84.45 115.76" style="fill: #ccb885;"/>
            <polygon points="75.7 108.55 72.59 106.75 70.72 107.83 73.82 109.63 75.7 108.55" style="fill: #dbc58e;"/>
            <polygon points="76.02 108.73 74.15 109.82 77.26 111.61 79.13 110.53 76.02 108.73" style="fill: #bdaa7b;"/>
            <polygon points="79.46 110.71 77.58 111.8 80.69 113.59 82.57 112.51 79.46 110.71" style="fill: #ccb885;"/>
            <polygon points="84.12 115.57 86 114.49 82.89 112.7 81.01 113.78 84.12 115.57" style="fill: #bdaa7b;"/>
            <polygon points="73.34 109.91 70.24 108.11 68.36 109.19 71.47 110.99 73.34 109.91" style="fill: #ccb885;"/>
            <polygon points="73.67 110.09 71.79 111.18 74.9 112.97 74.9 112.97 78.33 114.95 80.21 113.87 73.67 110.09" style="fill: #bdaa7b;"/>
            <polygon points="82.09 117.12 85.2 118.92 87.08 117.83 83.97 116.04 82.09 117.12" style="fill: #ccb885;"/>
            <polygon points="70.99 111.27 67.88 109.47 66 110.55 69.11 112.35 70.99 111.27" style="fill: #bdaa7b;"/>
            <polygon points="67.08 113.9 70.19 115.69 74.42 113.25 71.31 111.45 67.08 113.9" style="fill: #dbc58e;"/>
            <polygon points="75.98 116.31 77.85 115.23 74.74 113.44 72.87 114.52 75.98 116.31" style="fill: #ccb885;"/>
            <polygon points="81.29 117.21 81.29 117.21 83.64 115.85 80.53 114.06 78.18 115.42 78.18 115.42 76.3 116.5 79.41 118.3 81.29 117.21" style="fill: #dbc58e;"/>
            <polygon points="79.73 118.48 82.84 120.28 84.72 119.19 81.61 117.4 79.73 118.48" style="fill: #bdaa7b;"/>
            <polygon points="68.63 112.63 65.52 110.83 63.65 111.92 66.75 113.71 68.63 112.63" style="fill: #ccb885;"/>
            <polygon points="73.62 117.67 75.5 116.59 72.39 114.8 70.51 115.88 73.62 117.67" style="fill: #ccb885;"/>
            <polygon points="80.49 121.64 82.36 120.55 79.25 118.76 79.25 118.76 75.82 116.78 73.94 117.86 77.38 119.84 80.49 121.64" style="fill: #bdaa7b;"/>
            <polygon points="63.16 112.19 61.29 113.28 67.83 117.05 69.71 115.97 66.6 114.17 63.16 112.19" style="fill: #bdaa7b;"/>
            <polygon points="70.03 116.16 68.15 117.24 71.26 119.04 73.14 117.95 70.03 116.16" style="fill: #ccb885;"/>
            <polygon points="76.57 119.93 73.46 118.14 71.59 119.22 74.7 121.02 76.57 119.93" style="fill: #dbc58e;"/>
            <polygon points="63.92 115.35 60.81 113.55 58.93 114.64 62.04 116.43 63.92 115.35" style="fill: #ccb885;"/>
            <polygon points="64.24 115.54 62.36 116.62 65.47 118.41 67.35 117.33 64.24 115.54" style="fill: #ccb885;"/>
            <polygon points="67.67 117.52 63.44 119.96 66.55 121.76 70.78 119.31 67.67 117.52" style="fill: #ccb885;"/>
            <polygon points="72.34 122.38 74.22 121.3 71.11 119.5 69.23 120.58 72.34 122.38" style="fill: #bdaa7b;"/>
            <polygon points="72.66 122.57 75.77 124.36 77.65 123.28 77.65 123.28 80 121.92 76.9 120.12 74.54 121.48 74.54 121.48 72.66 122.57" style="fill: #ccb885;"/>
            <polygon points="61.56 116.71 58.45 114.92 56.58 116 59.68 117.79 61.56 116.71" style="fill: #dbc58e;"/>
            <polygon points="63.12 119.77 64.99 118.69 61.88 116.9 60.01 117.98 63.12 119.77" style="fill: #bdaa7b;"/>
            <polygon points="70.31 123.93 73.42 125.72 75.29 124.64 72.18 122.84 70.31 123.93" style="fill: #dbc58e;"/>
            <polygon points="59.2 118.07 56.1 116.27 54.22 117.36 57.33 119.15 59.2 118.07" style="fill: #ccb885;"/>
            <polygon points="64.19 123.12 66.07 122.03 59.53 118.26 57.65 119.34 64.19 123.12" style="fill: #dbc58e;"/>
            <polygon points="69.5 124.02 69.5 124.02 71.86 122.65 68.75 120.86 66.39 122.22 66.39 122.22 64.52 123.3 67.63 125.1 69.5 124.02" style="fill: #bdaa7b;"/>
            <polygon points="67.95 125.29 71.06 127.08 72.93 126 69.83 124.2 67.95 125.29" style="fill: #ccb885;"/>
            <polygon points="51.86 118.72 54.97 120.51 56.85 119.43 53.74 117.64 51.86 118.72" style="fill: #bdaa7b;"/>
            <polygon points="57.17 119.62 55.29 120.7 58.4 122.5 60.28 121.41 57.17 119.62" style="fill: #ccb885;"/>
            <polygon points="60.6 121.6 58.73 122.68 61.84 124.48 63.71 123.39 60.6 121.6" style="fill: #dbc58e;"/>
            <polygon points="62.16 124.67 65.59 126.65 65.59 126.65 68.7 128.44 70.58 127.36 69.52 126.75 64.04 123.58 62.16 124.67" style="fill: #bdaa7b;"/>
          </g>
        </g>
      </g>
      <path d="M80.08,114.99c.09.34.39.62,1.23.87.64.19,1.64.07,1.68.05.8.22,1.69.42,2.52.4.52-.01,1.11-.18,1.52-.4.14-.06.27-.14.38-.21.11,0,.22-.03.31-.06l.9-.26h0c.37-.11.56-.4.48-.85,0,0,0-.02,0-.02.65-.15,1.32-.32,2-.51.22-.06.43-.12.65-.18.24-.07.47-.14.7-.21.45-.14.87-.28,1.26-.42h.03c2.43-.87,3.9-1.71,3.76-2.19h0c.05-.2-.07-.36-.34-.48-1.3-.57-5.77-.03-9.98,1.21-.22.06-.43.13-.63.19,0,0,0,0-.01,0-.61-.26-1.13-.34-1.5-.25h0s-.89.26-.89.26l-.07.02c-.27.06-.43.19-.49.41-.31-.03-.61-.04-.91-.03-.92.03-2.01.57-2.06,1.04-.01.12-.02.25-.01.39l.25.31v.42c-.27.06-.83.21-.75.51Z" style="fill: #bdaa7b;"/>
      <path d="M68.88,121.33c.09.34.39.62,1.23.87.64.19,1.64.07,1.68.05.8.22,1.69.42,2.52.4.52-.01,1.11-.18,1.52-.4.14-.06.27-.14.38-.21.11,0,.22-.03.31-.06l.9-.26h0c.37-.11.56-.4.48-.85,0,0,0-.02,0-.02.65-.15,1.32-.32,2-.51.22-.06.43-.12.65-.18.24-.07.47-.14.7-.21.45-.14.87-.28,1.26-.42h.03c2.43-.87,3.89-1.71,3.76-2.19h0c.05-.2-.07-.36-.34-.48-1.3-.57-5.77-.03-9.98,1.21-.22.06-.43.13-.63.19,0,0,0,0-.01,0-.61-.26-1.13-.34-1.5-.25h0s-.89.26-.89.26l-.07.02c-.27.06-.43.19-.49.41-.31-.03-.61-.04-.91-.03-.92.03-2.01.57-2.06,1.04-.01.12-.02.25-.01.39l.25.31v.42c-.27.06-.83.21-.75.51Z" style="fill: #bdaa7b;"/>
      <path d="M41.41,105.92c.09.34.39.62,1.23.87.64.19,1.64.07,1.68.05.8.22,1.69.42,2.52.4.52-.01,1.11-.18,1.52-.4.14-.06.27-.14.38-.21.11,0,.22-.03.31-.06l.9-.26h0c.37-.11.56-.4.48-.85,0,0,0-.02,0-.02.65-.15,1.32-.32,2-.51.22-.06.43-.12.65-.18.24-.07.47-.14.7-.21.45-.14.87-.28,1.26-.42h.03c2.43-.87,3.9-1.71,3.76-2.19h0c.05-.2-.07-.36-.34-.48-1.3-.57-5.77-.03-9.98,1.21-.22.06-.43.13-.63.19,0,0,0,0-.01,0-.61-.26-1.13-.34-1.5-.25h0s-.89.26-.89.26l-.07.02c-.27.06-.43.19-.49.41-.31-.03-.61-.04-.91-.03-.92.03-2.01.57-2.06,1.04-.01.12-.02.25-.01.39l.25.31v.42c-.27.06-.83.21-.75.51Z" style="fill: #bdaa7b;"/>
      <polygon points="45.69 99.79 72.29 116.28 82.04 110.56 83.44 110.78 71.86 117.48 45.27 100.68 45.69 99.79" style="fill: #bdaa7b;"/>
      <path d="M20.61,80.98c.09.34.39.62,1.23.87.64.19,1.64.07,1.68.05.8.22,1.69.42,2.52.4.52-.01,1.11-.18,1.52-.4.14-.06.27-.14.38-.21.11,0,.22-.03.31-.06l.9-.26h0c.37-.11.56-.4.48-.85,0,0,0-.02,0-.02.65-.15,1.32-.32,2-.51.22-.06.43-.12.65-.18.24-.07.47-.14.7-.21.45-.14.87-.28,1.26-.42h.03c2.43-.87,3.89-1.71,3.76-2.19h0c.05-.2-.07-.36-.34-.48-1.3-.57-5.77-.03-9.98,1.21-.22.06-.43.13-.63.19,0,0,0,0-.01,0-.61-.26-1.13-.34-1.5-.25h0s-.89.26-.89.26l-.07.02c-.27.06-.43.19-.49.41-.31-.03-.61-.04-.91-.03-.92.03-2.01.57-2.06,1.04-.01.12-.02.25-.01.39l.25.31v.42c-.27.06-.83.21-.75.51Z" style="fill: #bdaa7b;"/>
      <g>
        <g>
          <polygon points="66.78 90 86 79.11 103.23 89.06 84.02 99.95 66.78 90" style="fill: #b09f72;"/>
          <g>
            <polygon points="104.32 76.08 106.2 75 103.09 73.21 103.09 73.21 99.66 71.23 97.78 72.31 104.32 76.08" style="fill: #ccb885;"/>
            <polygon points="107.76 78.07 109.63 76.98 106.52 75.19 104.65 76.27 107.76 78.07" style="fill: #bdaa7b;"/>
            <polygon points="100.41 74.38 97.3 72.58 95.42 73.67 98.53 75.46 100.41 74.38" style="fill: #dbc58e;"/>
            <polygon points="100.73 74.57 98.86 75.65 101.97 77.45 103.84 76.36 100.73 74.57" style="fill: #bdaa7b;"/>
            <polygon points="104.17 76.55 99.93 78.99 103.04 80.79 107.27 78.34 104.17 76.55" style="fill: #ccb885;"/>
            <polygon points="107.6 78.53 105.72 79.61 108.83 81.41 110.71 80.33 107.6 78.53" style="fill: #bdaa7b;"/>
            <polygon points="98.05 75.74 94.94 73.95 93.07 75.03 96.18 76.82 98.05 75.74" style="fill: #ccb885;"/>
            <polygon points="98.38 75.93 96.5 77.01 99.61 78.81 101.49 77.72 98.38 75.93" style="fill: #ccb885;"/>
            <polygon points="106.48 82.77 108.35 81.69 105.24 79.89 103.37 80.98 106.48 82.77" style="fill: #ccb885;"/>
            <polygon points="95.7 77.1 92.59 75.31 88.35 77.75 91.46 79.55 95.7 77.1" style="fill: #bdaa7b;"/>
            <polygon points="96.02 77.29 94.14 78.37 97.25 80.17 99.13 79.08 96.02 77.29" style="fill: #ccb885;"/>
            <polygon points="99.45 79.27 97.58 80.35 100.69 82.15 102.56 81.07 99.45 79.27" style="fill: #bdaa7b;"/>
            <polygon points="104.12 84.13 105.99 83.05 102.89 81.25 101.01 82.34 104.12 84.13" style="fill: #dbc58e;"/>
            <polygon points="104.44 84.32 107.55 86.11 109.43 85.03 106.32 83.24 104.44 84.32" style="fill: #bdaa7b;"/>
            <polygon points="93.66 78.65 91.79 79.73 94.9 81.53 96.77 80.44 93.66 78.65" style="fill: #ccb885;"/>
            <polygon points="101.76 85.49 103.64 84.41 97.1 80.63 95.22 81.71 101.76 85.49" style="fill: #dbc58e;"/>
            <polygon points="99.73 87.04 102.84 88.83 104.71 87.75 104.71 87.75 107.07 86.39 103.96 84.6 99.73 87.04" style="fill: #ccb885;"/>
            <polygon points="90.98 79.82 87.87 78.03 86 79.11 89.11 80.91 90.98 79.82" style="fill: #dbc58e;"/>
            <polygon points="91.31 80.01 89.43 81.09 92.54 82.89 94.41 81.8 91.31 80.01" style="fill: #bdaa7b;"/>
            <polygon points="94.74 81.99 92.86 83.08 95.97 84.87 97.85 83.79 94.74 81.99" style="fill: #ccb885;"/>
            <polygon points="99.4 86.85 101.28 85.77 98.17 83.97 96.3 85.06 99.4 86.85" style="fill: #bdaa7b;"/>
            <polygon points="88.63 81.18 85.52 79.39 83.64 80.47 86.75 82.27 88.63 81.18" style="fill: #ccb885;"/>
            <polygon points="88.95 81.37 87.07 82.45 90.18 84.25 90.18 84.25 93.61 86.23 95.49 85.15 88.95 81.37" style="fill: #bdaa7b;"/>
            <polygon points="97.37 88.4 100.48 90.2 102.36 89.11 99.25 87.32 97.37 88.4" style="fill: #ccb885;"/>
            <polygon points="86.27 82.54 83.16 80.75 81.28 81.83 84.39 83.63 86.27 82.54" style="fill: #bdaa7b;"/>
            <polygon points="82.36 85.18 85.47 86.97 89.7 84.53 86.59 82.73 82.36 85.18" style="fill: #dbc58e;"/>
            <polygon points="91.26 87.59 93.13 86.51 90.03 84.71 88.15 85.8 91.26 87.59" style="fill: #ccb885;"/>
            <polygon points="96.57 88.49 96.57 88.49 98.92 87.13 95.82 85.33 93.46 86.7 93.46 86.7 91.58 87.78 94.69 89.57 96.57 88.49" style="fill: #dbc58e;"/>
            <polygon points="95.02 89.76 98.12 91.56 100 90.47 96.89 88.68 95.02 89.76" style="fill: #bdaa7b;"/>
            <polygon points="83.91 83.9 80.8 82.11 78.93 83.19 82.04 84.99 83.91 83.9" style="fill: #ccb885;"/>
            <polygon points="88.9 88.95 90.78 87.87 87.67 86.07 85.79 87.16 88.9 88.95" style="fill: #ccb885;"/>
            <polygon points="95.77 92.92 97.64 91.83 94.53 90.04 94.53 90.04 91.1 88.06 89.23 89.14 92.66 91.12 95.77 92.92" style="fill: #bdaa7b;"/>
            <polygon points="78.45 83.47 76.57 84.55 83.11 88.33 84.99 87.25 81.88 85.45 78.45 83.47" style="fill: #bdaa7b;"/>
            <polygon points="85.31 87.43 83.44 88.52 86.54 90.31 88.42 89.23 85.31 87.43" style="fill: #ccb885;"/>
            <polygon points="91.85 91.21 88.74 89.42 86.87 90.5 89.98 92.3 91.85 91.21" style="fill: #dbc58e;"/>
            <polygon points="79.2 86.63 76.09 84.83 74.21 85.92 77.32 87.71 79.2 86.63" style="fill: #ccb885;"/>
            <polygon points="79.52 86.81 77.65 87.9 80.75 89.69 82.63 88.61 79.52 86.81" style="fill: #ccb885;"/>
            <polygon points="82.96 88.8 78.72 91.24 81.83 93.03 86.06 90.59 82.96 88.8" style="fill: #ccb885;"/>
            <polygon points="87.62 93.66 89.5 92.57 86.39 90.78 84.51 91.86 87.62 93.66" style="fill: #bdaa7b;"/>
            <polygon points="87.95 93.84 91.05 95.64 92.93 94.55 92.93 94.55 95.29 93.19 92.18 91.4 89.82 92.76 89.82 92.76 87.95 93.84" style="fill: #ccb885;"/>
            <polygon points="76.84 87.99 73.73 86.19 71.86 87.28 74.96 89.07 76.84 87.99" style="fill: #dbc58e;"/>
            <polygon points="78.4 91.05 80.27 89.97 77.17 88.17 75.29 89.26 78.4 91.05" style="fill: #bdaa7b;"/>
            <polygon points="85.59 95.2 88.7 97 90.57 95.92 87.46 94.12 85.59 95.2" style="fill: #dbc58e;"/>
            <polygon points="74.48 89.35 71.38 87.55 69.5 88.64 72.61 90.43 74.48 89.35" style="fill: #ccb885;"/>
            <polygon points="79.47 94.39 81.35 93.31 74.81 89.54 72.93 90.62 79.47 94.39" style="fill: #dbc58e;"/>
            <polygon points="84.78 95.29 84.78 95.29 87.14 93.93 84.03 92.14 81.67 93.5 81.67 93.5 79.8 94.58 82.91 96.38 84.78 95.29" style="fill: #bdaa7b;"/>
            <polygon points="83.23 96.57 86.34 98.36 88.22 97.28 85.11 95.48 83.23 96.57" style="fill: #ccb885;"/>
            <polygon points="67.14 90 70.25 91.79 72.13 90.71 69.02 88.91 67.14 90" style="fill: #bdaa7b;"/>
            <polygon points="72.45 90.9 70.58 91.98 73.68 93.77 75.56 92.69 72.45 90.9" style="fill: #ccb885;"/>
            <polygon points="75.88 92.88 74.01 93.96 77.12 95.76 78.99 94.67 75.88 92.88" style="fill: #dbc58e;"/>
            <polygon points="77.44 95.94 80.87 97.92 80.87 97.92 83.98 99.72 85.86 98.64 84.8 98.03 79.32 94.86 77.44 95.94" style="fill: #bdaa7b;"/>
          </g>
        </g>
        <g>
          <polygon points="84.02 99.95 103.23 89.06 120.46 99.01 101.25 109.9 84.02 99.95" style="fill: #b09f72;"/>
          <g>
            <polygon points="108.22 89.77 105.11 87.98 103.23 89.06 106.34 90.86 108.22 89.77" style="fill: #dbc58e;"/>
            <polygon points="105.86 91.13 102.75 89.34 100.87 90.42 103.98 92.22 105.86 91.13" style="fill: #ccb885;"/>
            <polygon points="106.18 91.32 104.31 92.4 107.42 94.2 107.42 94.2 110.85 96.18 112.72 95.1 106.18 91.32" style="fill: #bdaa7b;"/>
            <polygon points="114.61 98.35 117.71 100.14 119.59 99.06 116.48 97.27 114.61 98.35" style="fill: #ccb885;"/>
            <polygon points="103.5 92.49 100.39 90.7 98.52 91.78 101.63 93.58 103.5 92.49" style="fill: #bdaa7b;"/>
            <polygon points="99.59 95.13 102.7 96.92 106.93 94.48 103.83 92.68 99.59 95.13" style="fill: #dbc58e;"/>
            <polygon points="108.49 97.54 110.37 96.46 107.26 94.66 105.38 95.75 108.49 97.54" style="fill: #ccb885;"/>
            <polygon points="113.8 98.44 113.8 98.44 116.16 97.08 113.05 95.29 110.69 96.64 110.69 96.64 108.82 97.73 111.92 99.52 113.8 98.44" style="fill: #dbc58e;"/>
            <polygon points="112.25 99.71 115.36 101.51 117.23 100.42 114.12 98.63 112.25 99.71" style="fill: #bdaa7b;"/>
            <polygon points="101.14 93.86 98.04 92.06 96.16 93.14 99.27 94.94 101.14 93.86" style="fill: #ccb885;"/>
            <polygon points="106.13 98.9 108.01 97.82 104.9 96.02 103.03 97.11 106.13 98.9" style="fill: #ccb885;"/>
            <polygon points="113 102.87 114.88 101.78 111.77 99.99 111.77 99.99 108.34 98.01 106.46 99.09 109.89 101.07 113 102.87" style="fill: #bdaa7b;"/>
            <polygon points="95.68 93.42 93.8 94.5 100.35 98.28 102.22 97.2 99.11 95.4 95.68 93.42" style="fill: #bdaa7b;"/>
            <polygon points="102.55 97.39 100.67 98.47 103.78 100.26 105.65 99.18 102.55 97.39" style="fill: #ccb885;"/>
            <polygon points="109.09 101.16 105.98 99.37 104.1 100.45 107.21 102.24 109.09 101.16" style="fill: #dbc58e;"/>
            <polygon points="96.43 96.58 93.32 94.78 91.45 95.86 94.55 97.66 96.43 96.58" style="fill: #ccb885;"/>
            <polygon points="96.76 96.76 94.88 97.85 97.99 99.64 99.86 98.56 96.76 96.76" style="fill: #ccb885;"/>
            <polygon points="100.19 98.75 95.96 101.19 99.06 102.98 103.3 100.54 100.19 98.75" style="fill: #ccb885;"/>
            <polygon points="104.85 103.61 106.73 102.52 103.62 100.73 101.75 101.81 104.85 103.61" style="fill: #bdaa7b;"/>
            <polygon points="105.18 103.79 108.29 105.59 110.16 104.5 110.16 104.5 112.52 103.14 109.41 101.35 107.05 102.71 107.05 102.71 105.18 103.79" style="fill: #ccb885;"/>
            <polygon points="94.07 97.94 90.97 96.14 89.09 97.23 92.2 99.02 94.07 97.94" style="fill: #dbc58e;"/>
            <polygon points="95.63 101 97.51 99.92 94.4 98.12 92.52 99.21 95.63 101" style="fill: #bdaa7b;"/>
            <polygon points="102.82 105.15 105.93 106.95 107.81 105.86 104.7 104.07 102.82 105.15" style="fill: #dbc58e;"/>
            <polygon points="91.72 99.3 88.61 97.5 86.73 98.59 89.84 100.38 91.72 99.3" style="fill: #ccb885;"/>
            <polygon points="96.71 104.35 98.58 103.26 92.04 99.49 90.17 100.57 96.71 104.35" style="fill: #dbc58e;"/>
            <polygon points="102.02 105.24 102.02 105.24 104.37 103.88 101.26 102.09 98.91 103.45 98.91 103.45 97.03 104.53 100.14 106.33 102.02 105.24" style="fill: #bdaa7b;"/>
            <polygon points="100.46 106.51 103.57 108.31 105.45 107.23 102.34 105.43 100.46 106.51" style="fill: #ccb885;"/>
            <polygon points="84.38 99.95 87.48 101.74 89.36 100.66 86.25 98.86 84.38 99.95" style="fill: #bdaa7b;"/>
            <polygon points="89.69 100.85 87.81 101.93 90.92 103.72 92.79 102.64 89.69 100.85" style="fill: #ccb885;"/>
            <polygon points="93.12 102.83 91.24 103.91 94.35 105.71 96.23 104.62 93.12 102.83" style="fill: #dbc58e;"/>
            <polygon points="94.67 105.89 98.11 107.88 98.11 107.88 101.22 109.67 103.09 108.59 102.03 107.98 96.55 104.81 94.67 105.89" style="fill: #bdaa7b;"/>
          </g>
        </g>
      </g>
      <polygon points="113.03 94.72 120.07 98.78 101.75 108.81 84.83 111.11 113.03 94.72" style="fill: #bdaa7b;"/>
      <polygon points="84.19 58.32 84.19 111.48 30.25 80.34 23.96 76.7 20.29 74.59 20.29 21.42 84.19 58.32" style="fill: #7e9d36;"/>
      <polygon points="20.29 21.42 84.19 58.31 84.19 69.92 20.29 33.02 20.29 21.42" style="fill: #ae6312;"/>
      <polygon points="21.23 22.68 84.19 59.03 84.19 69.92 21.23 33.57 21.23 22.68" style="fill: #bb7c38;"/>
      <g>
        <polygon points="73.33 53.86 80.87 58.21 80.87 66.19 73.33 61.83 73.33 53.86" style="fill: #a85200;"/>
        <polygon points="74.15 55.36 80.87 59.24 80.87 66.19 74.15 62.31 74.15 55.36" style="fill: #b46d23;"/>
        <polygon points="73.33 61.27 80.87 65.62 80.87 66.19 73.33 61.83 73.33 61.27" style="fill: #c8955e;"/>
      </g>
      <g>
        <polygon points="33.53 30.88 70.89 52.45 70.89 60.43 33.53 38.86 33.53 30.88" style="fill: #a85200;"/>
        <polygon points="34.36 32.39 70.89 53.48 70.89 60.43 34.36 39.33 34.36 32.39" style="fill: #b46d23;"/>
        <polygon points="33.53 38.29 70.89 59.86 70.89 60.43 33.53 38.86 33.53 38.29" style="fill: #c8955e;"/>
      </g>
      <g>
        <polygon points="23.49 25.08 31.03 29.44 31.03 37.42 23.49 33.06 23.49 25.08" style="fill: #a85200;"/>
        <polygon points="24.32 26.59 31.03 30.47 31.03 37.42 24.32 33.54 24.32 26.59" style="fill: #b46d23;"/>
        <polygon points="23.49 32.49 31.03 36.85 31.03 37.42 23.49 33.06 23.49 32.49" style="fill: #c8955e;"/>
      </g>
      <path d="M45.23,75.05l.6,1.09v13.19s.62.36.62.36v-12.44s.71.41.71.41v12.44s.62.36.62.36v-12.44s.71.41.71.41v12.44s.62.36.62.36v-12.44s.71.41.71.41v12.44s.62.36.62.36v-12.44s1.18.68,1.18.68v-9.25s1.78,1.03,1.78,1.03v11.72s11.44,6.6,11.44,6.6v-11.72s2.53,1.46,2.53,1.46v11.72s11.44,6.6,11.44,6.6v-11.72s5.38,3.11,5.38,3.11v-12.82s-4.58-9.69-4.58-9.69l-33.47-15.43v4.08s-.31-.18-.31-.18v19.67s-.6-.35-.6-.35ZM49.1,67.84l.71,1.01v8.85s-.71-.41-.71-.41v-9.45ZM47.77,65.96l.71,1.01v9.96s-.71-.41-.71-.41v-10.56ZM46.45,64.09l.71,1.01v11.07s-.71-.41-.71-.41v-11.67Z" style="fill: url(#linear-gradient);"/>
      <polygon points="20.29 74.59 84.19 111.48 84.19 108.81 20.29 71.92 20.29 74.59" style="fill: #9cbb6e;"/>
      <polygon points="20.29 72.54 84.19 109.43 84.19 108.81 20.29 71.92 20.29 72.54" style="fill: #d5e2c1;"/>
      <polygon points="113.03 94.72 84.19 111.48 84.19 58.31 113.03 41.55 113.03 94.72" style="fill: #607e1d;"/>
      <polygon points="113.03 41.55 84.19 58.31 84.19 69.92 113.03 53.15 113.03 41.55" style="fill: #a84a00;"/>
      <polygon points="112.09 42.82 84.19 59.03 84.19 69.92 112.09 53.7 112.09 42.82" style="fill: #b35100;"/>
      <g>
        <polygon points="109.83 45.21 87.93 57.86 87.93 65.84 109.83 53.19 109.83 45.21" style="fill: #984000;"/>
        <polygon points="109.01 46.72 87.93 58.89 87.93 65.84 109.01 53.67 109.01 46.72" style="fill: #a84d00;"/>
        <polygon points="109.83 52.63 87.93 65.27 87.93 65.84 109.83 53.19 109.83 52.63" style="fill: #c8955e;"/>
      </g>
      <polygon points="113.03 94.72 84.19 111.48 84.19 108.81 113.03 92.05 113.03 94.72" style="fill: #689f32;"/>
      <polygon points="113.03 92.67 84.19 109.43 84.19 108.81 113.03 92.05 113.03 92.67" style="fill: #b5cc92;"/>
      <polygon points="49.46 57.83 50.08 58.19 50.08 91.79 49.46 91.43 49.46 57.83" style="fill: #74727a;"/>
      <polygon points="48.13 57.07 48.75 57.42 48.75 91.02 48.13 90.66 48.13 57.07" style="fill: #74727a;"/>
      <polygon points="46.8 56.3 47.42 56.65 47.42 90.25 46.8 89.89 46.8 56.3" style="fill: #74727a;"/>
      <polygon points="45.47 55.53 46.09 55.89 46.09 89.48 45.47 89.13 45.47 55.53" style="fill: #74727a;"/>
      <polygon points="45.23 63.13 50.41 66.12 50.41 78.05 45.23 75.05 45.23 63.13" style="fill: #ca9a65;"/>
      <polygon points="45.58 63.8 50.41 66.59 50.41 78.05 45.58 75.26 45.58 63.8" style="fill: #bb7c38;"/>
      <polygon points="66.59 90.46 78.02 97.07 78.02 76.43 66.59 69.83 66.59 90.46" style="fill: #f59454;"/>
      <polygon points="66.59 79.63 78.02 86.23 78.02 76.43 66.59 69.83 66.59 79.63" style="fill: #d47f33;"/>
      <polygon points="67.12 89.75 77.49 95.74 77.49 77.14 67.12 71.16 67.12 89.75" style="fill: #528688;"/>
      <polygon points="77.49 85.92 77.49 95.74 67.96 90.24 67.96 80.42 77.49 85.92" style="fill: #709f9c;"/>
      <polygon points="75.61 84.83 77.49 89.78 77.49 95.74 71.72 92.41 67.96 82.56 67.96 80.42 75.61 84.83" style="fill: #2a5355;"/>
      <polygon points="52.62 82.4 64.06 89 64.06 68.37 52.62 61.76 52.62 82.4" style="fill: #f59454;"/>
      <polygon points="52.62 71.56 64.06 78.16 64.06 68.37 52.62 61.76 52.62 71.56" style="fill: #d47f33;"/>
      <polygon points="53.15 81.69 63.52 87.67 63.52 69.08 53.15 63.09 53.15 81.69" style="fill: #528688;"/>
      <polygon points="63.52 77.86 63.52 87.67 53.99 82.17 53.99 72.36 63.52 77.86" style="fill: #709f9c;"/>
      <polygon points="57 74.09 61.81 86.68 53.99 82.17 53.99 72.36 57 74.09" style="fill: #2a5355;"/>
      <polygon points="28.29 79.21 42.4 87.36 42.4 54.97 28.29 46.82 28.29 79.21" style="fill: #bb7c38;"/>
      <polygon points="29.32 79.8 41.38 86.76 41.38 56.51 29.32 49.55 29.32 79.8" style="fill: #9f5717;"/>
      <path d="M23.97,75.15c.03-.19.07-.37.13-.53-.03-.13-.05-.26-.04-.38v-1.13c0-.46.3-.82.91-.95h.03c-.05-.81-.09-1.64-.1-2.49-.01-.27-.01-.54-.01-.81,0-.3,0-.6.01-.89,0-.57.03-1.11.06-1.61v-.04c.19-3.14.73-5.19,1.4-5.27h0c.23-.14.49-.09.74.15,1.24,1.18,2.23,6.43,2.23,11.74,0,.27,0,.54-.01.8,0,0,.02.01.02.02.58.55.87,1.09.9,1.55h0v1.22c.03.33-.09.57-.34.74.15.33.28.66.38,1,.2.65.16,1.47-.04,2.06l-6.3-3.64c-.1-.52-.08-1.08.02-1.55Z" style="fill: #bdaa7b;"/>
      <path d="M47.85,88.97c.03-.19.07-.37.13-.53-.03-.13-.05-.26-.04-.38v-1.13c0-.46.3-.82.91-.95h.03c-.05-.81-.09-1.64-.1-2.49-.01-.27-.01-.54-.01-.81,0-.3,0-.6.01-.89,0-.57.03-1.11.06-1.61v-.04c.19-3.14.73-5.19,1.4-5.27h0c.23-.14.49-.09.74.15,1.24,1.18,2.23,6.43,2.23,11.74,0,.27,0,.54-.01.8,0,0,.02.01.02.02.58.55.87,1.09.9,1.55h0v1.22c.03.33-.09.57-.34.74.15.33.28.66.38,1,.2.65.16,1.47-.04,2.06l-6.3-3.64c-.1-.52-.08-1.08.02-1.55Z" style="fill: #bdaa7b;"/>
      <polygon points="30.43 80.44 41.38 86.76 41.38 57.43 30.43 51.11 30.43 80.44" style="fill: #b46d23;"/>
      <polygon points="37.39 48.34 28.29 44.86 31.24 52.61 46.8 61.59 46.8 57.37 42.4 45.79 37.39 48.34" style="fill: url(#linear-gradient-2);"/>
      <polygon points="24.22 49.63 28.29 60.55 28.29 47.35 25.93 43.5 24.22 49.63" style="fill: url(#linear-gradient-3);"/>
      <polygon points="23.97 42.37 25.93 43.5 27.26 46.08 22.64 43.42 23.97 42.37" style="fill: #74727a;"/>
      <polygon points="24.25 42.28 25.66 43.1 25.85 43.45 24.06 42.42 24.25 42.28" style="fill: #74727a;"/>
      <polygon points="24.22 49.63 25.68 50.48 26.67 45.74 23.23 43.76 24.22 49.63" style="fill: #4c4a54;"/>
      <polygon points="24.43 48.99 25.47 49.59 26.17 45.74 23.73 44.33 24.43 48.99" style="fill: #9fb569;"/>
      <path d="M24.95,50.05c.16.09.29.4.29.68,0,.28-.29.34-.29.34,0,0-.29-.4-.29-.68s.13-.44.29-.34Z" style="fill: #74727a;"/>
      <path d="M24.95,42.69c-.16-.09-.29-.4-.29-.68s.29-.34.29-.34c0,0,.29.4.29.68,0,.28-.13.43-.29.34Z" style="fill: #74727a;"/>
      <polygon points="49.12 49.67 45.95 47.84 39.65 58.4 42.82 60.23 49.12 49.67" style="fill: #fff0e0;"/>
      <g>
        <polygon points="56.11 53.71 54.2 52.6 47.9 63.16 49.82 64.27 56.11 53.71" style="fill: #f0b678;"/>
        <polygon points="61.2 56.64 59.28 55.54 52.98 66.1 54.9 67.2 61.2 56.64" style="fill: #f0b678;"/>
        <polygon points="66.28 59.57 64.36 58.47 58.07 69.03 59.98 70.14 66.28 59.57" style="fill: #f0b678;"/>
        <polygon points="71.36 62.51 69.45 61.4 63.15 71.97 65.06 73.07 71.36 62.51" style="fill: #f0b678;"/>
        <polygon points="76.44 65.44 74.53 64.34 68.23 74.9 70.14 76 76.44 65.44" style="fill: #f0b678;"/>
        <path d="M44.73,63.23v-1.89s-1.91-1.1-1.91-1.1v1.89c0,.66.4,1.43.89,1.71l.12.07c.49.29.9-.02.9-.68Z" style="fill: #bb7c38;"/>
        <path d="M49.81,66.16v-1.89s-1.91-1.1-1.91-1.1v1.89c0,.66.4,1.43.89,1.71l.12.07c.5.29.9-.02.9-.68Z" style="fill: #bb7c38;"/>
        <path d="M54.9,69.1v-1.89s-1.91-1.1-1.91-1.1v1.89c0,.66.4,1.42.89,1.71l.12.07c.49.29.9-.02.9-.68Z" style="fill: #bb7c38;"/>
        <path d="M59.98,72.03v-1.89s-1.91-1.1-1.91-1.1v1.89c0,.66.4,1.43.89,1.71l.12.07c.49.29.9-.02.9-.68Z" style="fill: #bb7c38;"/>
        <path d="M65.06,74.96v-1.89s-1.91-1.1-1.91-1.1v1.89c0,.66.4,1.43.89,1.71l.12.07c.49.29.89-.02.9-.68Z" style="fill: #bb7c38;"/>
        <path d="M70.14,77.9v-1.89s-1.91-1.1-1.91-1.1v1.89c0,.66.4,1.43.89,1.71l.12.07c.49.29.9-.02.9-.68Z" style="fill: #bb7c38;"/>
        <polygon points="54.2 52.6 51.03 50.77 44.73 61.33 47.9 63.16 54.2 52.6" style="fill: #fff0e0;"/>
        <polygon points="59.28 55.54 56.11 53.71 49.82 64.27 52.98 66.1 59.28 55.54" style="fill: #fff0e0;"/>
        <polygon points="64.36 58.47 61.2 56.64 54.9 67.2 58.07 69.03 64.36 58.47" style="fill: #fff0e0;"/>
        <polygon points="69.45 61.4 66.28 59.57 59.98 70.14 63.15 71.97 69.45 61.4" style="fill: #fff0e0;"/>
        <polygon points="74.53 64.34 71.36 62.51 65.06 73.07 68.23 74.9 74.53 64.34" style="fill: #fff0e0;"/>
        <polygon points="79.61 67.27 76.44 65.44 70.14 76 73.31 77.83 79.61 67.27" style="fill: #fff0e0;"/>
        <path d="M42.82,61.34v-1.11s-3.17-1.83-3.17-1.83v1.11c0,1.09.66,2.36,1.48,2.84l.2.12c.82.47,1.48-.03,1.49-1.12Z" style="fill: #e4ccb1;"/>
        <path d="M47.9,64.27v-1.11s-3.17-1.83-3.17-1.83v1.11c0,1.09.66,2.36,1.48,2.84l.2.12c.82.47,1.48-.03,1.49-1.12Z" style="fill: #e4ccb1;"/>
        <path d="M52.99,67.21v-1.11s-3.17-1.83-3.17-1.83v1.11c0,1.09.66,2.36,1.48,2.84l.2.12c.82.47,1.48-.03,1.49-1.12Z" style="fill: #e4ccb1;"/>
        <path d="M58.07,70.14v-1.11s-3.17-1.83-3.17-1.83v1.11c0,1.09.66,2.36,1.48,2.84l.2.12c.82.47,1.48-.03,1.49-1.12Z" style="fill: #e4ccb1;"/>
        <path d="M63.15,73.07v-1.11s-3.17-1.83-3.17-1.83v1.11c0,1.09.66,2.36,1.48,2.84l.2.12c.82.47,1.48-.03,1.49-1.12Z" style="fill: #e4ccb1;"/>
        <path d="M68.23,76.01v-1.11s-3.17-1.83-3.17-1.83v1.11c0,1.09.66,2.36,1.48,2.84l.2.12c.82.47,1.48-.03,1.48-1.12Z" style="fill: #e4ccb1;"/>
        <path d="M73.31,78.94v-1.11s-3.17-1.83-3.17-1.83v1.11c0,1.09.66,2.36,1.48,2.84l.2.12c.82.47,1.48-.03,1.49-1.12Z" style="fill: #e4ccb1;"/>
      </g>
      <polygon points="25.28 47.22 24.62 46.84 24.62 49.1 25.28 49.48 25.28 47.22" style="fill: #f2c252;"/>
      <g>
        <path d="M31.81,58.58c0-2.61,1.59-3.81,3.54-2.68l.48.28c1.96,1.13,3.54,4.16,3.54,6.77v18.13s-7.57-4.37-7.57-4.37v-18.13Z" style="fill: #528688;"/>
        <path d="M34.8,56.82c.28.06.58.18.89.36l.46.27c1.78,1.03,3.22,3.57,3.22,5.67v17.96s-6.89-3.98-6.89-3.98v-17.96c0-1.73.98-2.62,2.31-2.32Z" style="fill: #709f9c;"/>
        <polygon points="33.53 64.23 38.46 67.08 38.46 69.25 33.53 66.41 33.53 64.23" style="fill: #528688;"/>
        <polygon points="33.41 64.02 38.33 66.86 38.33 69.04 33.41 66.19 33.41 64.02" style="fill: #a8cfc2;"/>
        <g>
          <path d="M37.07,66.76c.09-.06.2-.05.31.02.11.06.2.16.29.3.11.17.16.35.16.53,0,.18-.05.29-.16.34-.09.04-.18.03-.29-.03-.12-.07-.22-.18-.31-.34-.09-.16-.14-.32-.14-.49s.05-.27.14-.33ZM37.18,67.51c.06.11.13.18.2.23s.14.04.2,0c.06-.04.09-.12.09-.23,0-.11-.03-.22-.09-.33-.06-.11-.12-.18-.2-.23-.07-.04-.14-.05-.2,0-.06.04-.09.11-.09.23,0,.11.03.22.09.33Z" style="fill: #deede7;"/>
          <path d="M36.37,66.93c-.07-.04-.12-.08-.16-.12-.04-.04-.08-.09-.12-.15s-.07-.11-.08-.15c-.02-.06-.03-.12-.03-.17,0-.1.03-.16.1-.19.06-.03.15-.02.26.05l.37.21s.07.05.08.07.02.05.02.08,0,.05-.02.05c-.02,0-.04,0-.08-.02l-.02-.02v.72s.02.01.02.01c.04.02.07.05.08.07.02.03.02.05.02.08,0,.03,0,.05-.02.05-.02,0-.04,0-.08-.02l-.35-.2s-.07-.05-.08-.07-.02-.05-.02-.08c0-.03,0-.04.02-.05.02,0,.04,0,.08.02l.16.09v-.19s-.15-.09-.15-.09ZM36.52,66.84v-.35s-.18-.11-.18-.11c-.06-.04-.11-.05-.14-.03s-.05.04-.05.08c0,.05.02.11.06.17s.1.11.17.15l.15.09h0Z" style="fill: #deede7;"/>
          <path d="M35.49,66.35s0,.08-.01.09c-.02.02-.04.02-.07,0-.03-.02-.05-.04-.07-.08,0-.02-.01-.05-.01-.09v-.21s0-.07.02-.08c.01-.01.03,0,.06,0,.03.02.05.05.07.08,0,.02.01.05.01.1l.14.08v-.27s-.37-.22-.37-.22v.1s0,.07-.02.08c-.02,0-.03,0-.06,0-.02-.01-.04-.04-.06-.06-.02-.03-.02-.06-.02-.11v-.28l.72.41s.07.05.08.07c.02.03.02.05.02.08,0,.03,0,.05-.02.05-.02,0-.04,0-.08-.02l-.02-.02v.72s.02.02.02.02c.04.02.07.05.08.07.02.03.02.05.02.08,0,.03,0,.05-.02.05-.02,0-.04,0-.08-.02l-.75-.43v-.28s0-.07.02-.08c.01-.01.03,0,.06,0,.02.01.04.04.06.06s.02.06.02.11v.1s.41.24.41.24v-.27s-.14-.08-.14-.08Z" style="fill: #deede7;"/>
          <path d="M34.29,66.11l-.16-.09v-.9s-.06-.04-.07-.07c-.02-.03-.02-.05-.02-.08s0-.05.02-.05c.02,0,.04,0,.08.02l.21.12s.07.05.08.07c.02.03.02.05.02.08s0,.05-.02.05-.04,0-.08-.02l-.06-.03v.55s.41-.5.41-.5l.18.11s.07.05.08.07c.02.03.02.05.02.08,0,.03,0,.05-.02.05-.02,0-.04,0-.08-.02h-.02s0,.7,0,.7c.03.02.06.04.08.07.02.03.02.05.02.08s0,.05-.02.05-.04,0-.08-.02l-.21-.12s-.07-.05-.08-.07c-.02-.03-.02-.05-.02-.08s0-.04.02-.05.04,0,.08.02l.06.03v-.56s-.41.5-.41.5Z" style="fill: #deede7;"/>
        </g>
        <path d="M34.8,56.82l4.58,11.99v12.26s-2.68-1.55-2.68-1.55l-4.2-11.01v-9.39c0-1.73.98-2.62,2.31-2.32Z" style="fill: #2a5355;"/>
        <polygon points="31.81 76.71 39.38 81.08 39.38 81.44 31.81 77.08 31.81 76.71" style="fill: #debf9e;"/>
      </g>
      <g>
        <polygon points="39.79 76.43 40.91 73.26 41.21 73.64 41.21 77.46 40.09 76.82 39.79 76.43" style="fill: url(#linear-gradient-4);"/>
        <polygon points="39.79 72.62 40.91 73.26 40.91 77.08 39.79 76.43 39.79 72.62" style="fill: #b3aa5b;"/>
        <polygon points="38.4 73.08 40.7 73.62 40.91 74.06 40.91 75.16 38.91 74 38.4 73.08" style="fill: url(#linear-gradient-5);"/>
        <polygon points="39.79 72.62 40.91 73.26 40.91 73.39 39.79 72.74 39.79 72.62" style="fill: #ddd877;"/>
        <polygon points="38.23 72.19 40.7 73.62 40.7 74.41 38.23 72.99 38.23 72.19" style="fill: #e9e47e;"/>
        <polygon points="38.23 72.19 40.7 73.62 40.7 73.72 38.23 72.29 38.23 72.19" style="fill: #e4ff8c;"/>
      </g>
      <g>
        <path d="M66.63,54.22l-1.07-.62-.05-.34,1.07.62-.26-1.56-.61-.35c-.06-.04-.12-.06-.16-.07-.04,0-.08,0-.1.01s-.05.04-.06.08-.02.08-.02.13c0,0,0,.02,0,.04,0,.02,0,.05,0,.08,0,.03,0,.06,0,.1,0,.03,0,.07,0,.1l-.32-.19-.16-1.05,2.48,1.43.05.3-.06-.03s-.09-.05-.13-.07c-.04-.02-.07-.03-.1-.03-.03,0-.05,0-.07.02s-.02.04-.02.08c0,.03,0,.09.03.19l.46,2.75c.01.07.03.14.06.2.03.06.06.11.1.15s.08.08.12.11c.04.03.09.06.14.09l.06.03.05.3-1.55-.89-.05-.3.06.03s.09.05.13.07c.04.02.08.03.11.04s.05,0,.07-.01c.02-.01.02-.04.02-.08,0-.01,0-.04,0-.07s-.01-.07-.02-.11l-.2-1.16Z" style="fill: #fff0e0;"/>
        <path d="M62.81,53.69c-.07-.06-.13-.12-.19-.19-.06-.06-.11-.13-.16-.19-.05-.06-.09-.12-.13-.18l.1-.15c.05.06.09.11.13.15.04.04.08.08.12.1.05.03.09.03.11,0,.03-.03.04-.08.04-.17,0-.03,0-.08,0-.13,0-.05-.01-.11-.02-.17s-.02-.11-.02-.17-.02-.09-.02-.13l-.3-1.79.24.14.24.26s.07,0,.12,0,.1.02.16.03c.06.01.11.04.17.06.06.02.12.05.18.09.15.09.29.2.42.33.13.13.25.28.35.44.11.16.2.33.28.5s.15.35.2.53c.05.17.1.34.12.51.03.16.04.31.04.45,0,.13-.01.25-.04.35-.03.1-.07.18-.12.23-.05.05-.12.08-.2.08-.08,0-.18-.03-.28-.09-.11-.06-.21-.14-.29-.22-.08-.08-.16-.17-.23-.27s-.13-.22-.18-.34c-.05-.13-.11-.26-.17-.42l-.03-.02c.01.07.02.14.02.19,0,.05,0,.11,0,.16,0,.14-.04.21-.12.24-.08.02-.19,0-.32-.08-.08-.05-.16-.1-.22-.16ZM64.27,53.31c-.01-.12-.04-.26-.07-.39-.03-.14-.07-.27-.11-.41-.05-.14-.1-.27-.15-.39-.06-.12-.12-.23-.2-.32-.07-.09-.15-.17-.24-.22-.06-.03-.11-.05-.17-.06-.05,0-.09,0-.12.04l.16.95c.02.15.06.31.11.47.05.16.1.32.17.46.06.14.13.27.2.37.07.11.14.18.2.22.04.02.07.03.1.03s.06-.02.08-.04c.02-.03.04-.07.05-.13.01-.06.02-.14.02-.24s0-.21-.02-.33Z" style="fill: #fff0e0;"/>
        <path d="M58.33,51.09c-.07-.06-.13-.12-.19-.19-.06-.07-.11-.13-.15-.2-.04-.07-.09-.14-.12-.2l.11-.11c.05.07.1.13.14.17s.08.08.13.11c.05.03.09.03.12,0,.03-.02.04-.07.04-.15,0-.07,0-.15-.02-.24-.01-.09-.03-.18-.05-.29l-.1-.61s-.02-.1-.02-.16-.02-.11-.03-.17c0-.06-.01-.11-.02-.16,0-.05,0-.1,0-.14,0-.08,0-.15.02-.21.02-.06.05-.11.08-.14.04-.03.09-.05.15-.04s.14.03.23.09c.1.06.18.12.27.19.08.07.15.15.22.25.07.09.13.19.19.3.06.11.12.23.17.37l.03.02v-.04c0-.08,0-.14.02-.2.02-.06.04-.1.08-.13s.09-.04.15-.04c.06,0,.14.04.23.09.09.05.17.11.25.18.08.07.15.14.22.23s.13.18.2.29c.06.11.12.23.18.37l.03.02-.09-.58,1.05.6.04.3-.08-.05s-.08-.04-.11-.05-.05-.02-.07-.01c-.02,0-.03.02-.04.04,0,.02-.01.06-.01.11,0,0,0,.02,0,.03,0,.02,0,.04,0,.06,0,.02,0,.05.01.07,0,.03,0,.05.01.08l.38,2.28-.68-.39-.25-1.45c-.01-.07-.03-.15-.05-.24-.02-.09-.05-.19-.09-.29s-.07-.2-.11-.3c-.04-.1-.08-.19-.13-.28-.05-.08-.09-.16-.14-.22-.05-.06-.1-.11-.15-.14-.03-.02-.06-.03-.08-.02-.02,0-.03.02-.04.04s-.02.05-.02.08c0,.03,0,.06,0,.1,0,.04,0,.09,0,.15,0,.06.01.11.02.17,0,.06.02.11.02.17,0,.05.01.1.02.13l.07.4c0,.06.02.13.03.2s.02.16.04.25.02.17.04.26.02.17.03.24c0,.07.02.14.02.19,0,.05,0,.09,0,.11l-.7-.4s0-.04,0-.09,0-.11-.02-.17c0-.07-.01-.14-.02-.22,0-.08-.02-.16-.03-.23,0-.08-.02-.15-.02-.21,0-.07-.01-.12-.02-.16l-.04-.24c-.01-.07-.03-.16-.05-.26-.02-.1-.05-.2-.08-.3s-.07-.21-.11-.32c-.04-.1-.08-.2-.13-.29-.05-.09-.09-.17-.14-.23-.05-.07-.1-.11-.14-.14-.04-.02-.07-.03-.09-.02-.02,0-.04.02-.05.04s-.02.05-.03.08c0,.03,0,.06,0,.1,0,.04,0,.09,0,.15,0,.06.01.11.02.17s.02.11.03.17.02.1.02.14l.08.45c.02.15.04.27.05.38s.02.2.02.27c0,.17-.05.27-.14.31-.09.04-.23.01-.4-.09-.08-.05-.16-.1-.23-.16Z" style="fill: #fff0e0;"/>
        <path d="M57.5,47.83l.04.3-.08-.05s-.08-.04-.11-.05-.05-.02-.07-.01c-.02,0-.03.02-.04.04,0,.02-.01.06-.01.11,0,0,0,.02,0,.03,0,.02,0,.04,0,.06,0,.02,0,.05.01.07s0,.05.01.08l.18,1.06c.02.15.04.27.05.38s.02.2.02.27c0,.17-.05.27-.14.31s-.23.01-.4-.09c-.08-.05-.16-.1-.23-.16-.07-.06-.13-.12-.19-.19-.06-.07-.11-.14-.15-.2-.05-.07-.09-.14-.12-.2l.11-.11c.05.07.1.12.14.17.04.04.08.08.13.11.05.03.09.03.12,0,.03-.02.04-.08.04-.15s0-.15-.02-.24c-.01-.09-.03-.18-.04-.29l-.31-1.86,1.07.62ZM56.58,46.81c-.05-.05-.1-.1-.14-.16-.04-.06-.07-.12-.1-.19-.02-.07-.04-.14-.04-.21s.01-.1.03-.13c.02-.03.05-.05.08-.06.03,0,.07,0,.11,0,.04.01.09.03.14.06.06.03.11.07.16.12.05.05.1.1.13.15.04.06.07.12.09.18.02.07.03.14.03.21,0,.05,0,.1-.03.13-.02.03-.04.05-.08.06s-.07,0-.11,0-.09-.03-.14-.06c-.05-.03-.11-.07-.16-.12Z" style="fill: #fff0e0;"/>
        <path d="M55.24,48.88s.04-.08.04-.15c0-.07,0-.15-.02-.24s-.03-.18-.04-.29l-.54-3.15,1.09.63.04.3-.1-.05s-.08-.04-.11-.06-.06-.02-.08-.01c-.02,0-.03.02-.04.04s-.01.06-.01.11c0,0,0,.02,0,.03,0,.02,0,.04,0,.06,0,.02,0,.05.01.07s0,.05.01.08l.39,2.35c.05.29.07.51.07.66,0,.17-.05.27-.14.31s-.23.01-.4-.09c-.08-.05-.16-.1-.23-.16-.07-.06-.13-.12-.19-.19-.06-.07-.11-.13-.15-.2-.05-.07-.09-.14-.12-.2l.11-.11c.05.07.1.12.14.17s.08.08.13.11c.05.03.09.03.11,0Z" style="fill: #fff0e0;"/>
        <path d="M53.69,48.54c.08.16.16.31.25.45.09.14.18.28.27.41.1.13.2.25.32.35s.24.2.38.28c.09.05.17.09.23.11.06.02.11.04.15.04l.07.33c-.06,0-.14-.03-.22-.06-.08-.03-.17-.07-.25-.12-.15-.09-.29-.18-.42-.29s-.24-.21-.35-.33c-.11-.12-.21-.25-.3-.4s-.19-.3-.28-.47-.19-.36-.28-.56-.2-.42-.31-.66c-.13-.29-.25-.55-.36-.8-.1-.25-.19-.48-.27-.69-.07-.21-.13-.4-.17-.58-.04-.17-.06-.33-.06-.46,0-.14.03-.23.09-.27s.15-.03.28.04c.05.03.1.07.14.11.04.05.08.1.11.16.03.06.06.12.08.18s.03.13.03.2c-.09-.05-.16-.06-.21-.03-.05.03-.07.11-.07.22s.02.22.05.36c.03.14.08.29.14.46.06.17.13.34.21.53.08.19.16.37.25.56h.01s0-.09.02-.16c.01-.07.02-.15.04-.23.01-.08.03-.16.05-.24.02-.08.03-.15.05-.21l.3-1.17.88.51.05.31-.04-.02c-.09-.05-.16-.07-.2-.06-.05.01-.08.06-.11.15l-.56,2.03Z" style="fill: #fff0e0;"/>
        <path d="M49.56,45.4c.13-.09.2-.27.2-.57,0-.15-.01-.32-.03-.5-.02-.18-.06-.36-.1-.54-.04-.18-.1-.36-.16-.54-.06-.18-.14-.35-.22-.5s-.17-.29-.27-.41c-.1-.12-.21-.21-.33-.28-.08-.05-.15-.06-.2-.04-.05.02-.09.06-.12.12-.03.06-.04.13-.05.21,0,.08-.01.16-.01.23-.09-.05-.17-.11-.25-.18-.08-.07-.14-.13-.2-.21s-.1-.15-.13-.22-.05-.15-.05-.23.02-.17.05-.22c.04-.06.09-.09.17-.1s.17,0,.28.04c.11.04.24.1.39.18.2.12.39.26.57.42s.34.34.48.54c.15.2.28.4.4.62.12.22.21.44.3.67.08.23.14.45.18.68.04.23.06.44.06.65s-.03.4-.09.54c-.06.14-.15.23-.27.28-.12.05-.26.06-.43.02-.17-.04-.36-.12-.58-.24-.17-.1-.32-.21-.45-.33s-.24-.24-.33-.36c-.09-.12-.15-.24-.2-.35-.04-.11-.07-.21-.07-.3,0-.04,0-.07.02-.09.02-.02.03-.04.05-.04.04.08.08.16.13.25.05.09.11.17.17.25s.14.16.22.24.18.14.28.2c.26.15.45.18.58.09Z" style="fill: #fff0e0;"/>
        <path d="M45.42,43.66c-.07-.06-.13-.12-.19-.19-.06-.06-.11-.13-.16-.19s-.09-.12-.13-.18l.1-.15c.05.06.09.11.13.15.04.04.08.08.12.1.05.03.09.03.11,0s.04-.08.04-.17c0-.03,0-.08,0-.13,0-.05-.01-.11-.02-.17s-.02-.11-.02-.17-.02-.09-.02-.13l-.3-1.79.24.14.24.26s.07,0,.12,0,.1.02.16.03c.06.01.11.04.17.06.06.02.12.05.18.09.15.09.29.2.42.33.13.13.25.28.35.44.11.16.2.33.28.5.08.17.15.35.2.52.05.17.1.34.12.51.03.16.04.31.04.45,0,.13-.01.25-.04.35-.03.1-.07.18-.12.23-.05.05-.12.08-.2.08-.08,0-.18-.03-.28-.09-.11-.06-.21-.14-.29-.22-.08-.08-.16-.17-.23-.27-.07-.1-.13-.22-.18-.34s-.11-.26-.17-.42l-.03-.02c.01.07.02.14.02.19,0,.05,0,.11,0,.16,0,.14-.04.21-.12.24s-.19,0-.32-.08c-.08-.05-.16-.1-.22-.16ZM46.89,43.27c-.01-.13-.04-.26-.07-.39-.03-.14-.07-.27-.11-.41s-.1-.27-.15-.39c-.06-.12-.12-.23-.2-.32-.07-.09-.15-.17-.24-.22-.06-.03-.11-.05-.17-.06-.05,0-.09,0-.12.04l.16.95c.02.15.06.31.11.47.05.16.1.32.17.46.06.14.13.27.2.37.07.11.14.18.2.22.04.02.07.03.1.03s.06-.02.08-.04c.02-.03.04-.07.05-.13.01-.06.02-.14.02-.24,0-.1,0-.21-.02-.33Z" style="fill: #fff0e0;"/>
        <path d="M42.81,39.35l.57.33-.06-.36c-.03-.21-.07-.38-.12-.5s-.12-.21-.22-.27c-.04-.02-.08-.03-.1-.02-.03.01-.05.04-.06.08s-.03.08-.03.14c0,.06-.01.12-.01.18-.17-.1-.3-.2-.39-.32-.09-.11-.13-.23-.13-.34,0-.06.02-.11.05-.15.03-.04.07-.06.13-.07.06,0,.13,0,.22.03.09.03.19.08.31.14.15.09.29.19.4.3.12.11.22.23.3.37.09.14.16.28.22.44s.11.34.14.53l.04.21.43.36.04.27-.41-.24.46,2.73c.03.19.06.35.1.49.04.13.08.25.12.34s.1.17.15.23.12.11.2.15c.03.02.07.04.11.05.04.02.07.02.1.03l.05.33s-.03,0-.05-.02-.05-.02-.07-.03-.05-.02-.08-.03c-.03-.01-.05-.02-.07-.04-.08-.05-.16-.1-.25-.17-.09-.07-.17-.14-.25-.23s-.16-.18-.24-.3-.15-.23-.22-.37c-.07-.14-.13-.29-.18-.46-.05-.17-.1-.36-.13-.56l-.43-2.56-.57-.33-.06-.39Z" style="fill: #fff0e0;"/>
        <path d="M41.97,41.13c.08-.06.12-.19.12-.39,0-.03,0-.06,0-.1s0-.07,0-.11c-.03-.01-.06-.03-.09-.04s-.06-.03-.08-.05c-.19-.11-.37-.24-.54-.4s-.31-.31-.42-.48c-.12-.17-.21-.33-.28-.5-.07-.17-.1-.32-.1-.46,0-.19.06-.31.18-.35.12-.04.29,0,.5.13.17.1.32.21.46.34s.27.28.38.43.21.32.3.49.16.34.22.51c.06.17.1.33.13.49s.04.3.04.43c0,.18-.03.32-.08.43-.05.1-.13.17-.22.21-.09.04-.2.04-.32.01s-.25-.08-.39-.16c-.15-.09-.29-.18-.4-.29-.11-.1-.2-.2-.28-.3s-.13-.19-.16-.28-.05-.17-.05-.23c0-.04,0-.08.02-.12,0-.03.02-.06.04-.07.03.07.07.14.11.22.05.08.1.15.15.22.06.07.12.14.18.2.07.06.14.12.21.16.17.1.29.11.37.05ZM41.28,38.82s-.06.11-.06.21c0,.11.02.22.06.33.04.11.1.22.17.32s.15.2.25.29c.1.09.2.17.31.23l.04.02c-.02-.13-.05-.27-.08-.42-.04-.15-.08-.29-.14-.42-.05-.13-.11-.25-.18-.35-.07-.1-.14-.17-.21-.21-.07-.04-.13-.04-.16,0Z" style="fill: #fff0e0;"/>
      </g>
      <polygon points="28.29 37.64 42.4 45.79 38.09 52.38 23.98 44.23 28.29 37.64" style="fill: #fff0e0;"/>
      <polygon points="23.98 46.34 38.09 54.49 38.09 52.38 23.98 44.23 23.98 46.34" style="fill: #e4ccb1;"/>
      <polygon points="51.03 50.77 49.12 49.67 42.82 60.23 44.73 61.33 51.03 50.77" style="fill: #f0b678;"/>
      <g>
        <polygon points="19.08 20.73 84.88 58.79 84.88 55.09 19.08 17.03 19.08 20.73" style="fill: #d1d1d2;"/>
        <polygon points="84.88 55.09 84.88 58.79 114.47 41.75 114.47 38.06 84.88 55.09" style="fill: #696a6c;"/>
        <polygon points="19.08 17.03 84.88 55.09 114.47 38.06 48.68 0 19.08 17.03" style="fill: #efefef;"/>
        <polygon points="84.88 53.58 21.7 17.03 48.68 1.51 111.85 38.06 84.88 53.58" style="fill: #8a9fa0;"/>
        <polygon points="48.68 1.51 21.7 17.03 23.91 18.31 48.68 4.05 48.68 1.51" style="fill: #a3a3a3;"/>
        <polygon points="109.64 39.33 111.85 38.06 48.68 1.51 48.68 4.05 109.64 39.33" style="fill: #ccc;"/>
        <polygon points="21.7 17.03 84.88 53.58 86.01 52.93 25.83 18.08 49.44 4.49 48.68 1.51 21.7 17.03" style="fill: #d1d1d1;"/>
      </g>
      <g>
        <path d="M75.87,79.7h0s.06.04.06.04c.09.06.18.12.28.16l1.21.73.88-1.59c2.23-1.35,4.02-4.47,4.02-7.04,0-.09,0-.17-.01-.26l.69-1.26-1.02-.63h0c-.75-.47-1.8-.43-2.98.25-2.27,1.31-4.11,4.49-4.11,7.1,0,1.18.38,2.03.99,2.5Z" style="fill: #e0a259;"/>
        <polygon points="79.7 64.94 80.08 65.16 80.08 70.38 79.7 70.16 79.7 64.94" style="fill: #3b3944;"/>
        <polygon points="83.53 62.55 79.89 64.63 79.89 65.47 83.53 63.39 83.53 62.55" style="fill: #3b3944;"/>
        <path d="M79.89,64.28c.37.21.67.73.67,1.15s-.3.59-.67.38c-.37-.21-.67-.73-.67-1.15s.3-.59.67-.38Z" style="fill: #3b3944;"/>
        <path d="M79.82,64.3c.29.17.52.58.52.92s-.23.49-.52.32-.52-.58-.52-.92.23-.49.52-.32Z" style="fill: #626069;"/>
        <polygon points="79.89 64.65 78.93 65.47 79.89 65.5 79.89 64.65" style="fill: #3b3944;"/>
        <path d="M80.19,70.84c-2.27,1.31-4.11,4.49-4.11,7.1s1.84,3.66,4.11,2.35c2.27-1.31,4.11-4.49,4.11-7.1s-1.84-3.66-4.11-2.35Z" style="fill: #bb7c38;"/>
      </g>
      <g>
        <g>
          <g>
            <path d="M43.9,93.86v.71c0,.3.18.61.58.84.78.45,2.04.45,2.83,0,.42-.24.62-.51.59-.82v-.77s-.55,0-.55,0c-.01,0-.02-.02-.04-.02-.78-.45-2.04-.45-2.83,0-.03.02-.05.04-.08.05h-.51Z" style="fill: #e2c9ac;"/>
            <path d="M44.49,93.05c.78-.45,2.05-.45,2.83,0,.78.45.77,1.18,0,1.63s-2.05.45-2.83,0c-.78-.45-.77-1.18,0-1.63Z" style="fill: #f1e5d7;"/>
          </g>
          <g>
            <path d="M46.42,87.58c1.19.53,2.12,1.61,2.57,2.89.33.93.03,2.51-.58,3.02-.84.71-2.15,1.5-3.34.97-1.19-.53-2.02-1.64-2.47-2.92-.33-.93-.13-2.48.48-2.99.84-.71,2.15-1.5,3.34-.97Z" style="fill: #c1894b;"/>
            <path d="M46.12,87.44c1.08.49,1.81,2.09,2.22,3.28.29.86-.02,1.58-.43,2.18-.62.92-1.96,1.72-3.04,1.24s-1.83-1.77-2.24-2.96c-.29-.86-.11-2.34.45-2.82.77-.66,1.96-1.41,3.04-.92Z" style="fill: #cea271;"/>
          </g>
          <path d="M44.47,89.66c.67.29,1.25.93,1.3,1.44.05.51-.44.69-1.11.4s-1.25-.93-1.3-1.44c-.05-.51.44-.69,1.11-.4Z" style="fill: #d7b38b;"/>
          <g>
            <path d="M42.61,87.6v1.12c-.01.48.29.96.92,1.33,1.23.71,3.24.71,4.48,0,.67-.38.98-.8.93-1.3v-1.22s-.86.01-.86.01c-.02-.01-.04-.03-.06-.04-1.23-.71-3.24-.71-4.48,0-.05.03-.08.06-.12.09h-.81Z" style="fill: #e2c9ac;"/>
            <path d="M43.55,86.31c1.24-.72,3.24-.72,4.48,0s1.23,1.87-.01,2.58c-1.24.72-3.24.72-4.48,0-1.23-.71-1.23-1.87.01-2.58Z" style="fill: #f1e5d7;"/>
            <path d="M43.91,86.53s0,0,.01,0c0,0,.01-.01.02-.02,1.01-.57,2.6-.58,3.62-.03.02,0,.05.02.07.04.32.18.53.39.65.62.18.33.16.67-.06.99-.13.2-.33.38-.6.54-.06.04-.13.07-.2.1-.93.44-2.24.47-3.2.07-.03,0-.05-.02-.08-.04-.09-.03-.17-.08-.25-.12-1.02-.59-1.02-1.55,0-2.15Z" style="fill: #776e7a;"/>
          </g>
        </g>
        <path d="M43.47,82.15c0-.57.03-1.12.06-1.64v-.04c.19-2.97.73-5.13,1.43-5.79h0c.24-.23.5-.28.76-.12,1.26.72,2.28,5.62,2.28,10.92,0,.6-.01,1.18-.04,1.74,0,.02,0,.05,0,.07,0,.06,0,.12,0,.18,0,0,0,0,0,.01-.01.11-.06.22-.13.33-.1.16-.27.32-.5.44-.05.03-.1.06-.16.08,0,0,0,0-.01,0-.76.36-1.84.38-2.62.05-.02-.01-.04-.01-.07-.03-.07-.03-.14-.07-.21-.1-.23-.13-.39-.29-.5-.46-.03-.23-.05-.45-.08-.69-.02-.17-.04-.35-.05-.52-.08-.88-.13-1.8-.16-2.75-.01-.27-.01-.54-.01-.81,0-.3,0-.6,0-.89Z" style="fill: #a7bb2a;"/>
        <path d="M43.47,82.15c.01-.57.03-1.12.06-1.64v-.04c.19-3.21.74-5.46,1.43-5.79h0c.13-.06.26-.05.39.02,1.05.61,1.9,5.32,1.9,10.53,0,.41,0,.81-.02,1.2,0,.04,0,.08,0,.13-.02.62-.05,1.22-.09,1.78-.76.36-1.84.38-2.62.05-.02-.01-.04-.01-.07-.03-.07-.03-.14-.07-.21-.1-.23-.13-.39-.29-.5-.46-.03-.05-.05-.09-.07-.14-.01-.14-.02-.28-.04-.42-.02-.21-.04-.42-.05-.63-.06-.88-.11-1.81-.12-2.77-.01-.27-.01-.54-.01-.81,0-.3,0-.6,0-.89Z" style="fill: #bfd438;"/>
        <path d="M44.84,76.17c-.56-.34-1.06,1.6-1.13,4.32-.07,2.73.33,5.21.89,5.55.56.34,1.06-1.6,1.13-4.32.07-2.73-.33-5.21-.89-5.55Z" style="fill: #c6e54b;"/>
      </g>
      <g>
        <g>
          <g>
            <polygon points="80.72 98.73 79.94 98.28 79.94 112.51 80.72 112.96 80.72 98.73" style="fill: #56392d;"/>
            <polygon points="79.63 112.34 81.03 113.14 81.03 112.36 79.63 111.56 79.63 112.34" style="fill: #905b40;"/>
          </g>
          <path d="M80.33,96.17c.78.45,1.4,1.56,1.4,2.49s-.63,1.31-1.4.86-1.4-1.56-1.4-2.49.63-1.31,1.4-.86Z" style="fill: #834729;"/>
          <path d="M80.15,96.07c.68.39,1.23,1.33,1.23,2.1s-.55,1.08-1.23.68-1.23-1.33-1.23-2.1.55-1.07,1.23-.68Z" style="fill: #905b40;"/>
          <path d="M79.46,96.03c.41-.09.92.26,1.15.77.23.51.09,1-.32,1.09s-.92-.26-1.15-.77c-.23-.51-.09-1,.32-1.09Z" style="fill: #9c6d55;"/>
          <polygon points="79.63 100.46 81.03 101.26 81.03 111.58 79.63 110.78 79.63 100.46" style="fill: #905b40;"/>
          <polygon points="79.63 100.46 79.8 100.56 79.8 110.87 79.63 110.78 79.63 100.46" style="fill: #b68179;"/>
          <polygon points="79.63 100.46 81.03 101.26 81.03 101.56 79.63 100.76 79.63 100.46" style="fill: #b68179;"/>
        </g>
        <g>
          <g>
            <polygon points="59.53 95.47 58.76 95.02 58.76 109.25 59.53 109.7 59.53 95.47" style="fill: #56392d;"/>
            <polygon points="58.45 109.08 59.84 109.88 59.84 109.1 58.45 108.3 58.45 109.08" style="fill: #905b40;"/>
          </g>
          <path d="M59.15,92.91c.78.45,1.4,1.56,1.4,2.48s-.63,1.31-1.4.86-1.4-1.56-1.4-2.48.63-1.31,1.4-.86Z" style="fill: #834729;"/>
          <path d="M58.97,92.8c.68.39,1.23,1.33,1.23,2.1s-.55,1.08-1.23.68-1.23-1.33-1.23-2.1.55-1.07,1.23-.68Z" style="fill: #905b40;"/>
          <path d="M58.27,92.77c.41-.09.92.25,1.15.77.23.51.09,1-.32,1.09s-.92-.26-1.15-.77c-.23-.51-.09-1,.32-1.09Z" style="fill: #9c6d55;"/>
          <polygon points="46.35 87.86 45.58 87.41 45.58 101.64 46.35 102.09 46.35 87.86" style="fill: #56392d;"/>
          <polygon points="45.27 101.46 46.66 102.27 46.66 101.49 45.27 100.68 45.27 101.46" style="fill: #905b40;"/>
          <path d="M45.96,85.3c.78.45,1.4,1.56,1.4,2.48s-.63,1.31-1.4.86-1.4-1.56-1.4-2.49.63-1.31,1.4-.86Z" style="fill: #834729;"/>
          <path d="M45.91,85.35c.68.39,1.23,1.33,1.23,2.1s-.55,1.08-1.23.68-1.23-1.33-1.23-2.1.55-1.07,1.23-.68Z" style="fill: #905b40;"/>
          <path d="M45.21,85.31c.41-.09.92.25,1.15.77.23.51.09,1-.32,1.09s-.92-.26-1.15-.77-.09-1,.32-1.09Z" style="fill: #9c6d55;"/>
          <polygon points="45.67 91.42 72.33 106.81 72.33 107.91 45.67 92.52 45.67 91.42" style="fill: #b68179;"/>
          <polygon points="45.67 91.64 72.33 107.04 72.33 107.91 45.67 92.52 45.67 91.64" style="fill: #835146;"/>
          <polygon points="45.67 96.51 72.33 111.9 72.33 113 45.67 97.61 45.67 96.51" style="fill: #b68179;"/>
          <polygon points="45.67 96.74 72.33 112.13 72.33 113 45.67 97.61 45.67 96.74" style="fill: #835146;"/>
          <polygon points="58.45 97.2 59.84 98 59.84 108.32 58.45 107.52 58.45 97.2" style="fill: #905b40;"/>
          <polygon points="58.45 97.2 58.62 97.3 58.62 107.61 58.45 107.52 58.45 97.2" style="fill: #b68179;"/>
          <polygon points="45.27 89.59 46.66 90.39 46.66 100.71 45.27 99.91 45.27 89.59" style="fill: #905b40;"/>
          <polygon points="45.27 89.59 45.44 89.69 45.44 100 45.27 99.91 45.27 89.59" style="fill: #b68179;"/>
          <polygon points="58.45 97.2 59.84 98 59.84 98.3 58.45 97.5 58.45 97.2" style="fill: #b68179;"/>
          <g>
            <polygon points="73.37 102.67 72.59 102.22 72.59 116.45 73.37 116.9 73.37 102.67" style="fill: #56392d;"/>
            <polygon points="72.29 116.28 73.68 117.08 73.68 116.3 72.29 115.5 72.29 116.28" style="fill: #905b40;"/>
          </g>
          <path d="M72.98,100.11c.78.45,1.4,1.56,1.4,2.48s-.63,1.31-1.4.86-1.4-1.56-1.4-2.49.63-1.31,1.4-.86Z" style="fill: #834729;"/>
          <path d="M72.8,100.01c.68.39,1.23,1.33,1.23,2.1s-.55,1.08-1.23.68-1.23-1.33-1.23-2.1.55-1.07,1.23-.68Z" style="fill: #905b40;"/>
          <path d="M72.11,99.98c.41-.09.92.26,1.15.77.23.51.09,1-.32,1.09s-.92-.26-1.15-.77-.09-1,.32-1.09Z" style="fill: #9c6d55;"/>
          <polygon points="72.29 104.4 73.68 105.21 73.68 115.52 72.29 114.72 72.29 104.4" style="fill: #905b40;"/>
          <polygon points="72.29 104.4 72.45 104.5 72.45 114.82 72.29 114.72 72.29 104.4" style="fill: #b68179;"/>
          <polygon points="72.29 104.4 73.68 105.21 73.68 105.5 72.29 104.7 72.29 104.4" style="fill: #b68179;"/>
          <g>
            <polygon points="80.33 103.1 73.68 106.95 73.68 108.05 80.33 104.2 80.33 103.1" style="fill: #b68179;"/>
            <polygon points="80.33 103.33 73.68 107.17 73.68 108.05 80.33 104.2 80.33 103.33" style="fill: #835146;"/>
            <polygon points="80.33 108.19 73.68 112.04 73.68 113.14 80.33 109.29 80.33 108.19" style="fill: #b68179;"/>
            <polygon points="80.33 108.42 73.68 112.27 73.68 113.14 80.33 109.29 80.33 108.42" style="fill: #835146;"/>
          </g>
          <polygon points="45.27 89.59 46.66 90.39 46.66 90.69 45.27 89.89 45.27 89.59" style="fill: #b68179;"/>
        </g>
      </g>
      <g>
        <g>
          <g>
            <path d="M20.76,79.91v.71c0,.3.18.61.58.84.78.45,2.04.45,2.83,0,.42-.24.62-.51.59-.82v-.77s-.55,0-.55,0c-.01,0-.02-.02-.04-.02-.78-.45-2.04-.45-2.83,0-.03.02-.05.04-.08.05h-.51Z" style="fill: #e2c9ac;"/>
            <path d="M21.35,79.1c.78-.45,2.05-.45,2.83,0,.78.45.77,1.18,0,1.63s-2.05.45-2.83,0c-.78-.45-.77-1.18,0-1.63Z" style="fill: #f1e5d7;"/>
          </g>
          <g>
            <path d="M23.28,73.62c1.19.53,2.12,1.61,2.57,2.89.33.93.03,2.51-.58,3.02-.84.71-2.15,1.5-3.34.97s-2.02-1.64-2.47-2.92c-.33-.93-.13-2.48.48-2.99.84-.71,2.15-1.5,3.34-.97Z" style="fill: #c1894b;"/>
            <path d="M22.98,73.49c1.08.49,1.81,2.09,2.22,3.28.29.86-.02,1.58-.43,2.18-.62.92-1.96,1.72-3.04,1.24-1.09-.49-1.83-1.77-2.24-2.96-.29-.86-.11-2.34.45-2.82.77-.66,1.96-1.41,3.04-.92Z" style="fill: #cea271;"/>
          </g>
          <path d="M21.33,75.71c.67.29,1.25.93,1.3,1.44s-.44.69-1.11.4-1.25-.93-1.3-1.44c-.05-.51.44-.69,1.11-.4Z" style="fill: #d7b38b;"/>
          <g>
            <path d="M19.47,73.64v1.13c-.01.48.29.96.92,1.33,1.23.71,3.24.71,4.48,0,.67-.38.98-.8.93-1.3v-1.22s-.86.01-.86.01c-.02-.01-.04-.03-.06-.04-1.23-.71-3.24-.71-4.48,0-.05.03-.08.06-.12.09h-.81Z" style="fill: #e2c9ac;"/>
            <path d="M20.41,72.35c1.24-.72,3.24-.72,4.48,0s1.23,1.87-.01,2.58c-1.24.72-3.24.72-4.48,0-1.23-.71-1.23-1.87.01-2.58Z" style="fill: #f1e5d7;"/>
            <path d="M20.77,72.57s0,0,.01,0c0,0,.01-.01.02-.02,1.01-.57,2.6-.58,3.62-.03.02.01.05.02.07.04.32.18.53.39.65.62.18.33.16.67-.06.99-.13.2-.33.38-.6.54-.06.03-.13.07-.2.1-.93.44-2.24.47-3.2.07-.03,0-.06-.02-.08-.04-.09-.03-.17-.08-.25-.12-1.02-.59-1.02-1.55,0-2.15Z" style="fill: #776e7a;"/>
          </g>
        </g>
        <path d="M20.33,68.19c0-.57.03-1.12.06-1.64v-.04c.19-2.97.73-5.13,1.43-5.79h0c.24-.23.5-.28.76-.12,1.26.72,2.28,5.62,2.28,10.92,0,.6-.01,1.18-.04,1.74,0,.02,0,.05,0,.07,0,.06,0,.12,0,.18,0,0,0,0,0,.01-.01.11-.06.22-.13.33-.1.16-.27.32-.5.44-.05.03-.1.06-.16.08,0,0,0,0-.01,0-.76.36-1.84.38-2.62.05-.02,0-.04-.01-.07-.03-.07-.03-.14-.07-.21-.1-.23-.13-.39-.29-.5-.46-.03-.23-.05-.45-.08-.69-.02-.17-.04-.35-.05-.52-.08-.88-.13-1.8-.16-2.75-.01-.27-.01-.54-.01-.81,0-.3,0-.6,0-.89Z" style="fill: #a7bb2a;"/>
        <path d="M20.33,68.19c.01-.57.03-1.12.06-1.64v-.04c.19-3.21.74-5.46,1.43-5.79h0c.13-.06.26-.05.39.02,1.05.61,1.9,5.32,1.9,10.53,0,.41,0,.81-.02,1.2,0,.04,0,.08,0,.13-.02.62-.05,1.22-.09,1.78-.76.36-1.84.38-2.62.05-.02,0-.04-.01-.07-.03-.07-.03-.14-.07-.21-.1-.23-.13-.39-.29-.5-.46-.03-.04-.05-.09-.07-.14-.01-.14-.02-.28-.04-.42-.02-.21-.04-.42-.05-.63-.06-.88-.11-1.81-.12-2.77-.01-.27-.01-.54-.01-.81,0-.3,0-.6,0-.89Z" style="fill: #bfd438;"/>
        <path d="M21.7,62.22c-.56-.34-1.06,1.6-1.13,4.32s.33,5.21.89,5.55c.56.34,1.06-1.6,1.13-4.32.07-2.73-.33-5.21-.89-5.55Z" style="fill: #c6e54b;"/>
      </g>
      <g>
        <g>
          <g>
            <path d="M80.16,113.88v.71c0,.3.18.61.58.84.78.45,2.04.45,2.83,0,.42-.24.62-.51.59-.82v-.77s-.55,0-.55,0c-.01,0-.02-.02-.04-.02-.78-.45-2.04-.45-2.83,0-.03.02-.05.04-.08.05h-.51Z" style="fill: #e2c9ac;"/>
            <path d="M80.75,113.07c.78-.45,2.05-.45,2.83,0,.78.45.77,1.18,0,1.63s-2.05.45-2.83,0c-.78-.45-.77-1.18,0-1.63Z" style="fill: #f1e5d7;"/>
          </g>
          <g>
            <path d="M82.68,107.59c1.19.53,2.12,1.61,2.57,2.89.33.93.03,2.51-.58,3.02-.84.71-2.15,1.5-3.34.97-1.19-.53-2.02-1.64-2.47-2.92-.33-.93-.13-2.48.48-2.99.84-.71,2.15-1.5,3.34-.97Z" style="fill: #c1894b;"/>
            <path d="M82.38,107.46c1.08.49,1.81,2.09,2.22,3.28.29.86-.02,1.58-.43,2.18-.62.92-1.96,1.72-3.04,1.24-1.09-.49-1.83-1.77-2.24-2.96-.29-.86-.11-2.34.45-2.82.77-.66,1.96-1.41,3.04-.92Z" style="fill: #cea271;"/>
          </g>
          <path d="M80.73,109.68c.67.29,1.25.93,1.3,1.44.05.51-.44.69-1.11.4s-1.25-.93-1.3-1.44c-.05-.51.44-.69,1.11-.4Z" style="fill: #d7b38b;"/>
          <g>
            <path d="M78.87,107.61v1.12c-.01.48.29.96.92,1.33,1.23.71,3.24.71,4.48,0,.67-.38.98-.8.93-1.3v-1.22s-.86.01-.86.01c-.02-.01-.03-.03-.06-.04-1.23-.71-3.24-.71-4.48,0-.05.03-.08.06-.12.09h-.81Z" style="fill: #e2c9ac;"/>
            <path d="M79.8,106.32c1.24-.72,3.24-.72,4.48,0,1.23.71,1.23,1.87-.01,2.58s-3.24.72-4.48,0c-1.23-.71-1.23-1.87.01-2.58Z" style="fill: #f1e5d7;"/>
            <path d="M80.17,106.54s0,0,.01,0c0,0,.01-.01.02-.02,1.01-.57,2.6-.58,3.62-.03.02,0,.05.02.07.04.32.18.53.39.65.62.18.33.16.67-.06.99-.13.2-.33.38-.6.54-.06.03-.13.07-.2.1-.93.44-2.24.47-3.2.07-.03-.01-.05-.02-.08-.04-.09-.03-.17-.08-.25-.12-1.02-.59-1.02-1.55,0-2.15Z" style="fill: #776e7a;"/>
          </g>
        </g>
        <path d="M79.73,102.16c0-.57.03-1.12.06-1.64v-.04c.19-2.97.73-5.13,1.43-5.79h0c.24-.23.5-.28.76-.12,1.26.72,2.28,5.62,2.28,10.92,0,.6-.01,1.18-.04,1.74,0,.02,0,.05,0,.07,0,.06,0,.12,0,.18,0,0,0,0,0,.01-.01.11-.06.22-.13.33-.1.16-.27.32-.5.44-.05.03-.1.06-.16.08,0,0,0,0-.01,0-.76.36-1.84.38-2.62.05-.02-.01-.04-.01-.07-.03-.07-.03-.14-.07-.21-.1-.23-.13-.39-.29-.5-.46-.03-.23-.05-.45-.08-.69-.02-.17-.04-.35-.05-.52-.08-.88-.13-1.8-.16-2.75-.01-.27-.01-.54-.01-.81,0-.3,0-.6.01-.89Z" style="fill: #a7bb2a;"/>
        <path d="M79.73,102.16c.01-.57.03-1.12.06-1.64v-.04c.19-3.21.74-5.46,1.43-5.79h0c.13-.06.26-.05.39.02,1.05.61,1.9,5.32,1.9,10.53,0,.41,0,.81-.02,1.2,0,.04,0,.08,0,.13-.02.62-.05,1.22-.09,1.78-.76.36-1.84.38-2.62.05-.02-.01-.04-.01-.07-.03-.07-.03-.14-.07-.21-.1-.23-.13-.39-.29-.5-.46-.03-.05-.05-.09-.07-.14-.01-.14-.02-.28-.04-.42-.02-.21-.04-.42-.05-.63-.06-.88-.11-1.81-.12-2.77-.01-.27-.01-.54-.01-.81,0-.3,0-.6,0-.89Z" style="fill: #bfd438;"/>
        <path d="M81.1,96.19c-.56-.34-1.06,1.6-1.13,4.32-.07,2.73.33,5.21.89,5.55.56.34,1.06-1.6,1.13-4.32s-.33-5.21-.89-5.55Z" style="fill: #c6e54b;"/>
      </g>
      <g>
        <g>
          <g>
            <path d="M68.98,120.25v.71c0,.3.18.61.58.84.78.45,2.04.45,2.83,0,.42-.24.62-.51.59-.82v-.77s-.55,0-.55,0c-.01,0-.02-.02-.04-.02-.78-.45-2.04-.45-2.83,0-.03.02-.05.04-.08.05h-.51Z" style="fill: #e2c9ac;"/>
            <path d="M69.57,119.43c.78-.45,2.05-.45,2.83,0,.78.45.77,1.18,0,1.63s-2.05.45-2.83,0c-.78-.45-.77-1.18,0-1.63Z" style="fill: #f1e5d7;"/>
          </g>
          <g>
            <path d="M71.49,113.96c1.19.53,2.12,1.61,2.57,2.89.33.93.03,2.51-.58,3.02-.84.71-2.15,1.5-3.34.97-1.19-.53-2.02-1.64-2.47-2.92-.33-.93-.13-2.48.48-2.99.84-.71,2.15-1.5,3.34-.97Z" style="fill: #c1894b;"/>
            <path d="M71.19,113.83c1.08.49,1.81,2.09,2.22,3.28.29.86-.02,1.58-.43,2.18-.62.92-1.96,1.72-3.04,1.24-1.09-.49-1.83-1.77-2.24-2.96-.29-.86-.11-2.34.45-2.82.77-.66,1.96-1.41,3.04-.92Z" style="fill: #cea271;"/>
          </g>
          <path d="M69.55,116.04c.67.29,1.25.93,1.3,1.44.05.51-.44.69-1.11.4s-1.25-.93-1.3-1.44.44-.69,1.11-.4Z" style="fill: #d7b38b;"/>
          <g>
            <path d="M67.68,113.98v1.13c-.01.48.29.96.92,1.33,1.23.71,3.24.71,4.48,0,.66-.38.98-.8.93-1.3v-1.22s-.86.01-.86.01c-.02-.01-.04-.03-.06-.04-1.23-.71-3.24-.71-4.48,0-.05.03-.08.06-.12.09h-.81Z" style="fill: #e2c9ac;"/>
            <path d="M68.62,112.69c1.24-.72,3.24-.72,4.48,0,1.23.71,1.23,1.87-.01,2.58s-3.24.72-4.48,0-1.23-1.87.01-2.58Z" style="fill: #f1e5d7;"/>
            <path d="M68.99,112.91s0,0,.01,0c0,0,.01-.01.02-.02,1.01-.57,2.6-.58,3.62-.03.02.01.05.02.07.04.32.18.53.39.65.62.18.32.16.67-.06.99-.13.2-.33.38-.6.54-.06.03-.13.07-.2.1-.93.44-2.24.47-3.2.07-.03,0-.05-.02-.08-.04-.09-.03-.17-.08-.25-.12-1.02-.59-1.02-1.55,0-2.15Z" style="fill: #776e7a;"/>
          </g>
        </g>
        <path d="M68.55,108.53c0-.57.03-1.12.06-1.64v-.04c.19-2.97.73-5.13,1.43-5.79h0c.24-.23.5-.28.76-.12,1.26.72,2.28,5.62,2.28,10.92,0,.6-.01,1.18-.04,1.74,0,.02,0,.05,0,.07,0,.06,0,.12,0,.18,0,0,0,0,0,.01-.01.11-.06.22-.13.33-.1.16-.27.32-.5.44-.05.03-.1.06-.16.08,0,0,0,0-.01,0-.76.36-1.84.38-2.62.05-.02-.01-.04-.01-.07-.03-.07-.03-.14-.07-.21-.1-.23-.13-.39-.29-.5-.46-.03-.23-.05-.45-.08-.69-.02-.17-.04-.35-.05-.52-.08-.88-.13-1.8-.16-2.75-.01-.27-.01-.54-.01-.81s0-.6,0-.89Z" style="fill: #a7bb2a;"/>
        <path d="M68.55,108.53c.01-.57.03-1.12.06-1.64v-.04c.19-3.21.74-5.46,1.43-5.79h0c.13-.06.26-.05.39.02,1.05.61,1.9,5.32,1.9,10.53,0,.41,0,.81-.02,1.2,0,.04,0,.08,0,.13-.02.62-.05,1.22-.09,1.78-.76.36-1.84.38-2.62.05-.02-.01-.04-.01-.07-.03-.07-.03-.14-.07-.21-.1-.23-.13-.39-.29-.5-.46-.03-.04-.05-.09-.07-.14-.01-.14-.02-.28-.04-.42-.02-.21-.04-.42-.05-.63-.06-.88-.11-1.81-.12-2.77-.01-.27-.01-.54-.01-.81s0-.6,0-.89Z" style="fill: #bfd438;"/>
        <path d="M69.92,102.56c-.56-.34-1.06,1.6-1.13,4.32s.33,5.21.89,5.55c.56.34,1.06-1.6,1.13-4.32.07-2.73-.33-5.21-.89-5.55Z" style="fill: #c6e54b;"/>
      </g>
      <g>
        <g>
          <g>
            <path d="M41.59,104.77v.71c0,.3.18.61.58.84.78.45,2.04.45,2.83,0,.42-.24.62-.51.59-.82v-.77s-.55,0-.55,0c-.01,0-.02-.02-.04-.02-.78-.45-2.04-.45-2.83,0-.03.02-.05.04-.08.05h-.51Z" style="fill: #e2c9ac;"/>
            <path d="M42.18,103.96c.78-.45,2.05-.45,2.83,0,.78.45.77,1.18,0,1.63s-2.05.45-2.83,0-.77-1.18,0-1.63Z" style="fill: #f1e5d7;"/>
          </g>
          <g>
            <path d="M44.1,98.49c1.19.53,2.12,1.61,2.57,2.89.33.93.03,2.51-.58,3.02-.84.71-2.15,1.5-3.34.97-1.19-.53-2.02-1.64-2.47-2.92-.33-.93-.13-2.48.48-2.99.84-.71,2.15-1.5,3.34-.97Z" style="fill: #c1894b;"/>
            <path d="M43.8,98.35c1.08.49,1.81,2.09,2.22,3.28.29.86-.02,1.58-.43,2.18-.62.92-1.96,1.72-3.04,1.24s-1.83-1.77-2.24-2.96c-.29-.86-.11-2.34.45-2.82.77-.66,1.96-1.41,3.04-.92Z" style="fill: #cea271;"/>
          </g>
          <path d="M42.16,100.57c.67.29,1.25.93,1.3,1.44.05.51-.44.69-1.11.4s-1.25-.93-1.3-1.44.44-.69,1.11-.4Z" style="fill: #d7b38b;"/>
          <g>
            <path d="M40.29,98.51v1.13c-.01.48.29.96.92,1.33,1.23.71,3.24.71,4.48,0,.67-.38.98-.8.93-1.3v-1.22s-.86.01-.86.01c-.02-.01-.04-.03-.06-.04-1.23-.71-3.24-.71-4.48,0-.05.03-.08.06-.12.09h-.81Z" style="fill: #e2c9ac;"/>
            <path d="M41.23,97.22c1.24-.72,3.24-.72,4.48,0s1.23,1.87-.01,2.58-3.24.72-4.48,0c-1.23-.71-1.23-1.87.01-2.58Z" style="fill: #f1e5d7;"/>
            <path d="M41.6,97.44s0,0,.01,0c0,0,.01-.01.02-.02,1.01-.57,2.6-.58,3.62-.03.02,0,.05.02.07.04.32.18.53.39.65.62.18.33.16.67-.06.99-.13.2-.33.38-.6.54-.06.04-.13.07-.2.1-.93.44-2.24.47-3.2.07-.03,0-.05-.02-.08-.04-.09-.03-.17-.08-.25-.12-1.02-.59-1.02-1.55,0-2.15Z" style="fill: #776e7a;"/>
          </g>
        </g>
        <path d="M41.16,93.05c0-.57.03-1.12.06-1.64v-.04c.19-2.97.73-5.13,1.43-5.79h0c.24-.23.5-.28.76-.12,1.26.72,2.28,5.62,2.28,10.92,0,.6-.01,1.18-.04,1.74,0,.02,0,.05,0,.07,0,.06,0,.12,0,.18,0,0,0,0,0,.01-.01.11-.06.22-.13.33-.1.16-.27.32-.5.44-.05.03-.1.06-.16.08,0,0,0,0-.01,0-.76.36-1.84.38-2.62.05-.02-.01-.04-.01-.07-.03-.07-.03-.14-.07-.21-.1-.23-.13-.39-.29-.5-.46-.03-.23-.05-.45-.08-.69-.02-.17-.04-.35-.05-.52-.08-.88-.13-1.8-.16-2.75-.01-.27-.01-.54-.01-.81,0-.3,0-.6.01-.89Z" style="fill: #a7bb2a;"/>
        <path d="M41.16,93.06c.01-.57.03-1.12.06-1.64v-.04c.19-3.21.74-5.46,1.43-5.79h0c.13-.06.26-.05.39.02,1.05.61,1.9,5.32,1.9,10.53,0,.41,0,.81-.02,1.2,0,.04,0,.08,0,.13-.02.62-.05,1.22-.09,1.78-.76.36-1.84.38-2.62.05-.02-.01-.04-.01-.07-.03-.07-.03-.14-.07-.21-.1-.23-.13-.39-.29-.5-.46-.03-.05-.05-.09-.07-.14-.01-.14-.02-.28-.04-.42-.02-.21-.04-.42-.05-.63-.06-.88-.11-1.81-.12-2.77-.01-.27-.01-.54-.01-.81,0-.3,0-.6,0-.89Z" style="fill: #bfd438;"/>
        <path d="M42.53,87.08c-.56-.34-1.06,1.6-1.13,4.32s.33,5.21.89,5.55c.56.34,1.06-1.6,1.13-4.32.07-2.73-.33-5.21-.89-5.55Z" style="fill: #c6e54b;"/>
      </g>
      <g>
        <polygon points="105.31 87.18 93.87 93.79 93.87 73.15 105.31 66.55 105.31 87.18" style="fill: url(#linear-gradient-6);"/>
        <polygon points="104.64 86.63 93.2 93.24 93.2 72.6 104.64 66 104.64 86.63" style="fill: #f59454;"/>
        <polygon points="104.11 85.92 93.74 91.91 93.74 73.31 104.11 67.33 104.11 85.92" style="fill: #528688;"/>
        <polygon points="93.74 82.09 93.74 91.91 103.27 86.41 103.27 76.59 93.74 82.09" style="fill: #709f9c;"/>
        <polygon points="100.26 78.33 95.45 90.92 103.27 86.41 103.27 76.59 100.26 78.33" style="fill: #2a5355;"/>
      </g>
      <g>
        <polygon points="99.63 61.01 101.54 59.91 107.84 70.47 105.93 71.58 99.63 61.01" style="fill: #f0b678;"/>
        <polygon points="94.55 63.95 96.46 62.84 102.76 73.4 100.85 74.51 94.55 63.95" style="fill: #f0b678;"/>
        <polygon points="89.47 66.88 91.38 65.78 97.68 76.34 95.76 77.44 89.47 66.88" style="fill: #f0b678;"/>
        <path d="M105.93,73.47v-1.89s1.91-1.1,1.91-1.1v1.89c0,.66-.4,1.43-.89,1.71l-.12.07c-.49.29-.9-.02-.9-.68Z" style="fill: #bb7c38;"/>
        <path d="M100.85,76.4v-1.89s1.91-1.1,1.91-1.1v1.89c0,.66-.4,1.43-.89,1.71l-.12.07c-.49.29-.89-.02-.9-.68Z" style="fill: #bb7c38;"/>
        <path d="M95.76,79.34v-1.89s1.91-1.1,1.91-1.1v1.89c0,.66-.4,1.43-.89,1.71l-.12.07c-.49.29-.9-.02-.9-.68Z" style="fill: #bb7c38;"/>
        <polygon points="101.54 59.91 104.71 58.08 111.01 68.64 107.84 70.47 101.54 59.91" style="fill: #fff0e0;"/>
        <polygon points="96.46 62.84 99.63 61.01 105.93 71.58 102.76 73.4 96.46 62.84" style="fill: #fff0e0;"/>
        <polygon points="91.38 65.78 94.55 63.95 100.85 74.51 97.68 76.34 91.38 65.78" style="fill: #fff0e0;"/>
        <polygon points="86.3 68.71 89.47 66.88 95.76 77.44 92.6 79.27 86.3 68.71" style="fill: #fff0e0;"/>
        <path d="M107.84,71.58v-1.11s3.17-1.83,3.17-1.83v1.11c0,1.09-.66,2.36-1.48,2.84l-.2.12c-.82.47-1.48-.03-1.49-1.12Z" style="fill: #e4ccb1;"/>
        <path d="M102.76,74.51v-1.11s3.17-1.83,3.17-1.83v1.11c0,1.09-.66,2.36-1.48,2.84l-.2.12c-.82.47-1.48-.03-1.49-1.12Z" style="fill: #e4ccb1;"/>
        <path d="M97.68,77.45v-1.11s3.17-1.83,3.17-1.83v1.11c0,1.09-.66,2.36-1.48,2.84l-.2.12c-.82.47-1.48-.03-1.49-1.12Z" style="fill: #e4ccb1;"/>
        <path d="M92.59,80.38v-1.11s3.17-1.83,3.17-1.83v1.11c0,1.09-.66,2.36-1.48,2.84l-.2.12c-.82.47-1.48-.03-1.49-1.12Z" style="fill: #e4ccb1;"/>
      </g>
    </g>
  </g>
</svg>