<?xml version="1.0" encoding="UTF-8"?>
<svg id="Layer_1" data-name="Layer 1" xmlns="http://www.w3.org/2000/svg" width="926.62" height="600.08" viewBox="0 0 926.62 600.08">
  <rect x="664.6" y="510.96" width="10.29" height="13.62" style="fill: #e49497;"/>
  <path d="M676.98,532.62c.78-.55,1.3-1.41,1.41-2.37-.03-1.2-.56-2.33-1.45-3.13-.02-.31-.34-4.22-1.06-4.92.26-.82.2-1.72-.17-2.49-.31-.44-.81-.71-1.35-.74h-.03v.02s-1.77,3.05-4.38,3.31c-1.5.15-3-.62-4.46-2.29-.05-.12-.47-2.16-.74-3.51v-.04l-14.25,7.48-8.32,2.31c-1.29.36-2.04,1.69-1.68,2.98.19.67.65,1.23,1.28,1.53l4.04,1.94c1.7.81,3.55,1.23,5.43,1.24h21.89c1.39,0,2.75-.46,3.84-1.33h0Z" style="fill: #090814;"/>
  <rect x="774" y="506.21" width="9.5" height="9.5" transform="translate(-151.29 561.45) rotate(-36.38)" style="fill: #e49497;"/>
  <path d="M791.36,516.79c.28-.84.19-1.76-.25-2.53-.68-.87-1.69-1.43-2.79-1.52-.19-.22-2.57-2.94-3.48-3.07-.25-.76-.79-1.39-1.49-1.76-.47-.16-.99-.09-1.4.19h-.02v.04s.37,3.22-1.43,4.86c-1.03.93-2.57,1.18-4.57.74-.11-.06-1.53-1.35-2.46-2.21l-.04-.03-6.48,13.37-4.92,6.27c-.62.79-.64,1.9-.04,2.71.51.69,1.37,1.03,2.22.87l4.06-.77c1.71-.33,3.32-1.03,4.72-2.06l16.27-11.99c1.04-.76,1.8-1.85,2.13-3.1h-.02Z" style="fill: #090814;"/>
  <g>
    <path d="M135.3,64.88h480.74v303.41c0,2.47-2,4.47-4.47,4.47H139.77c-2.47,0-4.47-2-4.47-4.47V64.88Z" style="fill: #e6e6e6;"/>
    <path d="M152.03,103.5h447.28c1.65,0,2.98,1.34,2.98,2.98h0v245.09c0,1.65-1.34,2.98-2.98,2.98H152.03c-1.65,0-2.98-1.34-2.98-2.98t0,0V106.48c0-1.65,1.34-2.98,2.98-2.98Z" style="fill: #fff;"/>
    <path d="M139.57,64.61h471.79c2.47,0,4.47,2,4.47,4.47h0v15.95H135.1v-15.95c0-2.47,2-4.47,4.47-4.47Z" style="fill: #6bbce1;"/>
    <path d="M150.27,71.26c2.09,0,3.79,1.69,3.79,3.79s-1.69,3.79-3.79,3.79-3.79-1.69-3.79-3.79c0-2.09,1.69-3.79,3.79-3.79h0Z" style="fill: #fff;"/>
    <path d="M164.64,71.26c2.09,0,3.79,1.69,3.79,3.79s-1.69,3.79-3.79,3.79-3.79-1.69-3.79-3.79c0-2.09,1.69-3.79,3.79-3.79h0Z" style="fill: #fff;"/>
    <path d="M179.01,71.26c2.09,0,3.79,1.69,3.79,3.79s-1.69,3.79-3.79,3.79-3.79-1.69-3.79-3.79c0-2.09,1.69-3.79,3.79-3.79h0Z" style="fill: #fff;"/>
    <path d="M207.8,124.15h82.69c1.65,0,2.98,1.34,2.98,2.98h0v90.21c0,1.65-1.34,2.98-2.98,2.98h-82.69c-1.65,0-2.98-1.34-2.98-2.98h0v-90.21c0-1.65,1.34-2.98,2.98-2.98Z" style="fill: #e6e6e6;"/>
    <path d="M334.33,124.15h82.69c1.65,0,2.98,1.34,2.98,2.98h0v90.21c0,1.65-1.34,2.98-2.98,2.98h-82.69c-1.65,0-2.98-1.34-2.98-2.98h0v-90.21c0-1.65,1.34-2.98,2.98-2.98Z" style="fill: #e6e6e6;"/>
    <path d="M460.86,124.15h82.69c1.65,0,2.98,1.34,2.98,2.98h0v90.21c0,1.65-1.34,2.98-2.98,2.98h-82.69c-1.65,0-2.98-1.34-2.98-2.98h0v-90.21c0-1.65,1.34-2.98,2.98-2.98Z" style="fill: #e6e6e6;"/>
    <path d="M207.8,237.73h82.69c1.65,0,2.98,1.34,2.98,2.98h0v90.21c0,1.65-1.34,2.98-2.98,2.98h-82.69c-1.65,0-2.98-1.34-2.98-2.98h0v-90.21c0-1.65,1.34-2.98,2.98-2.98Z" style="fill: #e6e6e6;"/>
    <path d="M334.33,237.73h82.69c1.65,0,2.98,1.34,2.98,2.98h0v90.21c0,1.65-1.34,2.98-2.98,2.98h-82.69c-1.65,0-2.98-1.34-2.98-2.98h0v-90.21c0-1.65,1.34-2.98,2.98-2.98Z" style="fill: #e6e6e6;"/>
    <path d="M460.86,237.73h82.69c1.65,0,2.98,1.34,2.98,2.98h0v90.21c0,1.65-1.34,2.98-2.98,2.98h-82.69c-1.65,0-2.98-1.34-2.98-2.98h0v-90.21c0-1.65,1.34-2.98,2.98-2.98Z" style="fill: #e6e6e6;"/>
    <path d="M352.77,262.45l16.2-6.4,1.89,32.02s3.39,9.79,2.26,13.56c0,0,.75,6.4-1.13,6.78s-7.16,1.13-7.53.75-.38-1.51-.38-1.51c0,0-3.77,2.64-4.14,5.65,0,0-15.82,4.9-16.2.38s7.91-8.29,7.91-8.29l6.4-9.79-5.27-33.15Z" style="fill: #fff;"/>
    <path d="M387.05,262.45l16.19-6.4,1.89,32.02s3.39,9.79,2.26,13.56c0,0,.75,6.4-1.13,6.78s-7.16,1.13-7.53.75-.38-1.51-.38-1.51c0,0-3.77,2.64-4.14,5.65,0,0-15.82,4.9-16.2.38s7.91-8.29,7.91-8.29l6.4-9.79-5.27-33.15Z" style="fill: #fff;"/>
    <path d="M388.63,138.81s-3.45,9.64.55,13.98l-3.33,11.45s11.84,35.51,8.45,40.47c0,0-12.63,6.31-37.88-2.25l10.26-39.79-1.47-16.8,2.03-7.89,4.51-.45s-2.71,10.15,2.25,11.72c4.96,1.58,9.8-11.47,9.8-11.47l4.83,1.03Z" style="fill: #6bbce1;"/>
    <path d="M229.36,201.02l4.35,1.78,20.77-27.3,6.53,32.05,4.35-.79c2.79-27.63,5.07-55.81,2.27-69.14l-16.12-.69-7.32,23.35-3.56,15.83-11.27,24.92Z" style="fill: #fff;"/>
    <path d="M493.51,137.39s-5.94,8.26-5.65,11.59,4.06,57.66,4.06,57.66l8.84.43-2.61-39.12,2.17-10.58,5.36,49.26,10.87.29-9.71-63.89-1.89-5.65h-11.44Z" style="fill: #fff;"/>
    <path d="M527.09,270.42c-1.58-1.89-4.29-2.92-6.89-3.47.07-.24-7.92-1.89-8.05-1.55l-3.01-2.4-9.26,4.81-5.2-3.54-2.42.86c.1-.43-7.5.89-7.5.89-1.45.05-3.31.14-5.38.3-7.27.56-7.83,19.39-7.83,19.39,3.34-1.37,6.91-2.11,10.52-2.2l1.96,22.52c10.11-.87,20.7.14,31.69,2.61l5.15-17.7,12-4.67s-2.05-11.37-5.78-15.84Z" style="fill: #6bbce1;"/>
    <path d="M269.64,259.7c-1.3-1.56-3.53-2.4-5.68-2.86.06-.2-6.52-1.56-6.64-1.28l-2.48-1.98-7.63,3.96-4.29-2.92-1.99.71c.08-.35-6.18.73-6.18.73-1.19.04-2.72.12-4.43.25-5.99.46-6.45,15.97-6.45,15.97,2.76-1.13,5.69-1.74,8.67-1.82l1.62,45.42c8.76-.62,17.57.1,26.11,2.15l4.24-41.45,9.89-3.84s-1.69-9.36-4.76-13.05Z" style="fill: #fff;"/>
  </g>
  <path d="M693.93,271.79h42.51v-22.74c0-11.74-9.5-21.26-21.24-21.27-11.74,0-21.26,9.5-21.27,21.24v22.77Z" style="fill: #2f2e41;"/>
  <path d="M725.81,366.24l.71,3.53s2.12,2.12,1.06,3.17-.71,6-.71,6c.59,9,12.36,59.6,14.46,69.49,0,0,16.23,10.59,28.92,31.39,12.7,20.81,13.05,26.1,13.05,26.1l-14.11,6-35.27-42.68s-9.88-6-13.4-11.29c-3.53-5.29-25.4-59.96-25.4-59.96l-12.35,57.14s.71,20.81-2.47,34.22c-1.95,8.46-3.13,17.08-3.53,25.75l-16.58-1.76s1.06-50.09,2.82-55.38c0,0-7.41-61.02,7.41-85.36l11.94-31.83,11.69-4.5,31.75,29.98Z" style="fill: #2f2e41;"/>
  <path d="M708.1,264.25h13.66l2.07,19.39h-17.15l1.42-19.39Z" style="fill: #ed9da0;"/>
  <path d="M715.4,233.35c-22.26.38-22.25,33.49,0,33.86,22.25-.38,22.25-33.49,0-33.86Z" style="fill: #ed9da0;"/>
  <path d="M698.27,249.41h3.78l1.03-2.58-.52,2.58h20.69l-.67-5.39,5.03,5.39h5.02v-2.92c.07-9.49-7.56-17.24-17.05-17.31-9.49-.07-17.24,7.56-17.31,17.05,0,.08,0,.16,0,.23v2.94Z" style="fill: #2f2e41;"/>
  <path d="M692.45,277.1l31.08-.33,10.98.67-8.89,90.16s-49.18-2.6-49.21-17.61l4.61-13.34,11.44-59.55Z" style="fill: #3f3d56;"/>
  <path d="M736.31,376.32c-2.44-2.99-2-7.4.99-9.84.32-.26.66-.49,1.02-.69l-1.83-15.87,9.38-3.46,2.27,22.45c1.65,3.51.15,7.7-3.37,9.35-2.93,1.38-6.42.58-8.46-1.94h0Z" style="fill: #ed9da0;"/>
  <path d="M728.97,285.21l5.53-7.73s3.79-.84,8.26,4.38,7.08,70.46,7.08,70.46l-16.4,3.73-9.69-46.23,5.22-24.61Z" style="fill: #3f3d56;"/>
  <path d="M636.27,355.96l1.22,57.96,37.52,19.83,68.34-12.2,1.68-60.25-43.32-15.25-65.44,9.92Z" style="fill: #fff;"/>
  <path d="M674.93,434.38l-38.02-20.09-1.24-58.84,66.11-10.02.14.05,43.74,15.4-1.7,61.18-69.02,12.33ZM638.09,413.56l37.03,19.57,67.65-12.08,1.65-59.33-42.77-15.06-64.77,9.81,1.2,57.08Z" style="fill: #cacaca;"/>
  <path d="M674.18,371.68l-.15-.06-37.98-15.1.44-1.11,37.84,15.04,70.62-9.74.16,1.19-70.94,9.78Z" style="fill: #cacaca;"/>
  <rect x="674.04" y="371.07" width="1.2" height="62.7" transform="translate(-4.85 8.24) rotate(-.7)" style="fill: #cacaca;"/>
  <path d="M669.38,368.68l-13.69-5.55,65.91-10.5,13.69,5.55-65.91,10.5Z" style="fill: #cacaca;"/>
  <rect x="643.62" y="368.11" width="1.2" height="17.29" transform="translate(43.41 819.46) rotate(-66.71)" style="fill: #cacaca;"/>
  <rect x="650.81" y="387.88" width="1.2" height="17.29" transform="translate(29.6 838.02) rotate(-66.71)" style="fill: #6bbce1;"/>
  <path d="M427.49,436.49l1.22,57.96,37.52,19.83,68.34-12.2,1.68-60.25-43.32-15.25-65.44,9.92Z" style="fill: #fff;"/>
  <path d="M466.14,514.92l-38.02-20.09-1.24-58.84,66.11-10.02.14.05,43.74,15.4-1.7,61.18-69.02,12.32ZM429.3,494.09l37.03,19.57,67.65-12.08,1.65-59.33-42.77-15.06-64.77,9.81,1.2,57.08Z" style="fill: #cacaca;"/>
  <path d="M465.4,452.21l-.15-.06-37.98-15.1.44-1.11,37.84,15.04,70.62-9.74.16,1.19-70.94,9.78Z" style="fill: #cacaca;"/>
  <rect x="465.26" y="451.6" width="1.2" height="62.7" transform="translate(-5.84 5.7) rotate(-.7)" style="fill: #cacaca;"/>
  <path d="M457.28,447.84l-10.38-4.18,65.91-10.5,10.37,4.18-65.91,10.5Z" style="fill: #cacaca;"/>
  <rect x="434.83" y="448.64" width="1.2" height="17.29" transform="translate(-156.77 676.38) rotate(-66.71)" style="fill: #cacaca;"/>
  <rect x="442.02" y="468.41" width="1.2" height="17.29" transform="translate(-170.59 694.94) rotate(-66.71)" style="fill: #6bbce1;"/>
  <path d="M492.68,444.44l1.42,67.29,43.56,23.02,79.33-14.17,1.95-69.94-50.29-17.71-75.97,11.51Z" style="fill: #6bbce1;"/>
  <path d="M537.55,535.48l-44.14-23.32-1.44-68.31,76.74-11.63.16.06,50.77,17.88-1.98,71.02-80.12,14.31ZM494.79,511.31l42.99,22.72,78.54-14.02,1.92-68.87-49.64-17.48-75.19,11.39,1.39,66.27Z" style="fill: #d6d6e3;"/>
  <path d="M536.69,462.69l-.17-.07-44.09-17.53.51-1.29,43.92,17.46,81.98-11.31.19,1.38-82.34,11.36Z" style="fill: #d6d6e3;"/>
  <rect x="536.52" y="461.97" width="1.39" height="72.78" transform="translate(-6.02 6.57) rotate(-.7)" style="fill: #d6d6e3;"/>
  <path d="M527.97,457.65l-12.75-4.89,76.51-12.19,12.75,4.89-76.51,12.19Z" style="fill: #d6d6e3;"/>
  <rect x="501.2" y="458.54" width="1.39" height="20.07" transform="translate(-126.96 744.25) rotate(-66.71)" style="fill: #d6d6e3;"/>
  <rect x="509.55" y="481.49" width="1.39" height="20.07" transform="translate(-143 765.8) rotate(-66.71)" style="fill: #d6d6e3;"/>
  <path d="M657.55,365.55c3.5-1.64,5-5.8,3.36-9.3-.17-.37-.38-.73-.62-1.06l8.52-13.52-6.95-7.18-11.76,19.26c-3.02,2.45-3.48,6.87-1.03,9.89,2.05,2.52,5.56,3.32,8.49,1.92h0Z" style="fill: #ed9da0;"/>
  <path d="M698.91,280.66l-6.1-4.02s-4.71,1.06-9.72,10.69c-5.01,9.63-25.2,52.7-25.2,52.7l8.3,8.43,22.15-33.78,10.57-34Z" style="fill: #3f3d56;"/>
</svg>