<?xml version="1.0" encoding="UTF-8"?>
<svg id="Layer_2" data-name="Layer 2" xmlns="http://www.w3.org/2000/svg" width="133.61" height="186.62" viewBox="0 0 133.61 186.62">
  <g id="Layer_1-2" data-name="Layer 1">
    <g>
      <g>
        <path d="M5.11,164.93v6.39h8.58v4.05H5.11v6.76h9.68v4.16H0v-25.52h14.79v4.16H5.11Z" style="fill: #005aaa;"/>
        <path d="M21.71,166.78c1.13-1.98,2.68-3.53,4.64-4.64,1.96-1.11,4.16-1.66,6.59-1.66,2.85,0,5.34.73,7.49,2.19,2.14,1.46,3.64,3.48,4.49,6.06h-5.88c-.58-1.22-1.41-2.13-2.46-2.74-1.06-.61-2.28-.91-3.67-.91-1.49,0-2.81.35-3.96,1.04-1.16.69-2.06,1.67-2.7,2.94-.65,1.27-.97,2.75-.97,4.45s.32,3.16.97,4.44c.64,1.28,1.55,2.26,2.7,2.96,1.16.69,2.48,1.04,3.96,1.04,1.39,0,2.61-.31,3.67-.93,1.06-.62,1.88-1.54,2.46-2.76h5.88c-.85,2.61-2.34,4.63-4.47,6.08-2.13,1.45-4.63,2.17-7.5,2.17-2.43,0-4.63-.55-6.59-1.66-1.96-1.11-3.51-2.65-4.64-4.62s-1.7-4.21-1.7-6.72.57-4.75,1.7-6.74Z" style="fill: #005aaa;"/>
        <path d="M72.26,160.81v25.49h-5.11v-10.84h-10.92v10.84h-5.11v-25.49h5.11v10.48h10.92v-10.48h5.11Z" style="fill: #333;"/>
        <path d="M79.47,162.8c-.6-.57-.89-1.28-.89-2.14s.3-1.56.89-2.14c.6-.57,1.34-.86,2.25-.86s1.65.29,2.25.86c.6.57.89,1.28.89,2.14s-.3,1.56-.89,2.14c-.6.57-1.35.86-2.25.86s-1.65-.29-2.25-.86ZM84.24,166.06v20.23h-5.11v-20.23h5.11Z" style="fill: #333;"/>
        <path d="M99.54,181.58l5.11-15.52h5.44l-7.49,20.23h-6.21l-7.45-20.23h5.48l5.11,15.52Z" style="fill: #333;"/>
        <path d="M133.46,177.71h-14.79c.12,1.46.63,2.61,1.53,3.43.9.83,2.01,1.24,3.32,1.24,1.9,0,3.25-.82,4.05-2.45h5.51c-.58,1.95-1.7,3.55-3.36,4.8-1.66,1.25-3.69,1.88-6.1,1.88-1.95,0-3.69-.43-5.24-1.3-1.55-.86-2.75-2.09-3.62-3.67-.86-1.58-1.3-3.41-1.3-5.48s.43-3.93,1.28-5.51c.85-1.58,2.04-2.8,3.58-3.65,1.53-.85,3.3-1.28,5.29-1.28s3.65.41,5.17,1.24c1.52.83,2.7,2,3.54,3.52.84,1.52,1.26,3.27,1.26,5.24,0,.73-.05,1.39-.15,1.97ZM128.31,174.28c-.02-1.31-.5-2.37-1.42-3.16-.93-.79-2.06-1.19-3.4-1.19-1.27,0-2.33.38-3.2,1.15-.86.77-1.39,1.83-1.59,3.2h9.6Z" style="fill: #333;"/>
      </g>
      <g>
        <polygon points="66.76 0 89.73 13.67 38.01 44.45 38.01 128.39 10.04 111.86 10.04 32.77 66.76 0" style="fill: #005aaa;"/>
        <polygon points="66.8 55.7 66.8 83.23 105.75 60.49 105.75 89.42 66.8 112.16 66.8 139.5 133.54 100.39 133.54 39.34 114.69 27.96 66.8 55.7" style="fill: #005aaa;"/>
      </g>
    </g>
  </g>
</svg>