<?xml version="1.0" encoding="UTF-8"?>
<svg id="Layer_2" data-name="Layer 2" xmlns="http://www.w3.org/2000/svg" width="222.69" height="236.02" xmlns:xlink="http://www.w3.org/1999/xlink" viewBox="0 0 222.69 236.02">
  <defs>
    <linearGradient id="linear-gradient" x1="87.47" y1="-23.42" x2="88.69" y2="-23.42" gradientTransform="translate(0 153.21) scale(1 -1)" gradientUnits="userSpaceOnUse">
      <stop offset="0" stop-color="#72a6e1"/>
      <stop offset="1" stop-color="#6f96e0"/>
    </linearGradient>
    <linearGradient id="linear-gradient-2" x1="60.32" y1="-10.15" x2="61.81" y2="-10.15" gradientTransform="translate(0 153.21) scale(1 -1)" gradientUnits="userSpaceOnUse">
      <stop offset="0" stop-color="#e4dbda"/>
      <stop offset="1" stop-color="#e1d2b9"/>
    </linearGradient>
    <linearGradient id="linear-gradient-3" x1="62.47" y1="-10.49" x2="63.87" y2="-10.49" xlink:href="#linear-gradient-2"/>
    <linearGradient id="linear-gradient-4" x1="60.44" y1="-7.31" x2="61.93" y2="-7.31" xlink:href="#linear-gradient-2"/>
    <clipPath id="clippath">
      <path d="M60.44,162.39l1.37-.8c.05-.89.08-2,.12-2.96l-1.37.8c-.04.96-.07,2.07-.12,2.96Z" style="fill: none;"/>
    </clipPath>
    <linearGradient id="linear-gradient-5" x1="60.44" y1="-7.31" x2="61.93" y2="-7.31" xlink:href="#linear-gradient-2"/>
    <linearGradient id="linear-gradient-6" x1="61.95" y1="-9.03" x2="63.85" y2="-9.03" xlink:href="#linear-gradient-2"/>
    <clipPath id="clippath-1">
      <path d="M62.47,164.09l1.38-.8c-.15-.95-.33-1.96-.53-2.91l-1.37.8c.2.96.38,1.97.53,2.91Z" style="fill: none;"/>
    </clipPath>
    <linearGradient id="linear-gradient-7" x1="61.95" y1="-9.03" x2="63.85" y2="-9.03" xlink:href="#linear-gradient-2"/>
    <linearGradient id="linear-gradient-8" x1="62.94" y1="-11.7" x2="65.1" y2="-11.7" xlink:href="#linear-gradient-2"/>
    <linearGradient id="linear-gradient-9" x1="61.33" y1="-6.17" x2="63.32" y2="-6.17" xlink:href="#linear-gradient-2"/>
    <linearGradient id="linear-gradient-10" x1="59.42" y1="-4.21" x2="62.71" y2="-4.21" xlink:href="#linear-gradient-2"/>
    <linearGradient id="linear-gradient-11" x1="63.72" y1="-9.28" x2="65.82" y2="-9.28" xlink:href="#linear-gradient-2"/>
    <clipPath id="clippath-2">
      <path d="M63.72,164.09l1.37-.8c.25-.71.52-1.6.72-2.41l-1.37.8c-.2.82-.47,1.69-.72,2.41Z" style="fill: none;"/>
    </clipPath>
    <linearGradient id="linear-gradient-12" x1="63.72" y1="-9.28" x2="65.82" y2="-9.28" xlink:href="#linear-gradient-2"/>
    <linearGradient id="linear-gradient-13" x1="65.68" y1="-11.03" x2="67.38" y2="-11.03" xlink:href="#linear-gradient-2"/>
    <linearGradient id="linear-gradient-14" x1="63.8" y1="-6.73" x2="67.05" y2="-6.73" xlink:href="#linear-gradient-2"/>
    <linearGradient id="linear-gradient-15" x1="68.28" y1="-15.3" x2="70.12" y2="-15.3" xlink:href="#linear-gradient-2"/>
    <linearGradient id="linear-gradient-16" x1="68.95" y1="-13.77" x2="71.73" y2="-13.77" xlink:href="#linear-gradient-2"/>
    <linearGradient id="linear-gradient-17" x1="68.95" y1="-12.7" x2="70.72" y2="-12.7" xlink:href="#linear-gradient-2"/>
    <linearGradient id="linear-gradient-18" x1="69.34" y1="-11.42" x2="71.01" y2="-11.42" xlink:href="#linear-gradient-2"/>
    <clipPath id="clippath-3">
      <path d="M69.34,165.65l1.37-.8c.1-.36.2-.86.29-1.24l-1.37.8c-.09.38-.19.88-.29,1.24Z" style="fill: none;"/>
    </clipPath>
    <linearGradient id="linear-gradient-19" x1="69.34" y1="-11.42" x2="71.01" y2="-11.42" xlink:href="#linear-gradient-2"/>
    <linearGradient id="linear-gradient-20" x1="68.77" y1="-9.6" x2="72.02" y2="-9.6" xlink:href="#linear-gradient-2"/>
    <linearGradient id="linear-gradient-21" x1="70.65" y1="-14.37" x2="73.98" y2="-14.37" xlink:href="#linear-gradient-2"/>
    <linearGradient id="linear-gradient-22" x1="77.61" y1="-20.79" x2="78.99" y2="-20.79" xlink:href="#linear-gradient-2"/>
    <linearGradient id="linear-gradient-23" x1="75.09" y1="-19.37" x2="78.99" y2="-19.37" xlink:href="#linear-gradient-2"/>
    <linearGradient id="linear-gradient-24" x1="75.09" y1="-15.68" x2="76.48" y2="-15.68" xlink:href="#linear-gradient-2"/>
    <linearGradient id="linear-gradient-25" x1="73.66" y1="-12.3" x2="76.48" y2="-12.3" xlink:href="#linear-gradient-2"/>
    <linearGradient id="linear-gradient-26" x1="82.61" y1="-23.68" x2="83.99" y2="-23.68" xlink:href="#linear-gradient-2"/>
    <linearGradient id="linear-gradient-27" x1="80.08" y1="-22.26" x2="83.99" y2="-22.26" xlink:href="#linear-gradient-2"/>
    <linearGradient id="linear-gradient-28" x1="80.08" y1="-18.56" x2="81.47" y2="-18.56" xlink:href="#linear-gradient-2"/>
    <linearGradient id="linear-gradient-29" x1="78.66" y1="-15.18" x2="81.47" y2="-15.18" xlink:href="#linear-gradient-2"/>
  </defs>
  <g id="OBJECTS">
    <g>
      <g style="isolation: isolate;">
        <polygon points="222.69 176.23 222.67 179.92 126.15 236.02 126.16 232.33 222.69 176.23" style="fill: #826867;"/>
        <polygon points="126.16 232.33 126.15 236.02 0 163.18 .01 159.49 126.16 232.33" style="fill: #6e5b5b;"/>
        <polygon points="222.69 176.23 126.16 232.33 .01 159.49 96.53 103.4 222.69 176.23" style="fill: #896d6b;"/>
      </g>
      <g>
        <g style="isolation: isolate;">
          <polygon points="25.43 149.84 26.15 149.42 26.13 155.7 25.41 156.12 25.43 149.84" style="fill: #e8dfd0;"/>
          <polygon points="21.1 147.34 21.82 146.92 26.15 149.42 25.43 149.84 21.1 147.34" style="fill: #ded9d1;"/>
          <polygon points="25.43 149.84 25.41 156.12 21.08 153.62 21.1 147.34 25.43 149.84" style="fill: #f5eee7;"/>
        </g>
        <g style="isolation: isolate;">
          <polygon points="38.94 141.67 39.66 141.25 39.64 147.52 38.91 147.94 38.94 141.67" style="fill: #e8dfd0;"/>
          <polygon points="34.61 139.17 35.33 138.75 39.66 141.25 38.94 141.67 34.61 139.17" style="fill: #ded9d1;"/>
          <polygon points="38.94 141.67 38.91 147.94 34.59 145.44 34.61 139.17 38.94 141.67" style="fill: #f5eee7;"/>
        </g>
        <g>
          <g style="isolation: isolate;">
            <polygon points="20.23 147.51 20.24 148.04 21.43 148.73 21.43 148.2 20.23 147.51" style="fill: #a49d94;"/>
            <polygon points="21.43 148.2 21.43 148.73 37.34 139.54 37.34 139.02 21.43 148.2" style="fill: #c6bdb2;"/>
            <polygon points="20.23 147.51 21.43 148.2 37.34 139.02 36.14 138.32 20.23 147.51" style="fill: #d4cbbd;"/>
          </g>
          <g style="isolation: isolate;">
            <polygon points="22.24 148.68 22.24 149.2 23.43 149.89 23.43 149.37 22.24 148.68" style="fill: #a49d94;"/>
            <polygon points="23.43 149.37 23.43 149.89 39.34 140.71 39.34 140.18 23.43 149.37" style="fill: #c6bdb2;"/>
            <polygon points="22.24 148.68 23.43 149.37 39.34 140.18 38.15 139.49 22.24 148.68" style="fill: #d4cbbd;"/>
          </g>
          <g style="isolation: isolate;">
            <polygon points="24.25 149.84 24.25 150.37 25.45 151.06 25.45 150.54 24.25 149.84" style="fill: #d4cbbd;"/>
            <polygon points="25.45 150.54 25.45 151.06 41.35 141.88 41.35 141.35 25.45 150.54" style="fill: #c6bdb2;"/>
            <polygon points="24.25 149.84 25.45 150.54 41.35 141.35 40.16 140.66 24.25 149.84" style="fill: #d4cbbd;"/>
          </g>
        </g>
      </g>
      <g style="isolation: isolate;">
        <polygon points="142.88 37.76 146 36.16 146.01 31.5 142.9 33.3 142.88 37.76" style="fill: #aaaaa2;"/>
        <polygon points="142.9 33.3 146.01 31.5 91.46 0 88.34 1.81 142.9 33.3" style="fill: #f6f6e9;"/>
        <polygon points="88.34 1.81 88.33 6.47 142.88 37.76 142.9 33.3 88.34 1.81" style="fill: #ebe4ce;"/>
      </g>
      <g style="isolation: isolate;">
        <polygon points="36.71 39.17 33.6 37.58 33.59 32.91 36.7 34.72 36.71 39.17" style="fill: #ebe4ce;"/>
        <polygon points="36.7 34.72 33.59 32.91 88.34 1.81 91.6 3.69 36.7 34.72" style="fill: #f6f6e9;"/>
        <polygon points="91.6 3.69 91.6 7.74 36.71 39.17 36.7 34.72 91.6 3.69" style="fill: #d4d1b8;"/>
      </g>
      <polygon points="188.28 128.46 188.13 179.48 129.81 213.37 129.96 162.36 188.28 128.46" style="fill: #d4d1b8;"/>
      <polygon points="129.96 162.36 129.81 213.37 34.42 158.29 34.56 107.28 129.96 162.36" style="fill: #ebe4ce;"/>
      <polygon points="126.15 164.67 126.15 205.36 39.95 156.12 40.06 115.04 126.15 164.67" style="fill: #97b8b0;"/>
      <polygon points="126.15 164.67 126.15 205.36 39.95 156.12 40.06 115.04 126.15 164.67" style="fill: #7b9a90;"/>
      <polygon points="41.41 115.82 41.3 155.18 126.15 203.64 126.15 164.67 41.41 115.82" style="fill: #97b8b0;"/>
      <polygon points="41.41 115.82 41.3 155.18 126.15 203.64 92.81 145.45 41.41 115.82" style="fill: #8dafa6;"/>
      <polygon points="188.28 128.46 129.96 162.36 34.56 107.28 92.88 73.39 188.28 128.46" style="fill: #c3b0a1;"/>
      <polygon points="142.02 36.85 142.21 105.73 91.73 134.93 91.92 65.97 142.02 36.85" style="fill: #d4d1b8;"/>
      <polygon points="91.92 65.97 91.73 134.93 41.3 105.82 41.5 36.85 91.92 65.97" style="fill: #ebe4ce;"/>
      <polygon points="88 67.49 88 128.46 44.93 103.4 44.93 42.69 88 67.49" style="fill: #97b8b0;"/>
      <polygon points="44.93 42.69 88 128.46 44.93 103.4 44.93 42.69" style="fill: #8dafa6;"/>
      <polygon points="95.33 67.8 95.33 128.78 138.41 103.71 138.41 43.01 95.33 67.8" style="fill: #91cabb;"/>
      <polygon points="95.33 67.8 95.33 128.78 138.41 103.71 106.93 61.83 95.33 67.8" style="fill: #89c1b0;"/>
      <polygon points="133.75 164.36 133.75 206.12 184.73 176.23 184.73 134.93 133.75 164.36" style="fill: #91cabb;"/>
      <polygon points="133.75 164.36 133.75 206.12 184.73 176.23 184.73 134.93 133.75 164.36" style="fill: #87bead;"/>
      <polygon points="133.75 204.6 183.44 175.47 183.44 135.68 133.75 164.36 133.75 204.6" style="fill: #91cabb;"/>
      <polygon points="133.75 204.6 183.44 175.47 158.59 150.08 133.75 164.36 133.75 204.6" style="fill: #89c1b0;"/>
      <polygon points="142.02 36.85 91.92 65.97 41.3 36.54 91.6 7.74 142.02 36.85" style="fill: #fcfbf0;"/>
      <polygon points="44.93 42.69 44.93 103.4 46.8 102.71 46.8 43.78 44.93 42.69" style="fill: #84a79f;"/>
      <polygon points="46.8 102.71 88 126.49 88 128.46 44.93 103.4 46.8 102.71" style="fill: #7b9a90;"/>
      <polygon points="138.41 43.01 138.41 103.71 136.21 102.94 135.56 44.65 138.41 43.01" style="fill: #83bba9;"/>
      <polygon points="138.41 103.71 95.33 128.78 95.33 126.28 136.21 102.94 138.41 103.71" style="fill: #76ac9d;"/>
      <polygon points="53.4 47.57 53.4 108.33 54.81 109.15 54.81 48.38 53.4 47.57" style="fill: #ebe4ce;"/>
      <polygon points="51.98 121.22 51.98 162.4 53.38 162.96 53.38 121.77 51.98 121.22" style="fill: #ebe4ce;"/>
      <polygon points="66.38 128.3 66.38 169.48 67.78 170.04 67.78 128.85 66.38 128.3" style="fill: #ebe4ce;"/>
      <polygon points="80.78 137.5 80.78 178.68 82.18 179.24 82.18 138.05 80.78 137.5" style="fill: #ebe4ce;"/>
      <polygon points="95.18 144.58 95.18 185.76 96.58 186.32 96.58 145.13 95.18 144.58" style="fill: #ebe4ce;"/>
      <polygon points="110.91 153.56 110.91 197.94 112.43 198.54 112.43 154.15 110.91 153.56" style="fill: #ebe4ce;"/>
      <polygon points="64.33 52.73 64.33 114.64 65.73 115.47 65.73 53.55 64.33 52.73" style="fill: #ebe4ce;"/>
      <polygon points="76.25 59.68 76.25 121.81 77.65 122.64 77.65 60.51 76.25 59.68" style="fill: #ebe4ce;"/>
      <polygon points="129.5 48.36 129.5 109.12 128.1 109.94 128.1 49.17 129.5 48.36" style="fill: #d4d1b8;"/>
      <polygon points="118.57 53.52 118.57 115.43 117.17 116.26 117.17 54.34 118.57 53.52" style="fill: #d4d1b8;"/>
      <polygon points="106.66 60.46 106.66 122.59 105.25 123.43 105.25 61.29 106.66 60.46" style="fill: #d4d1b8;"/>
      <polygon points="164.32 145.57 164.32 190.47 162.92 191.07 162.92 146.17 164.32 145.57" style="fill: #d4d1b8;"/>
      <polygon points="175.12 140 175.12 184.9 173.72 185.5 173.72 140.6 175.12 140" style="fill: #d4d1b8;"/>
      <polygon points="154.1 150.59 154.1 199.06 152.69 199.71 152.69 151.24 154.1 150.59" style="fill: #d4d1b8;"/>
      <polygon points="142.18 156.03 142.18 204.67 140.77 205.33 140.77 156.68 142.18 156.03" style="fill: #d4d1b8;"/>
      <g style="isolation: isolate;">
        <polygon points="91.67 102.12 88.55 100.53 88.54 95.86 91.65 97.67 91.67 102.12" style="fill: #aaaaa2;"/>
        <polygon points="91.65 97.67 88.54 95.86 143.1 64.36 146.21 66.17 91.65 97.67" style="fill: #f6f6e9;"/>
        <polygon points="146.21 66.17 146.22 70.83 91.67 102.12 91.65 97.67 146.21 66.17" style="fill: #d4d1b8;"/>
      </g>
      <g style="isolation: isolate;">
        <polygon points="88.93 103.71 91.91 101.98 91.92 97.51 88.94 99.24 88.93 103.71" style="fill: #d4d1b8;"/>
        <polygon points="88.94 99.24 91.92 97.51 39.71 67.37 36.74 69.1 88.94 99.24" style="fill: #f6f6e9;"/>
        <polygon points="36.74 69.1 36.72 73.57 88.93 103.71 88.94 99.24 36.74 69.1" style="fill: #ebe4ce;"/>
      </g>
      <g style="isolation: isolate;">
        <polygon points="91.86 135.23 88.87 133.69 88.86 129.21 91.85 130.95 91.86 135.23" style="fill: #aaaaa2;"/>
        <polygon points="91.85 130.95 88.86 129.21 141.27 98.95 144.26 100.69 91.85 130.95" style="fill: #fcfbf2;"/>
        <polygon points="144.26 100.69 144.27 105.17 91.86 135.23 91.85 130.95 144.26 100.69" style="fill: #d4d1b8;"/>
      </g>
      <g style="isolation: isolate;">
        <polygon points="88.93 136.69 91.91 134.96 91.92 130.49 88.94 132.22 88.93 136.69" style="fill: #d4d1b8;"/>
        <polygon points="88.94 132.22 91.92 130.49 39.71 100.35 36.74 102.08 88.94 132.22" style="fill: #fcfbf2;"/>
        <polygon points="36.74 102.08 36.72 106.55 88.93 136.69 88.94 132.22 36.74 102.08" style="fill: #ebe4ce;"/>
      </g>
      <g style="isolation: isolate;">
        <polygon points="127.04 158.72 130.08 156.95 130.1 152.38 127.05 154.15 127.04 158.72" style="fill: #d4d1b8;"/>
        <polygon points="127.05 154.15 130.1 152.38 76.77 121.59 73.73 123.36 127.05 154.15" style="fill: #fcfbf2;"/>
        <polygon points="73.73 123.36 73.72 127.93 127.04 158.72 127.05 154.15 73.73 123.36" style="fill: #ebe4ce;"/>
      </g>
      <g style="isolation: isolate;">
        <polygon points="183.44 129.66 186.48 127.89 186.49 123.32 183.45 125.09 183.44 129.66" style="fill: #ebe4ce;"/>
        <polygon points="183.45 125.09 186.49 123.32 142.17 98.39 139.78 99.88 183.45 125.09" style="fill: #fcfbf2;"/>
        <polygon points="142.65 101.54 142.64 106.11 183.44 129.66 183.45 125.09 142.65 101.54" style="fill: #ebe4ce;"/>
      </g>
      <g style="isolation: isolate;">
        <polygon points="130.11 160.48 127.07 158.72 127.05 154.15 130.1 155.92 130.11 160.48" style="fill: #ebe4ce;"/>
        <polygon points="130.1 155.92 127.05 154.15 180.38 123.36 183.42 125.13 130.1 155.92" style="fill: #fcfbf2;"/>
        <polygon points="183.42 125.13 183.44 129.7 130.11 160.48 130.1 155.92 183.42 125.13" style="fill: #ebe4ce;"/>
      </g>
      <g style="isolation: isolate;">
        <polygon points="91.67 67.71 88.55 66.11 88.54 61.45 91.65 63.25 91.67 67.71" style="fill: #aaaaa2;"/>
        <polygon points="91.65 63.25 88.54 61.45 143.1 29.95 146.21 31.76 91.65 63.25" style="fill: #f6f6e9;"/>
        <polygon points="146.21 31.76 146.22 36.42 91.67 67.71 91.65 63.25 146.21 31.76" style="fill: #d4d1b8;"/>
      </g>
      <g style="isolation: isolate;">
        <polygon points="88.93 69.3 91.91 67.57 91.92 63.09 88.94 64.83 88.93 69.3" style="fill: #d4d1b8;"/>
        <polygon points="88.94 64.83 91.92 63.09 39.71 32.95 36.74 34.69 88.94 64.83" style="fill: #f6f6e9;"/>
        <polygon points="36.74 34.69 36.72 39.16 88.93 69.3 88.94 64.83 36.74 34.69" style="fill: #ebe4ce;"/>
      </g>
      <g>
        <polygon points="90.69 42.43 74.32 38.09 84.22 31.97 90.69 42.43" style="fill: #d4d1b8;"/>
        <polygon points="99.37 30.84 99.35 37.54 90.68 42.59 90.69 35.88 99.37 30.84" style="fill: #d4d1b8;"/>
        <polygon points="90.69 35.88 90.68 42.59 81.95 37.54 81.97 30.84 90.69 35.88" style="fill: #ebe4ce;"/>
        <polygon points="99.37 30.84 90.69 35.88 81.97 30.84 90.64 25.8 99.37 30.84" style="fill: #f6f6e9;"/>
        <polygon points="96.46 30.71 90.69 34.07 84.87 30.71 90.65 27.36 96.46 30.71" style="fill: #d4d1b8;"/>
        <polygon points="93.96 32.17 90.65 30.26 87.38 32.16 90.69 34.07 93.96 32.17" style="fill: #ebe4ce;"/>
      </g>
      <g>
        <g style="isolation: isolate;">
          <polygon points="130.7 144.39 131.39 143.99 131.37 150.05 130.67 150.46 130.7 144.39" style="fill: #e8dfd0;"/>
          <polygon points="126.51 141.98 127.21 141.57 131.39 143.99 130.7 144.39 126.51 141.98" style="fill: #ded9d1;"/>
          <polygon points="130.7 144.39 130.67 150.46 126.5 148.04 126.51 141.98 130.7 144.39" style="fill: #f5eee7;"/>
        </g>
        <g style="isolation: isolate;">
          <polygon points="143.74 136.5 144.44 136.09 144.42 142.15 143.72 142.56 143.74 136.5" style="fill: #e8dfd0;"/>
          <polygon points="139.56 134.08 140.26 133.68 144.44 136.09 143.74 136.5 139.56 134.08" style="fill: #ded9d1;"/>
          <polygon points="143.74 136.5 143.72 142.56 139.55 140.14 139.56 134.08 143.74 136.5" style="fill: #f5eee7;"/>
        </g>
        <g>
          <g style="isolation: isolate;">
            <polygon points="125.68 142.14 125.68 142.65 126.83 143.32 126.83 142.81 125.68 142.14" style="fill: #a49d94;"/>
            <polygon points="126.83 142.81 126.83 143.32 142.2 134.45 142.2 133.94 126.83 142.81" style="fill: #c6bdb2;"/>
            <polygon points="125.68 142.14 126.83 142.81 142.2 133.94 141.04 133.27 125.68 142.14" style="fill: #f6f6e9;"/>
          </g>
          <g style="isolation: isolate;">
            <polygon points="127.62 143.27 127.62 143.78 128.77 144.45 128.77 143.94 127.62 143.27" style="fill: #a49d94;"/>
            <polygon points="128.77 143.94 128.77 144.45 144.14 135.57 144.14 135.06 128.77 143.94" style="fill: #c6bdb2;"/>
            <polygon points="127.62 143.27 128.77 143.94 144.14 135.06 142.99 134.4 127.62 143.27" style="fill: #f6f6e9;"/>
          </g>
          <g style="isolation: isolate;">
            <polygon points="129.56 144.39 129.56 144.9 130.71 145.57 130.71 145.06 129.56 144.39" style="fill: #a49d94;"/>
            <polygon points="130.71 145.06 130.71 145.57 146.08 136.7 146.08 136.19 130.71 145.06" style="fill: #c6bdb2;"/>
            <polygon points="129.56 144.39 130.71 145.06 146.08 136.19 144.93 135.52 129.56 144.39" style="fill: #f6f6e9;"/>
          </g>
        </g>
      </g>
      <g>
        <g style="isolation: isolate;">
          <polygon points="156.26 130.53 156.96 130.12 156.94 136.19 156.24 136.6 156.26 130.53" style="fill: #e8dfd0;"/>
          <polygon points="152.08 128.12 152.78 127.71 156.96 130.12 156.26 130.53 152.08 128.12" style="fill: #ded9d1;"/>
          <polygon points="156.26 130.53 156.24 136.6 152.06 134.18 152.08 128.12 156.26 130.53" style="fill: #f5eee7;"/>
        </g>
        <g style="isolation: isolate;">
          <polygon points="169.31 122.63 170.01 122.23 169.99 128.29 169.29 128.69 169.31 122.63" style="fill: #e8dfd0;"/>
          <polygon points="165.13 120.22 165.83 119.81 170.01 122.23 169.31 122.63 165.13 120.22" style="fill: #ded9d1;"/>
          <polygon points="169.31 122.63 169.29 128.69 165.11 126.28 165.13 120.22 169.31 122.63" style="fill: #f5eee7;"/>
        </g>
        <g>
          <g style="isolation: isolate;">
            <polygon points="151.25 128.28 151.25 128.78 152.4 129.46 152.4 128.95 151.25 128.28" style="fill: #a49d94;"/>
            <polygon points="152.4 128.95 152.4 129.46 167.77 120.58 167.77 120.07 152.4 128.95" style="fill: #c6bdb2;"/>
            <polygon points="151.25 128.28 152.4 128.95 167.77 120.07 166.61 119.41 151.25 128.28" style="fill: #f6f6e9;"/>
          </g>
          <g style="isolation: isolate;">
            <polygon points="153.19 129.4 153.19 129.91 154.34 130.58 154.34 130.08 153.19 129.4" style="fill: #a49d94;"/>
            <polygon points="154.34 130.08 154.34 130.58 169.7 121.71 169.7 121.2 154.34 130.08" style="fill: #c6bdb2;"/>
            <polygon points="153.19 129.4 154.34 130.08 169.7 121.2 168.56 120.53 153.19 129.4" style="fill: #f6f6e9;"/>
          </g>
          <g style="isolation: isolate;">
            <polygon points="155.13 130.53 155.13 131.04 156.28 131.71 156.28 131.2 155.13 130.53" style="fill: #a49d94;"/>
            <polygon points="156.28 131.2 156.28 131.71 171.65 122.84 171.65 122.33 156.28 131.2" style="fill: #c6bdb2;"/>
            <polygon points="155.13 130.53 156.28 131.2 171.65 122.33 170.5 121.66 155.13 130.53" style="fill: #f6f6e9;"/>
          </g>
        </g>
      </g>
      <g>
        <g style="opacity: .2;">
          <path d="M150.12,136.47c.96.55.96,1.45.01,2.01-.95.55-2.5.55-3.46,0-.96-.55-.96-1.45-.01-2,.95-.56,2.5-.56,3.46,0Z"/>
        </g>
        <path d="M151.56,134.02l-4.89.08.59,3.04h0c.04.24.22.47.54.66.73.42,1.9.42,2.62,0,.32-.19.5-.42.53-.66h0l.59-3.11Z" style="fill: #7dafef;"/>
        <path d="M150.84,133.01c.96.56.97,1.45.02,2.01-.95.55-2.5.55-3.46,0s-.97-1.45-.01-2c.95-.55,2.5-.55,3.46,0Z" style="fill: #88c4fd;"/>
        <path d="M150.61,133.17c.82.47.82,1.23,0,1.7-.8.47-2.11.47-2.93,0-.81-.47-.82-1.23,0-1.7.81-.47,2.12-.47,2.93,0Z" style="fill: #907153;"/>
        <path d="M149.34,125.96c-.1-.06-.26-.06-.35,0-.05.03-.07.06-.07.1h0l-.02,8.24s.02.07.07.1c.01,0,.02.01.04.02,0,0,.02,0,.03,0,0,0,0,0,.01,0h0s0,0,0,0c0,0,.02,0,.02,0,0,0,.02,0,.03,0h.08s.02,0,.03,0c0,0,0,0,.01,0,0,0,0,0,.01,0,0,0,.02,0,.02,0,.02,0,.04-.02.05-.02h0s0,0,.01-.01c0,0,.01,0,.02-.02h0s.01-.01.02-.02t0,0s0,0,0,0c0,0,0,0,0,0,0,0,0,0,0-.01h0s0,0,0,0c0,0,0,0,0,0,0,0,0-.01,0-.02l.02-8.24h0s0,0,0,.01c0-.04-.02-.08-.08-.12ZM149.4,126.12s-.01,0-.02.01c0,0,.01,0,.02-.01h0ZM149.41,126.1s0-.01,0-.02h0s0,0,0,.02ZM149.36,126.15h0s-.01,0-.02.01c0,0,.01,0,.02-.01ZM148.93,126.1s0,0,0,.02c0,0,0-.01,0-.02ZM148.92,126.07s0,.01,0,.02c0,0,0-.02,0-.02ZM148.95,126.13s0,0,0,.01c0,0,0,0,0-.01Z" style="fill: #85684a;"/>
        <path d="M152.3,127.82c0,1.82-1.48,3.3-3.3,3.3s-3.3-1.48-3.3-3.3,1.48-3.29,3.3-3.29,3.3,1.47,3.3,3.29Z" style="fill: #b1ba4a;"/>
        <path d="M146.06,126.34c.47.29,1.23.48,2.08.48,1.44,0,2.6-.53,2.6-1.19,0-.5-.67-.92-1.61-1.1-.04,0-.09,0-.13,0-1.29,0-2.4.74-2.94,1.81Z" style="fill: #c4c856;"/>
        <path d="M152.28,127.82c0-.87-.34-1.66-.89-2.25,0,1.2-.24,3.03-1.71,3.31-2.21.42-3.4-.89-2.93.42.18.49.38.99.66,1.42.47.25,1,.4,1.57.4,1.82,0,3.3-1.48,3.3-3.3Z" style="fill: #adb244;"/>
      </g>
      <g style="opacity: .2;">
        <path d="M155.88,119.53c1,.58,1,1.51.01,2.09-.99.58-2.6.58-3.6,0-1-.57-1-1.51-.01-2.08.99-.57,2.6-.58,3.6,0Z"/>
      </g>
      <g>
        <path d="M152.52,120.34v.33s-.04,1.02,1.82,1.16c0,0,1.5.11,2.06-.63,0,0,.17-.49.14-.61-.03-.12,0-.33,0-.33l-4.02.09Z" style="fill: #597aa5;"/>
        <path d="M156.53,120.62s0,.02,0,.03c0,0,0,.02,0,.02,0,.01,0,.02,0,.03,0,0,0,.02,0,.03,0,0,0,.02,0,.03,0,0,0,.02,0,.03s0,.02-.01.03c0,.01,0,.02,0,.03,0,0,0,.02-.01.03,0,0,0,.02-.01.03,0,.01-.01.02-.02.03,0,0-.01.02-.02.02,0,.01-.02.02-.02.04,0,0,0,.02-.02.02,0,.01-.02.03-.03.04,0,0,0,0-.01.02-.02.02-.03.04-.05.06,0,0-.01.01-.02.02-.02.02-.03.03-.04.04,0,0-.02.01-.02.02-.01,0-.02.02-.03.03,0,0-.02.02-.03.02-.01,0-.02.02-.03.02s-.02.02-.03.02c-.01,0-.02.02-.04.03,0,0-.02.01-.03.02s-.03.02-.04.02c-.02,0-.03.02-.05.03-.04.02-.09.05-.14.07-.01,0-.03.01-.04.02-.04.02-.08.04-.13.06,0,0-.02,0-.02,0-.05.02-.09.03-.14.05-.04.01-.07.02-.11.03-.03,0-.05.02-.08.02-.04,0-.08.02-.11.02-.03,0-.05.01-.08.02-.01,0-.02,0-.04,0-.04,0-.09.01-.14.02-.02,0-.03,0-.04,0-.03,0-.05,0-.08,0-.04,0-.09,0-.14.01h-.29s-.07,0-.1,0-.07,0-.1,0c-.03,0-.07,0-.1-.01s-.06,0-.09-.01c-.04,0-.07-.01-.11-.02-.03,0-.06,0-.09-.02-.04,0-.08-.02-.12-.03-.03,0-.05-.02-.08-.02-.01,0-.03,0-.04-.02-.04-.01-.08-.03-.12-.04-.01,0-.02,0-.03-.01-.04-.01-.07-.03-.11-.05-.02,0-.03-.02-.05-.02-.05-.02-.1-.05-.15-.08-.4-.23-.59-.53-.59-.83v.19c0,.3.2.6.59.83.05.03.1.06.15.08.02,0,.03.02.05.02.03.02.06.03.09.04,0,0,.01,0,.02,0,.01,0,.02,0,.03.01.04.02.08.03.12.04.02,0,.03,0,.04.02,0,0,.02,0,.03,0,.02,0,.03,0,.05.01.04,0,.08.02.12.03.01,0,.02,0,.04,0,.02,0,.03,0,.05,0,.04,0,.07.02.11.02.02,0,.03,0,.04,0,.02,0,.03,0,.05,0,.03,0,.06,0,.1.01.02,0,.03,0,.05,0,.02,0,.03,0,.05,0,.03,0,.07,0,.1,0,.02,0,.03,0,.05,0h.2s.02,0,.03,0c.05,0,.09,0,.14,0,.02,0,.04,0,.05,0,0,0,.02,0,.02,0,.02,0,.03,0,.04,0,.05,0,.09-.01.14-.02.01,0,.02,0,.04,0,0,0,.01,0,.02,0,.02,0,.04,0,.06-.01.04,0,.07-.02.11-.02.03,0,.05-.02.08-.02.04-.01.07-.02.11-.03,0,0,.01,0,.02,0,.04-.02.08-.03.12-.04,0,0,.01,0,.02,0,.04-.02.09-.04.13-.06.01,0,.02-.01.04-.02.05-.02.09-.05.13-.07,0,0,.02,0,.02-.01,0,0,.02-.01.02-.02.01-.01.02-.02.04-.03.01,0,.02-.02.03-.02.01,0,.02-.02.04-.02,0,0,.02-.02.03-.02s.02-.02.03-.03c0,0,.02-.01.03-.02,0,0,.02-.02.03-.03,0,0,0,0,.01,0s0,0,0,0c.02-.02.03-.03.05-.04,0,0,0-.01.02-.02.02-.02.04-.04.05-.06h0s0-.01.01-.02c0-.01.02-.03.03-.04,0,0,.01-.02.02-.02,0-.01.02-.02.02-.03,0,0,0,0,0-.01,0,0,0-.01,0-.02,0-.01,0-.02.02-.03,0-.01,0-.02.01-.03,0-.01,0-.02.01-.03,0,0,0-.01,0-.02,0,0,0,0,0-.01,0,0,0-.02,0-.03s0-.02,0-.03c0,0,0-.02,0-.03,0,0,0,0,0-.02h0s0-.03,0-.04c0-.01,0-.02,0-.03,0,0,0-.02,0-.03v-.02s0-.01,0-.02v-.19s0,.03,0,.04Z" style="fill: #597aa5;"/>
        <path d="M155.94,119.43c.79.46.79,1.19.01,1.65-.78.46-2.06.46-2.84,0-.79-.46-.79-1.19,0-1.65.78-.46,2.05-.46,2.84,0Z" style="fill: #73a0da;"/>
        <path d="M154.96,113.83s0,.02,0,.03c.02-.07-.02-.15-.12-.2-.17-.1-.44-.1-.6,0-.08.05-.12.11-.12.17h0l-.02,6.6c0,.06.04.13.13.17.02.01.04.02.06.03h0s0,0,.01,0c.01,0,.02,0,.04.02,0,0,.02,0,.02,0,0,0,0,0,.02,0,0,0,0,0,0,0,.02,0,.03,0,.05,0,0,0,.01,0,.02,0h0s.01,0,.02,0h.04s.01,0,.02,0h.03s.03,0,.05,0h.02s.02,0,.04,0c0,0,.01,0,.02,0,.01,0,.03,0,.04,0,0,0,.02,0,.03,0,0,0,0,0,.01,0,.03-.01.05-.02.08-.04,0,0,0,0,0,0,.01,0,.02-.01.02-.02,0,0,.02-.01.03-.02h0s.02-.02.03-.03c0,0,0,0,0,0,0,0,0,0,0,0,0,0,0,0,0-.01,0,0,0-.02.01-.03h0s0,0,0,0c0,0,0-.01,0-.02v-.93s.01-5.7.01-5.7ZM154.95,113.88s-.01.02-.02.03c0-.01.01-.02.02-.03h0ZM154.92,113.92s-.02.02-.03.03c0,0,.02-.02.03-.03h0ZM154.86,113.98h0s-.02.02-.03.02c.01,0,.02-.01.03-.02ZM154.16,113.94s.01.02.02.02c0,0-.02-.01-.02-.02ZM154.11,113.85s0,.02,0,.02c0,0,0-.01,0-.02ZM154.13,113.9s0,.01.01.02c0,0,0-.01-.01-.02Z" style="fill: #969696;"/>
        <path d="M158.82,112.7s0,.04,0,.06c0,.02,0,.04,0,.06s0,.04,0,.06c0,.02,0,.04-.02.06,0,.02,0,.04-.02.06,0,.02-.01.04-.02.06,0,.02-.02.04-.02.06,0,.02-.01.04-.02.06,0,.02-.02.04-.03.06,0,.02-.02.04-.03.06-.01.02-.02.04-.03.06,0,.02-.02.04-.03.05-.02.02-.03.05-.05.08-.01.02-.02.03-.03.05-.02.03-.04.06-.06.09,0,.01-.02.02-.03.03-.03.04-.07.09-.11.13-.01.01-.02.02-.03.03-.03.03-.06.06-.1.1-.02.01-.03.03-.04.04-.02.02-.04.04-.07.06-.02.02-.04.03-.06.05-.02.02-.04.04-.07.05-.02.02-.04.03-.06.05-.02.02-.05.03-.07.05-.02.02-.04.03-.07.04-.03.02-.05.04-.08.05-.03.02-.06.04-.1.06-.09.05-.19.1-.29.15-.02.01-.05.02-.08.04-.09.04-.18.08-.27.12-.02,0-.03,0-.04.02-.1.04-.2.07-.31.11-.07.02-.15.04-.22.06-.05.02-.11.03-.17.04-.08.02-.16.04-.24.05-.06.01-.12.03-.17.04-.02,0-.05,0-.08.01-.1.02-.2.03-.29.04-.03,0-.06,0-.09,0-.06,0-.11,0-.17.02-.1,0-.2.02-.29.02-.06,0-.12,0-.18,0-.08,0-.16,0-.24,0-.06,0-.13,0-.2,0-.07,0-.14,0-.22-.01-.07,0-.13,0-.2-.02-.07,0-.14-.02-.21-.02-.06,0-.13-.02-.2-.03-.08-.01-.15-.03-.22-.04-.06-.01-.12-.02-.18-.04-.09-.02-.18-.04-.26-.06-.06-.02-.12-.03-.17-.05-.03,0-.06-.02-.09-.03-.09-.03-.18-.06-.27-.09-.02,0-.05-.02-.07-.03-.08-.03-.16-.06-.24-.1-.04-.02-.07-.03-.11-.05-.11-.05-.21-.11-.32-.16-.85-.49-1.27-1.13-1.27-1.77v.39c0,.64.42,1.28,1.27,1.77.1.06.21.11.31.16.03.02.07.03.1.04.07.03.13.06.2.09.01,0,.02,0,.04.01.02,0,.05.02.07.03.09.03.17.06.27.09.03,0,.06.02.09.03.02,0,.04.01.06.02.04,0,.08.02.11.03.09.02.17.04.27.06.02,0,.05.01.07.02.04,0,.07.01.11.02.07.02.15.03.22.04.03,0,.06.01.09.02.03,0,.07,0,.1.01.07,0,.14.02.21.02.03,0,.07,0,.1.01.03,0,.07,0,.1,0,.07,0,.14,0,.21.01.04,0,.07,0,.11,0,.03,0,.05,0,.09,0,.08,0,.16,0,.24,0,.04,0,.08,0,.12,0,.02,0,.04,0,.07,0,.1,0,.2,0,.29-.02.04,0,.08,0,.11,0,.02,0,.04,0,.05,0,.03,0,.06,0,.09-.01.1-.01.2-.03.3-.04.03,0,.05,0,.08,0,0,0,.02,0,.03,0,.05,0,.09-.02.14-.03.08-.02.16-.03.24-.05.06-.01.11-.03.17-.05.07-.02.15-.04.22-.06.01,0,.03,0,.04-.01.09-.03.18-.06.26-.09.01,0,.03,0,.04-.02.09-.04.19-.08.27-.12.03-.01.05-.02.08-.04.1-.05.2-.1.29-.15.02-.01.03-.02.05-.03.02,0,.03-.02.05-.03.02-.02.05-.03.07-.05.03-.02.05-.03.07-.05.02-.02.05-.03.07-.05.02-.02.04-.03.06-.05.02-.02.05-.04.07-.05.02-.02.04-.03.06-.05.02-.02.04-.04.06-.06,0,0,.02-.01.03-.02,0,0,.02-.01.02-.02.03-.03.06-.06.1-.1,0-.01.02-.02.03-.03.04-.04.08-.09.11-.13,0,0,0,0,0,0,0,0,.02-.02.02-.03.02-.02.04-.05.06-.08.01-.02.02-.03.03-.05.02-.02.03-.05.05-.08,0,0,0-.01.02-.02,0-.01,0-.02.02-.03.01-.02.02-.04.03-.06,0-.02.02-.04.03-.06,0-.02.02-.04.03-.07,0,0,0-.02.01-.03,0,0,0-.02.01-.03,0-.02.01-.04.02-.06,0-.02,0-.04.02-.06,0-.02.01-.04.02-.06,0-.01,0-.02,0-.03,0,0,0-.02,0-.02,0-.02,0-.04,0-.06,0-.02,0-.04,0-.06,0-.02,0-.04,0-.06,0-.01,0-.03,0-.04v-.43s0,.06,0,.08Z" style="fill: #597aa5;"/>
        <path d="M157.55,110.84c1.69.97,1.7,2.55.02,3.52-1.67.97-4.4.97-6.08,0-1.69-.97-1.69-2.55-.02-3.52s4.39-.97,6.08,0Z" style="fill: #7dafef;"/>
      </g>
      <g style="opacity: .2;">
        <path d="M119.23,139.95c1,.58,1,1.51.01,2.09-.99.58-2.6.58-3.6,0-1-.57-1-1.51-.01-2.08.99-.58,2.6-.58,3.6,0Z"/>
      </g>
      <g>
        <path d="M115.87,140.75v.33s-.05,1.02,1.82,1.16c0,0,1.5.11,2.06-.63,0,0,.17-.49.14-.61-.03-.13,0-.33,0-.33l-4.01.09Z" style="fill: #597aa5;"/>
        <path d="M119.88,141.03s0,.02,0,.03c0,0,0,.02,0,.02,0,.01,0,.02,0,.03,0,0,0,.02,0,.03,0,0,0,.02,0,.03,0,0,0,.02,0,.03s0,.02,0,.03c0,.01,0,.02,0,.03,0,0,0,.02-.01.03v.03s-.02.02-.03.03c0,0,0,.02-.01.02,0,.01-.01.02-.02.03,0,0-.01.02-.02.02,0,.01-.02.03-.03.04,0,0,0,0-.02.02-.02.02-.03.04-.05.06,0,0-.01.01-.02.02-.02.02-.03.03-.05.04,0,0-.01.01-.02.02,0,0-.02.02-.03.03,0,0-.02.02-.03.02-.01,0-.02.02-.03.02s-.02.02-.03.02c-.01,0-.02.02-.04.03-.01,0-.02.01-.03.02-.01,0-.03.02-.04.02-.02,0-.03.02-.05.03-.04.02-.09.05-.13.07-.01,0-.02.01-.04.02-.04.02-.09.04-.13.06,0,0-.01,0-.02,0-.05.02-.09.03-.14.05-.03.01-.07.02-.1.03-.03,0-.05.02-.08.02-.04,0-.07.02-.11.02-.03,0-.05.01-.08.02-.01,0-.02,0-.03,0-.05,0-.09.01-.14.02-.01,0-.03,0-.04,0-.03,0-.05,0-.08,0-.05,0-.09,0-.14.01h-.29s-.07,0-.1,0c-.03,0-.06,0-.09,0-.03,0-.07,0-.1-.01-.03,0-.06,0-.09-.01-.03,0-.07-.01-.1-.02-.03,0-.05,0-.09-.02-.04,0-.08-.02-.12-.03-.03,0-.05-.02-.08-.02-.01,0-.03,0-.04-.02-.04-.01-.09-.03-.13-.04-.01,0-.02,0-.03-.01-.04-.01-.07-.03-.11-.05-.02,0-.04-.02-.05-.02-.05-.02-.1-.05-.15-.08-.4-.23-.59-.53-.59-.83v.19c0,.3.2.6.59.83.05.03.09.06.15.08.02,0,.03.02.05.02.03.02.06.03.09.04,0,0,.01,0,.02,0,.01,0,.02,0,.03.01.04.02.08.03.13.04.01,0,.03,0,.04.02,0,0,.02,0,.03,0,.02,0,.04,0,.05.01.04,0,.08.02.12.03.01,0,.02,0,.03,0,.02,0,.03,0,.05,0,.04,0,.07.02.1.02.02,0,.03,0,.04,0,.02,0,.03,0,.05,0,.03,0,.06,0,.1.01.02,0,.03,0,.05,0,.02,0,.03,0,.05,0,.03,0,.07,0,.1,0,.02,0,.04,0,.05,0h.2s.02,0,.03,0c.05,0,.09,0,.14,0,.02,0,.03,0,.05,0,0,0,.02,0,.03,0,.01,0,.03,0,.04,0,.05,0,.09-.01.14-.02.01,0,.02,0,.04,0,0,0,.01,0,.02,0,.02,0,.04,0,.06-.01.04,0,.08-.02.11-.02.03,0,.05-.02.08-.02.03-.01.07-.02.1-.03,0,0,.02,0,.02,0,.04-.02.08-.03.12-.04,0,0,.01,0,.02,0,.04-.02.09-.04.13-.06.01,0,.02-.01.04-.02.05-.02.09-.05.13-.07,0,0,.02,0,.03-.01,0,0,.02-.01.02-.02.01-.01.02-.02.04-.03.01,0,.02-.02.03-.02.01,0,.02-.02.03-.02s.02-.02.03-.02c.01,0,.02-.02.03-.03,0,0,.02-.01.03-.02.01,0,.02-.02.03-.03,0,0,0,0,.01,0,0,0,0,0,.01,0,.02-.02.03-.03.04-.04l.02-.02s.04-.04.05-.06c0,0,0,0,0,0,0,0,0,0,.01-.02.01-.01.02-.03.03-.04,0,0,0-.02.02-.02,0-.01.01-.02.02-.03,0,0,0,0,0-.01,0,0,0-.01,0-.02,0-.01.01-.02.02-.03,0-.01,0-.02.02-.03,0-.01,0-.02.01-.03,0,0,0-.01,0-.02s0,0,0-.01c0,0,0-.02,0-.03s0-.02,0-.03c0,0,0-.02,0-.03,0,0,0,0,0-.02,0,0,0,0,0,0,0-.01,0-.02,0-.03,0-.01,0-.02,0-.03,0,0,0-.02,0-.03,0,0,0-.01,0-.02v-.2s0,.03,0,.04Z" style="fill: #597aa5;"/>
        <path d="M119.29,139.84c.79.46.79,1.19,0,1.65-.78.46-2.06.46-2.84,0-.79-.46-.79-1.19,0-1.65.78-.45,2.06-.45,2.84,0Z" style="fill: #73a0da;"/>
        <path d="M118.31,134.24s0,.02,0,.03c.02-.07-.02-.15-.12-.2-.17-.1-.43-.1-.6,0-.08.05-.12.11-.12.17h0l-.02,6.6c0,.06.04.13.12.17.02.01.04.02.06.03h0s0,0,.01,0c.01,0,.02,0,.04.02,0,0,.02,0,.02,0,0,0,0,0,.01,0,0,0,0,0,0,0,.01,0,.03,0,.04,0,0,0,.01,0,.02,0h0s.01,0,.02,0h.04s0,0,.02,0h.03s.03,0,.05,0h.02s.03,0,.04,0c0,0,.01,0,.02,0,.01,0,.03,0,.04,0,0,0,.02,0,.02,0,0,0,0,0,.01,0,.03-.01.06-.02.08-.04,0,0,0,0,0,0,0,0,.02-.01.02-.02,0,0,.02-.01.03-.02h0s.02-.02.03-.03c0,0,0,0,0,0,0,0,0,0,0,0,0,0,0,0,0-.01,0,0,.01-.02.01-.03h0s0-.02,0-.02c0,0,0-.02,0-.03v-.9s.01-5.7.01-5.7ZM118.3,134.29s-.01.02-.02.03c0-.01.02-.02.02-.03h0ZM118.27,134.33s-.02.02-.03.03c.01,0,.02-.02.03-.03h0ZM118.21,134.39h0s-.02.02-.03.02c.01,0,.02-.02.03-.02ZM117.51,134.35s.01.02.02.02c0,0-.02-.01-.02-.02ZM117.46,134.26s0,.02,0,.02c0,0,0-.01,0-.02ZM117.48,134.31s0,.01.01.02c0,0,0-.01-.01-.02Z" style="fill: #969696;"/>
        <path d="M122.17,133.11s0,.04,0,.06c0,.02,0,.04,0,.06v.06s-.02.04-.02.06c0,.02-.01.04-.02.06,0,.02-.01.04-.02.06,0,.02-.01.04-.02.06,0,.02-.01.04-.02.06,0,.02-.02.04-.03.06l-.03.05s-.02.04-.03.06c-.01.02-.02.04-.03.05-.02.02-.03.05-.05.08,0,.02-.02.03-.03.05-.02.03-.04.06-.06.09,0,.01-.02.02-.02.03-.04.04-.07.09-.11.13,0,.01-.02.02-.03.03-.03.03-.07.06-.1.1-.02.02-.03.03-.04.04-.02.02-.04.04-.06.06-.02.02-.04.03-.06.05-.02.02-.05.04-.07.05-.02.02-.04.03-.06.05-.02.02-.05.04-.07.05-.02.02-.04.03-.07.04-.03.02-.05.04-.08.05-.03.02-.06.04-.1.06-.09.06-.19.1-.29.15-.03.01-.05.02-.08.04-.09.04-.18.08-.27.12-.01,0-.03,0-.04.02-.1.04-.2.07-.31.11-.07.02-.15.04-.22.06-.05.02-.11.03-.17.04-.08.02-.16.03-.24.05-.05.01-.11.03-.17.03-.02,0-.05,0-.07.01-.1.02-.2.03-.3.04-.03,0-.06,0-.09,0-.05,0-.11,0-.17.02-.1,0-.2.02-.29.02-.06,0-.12,0-.19,0-.08,0-.16,0-.24,0-.07,0-.13,0-.2,0-.07,0-.14,0-.22-.01-.07,0-.13,0-.2-.02-.07,0-.14-.02-.21-.02-.07,0-.13-.02-.2-.03-.07-.01-.15-.03-.22-.04-.06-.01-.12-.02-.18-.04-.09-.02-.18-.04-.26-.06-.06-.02-.12-.03-.18-.05-.03,0-.05-.02-.09-.03-.09-.03-.18-.06-.27-.09-.02,0-.05-.02-.07-.03-.08-.03-.16-.06-.23-.1-.04-.02-.07-.03-.11-.04-.11-.05-.21-.11-.31-.17-.85-.49-1.27-1.13-1.27-1.77v.4c0,.64.42,1.29,1.27,1.77.1.06.21.12.32.16.03.02.07.03.1.04.06.03.13.06.2.09.01,0,.02,0,.04.01.02,0,.04.02.07.03.09.03.17.06.26.09.03.01.06.02.09.03.02,0,.04.01.06.02.04,0,.07.02.11.03.09.02.17.04.26.07.03,0,.05.01.07.02.04,0,.07.01.11.02.08.02.15.03.23.04.03,0,.06.01.09.02.03,0,.07,0,.1.01.07,0,.14.02.21.02.04,0,.07,0,.11.01.03,0,.06,0,.1,0,.07,0,.14,0,.22.01.04,0,.07,0,.11,0,.03,0,.06,0,.09,0,.08,0,.16,0,.24,0,.04,0,.08,0,.12,0,.02,0,.04,0,.07,0,.1,0,.2,0,.3-.02.04,0,.08,0,.12,0,.02,0,.04,0,.05,0,.03,0,.06,0,.09-.01.1-.01.2-.03.29-.04.02,0,.05,0,.08-.01.01,0,.02,0,.03,0,.04,0,.09-.02.14-.03.08-.02.16-.03.24-.05.06-.02.11-.03.17-.05.07-.02.15-.04.22-.06.02,0,.03,0,.05-.01.09-.03.17-.06.26-.09.02,0,.03-.01.04-.02.09-.04.18-.08.27-.12.03-.01.05-.02.08-.04.1-.05.2-.1.29-.15.02-.01.04-.02.05-.03s.03-.02.05-.03c.03-.02.05-.03.07-.05.02-.02.05-.03.07-.05.03-.02.05-.04.07-.05s.04-.03.06-.05c.02-.02.05-.04.07-.05.02-.02.04-.03.05-.05.02-.02.04-.04.07-.05,0,0,.02-.02.02-.02,0,0,.01-.01.02-.02.03-.03.07-.06.1-.1.01-.01.02-.02.03-.03.04-.04.08-.09.11-.13,0,0,0,0,0,0,.01,0,.02-.02.03-.03.02-.03.04-.05.06-.08.01-.02.02-.03.03-.05.02-.03.03-.05.05-.08,0,0,0-.01.01-.02,0-.01.01-.02.02-.03.01-.02.02-.04.04-.06,0-.02.02-.04.02-.05,0-.02.02-.04.03-.06,0,0,0-.02.01-.03,0,0,0-.02,0-.03,0-.02.01-.04.02-.06,0-.02.01-.04.02-.06,0-.02,0-.04.02-.06,0-.01,0-.02,0-.04,0,0,0-.02,0-.02,0-.02,0-.04,0-.06,0-.02,0-.04,0-.06,0-.02,0-.04,0-.06,0-.01,0-.03,0-.04v-.43s0,.07,0,.09Z" style="fill: #597aa5;"/>
        <path d="M120.9,131.26c1.69.97,1.7,2.55.02,3.52-1.67.97-4.4.97-6.08,0-1.69-.97-1.69-2.55-.02-3.52,1.67-.97,4.4-.97,6.08,0Z" style="fill: #7dafef;"/>
      </g>
      <g>
        <polygon points="120.24 223.4 126.83 219.56 133.68 223.31 125.77 227.62 120.24 223.4" style="fill: #c4c856;"/>
        <g>
          <g style="opacity: .2;">
            <path d="M132.21,206.93c1.04.6,1.05,1.58.01,2.18-1.03.6-2.71.6-3.75,0-1.04-.6-1.04-1.57-.01-2.17,1.03-.6,2.71-.6,3.75,0Z"/>
          </g>
          <path d="M133.77,204.26l-5.31.08.64,3.29h.01c.04.26.24.51.59.71.79.46,2.07.46,2.85,0,.34-.2.53-.45.58-.71h0l.64-3.37Z" style="fill: #7dafef;"/>
          <g style="isolation: isolate;">
            <polygon points="133.93 222.69 133.93 223.66 126.83 219.56 126.84 218.6 133.93 222.69" style="fill: #a49d94;"/>
            <polygon points="126.84 218.6 126.83 219.56 119.4 223.89 119.4 222.92 126.84 218.6" style="fill: #c6bdb2;"/>
            <polygon points="126.72 228.31 126.72 229.27 117.34 223.86 117.34 222.89 126.72 228.31" style="fill: #d4d1b8;"/>
            <polygon points="136.04 222.89 136.04 223.86 126.72 229.27 126.72 228.31 136.04 222.89" style="fill: #ebe4ce;"/>
            <path d="M126.66,217.47l9.38,5.42-9.32,5.41-9.38-5.41,9.32-5.42ZM126.5,227.01l7.43-4.32-7.09-4.09-7.44,4.32,7.1,4.09h0Z" style="fill: #f6f6e9;"/>
          </g>
          <path d="M127.75,193.25c-.44-.21-1.13-.21-1.56,0-.21.1-.32.24-.32.38h0s-.1,30.44-.1,30.44c0,.14.11.28.32.38.05.03.11.05.16.06.05.02.09.03.13.04.03,0,.04.01.07.02,0,0,0,0,.02,0,0,0,.02,0,.03,0,.03,0,.07.01.11.01.04,0,.07.01.11.02.04,0,.07,0,.11,0h.11s.08,0,.13,0,.1-.01.14-.02c.02,0,.04,0,.07,0,.02,0,.03-.01.05-.01.03,0,.06-.01.09-.02.09-.02.17-.05.24-.09,0,0,0,0,.02,0,.02,0,.03-.02.05-.03.03-.02.06-.04.09-.05,0,0,0,0,0,0,.03-.02.05-.04.08-.06,0,0,0,0,0-.02,0,0,.01,0,.02-.01,0,0,.02-.02.03-.03,0-.02.02-.04.02-.05,0,0,0,0,0,0t0-.02s0-.02,0-.03c0-.02,0-.04,0-.05l.1-30.45h0s0,.02,0,.04c.03-.15-.08-.31-.32-.42ZM127.99,193.83s-.04.04-.06.06c.02-.02.05-.04.06-.06h0ZM128.03,193.78s.03-.03.03-.05h0s-.02.03-.03.05ZM127.83,193.96h0s-.05.03-.07.05c.03-.01.05-.03.07-.05ZM125.91,193.77s.02.04.04.06c-.01-.02-.03-.04-.04-.06ZM125.88,193.67s0,.04.02.06c0-.02-.01-.04-.02-.06ZM126.01,193.88s.03.03.04.04c-.01,0-.03-.02-.04-.04Z" style="fill: #85684a;"/>
          <path d="M137.54,199.88c0,6.1-4.94,11.04-11.05,11.04s-11.04-4.94-11.04-11.04,4.95-11.04,11.04-11.04c6.1,0,11.05,4.94,11.05,11.04Z" style="fill: #b1ba4a;"/>
          <path d="M116.63,194.92c1.59.97,4.12,1.61,6.97,1.61,4.81,0,8.71-1.79,8.71-3.99,0-1.67-2.23-3.1-5.39-3.69-.14,0-.28,0-.43,0-4.31,0-8.05,2.48-9.86,6.08Z" style="fill: #c4c856;"/>
          <path d="M137.47,199.88c0-2.91-1.13-5.56-2.96-7.53,0,4.01-.8,10.14-5.73,11.08-7.4,1.41-11.41-2.98-9.8,1.4.6,1.65,1.25,3.32,2.19,4.76,1.56.85,3.35,1.33,5.25,1.33,6.1,0,11.05-4.94,11.05-11.04Z" style="fill: #adb244;"/>
        </g>
      </g>
      <g>
        <polygon points="200.72 176.6 207.5 172.66 214.54 176.51 206.41 180.95 200.72 176.6" style="fill: #c4c856;"/>
        <g>
          <g style="opacity: .2;">
            <path d="M213.03,159.67c1.07.62,1.07,1.62.01,2.24-1.06.62-2.78.62-3.86,0-1.07-.62-1.07-1.62-.01-2.23,1.06-.62,2.79-.62,3.86,0Z"/>
          </g>
          <path d="M214.64,156.94l-5.45.09.65,3.38h.01c.04.27.25.53.6.73.81.47,2.12.47,2.93,0,.35-.21.55-.47.59-.74h0l.66-3.47Z" style="fill: #7dafef;"/>
          <g style="isolation: isolate;">
            <polygon points="214.8 175.88 214.8 176.88 207.5 172.66 207.51 171.67 214.8 175.88" style="fill: #a49d94;"/>
            <polygon points="207.51 171.67 207.5 172.66 199.86 177.11 199.87 176.11 207.51 171.67" style="fill: #c6bdb2;"/>
            <polygon points="207.39 181.65 207.39 182.64 197.75 177.08 197.75 176.08 207.39 181.65" style="fill: #d4d1b8;"/>
            <polygon points="216.97 176.08 216.97 177.08 207.39 182.64 207.39 181.65 216.97 176.08" style="fill: #ebe4ce;"/>
            <path d="M207.33,170.51l9.64,5.57-9.58,5.56-9.64-5.56,9.58-5.57ZM207.16,180.32l7.64-4.44-7.29-4.21-7.64,4.44,7.29,4.21h0Z" style="fill: #f6f6e9;"/>
          </g>
          <path d="M208.45,145.62c-.45-.22-1.16-.22-1.6,0-.22.11-.33.24-.33.39h0s-.11,31.29-.11,31.29c0,.14.11.29.33.39.05.03.11.05.17.07.05.02.09.03.14.04.03,0,.04.02.07.02,0,0,.01,0,.02,0,0,0,.02,0,.03,0,.04,0,.08.01.11.02.04,0,.08,0,.11.02.04,0,.07,0,.11,0h.11s.09,0,.13,0c.05,0,.1-.02.14-.02.02,0,.04,0,.07,0,.02,0,.04,0,.05-.01.03-.01.07-.01.1-.02.1-.03.18-.06.25-.1t.02,0s.03-.02.05-.03c.03-.02.06-.04.09-.06,0,0,0,0,0,0,.03-.02.05-.04.08-.06,0,0,0,0,0-.02.01,0,.01,0,.02-.01,0,0,.02-.02.02-.03,0-.02.02-.03.03-.05h0s0-.02,0-.02c0,0,0-.02.01-.03,0-.02,0-.04,0-.06l.1-31.29h0s0,.02,0,.04c.02-.16-.08-.32-.33-.43ZM208.7,146.21s-.04.04-.06.06c.02-.02.05-.04.06-.06h0ZM208.73,146.16s.03-.03.03-.05h0s-.02.04-.03.05ZM208.53,146.35h0s-.05.03-.07.04c.03-.01.05-.03.07-.04ZM206.56,146.15s.02.04.04.06c-.02-.02-.03-.04-.04-.06ZM206.52,146.05s0,.04.02.06c0-.02,0-.04-.02-.06ZM206.66,146.26s.03.03.04.04c-.01,0-.03-.03-.04-.04Z" style="fill: #85684a;"/>
          <path d="M218.51,152.43c0,6.27-5.08,11.35-11.36,11.35s-11.35-5.08-11.35-11.35,5.08-11.35,11.35-11.35,11.36,5.08,11.36,11.35Z" style="fill: #b1ba4a;"/>
          <path d="M197.01,147.33c1.63,1,4.23,1.66,7.16,1.66,4.95,0,8.95-1.84,8.95-4.11,0-1.71-2.29-3.18-5.54-3.79-.14,0-.29-.01-.44-.01-4.43,0-8.27,2.55-10.14,6.26Z" style="fill: #c4c856;"/>
          <path d="M218.44,152.43c0-2.99-1.16-5.71-3.05-7.74,0,4.12-.83,10.42-5.89,11.39-7.61,1.45-11.73-3.06-10.07,1.44.61,1.69,1.29,3.42,2.25,4.89,1.61.87,3.45,1.37,5.4,1.37,6.27,0,11.36-5.08,11.36-11.36Z" style="fill: #adb244;"/>
        </g>
      </g>
      <g>
        <polygon points="8.55 159.87 15.58 155.79 22.88 159.78 14.45 164.38 8.55 159.87" style="fill: #c4c856;"/>
        <g>
          <g style="opacity: .2;">
            <path d="M21.31,142.32c1.11.64,1.12,1.68.01,2.32-1.1.64-2.88.64-4,0-1.11-.64-1.11-1.68-.01-2.32,1.1-.64,2.89-.64,4,0Z"/>
          </g>
          <path d="M22.98,139.48l-5.66.09.68,3.51h.01c.05.28.26.55.62.76.84.49,2.2.49,3.04,0,.37-.21.57-.49.61-.76h0l.69-3.6Z" style="fill: #7dafef;"/>
          <g style="isolation: isolate;">
            <polygon points="23.15 159.12 23.14 160.15 15.58 155.79 15.58 154.75 23.15 159.12" style="fill: #a49d94;"/>
            <polygon points="15.58 154.75 15.58 155.79 7.66 160.39 7.66 159.36 15.58 154.75" style="fill: #c6bdb2;"/>
            <polygon points="15.46 165.1 15.46 166.14 5.46 160.37 5.47 159.33 15.46 165.1" style="fill: #d4d1b8;"/>
            <polygon points="25.4 159.33 25.4 160.37 15.46 166.14 15.46 165.1 25.4 159.33" style="fill: #ebe4ce;"/>
            <path d="M15.4,153.56l10,5.77-9.93,5.77-10-5.77,9.93-5.77ZM15.22,163.72l7.92-4.6-7.56-4.37-7.92,4.61,7.56,4.36h0Z" style="fill: #f6f6e9;"/>
          </g>
          <path d="M16.56,127.74c-.47-.22-1.2-.22-1.66,0-.23.11-.35.26-.35.4h0s-.11,32.45-.11,32.45c0,.15.12.3.35.4.06.03.11.06.17.07.05.02.09.03.14.04.03,0,.04.01.07.02,0,0,.01,0,.02,0,0,0,.02,0,.03,0,.04,0,.08.01.12.02.04,0,.08,0,.11.02.04,0,.08,0,.12,0h.11s.09,0,.13,0c.05,0,.1-.02.14-.02.03,0,.05,0,.07,0,.02,0,.04,0,.05-.01.04,0,.07-.01.1-.02.1-.03.18-.06.26-.1t.02,0s.03-.02.05-.03c.03-.02.06-.04.09-.06,0,0,0,0,0,0,.03-.02.05-.05.08-.07,0,0,0,0,0-.02,0,0,.01,0,.02-.02,0,0,.02-.02.03-.03,0-.02.02-.04.03-.06,0,0,0,0,0,0,0,0,0,0,0-.02,0,0,0-.02.01-.03,0-.02,0-.04,0-.06l.11-32.45h0s0,.02,0,.04c.03-.16-.08-.33-.34-.45ZM16.81,128.36s-.04.04-.06.06c.02-.02.05-.04.06-.06h0ZM16.85,128.3s.03-.03.03-.06h0s-.02.04-.03.06ZM16.64,128.49h0s-.05.03-.08.05c.03-.01.05-.03.08-.05ZM14.6,128.29s.03.04.04.07c-.01-.02-.03-.05-.04-.07ZM14.56,128.18s0,.04.01.06c0-.02,0-.04-.01-.06ZM14.71,128.41s.03.03.04.04c-.02-.01-.03-.03-.04-.04Z" style="fill: #85684a;"/>
          <path d="M26.99,134.8c0,6.5-5.27,11.77-11.77,11.77s-11.77-5.27-11.77-11.77,5.27-11.77,11.77-11.77,11.77,5.27,11.77,11.77Z" style="fill: #b1ba4a;"/>
          <path d="M4.7,129.52c1.69,1.04,4.39,1.71,7.43,1.71,5.13,0,9.28-1.91,9.28-4.26,0-1.78-2.38-3.3-5.74-3.94-.15,0-.3,0-.45,0-4.6,0-8.58,2.64-10.52,6.49Z" style="fill: #c4c856;"/>
          <path d="M26.92,134.8c0-3.1-1.2-5.92-3.16-8.02,0,4.28-.86,10.8-6.1,11.81-7.89,1.5-12.16-3.18-10.44,1.49.64,1.76,1.33,3.54,2.33,5.08,1.66.9,3.57,1.42,5.6,1.42,6.51,0,11.78-5.27,11.78-11.77Z" style="fill: #adb244;"/>
        </g>
      </g>
      <polygon points="119.96 127.71 106.22 136.02 96.06 132.82 113.05 124.45 119.96 127.71" style="isolation: isolate; opacity: .1;"/>
      <polygon points="145.53 113.85 131.78 122.15 121.62 118.16 136.99 109.28 145.53 113.85" style="isolation: isolate; opacity: .1;"/>
      <g>
        <g style="isolation: isolate;">
          <polygon points="106.23 129.95 106.93 129.54 106.92 135.61 106.22 136.02 106.23 129.95" style="fill: #e8dfd0;"/>
          <polygon points="102.05 127.54 102.75 127.13 106.93 129.54 106.23 129.95 102.05 127.54" style="fill: #ded9d1;"/>
          <polygon points="106.23 129.95 106.22 136.02 102.03 133.6 102.05 127.54 106.23 129.95" style="fill: #f5eee7;"/>
        </g>
        <g style="isolation: isolate;">
          <polygon points="119.28 122.05 119.98 121.65 119.96 127.71 119.26 128.12 119.28 122.05" style="fill: #e8dfd0;"/>
          <polygon points="115.1 119.64 115.8 119.23 119.98 121.65 119.28 122.05 115.1 119.64" style="fill: #ded9d1;"/>
          <polygon points="119.28 122.05 119.26 128.12 115.08 125.7 115.1 119.64 119.28 122.05" style="fill: #f5eee7;"/>
        </g>
        <g>
          <g style="isolation: isolate;">
            <polygon points="101.22 127.7 101.22 128.21 102.37 128.87 102.37 128.37 101.22 127.7" style="fill: #a49d94;"/>
            <polygon points="102.37 128.37 102.37 128.87 117.74 120 117.74 119.5 102.37 128.37" style="fill: #c6bdb2;"/>
            <polygon points="101.22 127.7 102.37 128.37 117.74 119.5 116.58 118.83 101.22 127.7" style="fill: #f6f6e9;"/>
          </g>
          <g style="isolation: isolate;">
            <polygon points="103.16 128.83 103.16 129.33 104.31 130 104.31 129.49 103.16 128.83" style="fill: #a49d94;"/>
            <polygon points="104.31 129.49 104.31 130 119.67 121.13 119.67 120.62 104.31 129.49" style="fill: #c6bdb2;"/>
            <polygon points="103.16 128.83 104.31 129.49 119.67 120.62 118.53 119.95 103.16 128.83" style="fill: #f6f6e9;"/>
          </g>
          <g style="isolation: isolate;">
            <polygon points="105.1 129.95 105.1 130.46 106.25 131.13 106.25 130.62 105.1 129.95" style="fill: #a49d94;"/>
            <polygon points="106.25 130.62 106.25 131.13 121.62 122.26 121.62 121.75 106.25 130.62" style="fill: #c6bdb2;"/>
            <polygon points="105.1 129.95 106.25 130.62 121.62 121.75 120.46 121.08 105.1 129.95" style="fill: #f6f6e9;"/>
          </g>
        </g>
      </g>
      <g>
        <g style="isolation: isolate;">
          <polygon points="131.8 116.08 132.5 115.68 132.48 121.75 131.78 122.15 131.8 116.08" style="fill: #e8dfd0;"/>
          <polygon points="127.63 113.67 128.32 113.27 132.5 115.68 131.8 116.08 127.63 113.67" style="fill: #ded9d1;"/>
          <polygon points="131.8 116.08 131.78 122.15 127.6 119.74 127.63 113.67 131.8 116.08" style="fill: #f5eee7;"/>
        </g>
        <g style="isolation: isolate;">
          <polygon points="144.85 108.19 145.55 107.78 145.53 113.85 144.83 114.25 144.85 108.19" style="fill: #e8dfd0;"/>
          <polygon points="140.67 105.78 141.37 105.37 145.55 107.78 144.85 108.19 140.67 105.78" style="fill: #ded9d1;"/>
          <polygon points="144.85 108.19 144.83 114.25 140.65 111.84 140.67 105.78 144.85 108.19" style="fill: #f5eee7;"/>
        </g>
        <g>
          <g style="isolation: isolate;">
            <polygon points="126.79 113.84 126.79 114.34 127.94 115.01 127.94 114.5 126.79 113.84" style="fill: #a49d94;"/>
            <polygon points="127.94 114.5 127.94 115.01 143.31 106.14 143.31 105.63 127.94 114.5" style="fill: #c6bdb2;"/>
            <polygon points="126.79 113.84 127.94 114.5 143.31 105.63 142.15 104.96 126.79 113.84" style="fill: #f6f6e9;"/>
          </g>
          <g style="isolation: isolate;">
            <polygon points="128.73 114.96 128.73 115.47 129.88 116.14 129.88 115.63 128.73 114.96" style="fill: #a49d94;"/>
            <polygon points="129.88 115.63 129.88 116.14 145.24 107.27 145.24 106.76 129.88 115.63" style="fill: #c6bdb2;"/>
            <polygon points="128.73 114.96 129.88 115.63 145.24 106.76 144.09 106.09 128.73 114.96" style="fill: #f6f6e9;"/>
          </g>
          <g style="isolation: isolate;">
            <polygon points="130.67 116.09 130.67 116.6 131.82 117.27 131.82 116.76 130.67 116.09" style="fill: #a49d94;"/>
            <polygon points="131.82 116.76 131.82 117.27 147.19 108.39 147.19 107.89 131.82 116.76" style="fill: #c6bdb2;"/>
            <polygon points="130.67 116.09 131.82 116.76 147.19 107.89 146.04 107.22 130.67 116.09" style="fill: #f6f6e9;"/>
          </g>
        </g>
      </g>
      <g>
        <g style="opacity: .2;">
          <path d="M125.66,122.03c.96.55.96,1.45.01,2.01-.95.55-2.5.55-3.46,0-.96-.55-.96-1.45-.01-2,.95-.55,2.5-.55,3.46,0Z"/>
        </g>
        <path d="M127.1,119.57l-4.89.08.59,3.03h.01c.04.24.22.47.54.66.73.42,1.9.42,2.62,0,.32-.18.5-.42.53-.66h0l.59-3.11Z" style="fill: #7dafef;"/>
        <path d="M126.38,118.57c.96.56.97,1.45.01,2.01-.95.55-2.5.55-3.46,0-.96-.56-.97-1.45-.01-2s2.5-.56,3.46,0Z" style="fill: #88c4fd;"/>
        <path d="M126.14,118.73c.82.47.82,1.23,0,1.7-.81.47-2.11.47-2.93,0-.81-.47-.82-1.23-.01-1.7.81-.47,2.12-.47,2.93,0Z" style="fill: #907153;"/>
        <path d="M124.88,111.52c-.1-.06-.26-.06-.35,0-.05.03-.07.07-.07.1h0l-.02,8.24s.03.07.07.1c.01,0,.03.02.04.02s.02,0,.03.01c0,0,.01,0,.02,0h0s0,0,.01,0c0,0,.02,0,.02,0s.02,0,.02,0c0,0,.02,0,.02,0,0,0,0,0,0,0h0s0,0,.01,0c0,0,.02,0,.03,0,.01,0,.02,0,.03,0,0,0,0,0,.02,0,0,0,0,0,.01,0,0,0,.02,0,.02,0,.02,0,.04-.02.05-.03h0s0,0,.01,0c0,0,.01,0,.02-.01h0s.01-.02.02-.02h0s0,0,0,0c0,0,0,0,0,0,0,0,0,0,0-.01h0s0-.01,0-.02,0,0,0-.01l.02-8.24h0s0,0,0,.01c0-.04-.02-.08-.08-.11ZM124.94,111.68s0,0-.01.01c0,0,0,0,.01-.01h0ZM124.95,111.66s0,0,0-.01h0s0,0,0,.01ZM124.9,111.71h0s0,0-.02.01c0,0,.01,0,.02-.01ZM124.47,111.66s0,0,0,.02c0,0,0,0,0-.02ZM124.46,111.63s0,.01,0,.02c0,0,0-.01,0-.02ZM124.49,111.69s0,0,0,.01c0,0,0,0,0-.01Z" style="fill: #85684a;"/>
        <path d="M127.84,113.38c0,1.82-1.48,3.3-3.29,3.3s-3.3-1.48-3.3-3.3,1.47-3.3,3.3-3.3,3.29,1.48,3.29,3.3Z" style="fill: #b1ba4a;"/>
        <path d="M121.6,111.9c.47.29,1.23.48,2.08.48,1.44,0,2.6-.53,2.6-1.19,0-.5-.67-.92-1.61-1.1-.04,0-.09,0-.13,0-1.29,0-2.4.74-2.95,1.82Z" style="fill: #c4c856;"/>
        <path d="M127.82,113.38c0-.87-.34-1.66-.89-2.25,0,1.2-.24,3.03-1.71,3.31-2.21.42-3.4-.89-2.93.42.18.49.38.99.65,1.42.47.25,1,.4,1.57.4,1.82,0,3.3-1.47,3.3-3.3Z" style="fill: #adb244;"/>
      </g>
      <g>
        <g style="isolation: isolate;">
          <polygon points="145.37 213.27 146.09 212.85 146.07 219.14 145.35 219.55 145.37 213.27" style="fill: #e8dfd0;"/>
          <polygon points="141.04 210.77 141.77 210.35 146.09 212.85 145.37 213.27 141.04 210.77" style="fill: #ded9d1;"/>
          <polygon points="145.37 213.27 145.35 219.55 141.02 217.06 141.04 210.77 145.37 213.27" style="fill: #f5eee7;"/>
        </g>
        <g style="isolation: isolate;">
          <polygon points="158.88 205.1 159.6 204.68 159.59 210.96 158.86 211.37 158.88 205.1" style="fill: #e8dfd0;"/>
          <polygon points="154.55 202.6 155.27 202.18 159.6 204.68 158.88 205.1 154.55 202.6" style="fill: #ded9d1;"/>
          <polygon points="158.88 205.1 158.86 211.37 154.53 208.88 154.55 202.6 158.88 205.1" style="fill: #f5eee7;"/>
        </g>
        <g>
          <g style="isolation: isolate;">
            <polygon points="140.18 210.94 140.18 211.47 141.37 212.16 141.37 211.64 140.18 210.94" style="fill: #a49d94;"/>
            <polygon points="141.37 211.64 141.37 212.16 157.28 202.98 157.28 202.45 141.37 211.64" style="fill: #c6bdb2;"/>
            <polygon points="140.18 210.94 141.37 211.64 157.28 202.45 156.09 201.76 140.18 210.94" style="fill: #d4cbbd;"/>
          </g>
          <g style="isolation: isolate;">
            <polygon points="142.19 212.11 142.19 212.63 143.38 213.33 143.38 212.8 142.19 212.11" style="fill: #a49d94;"/>
            <polygon points="143.38 212.8 143.38 213.33 159.29 204.14 159.29 203.62 143.38 212.8" style="fill: #c6bdb2;"/>
            <polygon points="142.19 212.11 143.38 212.8 159.29 203.62 158.1 202.92 142.19 212.11" style="fill: #d4cbbd;"/>
          </g>
          <g style="isolation: isolate;">
            <polygon points="144.2 213.28 144.2 213.8 145.39 214.49 145.39 213.97 144.2 213.28" style="fill: #d4cbbd;"/>
            <polygon points="145.39 213.97 145.39 214.49 161.3 205.31 161.3 204.79 145.39 213.97" style="fill: #c6bdb2;"/>
            <polygon points="144.2 213.28 145.39 213.97 161.3 204.79 160.11 204.09 144.2 213.28" style="fill: #d4cbbd;"/>
          </g>
        </g>
      </g>
      <g>
        <g style="isolation: isolate;">
          <polygon points="186.12 189.62 186.84 189.2 186.82 195.48 186.1 195.9 186.12 189.62" style="fill: #e8dfd0;"/>
          <polygon points="181.79 187.12 182.51 186.7 186.84 189.2 186.12 189.62 181.79 187.12" style="fill: #ded9d1;"/>
          <polygon points="186.12 189.62 186.1 195.9 181.77 193.4 181.79 187.12 186.12 189.62" style="fill: #f5eee7;"/>
        </g>
        <g style="isolation: isolate;">
          <polygon points="199.63 181.45 200.35 181.02 200.34 187.3 199.61 187.72 199.63 181.45" style="fill: #e8dfd0;"/>
          <polygon points="195.3 178.95 196.02 178.52 200.35 181.02 199.63 181.45 195.3 178.95" style="fill: #ded9d1;"/>
          <polygon points="199.63 181.45 199.61 187.72 195.28 185.22 195.3 178.95 199.63 181.45" style="fill: #f5eee7;"/>
        </g>
        <g>
          <g style="isolation: isolate;">
            <polygon points="180.93 187.29 180.93 187.81 182.13 188.5 182.12 187.98 180.93 187.29" style="fill: #a49d94;"/>
            <polygon points="182.12 187.98 182.13 188.5 198.03 179.32 198.03 178.79 182.12 187.98" style="fill: #c6bdb2;"/>
            <polygon points="180.93 187.29 182.12 187.98 198.03 178.79 196.84 178.1 180.93 187.29" style="fill: #d4cbbd;"/>
          </g>
          <g style="isolation: isolate;">
            <polygon points="182.94 188.46 182.94 188.98 184.13 189.67 184.12 189.15 182.94 188.46" style="fill: #a49d94;"/>
            <polygon points="184.12 189.15 184.13 189.67 200.04 180.48 200.04 179.96 184.12 189.15" style="fill: #c6bdb2;"/>
            <polygon points="182.94 188.46 184.12 189.15 200.04 179.96 198.85 179.27 182.94 188.46" style="fill: #d4cbbd;"/>
          </g>
          <g style="isolation: isolate;">
            <polygon points="184.94 189.62 184.94 190.15 186.14 190.84 186.14 190.31 184.94 189.62" style="fill: #d4cbbd;"/>
            <polygon points="186.14 190.31 186.14 190.84 202.05 181.65 202.05 181.13 186.14 190.31" style="fill: #c6bdb2;"/>
            <polygon points="184.94 189.62 186.14 190.31 202.05 181.13 200.85 180.43 184.94 189.62" style="fill: #d4cbbd;"/>
          </g>
        </g>
      </g>
      <g>
        <polygon points="91.5 104.87 98.03 112.99 148.26 83.86 141.8 75.73 91.5 104.87" style="fill: #fffded;"/>
        <polygon points="98.03 112.99 98.25 113.79 91.5 111.02 91.5 104.87 98.03 112.99" style="fill: #cc5f25;"/>
        <path d="M98.03,112.99l3.35-1.93c0,1.07-.74,2.36-1.67,2.89-.92.53-1.67.1-1.68-.96Z" style="fill: #d66a2a;"/>
        <path d="M101.37,111.05l3.35-1.93c0,1.06-.75,2.36-1.67,2.89-.93.53-1.68.1-1.68-.96Z" style="fill: #f6f6e7;"/>
        <path d="M104.72,109.08l3.35-1.93c0,1.06-.75,2.36-1.67,2.89-.92.53-1.68.1-1.68-.96Z" style="fill: #d66a2a;"/>
        <path d="M108.07,107.16l3.35-1.93c0,1.06-.75,2.36-1.67,2.89-.92.53-1.67.1-1.68-.96Z" style="fill: #f6f6e7;"/>
        <path d="M111.42,105.22l3.35-1.93c0,1.06-.75,2.36-1.67,2.89-.92.53-1.67.11-1.68-.96Z" style="fill: #d66a2a;"/>
        <path d="M114.77,103.28l3.35-1.93c0,1.06-.75,2.36-1.67,2.89-.92.54-1.68.11-1.68-.96Z" style="fill: #f6f6e7;"/>
        <path d="M118.13,101.32l3.35-1.93c0,1.06-.75,2.36-1.67,2.89-.92.53-1.67.1-1.68-.96Z" style="fill: #d66a2a;"/>
        <path d="M121.48,99.39l3.35-1.93c0,1.06-.75,2.36-1.67,2.89-.92.53-1.68.1-1.68-.96Z" style="fill: #f6f6e7;"/>
        <path d="M124.83,97.44l3.35-1.93c0,1.07-.75,2.36-1.67,2.89-.93.53-1.67.1-1.68-.96Z" style="fill: #d66a2a;"/>
        <path d="M128.18,95.51l3.35-1.93c0,1.06-.74,2.36-1.67,2.89-.92.53-1.68.11-1.68-.96Z" style="fill: #f6f6e7;"/>
        <path d="M131.52,93.55l3.35-1.93c0,1.06-.75,2.36-1.67,2.89-.92.53-1.67.11-1.68-.96Z" style="fill: #d66a2a;"/>
        <path d="M134.87,91.62l3.39-1.96c0,1.06-.79,2.39-1.71,2.92-.92.53-1.67.1-1.68-.96Z" style="fill: #f6f6e7;"/>
        <path d="M138.26,89.66l3.31-1.9c0,1.07-.75,2.36-1.67,2.89-.92.53-1.63.07-1.64-.99Z" style="fill: #d66a2a;"/>
        <path d="M144.92,85.79l3.35-1.93c0,1.06-.75,2.36-1.67,2.89-.92.53-1.67.1-1.67-.96Z" style="fill: #d66a2a;"/>
        <polygon points="101.37 111.05 94.88 102.92 91.5 104.87 98.03 112.99 101.37 111.05" style="fill: #dc7b34;"/>
        <polygon points="108.12 107.15 101.63 99.02 98.25 100.97 104.78 109.09 108.12 107.15" style="fill: #dc7b34;"/>
        <polygon points="114.77 103.29 108.27 95.16 104.9 97.1 111.42 105.22 114.77 103.29" style="fill: #dc7b34;"/>
        <polygon points="121.48 99.41 114.98 91.28 111.61 93.23 118.13 101.35 121.48 99.41" style="fill: #dc7b34;"/>
        <polygon points="128.18 95.5 121.68 87.37 118.31 89.32 124.83 97.44 128.18 95.5" style="fill: #dc7b34;"/>
        <polygon points="134.87 91.64 128.38 83.51 125 85.45 131.52 93.57 134.87 91.64" style="fill: #dc7b34;"/>
        <polygon points="141.61 87.76 135.11 79.62 131.73 81.57 138.25 89.69 141.61 87.76" style="fill: #dc7b34;"/>
        <polygon points="148.26 83.86 141.8 75.73 138.42 77.68 144.92 85.79 148.26 83.86" style="fill: #dc7b34;"/>
        <path d="M141.57,87.73l3.35-1.93c0,1.06-.75,2.36-1.67,2.89-.92.53-1.68.1-1.68-.96Z" style="fill: #f6f6e7;"/>
      </g>
      <g>
        <g style="isolation: isolate;">
          <polygon points="99.91 187.16 99.98 208.89 101.22 209.61 101.17 187.89 99.91 187.16" style="fill: #f0efe6;"/>
          <polygon points="101.17 187.89 101.22 209.61 102.49 208.89 102.42 187.16 101.17 187.89" style="fill: #f7f7ef;"/>
          <polygon points="99.91 187.16 101.17 187.89 102.42 187.16 101.17 186.44 99.91 187.16" style="fill: #d2d2ca;"/>
        </g>
        <g style="isolation: isolate;">
          <polygon points="42.78 152.65 42.84 174.37 44.09 175.1 44.03 153.38 42.78 152.65" style="fill: #f0efe6;"/>
          <polygon points="44.03 153.38 44.09 175.1 45.35 174.37 45.29 152.65 44.03 153.38" style="fill: #f7f7ef;"/>
          <polygon points="42.78 152.65 44.03 153.38 45.29 152.65 44.04 151.92 42.78 152.65" style="fill: #d2d2ca;"/>
        </g>
        <g style="isolation: isolate;">
          <polygon points="116.65 185.84 116.64 187.96 103.77 195.45 103.78 193.32 116.65 185.84" style="fill: #c3b0a1;"/>
          <polygon points="103.78 193.32 103.77 195.45 37.25 157.04 37.25 154.91 103.78 193.32" style="fill: #f5eee7;"/>
          <polygon points="116.65 185.84 103.78 193.32 37.25 154.91 50.12 147.43 116.65 185.84" style="fill: #e8dfd0;"/>
        </g>
      </g>
      <g>
        <g style="isolation: isolate;">
          <polygon points="87.51 170.2 88.69 169.52 88.65 183.04 87.47 183.73 87.51 170.2" style="fill: url(#linear-gradient);"/>
          <polygon points="53.83 150.76 55.01 150.08 88.69 169.52 87.51 170.2 53.83 150.76" style="fill: #88c4fd;"/>
          <polygon points="87.51 170.2 87.47 183.73 53.79 164.28 53.83 150.76 87.51 170.2" style="fill: #7dafef;"/>
        </g>
        <g>
          <polygon points="60.32 165.11 61.69 164.31 61.81 161.6 60.44 162.39 60.32 165.11" style="fill: url(#linear-gradient-2);"/>
          <polygon points="62.5 164.1 63.87 163.3 63.85 163.29 62.47 164.09 62.5 164.1" style="fill: url(#linear-gradient-3);"/>
          <g>
            <path id="SVGID" d="M60.44,162.39l1.37-.8c.05-.89.08-2,.12-2.96l-1.37.8c-.04.96-.07,2.07-.12,2.96Z" style="fill: url(#linear-gradient-4);"/>
            <g style="clip-path: url(#clippath);">
              <g style="isolation: isolate;">
                <path d="M60.44,162.39l1.37-.8c.05-.89.08-2,.12-2.96l-1.37.8c-.04.96-.07,2.07-.12,2.96h0Z" style="fill: url(#linear-gradient-5);"/>
              </g>
            </g>
          </g>
          <g>
            <path id="SVGID-2" data-name="SVGID" d="M62.47,164.09l1.38-.8c-.15-.95-.33-1.96-.53-2.91l-1.37.8c.2.96.38,1.97.53,2.91Z" style="fill: url(#linear-gradient-6);"/>
            <g style="clip-path: url(#clippath-1);">
              <g style="isolation: isolate;">
                <path d="M62.47,164.09l1.38-.8c-.15-.95-.33-1.96-.53-2.91l-1.37.8c.2.96.38,1.97.53,2.91h0Z" style="fill: url(#linear-gradient-7);"/>
              </g>
            </g>
          </g>
          <polygon points="62.94 166.51 64.32 165.71 65.1 163.29 63.72 164.09 62.94 166.51" style="fill: url(#linear-gradient-8);"/>
          <polygon points="61.95 161.17 63.32 160.37 62.71 157.57 61.33 158.37 61.95 161.17" style="fill: url(#linear-gradient-9);"/>
          <polygon points="61.33 158.37 62.71 157.57 60.79 156.46 59.42 157.26 61.33 158.37" style="fill: url(#linear-gradient-10);"/>
          <g>
            <path id="SVGID-3" data-name="SVGID" d="M63.72,164.09l1.37-.8c.25-.71.52-1.6.72-2.41l-1.37.8c-.2.82-.47,1.69-.72,2.41Z" style="fill: url(#linear-gradient-11);"/>
            <g style="clip-path: url(#clippath-2);">
              <g style="isolation: isolate;">
                <path d="M63.72,164.09l1.37-.8c.25-.71.52-1.6.72-2.41l-1.37.8c-.2.82-.47,1.69-.72,2.41h0Z" style="fill: url(#linear-gradient-12);"/>
              </g>
            </g>
          </g>
          <polygon points="66 168.39 67.38 167.59 67.05 160.08 65.68 160.88 66 168.39" style="fill: url(#linear-gradient-13);"/>
          <polygon points="65.68 160.88 67.05 160.08 65.17 158.99 63.8 159.79 65.68 160.88" style="fill: url(#linear-gradient-14);"/>
          <path d="M59.42,157.26l-.43,7.07,1.33.77.12-2.71c.05-.89.08-2,.12-2.96l.02.02c.15,1.03.36,2.2.57,3.18l.68,3.23,1.12.65.78-2.41c.25-.72.51-1.6.72-2.41l.02.02c0,1.06.02,2.13.05,3.03l.08,2.85,1.41.81-.33-7.51-1.88-1.08-.68,2.04c-.21.69-.43,1.53-.62,2.27h-.03c-.15-.96-.33-1.97-.53-2.93l-.61-2.8-1.92-1.11Z" style="fill: #fcf6f0;"/>
          <polygon points="68.28 169.7 69.66 168.91 70.12 167.3 68.75 168.1 68.28 169.7" style="fill: url(#linear-gradient-15);"/>
          <polygon points="70.36 167.78 71.73 166.98 70.33 166.17 68.95 166.97 70.36 167.78" style="fill: url(#linear-gradient-16);"/>
          <polygon points="68.95 166.97 70.33 166.17 70.72 164.85 69.34 165.65 68.95 166.97" style="fill: url(#linear-gradient-17);"/>
          <g>
            <path id="SVGID-4" data-name="SVGID" d="M69.34,165.65l1.37-.8c.1-.36.2-.86.29-1.24l-1.37.8c-.09.38-.19.88-.29,1.24Z" style="fill: url(#linear-gradient-18);"/>
            <g style="clip-path: url(#clippath-3);">
              <g style="isolation: isolate;">
                <path d="M69.34,165.65l1.37-.8c.1-.36.2-.86.29-1.24l-1.37.8c-.09.38-.19.88-.29,1.24h0Z" style="fill: url(#linear-gradient-19);"/>
              </g>
            </g>
          </g>
          <polygon points="70.65 163.75 72.02 162.95 70.14 161.86 68.77 162.66 70.65 163.75" style="fill: url(#linear-gradient-20);"/>
          <polygon points="72.6 172.2 73.98 171.4 72.02 162.95 70.65 163.75 72.6 172.2" style="fill: url(#linear-gradient-21);"/>
          <path d="M70.65,163.75l1.96,8.45-1.55-.9-.48-2.16-1.82-1.05-.47,1.61-1.48-.86,1.96-6.19,1.88,1.09ZM70.36,167.78l-.38-1.77c-.12-.5-.23-1.11-.32-1.59l-.02-.02c-.09.38-.19.88-.29,1.24l-.39,1.32,1.41.81h0Z" style="fill: #fcf6f0;"/>
          <polygon points="77.61 175.09 78.98 174.29 78.99 172.91 77.61 173.7 77.61 175.09" style="fill: url(#linear-gradient-22);"/>
          <polygon points="77.61 173.7 78.99 172.91 76.46 171.45 75.09 172.24 77.61 173.7" style="fill: url(#linear-gradient-23);"/>
          <polygon points="75.09 172.24 76.46 171.45 76.48 165.52 75.1 166.32 75.09 172.24" style="fill: url(#linear-gradient-24);"/>
          <polygon points="75.1 166.32 76.48 165.52 75.03 164.69 73.66 165.49 75.1 166.32" style="fill: url(#linear-gradient-25);"/>
          <polygon points="73.66 165.49 73.64 172.8 77.61 175.09 77.61 173.7 75.09 172.24 75.1 166.32 73.66 165.49" style="fill: #fcf6f0;"/>
          <polygon points="82.61 177.98 83.99 177.18 83.99 175.79 82.62 176.59 82.61 177.98" style="fill: url(#linear-gradient-26);"/>
          <polygon points="82.62 176.59 83.99 175.79 81.45 174.33 80.08 175.13 82.62 176.59" style="fill: url(#linear-gradient-27);"/>
          <polygon points="80.08 175.13 81.45 174.33 81.47 168.41 80.1 169.2 80.08 175.13" style="fill: url(#linear-gradient-28);"/>
          <polygon points="80.1 169.2 81.47 168.41 80.04 167.58 78.66 168.38 80.1 169.2" style="fill: url(#linear-gradient-29);"/>
          <polygon points="78.66 168.38 78.64 175.69 82.61 177.98 82.62 176.59 80.08 175.13 80.1 169.2 78.66 168.38" style="fill: #fcf6f0;"/>
        </g>
      </g>
    </g>
  </g>
</svg>