<?xml version="1.0" encoding="UTF-8"?>
<svg id="Layer_2" data-name="Layer 2" xmlns="http://www.w3.org/2000/svg" width="238.24" height="226.26" xmlns:xlink="http://www.w3.org/1999/xlink" viewBox="0 0 238.24 226.26">
  <defs>
    <clipPath id="clippath">
      <path d="M71.73,83.08l-1.25.73c-.27.15-.72.07-1.35-.29-.99-.57-1.94-1.49-2.56-2.21l1.26-.73c.61.72,1.57,1.64,2.56,2.21.62.36,1.08.44,1.34.29Z" style="fill: none;"/>
    </clipPath>
    <clipPath id="clippath-1">
      <path d="M68.82,76.04l1.26-.73c-.16.09-.24.28-.24.52,0,.76.58,1.42,1.89,2.76,1.81,1.81,2.65,3.38,2.64,5.04,0,.88-.27,1.55-.83,1.88l-1.25.73c.55-.32.82-.99.83-1.88,0-1.66-.83-3.23-2.64-5.04-1.32-1.34-1.9-2-1.9-2.76,0-.24.08-.43.24-.52Z" style="fill: none;"/>
    </clipPath>
    <clipPath id="clippath-2">
      <path d="M67.06,73.62l1.26-.73c.66-.39,1.71-.26,3.06.52l-1.26.73c-1.35-.78-2.39-.91-3.06-.52Z" style="fill: none;"/>
    </clipPath>
    <clipPath id="clippath-3">
      <path d="M70.13,74.14l1.26-.73c1.15.66,2,1.43,2.6,2.09l-1.25.73c-.61-.67-1.46-1.43-2.61-2.09Z" style="fill: none;"/>
    </clipPath>
    <clipPath id="clippath-4">
      <path d="M90.39,93.7l-1.26.73c-.39.23-.9.19-1.52-.16l1.26-.73c.61.36,1.12.39,1.52.16Z" style="fill: none;"/>
    </clipPath>
    <clipPath id="clippath-5">
      <path d="M86.09,86.2l1.26-.73c-.61.36-.95,1.34-.96,2.71,0,2.3.93,4.47,2.48,5.36l-1.26.73c-1.55-.9-2.49-3.06-2.48-5.36,0-1.38.34-2.36.95-2.71Z" style="fill: none;"/>
    </clipPath>
    <clipPath id="clippath-6">
      <path d="M84.21,83.86l1.26-.73c.86-.5,2.05-.4,3.48.42l-1.26.73c-1.43-.82-2.62-.92-3.48-.42Z" style="fill: none;"/>
    </clipPath>
    <clipPath id="clippath-7">
      <path d="M92.31,96.07l-1.26.73c.92-.54,1.46-1.81,1.46-3.79,0-3.23-1.69-6.92-4.83-8.73l1.26-.73c3.14,1.81,4.84,5.51,4.83,8.73,0,1.98-.54,3.25-1.47,3.78Z" style="fill: none;"/>
    </clipPath>
    <clipPath id="clippath-8">
      <path d="M101.23,100.75l1.26-.73c.32,1.51.63,3.22.82,3.79l-1.26.73c-.19-.57-.5-2.28-.82-3.79Z" style="fill: none;"/>
    </clipPath>
    <clipPath id="clippath-9">
      <path d="M99.87,97.76l1.26-.73c.7.73,1.1,1.75,1.36,2.98l-1.26.73c-.26-1.24-.65-2.25-1.36-2.99Z" style="fill: none;"/>
    </clipPath>
    <clipPath id="clippath-10">
      <path d="M100.27,94.93l-1.25.73c-.32.18-.81.1-1.46-.27l1.26-.73c.65.37,1.14.45,1.46.27Z" style="fill: none;"/>
    </clipPath>
    <clipPath id="clippath-11">
      <path d="M102.16,96.81l-1.26.73c.45-.26.78-.8.78-1.68,0-1.08-.33-2.1-.93-3-.72-1.09-1.78-1.96-3.31-2.84-1.23-.71-2.33-1.24-3.07-1.53l1.25-.73c.74.28,1.84.82,3.07,1.53,1.53.88,2.58,1.75,3.31,2.84.6.9.93,1.91.93,3,0,.88-.33,1.42-.77,1.68Z" style="fill: none;"/>
    </clipPath>
  </defs>
  <g id="OBJECTS">
    <g>
      <g style="isolation: isolate;">
        <polygon points="0 162.3 0 166.25 103.28 226.26 103.27 222.31 0 162.3" style="fill: #bea997;"/>
        <polygon points="103.27 222.31 103.28 226.26 238.24 148.34 238.23 144.39 103.27 222.31" style="fill: #a99688;"/>
        <polygon points="0 162.3 103.27 222.31 238.23 144.39 134.96 84.38 0 162.3" style="fill: #966b68;"/>
      </g>
      <g style="isolation: isolate;">
        <polygon points="203.56 46.62 203.27 150.83 129.25 193.84 129.54 89.63 203.56 46.62" style="fill: #e2d9ca;"/>
        <polygon points="129.54 89.63 129.25 193.84 54.75 150.83 55.04 46.62 129.54 89.63" style="fill: #f2ebe3;"/>
        <polygon points="203.56 46.62 129.54 89.63 55.04 46.62 129.06 3.6 203.56 46.62" style="fill: #cbbeab;"/>
      </g>
      <g style="isolation: isolate;">
        <polygon points="192.81 46.1 192.79 51.18 128.38 13.99 128.39 8.91 192.81 46.1" style="fill: #8a7c68;"/>
        <polygon points="128.39 8.91 128.38 13.99 64.38 51.18 64.39 46.1 128.39 8.91" style="fill: #a1947f;"/>
        <polygon points="129.85 93.35 129.83 98.43 48.99 51.76 49.01 46.67 129.85 93.35" style="fill: #9c907b;"/>
        <polygon points="210.16 46.67 210.15 51.76 129.83 98.43 129.85 93.35 210.16 46.67" style="fill: #b3a192;"/>
        <path d="M129.32,0l80.84,46.67-80.31,46.67L49.01,46.67,129.32,0ZM128.81,83.29l64-37.19L128.39,8.91l-64,37.19,64.42,37.19h0Z" style="fill: #e2d9ca;"/>
      </g>
      <g>
        <polygon points="60.05 140.35 60.15 102.23 123.61 138.87 123.5 177.26 100.53 163.99 100.49 177.26 76.78 163.56 76.81 150.1 60.05 140.35" style="fill: #7f7564; isolation: isolate; opacity: .3;"/>
        <polygon points="76.81 150.1 66.9 144.34 100 125.24 123.61 138.87 123.5 177.26 100.53 163.99 100.49 177.26 100.49 177.26 76.78 163.56 76.81 150.1" style="fill: #9c907b; isolation: isolate; opacity: .3;"/>
        <polygon points="61.77 103.16 61.77 141.37 63.24 140.69 63.42 104.12 61.77 103.16" style="fill: #737272;"/>
        <polygon points="61.54 139.18 76.78 148.36 78.53 147.14 63.19 138.23 61.54 139.18" style="fill: #adacac;"/>
        <polygon points="76.78 148.36 76.78 164.14 78.46 163.27 78.53 147.29 76.78 148.36" style="fill: #737272;"/>
        <polygon points="100.53 161.73 121.29 173.58 121.29 172 101.89 160.72 100.53 161.73" style="fill: #adacac;"/>
        <polygon points="102.46 129.28 102.46 162.83 103.92 162.01 104.19 130.29 102.46 129.28" style="fill: #807f7f;"/>
        <polygon points="76.78 114.32 76.78 148.36 78.53 147.3 78.46 115.3 76.78 114.32" style="fill: #737272;"/>
        <polygon points="60.15 102.23 61.26 101.82 124.58 138.39 123.61 138.87 60.15 102.23" style="fill: #adacac;"/>
        <polygon points="123.61 138.87 123.5 177.26 124.28 176.93 124.58 138.39 123.61 138.87" style="fill: #737272;"/>
        <polygon points="102.42 165.11 102.2 178.88 102.82 178.54 103.04 165.45 102.42 165.11" style="fill: #737272;"/>
        <polygon points="77.31 163.87 77.31 158.52 100.51 172 100.38 177.19 77.31 163.87" style="fill: #918f8f;"/>
        <path d="M60.05,140.35l14.81,8.62.11,14.16,1.81,1.02v-13.86h0v-35.96l-1.29-.75,25.01,14.59.04,33.57-.15,16.11,1.83,1.05.22-13.8,18.86,10.89h0l2.21,1.27.1-35.66h0s0-2.73,0-2.73l-61.84-35.7h0l-1.62-.93v2.4s0,0,0,0l-.09,33.76h0s0,1.95,0,1.95h0ZM102.46,162.83v-33.55l18.83,10.97v33.33l-18.83-10.76h0ZM75,113.28l-.15,33.51-13.08-7.71v-33.5l13.23,7.7Z" style="fill: #848383;"/>
        <polygon points="77.31 158.52 78.45 157.84 100.45 170.67 100.51 172 77.31 158.52" style="fill: #adacac;"/>
        <polygon points="88.13 120.63 89.37 121.34 89.37 154.69 89.37 170.85 88.15 170.1 88.13 120.63" style="fill: #848383;"/>
        <polygon points="89.37 121.69 89.37 165.43 90.42 164.82 90.48 122.34 89.37 121.69" style="fill: #737272;"/>
      </g>
      <g>
        <polygon points="128.78 132.94 116.92 147.72 43.67 105.25 55.35 90.4 128.78 132.94" style="fill: #fffdec;"/>
        <polygon points="116.92 147.72 116.49 149.18 128.78 144.14 128.78 132.94 116.92 147.72" style="fill: #bf5821;"/>
        <path d="M116.92,147.72l-6.1-3.52c0,1.94,1.35,4.3,3.04,5.27,1.68.97,3.05.19,3.06-1.75Z" style="fill: #ca6427;"/>
        <path d="M110.82,144.2l-6.1-3.52c0,1.94,1.35,4.3,3.04,5.27,1.68.97,3.05.19,3.06-1.75Z" style="fill: #f4f4e4;"/>
        <path d="M104.72,140.61l-6.09-3.52c0,1.93,1.36,4.29,3.04,5.26,1.68.97,3.05.19,3.05-1.74Z" style="fill: #ca6427;"/>
        <path d="M98.63,137.11l-6.1-3.52c0,1.94,1.36,4.29,3.04,5.27,1.68.97,3.05.19,3.06-1.75Z" style="fill: #f4f4e4;"/>
        <path d="M92.53,133.58l-6.1-3.52c0,1.94,1.36,4.29,3.04,5.27,1.68.97,3.05.19,3.06-1.75Z" style="fill: #ca6427;"/>
        <path d="M86.44,130.06l-6.09-3.52c0,1.94,1.35,4.29,3.04,5.26,1.69.97,3.06.19,3.06-1.74Z" style="fill: #f4f4e4;"/>
        <path d="M80.31,126.48l-6.09-3.52c0,1.94,1.36,4.29,3.04,5.26,1.68.97,3.05.19,3.05-1.74Z" style="fill: #ca6427;"/>
        <path d="M74.22,122.98l-6.09-3.52c0,1.94,1.35,4.29,3.04,5.27,1.68.96,3.06.19,3.06-1.75Z" style="fill: #f4f4e4;"/>
        <path d="M68.12,119.43l-6.1-3.52c0,1.93,1.36,4.29,3.04,5.27,1.69.97,3.05.18,3.06-1.75Z" style="fill: #ca6427;"/>
        <path d="M62.03,115.89l-6.1-3.51c0,1.93,1.36,4.29,3.04,5.26,1.68.97,3.05.19,3.06-1.75Z" style="fill: #f4f4e4;"/>
        <path d="M55.93,112.35l-6.09-3.52c0,1.94,1.35,4.29,3.04,5.26,1.68.97,3.04.19,3.05-1.74Z" style="fill: #ca6427;"/>
        <path d="M49.84,108.83l-6.17-3.58c0,1.94,1.44,4.35,3.12,5.32,1.68.97,3.05.19,3.05-1.74Z" style="fill: #f4f4e4;"/>
        <polygon points="110.82 144.2 122.64 129.4 128.78 132.94 116.92 147.72 110.82 144.2" style="fill: #d27531;"/>
        <polygon points="98.53 137.09 110.35 122.3 116.49 125.84 104.62 140.62 98.53 137.09" style="fill: #d27531;"/>
        <polygon points="86.44 130.06 98.26 115.27 104.41 118.81 92.53 133.59 86.44 130.06" style="fill: #d27531;"/>
        <polygon points="74.22 123.01 86.04 108.21 92.18 111.75 80.31 126.54 74.22 123.01" style="fill: #d27531;"/>
        <polygon points="62.03 115.89 73.85 101.09 79.99 104.63 68.12 119.42 62.03 115.89" style="fill: #d27531;"/>
        <polygon points="49.84 108.85 61.66 94.06 67.8 97.59 55.93 112.38 49.84 108.85" style="fill: #d27531;"/>
      </g>
      <g style="isolation: isolate;">
        <polygon points="116.31 95.65 118.19 94.57 118.12 116.02 116.25 117.11 116.31 95.65" style="fill: #a48e6e;"/>
        <polygon points="62.85 64.78 64.72 63.69 118.19 94.57 116.31 95.65 62.85 64.78" style="fill: #dbcaa5;"/>
        <polygon points="116.31 95.65 116.25 117.11 62.78 86.24 62.85 64.78 116.31 95.65" style="fill: #c1ac8a;"/>
      </g>
      <g>
        <path d="M37.85,166.85l-.02.71s-.08,2.2,3.93,2.49c0,0,3.23.25,4.43-1.36,0,0,.37-1.05.31-1.32-.07-.27,0-.71,0-.71l-8.64.19Z" style="fill: #4b678b;"/>
        <path d="M46.49,167.44s0,.04,0,.06c0,.02,0,.04,0,.06,0,.02,0,.04-.01.06,0,.02,0,.04,0,.05,0,.02-.01.04-.02.06,0,.02-.01.04-.02.06,0,.02-.02.04-.02.06,0,.02-.02.04-.02.05-.01.02-.02.05-.03.07,0,.02-.02.04-.03.05-.01.02-.02.04-.03.06,0,.02-.02.04-.03.05-.02.02-.03.05-.05.08,0,.02-.02.03-.03.05-.02.03-.04.05-.06.09,0,.01-.02.02-.03.03-.04.04-.07.09-.11.13-.01.01-.02.03-.03.04-.03.03-.06.06-.1.1-.02.02-.03.03-.04.04-.02.02-.04.04-.06.05-.02.02-.04.03-.06.05-.02.02-.04.04-.07.05-.02.02-.04.03-.06.05-.02.02-.05.04-.07.05-.02.02-.04.03-.07.05-.03.02-.05.03-.08.05-.03.02-.06.04-.1.06-.09.05-.19.11-.29.15-.03.01-.05.03-.08.04-.09.04-.18.08-.27.12-.01,0-.03.01-.04.02-.1.04-.2.07-.31.11-.08.03-.15.04-.23.06-.05.01-.11.03-.17.04-.08.02-.16.04-.24.05-.06.01-.11.03-.17.04-.02,0-.05,0-.08.01-.1.02-.19.03-.3.04-.03,0-.06,0-.09,0-.06,0-.11,0-.17.01-.1,0-.2.02-.3.02-.06,0-.12,0-.18,0h-.24c-.07,0-.13,0-.2,0-.07,0-.14,0-.22-.01-.07,0-.13-.01-.2-.02-.07,0-.14-.01-.22-.02-.06,0-.13-.02-.19-.03-.07-.02-.15-.02-.23-.04-.06-.01-.13-.03-.19-.04-.09-.02-.17-.04-.26-.06-.06-.01-.12-.03-.18-.04-.03-.01-.06-.02-.09-.03-.09-.03-.18-.06-.27-.09-.02,0-.05-.02-.07-.02-.08-.03-.16-.07-.24-.1-.04-.01-.07-.03-.11-.04-.11-.05-.22-.11-.32-.17-.85-.5-1.28-1.14-1.28-1.79v.4c0,.65.43,1.29,1.28,1.79.1.06.21.11.32.17.03.02.07.03.11.04.06.03.13.06.2.09.01,0,.03.01.04.01.02,0,.05.02.07.03.09.03.18.06.27.09.03,0,.06.02.09.03.02,0,.04.01.06.02.04,0,.08.02.12.03.09.02.17.05.26.06.02,0,.05.01.07.02.04,0,.07.01.11.02.08.01.15.03.23.04.03,0,.06,0,.09.01.03,0,.07,0,.1.01.07,0,.14.02.22.02.03,0,.07.01.1.01.04,0,.07,0,.1,0,.07,0,.14,0,.22.01.04,0,.08,0,.11,0,.03,0,.06,0,.09,0,.08,0,.16,0,.24,0h.12s.05,0,.07,0c.1,0,.2-.01.3-.02.04,0,.08,0,.12,0,.02,0,.04,0,.06,0,.03,0,.06,0,.09-.01.1,0,.2-.02.3-.04.03,0,.05,0,.08-.01.01,0,.02,0,.03,0,.05,0,.09-.02.14-.03.08-.02.16-.03.24-.05.05-.02.11-.03.17-.04.08-.02.15-.04.23-.06.01,0,.03,0,.05-.01.09-.03.17-.06.26-.09.01,0,.02,0,.04-.02.09-.04.19-.08.27-.12.03-.01.05-.02.08-.04.1-.05.2-.1.29-.15.02-.01.03-.02.05-.03.02,0,.03-.02.05-.03.02-.02.05-.04.08-.05.02-.02.04-.03.07-.05.02-.02.05-.04.07-.05.02-.02.04-.03.06-.05.03-.02.05-.04.07-.06.02-.02.04-.03.06-.04.02-.02.04-.04.06-.06,0,0,.02-.01.03-.02,0,0,.01-.01.02-.02.03-.03.06-.06.1-.1,0-.01.02-.02.03-.04.04-.04.07-.09.11-.13,0,0,0,0,0,0,0-.01.02-.02.03-.04.02-.03.04-.05.06-.08.01-.02.02-.03.03-.05.02-.03.04-.05.04-.07,0,0,.01-.02.01-.02,0,0,.01-.02.02-.03.01-.02.02-.04.03-.06,0-.02.02-.04.02-.06,0-.02.02-.04.03-.06,0-.01,0-.02.01-.03,0-.01,0-.02,0-.03,0-.02.01-.04.02-.06,0-.02.01-.04.02-.06s.01-.04.02-.06c0-.01,0-.02,0-.04,0,0,0-.02,0-.02,0-.02,0-.04.01-.06,0-.02,0-.04,0-.06,0-.02,0-.04,0-.06,0-.02,0-.03,0-.04v-.44s0,.06,0,.09Z" style="fill: #4b678b;"/>
        <path d="M45.21,164.88c1.7.98,1.71,2.57.02,3.55-1.68.98-4.43.98-6.12,0-1.7-.98-1.7-2.57-.02-3.55,1.68-.98,4.43-.98,6.12,0Z" style="fill: #6c98d0;"/>
        <path d="M43.09,152.83s0,.04,0,.06c.03-.16-.05-.32-.26-.44-.36-.21-.94-.21-1.29,0-.18.11-.27.24-.27.37h0l-.04,14.2c0,.14.09.27.27.38.04.03.09.04.13.06,0,0,0,0,0,0,0,0,.01,0,.02,0,.02,0,.05.02.08.03.02,0,.03,0,.05,0,0,0,.02,0,.03,0,0,0,.02,0,.02,0,.03,0,.06.01.09.01.01,0,.03,0,.04,0h.02s.02,0,.04,0c.03,0,.06,0,.09,0h.1s.06,0,.1,0c0,0,0,0,.02,0s.01,0,.02,0c.03,0,.06,0,.08-.01.01,0,.02,0,.04,0,.03,0,.06-.01.08-.02.02,0,.04,0,.05-.02,0,0,.02,0,.02-.01.06-.02.13-.04.18-.08,0,0,0,0,.01,0,.02-.01.03-.02.05-.04.02-.01.05-.03.06-.04,0,0,0,0,0,0,.02-.02.04-.04.06-.06,0,0,0,0,.01-.01,0,0,0-.01,0-.02,0,0,.01-.02.02-.03,0-.02.02-.03.03-.05,0,0,0,0,0,0,0,0,0,0,0,0,0-.01,0-.03.01-.04,0-.02,0-.03,0-.05v-1.94s.03-12.27.03-12.27ZM43.07,152.93s-.02.04-.04.06c.02-.02.03-.04.04-.07t0,0ZM43.02,153.03s-.04.04-.06.06c.02-.02.04-.04.06-.06h0ZM42.89,153.15h0s-.04.03-.06.04c.02-.01.04-.03.06-.04ZM41.37,153.07s.02.03.04.04c-.02-.01-.03-.03-.04-.04ZM41.27,152.88s0,.03,0,.04c0-.02,0-.03,0-.04ZM41.31,152.98s.01.03.02.04c-.01-.01-.02-.03-.02-.04Z" style="fill: #757474;"/>
        <path d="M51.41,150.39s0,.09,0,.13c0,.04-.01.08-.02.13s-.01.09-.02.14c0,.04-.02.08-.03.12,0,.05-.02.09-.03.14,0,.04-.02.08-.03.12-.02.04-.03.09-.04.14-.02.04-.04.08-.05.12-.02.04-.04.09-.05.14-.02.04-.04.08-.05.12-.02.05-.05.09-.07.14-.02.04-.04.08-.06.11-.03.06-.06.11-.1.17-.02.03-.04.06-.06.1-.04.06-.09.12-.13.18-.02.03-.03.05-.06.07-.07.09-.15.19-.24.28-.02.02-.05.05-.07.07-.07.06-.14.14-.21.21-.04.03-.06.06-.1.09-.04.04-.09.08-.13.12-.04.04-.09.07-.13.11-.05.04-.1.08-.15.11-.05.04-.09.07-.14.11-.05.04-.11.07-.16.11-.05.04-.1.06-.15.1-.06.04-.11.08-.17.11-.07.04-.13.09-.21.13-.2.12-.41.23-.62.33-.06.03-.12.05-.17.08-.19.09-.39.17-.58.25-.03,0-.06.02-.09.03-.22.08-.43.16-.66.23-.15.05-.32.09-.48.14-.12.03-.24.06-.36.1-.17.04-.34.07-.52.11-.13.03-.24.05-.37.07-.06,0-.11.02-.16.03-.21.04-.42.06-.64.09-.06,0-.13.01-.19.02-.12.01-.24.02-.37.03-.21.02-.42.03-.63.04-.13,0-.26,0-.4,0-.17,0-.34,0-.51,0-.14,0-.28,0-.43-.01-.15,0-.31-.02-.46-.03-.15,0-.29-.02-.44-.04-.15-.02-.3-.03-.45-.05-.13-.02-.28-.04-.42-.06-.16-.03-.32-.05-.48-.09-.13-.02-.26-.05-.39-.08-.19-.04-.38-.09-.56-.14-.13-.04-.25-.06-.38-.1-.06-.02-.13-.04-.19-.06-.19-.06-.39-.13-.58-.2-.05-.02-.1-.04-.15-.05-.17-.07-.34-.14-.51-.22-.08-.04-.15-.06-.23-.1-.23-.11-.46-.23-.68-.35-1.83-1.05-2.74-2.44-2.73-3.82v.85c0,1.38.9,2.76,2.73,3.82.22.13.45.25.68.36.07.04.14.06.22.1.14.06.28.13.43.19.02,0,.05.02.08.03.05.02.1.04.15.06.19.06.38.13.57.19.06.02.13.04.19.06.04.01.09.03.13.04.08.02.16.04.24.06.19.05.38.1.57.14.05.01.1.03.15.04.08.02.16.03.24.04.16.03.32.06.48.08.07.01.13.03.2.04.08.01.15.02.22.03.15.02.3.04.45.05.08,0,.15.02.23.03.07,0,.14,0,.21.01.15,0,.31.02.47.03.08,0,.15,0,.23,0,.06,0,.13,0,.19,0,.17,0,.34,0,.51,0,.09,0,.16,0,.25,0,.05,0,.1,0,.15,0,.21,0,.42-.02.63-.04.08-.01.17-.01.24-.02.04,0,.08-.01.12-.01.06,0,.13-.02.19-.02.22-.03.43-.05.64-.09.05,0,.11-.02.16-.03.02,0,.05,0,.07-.01.1-.02.2-.04.29-.06.17-.04.34-.07.52-.11.13-.03.24-.06.36-.1.16-.04.33-.09.48-.14.03,0,.06-.02.1-.03.19-.06.38-.13.56-.2.03,0,.06-.02.09-.03.2-.08.39-.16.58-.25.06-.03.12-.05.17-.08.22-.1.42-.21.62-.33.04-.02.08-.04.12-.07.04-.02.07-.04.11-.06.05-.04.11-.07.16-.1.05-.04.1-.07.15-.11.05-.04.11-.07.15-.11.05-.03.09-.07.14-.1.05-.04.1-.08.15-.12.04-.03.08-.07.13-.1.04-.04.09-.08.13-.12.02-.02.04-.03.06-.05.01-.01.03-.03.05-.05.07-.07.14-.14.21-.21.02-.02.05-.05.07-.07.09-.09.17-.18.24-.28,0,0,0,0,.01-.01.02-.02.04-.05.05-.07.04-.06.09-.11.13-.17.02-.03.05-.07.06-.1.04-.05.07-.1.1-.16,0-.02.02-.03.03-.04.01-.02.02-.05.04-.07.02-.04.05-.09.07-.13.02-.04.04-.08.06-.12.01-.04.04-.09.05-.14,0-.02.02-.04.02-.06,0-.02.02-.04.02-.06.02-.04.03-.09.04-.13.01-.04.02-.08.04-.13.01-.04.02-.09.03-.13,0-.03.02-.05.02-.07,0-.02,0-.04,0-.05,0-.04.02-.09.02-.14s.01-.08.02-.13c0-.04,0-.09.01-.14,0-.03,0-.06,0-.09,0-.03,0-.05,0-.08v-.85s0,.1,0,.16Z" style="fill: #4b678b;"/>
        <path d="M48.68,146.41c3.63,2.09,3.65,5.49.04,7.58-3.6,2.09-9.46,2.09-13.09,0-3.63-2.1-3.65-5.49-.05-7.58,3.61-2.09,9.46-2.09,13.09,0Z" style="fill: #7aabeb;"/>
      </g>
      <g>
        <polygon points="115.28 55.08 92.98 49.16 106.46 40.84 115.28 55.08" style="fill: #b3a192;"/>
        <polygon points="127.08 39.3 127.06 48.43 115.25 55.29 115.28 46.16 127.08 39.3" style="fill: #b3a192;"/>
        <polygon points="115.28 46.16 115.25 55.29 103.37 48.43 103.39 39.3 115.28 46.16" style="fill: #9c907b;"/>
        <polygon points="127.08 39.3 115.28 46.16 103.39 39.3 115.2 32.44 127.08 39.3" style="fill: #e2d9ca;"/>
        <polygon points="123.12 39.13 115.26 43.7 107.35 39.13 115.21 34.56 123.12 39.13" style="fill: #b3a192;"/>
        <polygon points="119.71 41.11 115.21 38.52 110.76 41.1 115.26 43.7 119.71 41.11" style="fill: #a18d80;"/>
      </g>
      <g>
        <g style="opacity: .2;">
          <path d="M70.99,165.34c2.16,1.24,2.16,3.26.03,4.5-2.14,1.25-5.6,1.25-7.75,0-2.15-1.24-2.16-3.25-.03-4.49,2.13-1.24,5.6-1.24,7.75,0Z"/>
        </g>
        <path d="M74.22,159.83l-10.97.17,1.32,6.8h.02c.09.54.5,1.06,1.21,1.48,1.63.94,4.27.94,5.88,0,.71-.41,1.11-.94,1.19-1.48h0l1.34-6.97Z" style="fill: #ca6427;"/>
        <path d="M72.6,157.58c2.16,1.25,2.16,3.26.03,4.5-2.13,1.24-5.6,1.24-7.75,0-2.15-1.24-2.16-3.25-.03-4.49,2.14-1.24,5.61-1.24,7.75,0Z" style="fill: #d27531;"/>
        <path d="M72.07,157.93c1.83,1.05,1.83,2.75.02,3.81-1.81,1.05-4.74,1.05-6.57,0-1.82-1.05-1.83-2.75-.02-3.81,1.81-1.05,4.75-1.05,6.57,0Z" style="fill: #6b533d;"/>
        <path d="M69.25,141.76c-.22-.13-.57-.13-.79,0-.11.06-.16.14-.16.23h0l-.05,18.47c0,.08.05.17.16.23.03.02.05.03.09.04.02,0,.04.02.07.02.01,0,.02,0,.03,0,0,0,0,0,.01,0,0,0,0,0,.02,0,.02,0,.04,0,.06,0,.02,0,.04,0,.05,0,.02,0,.04,0,.05,0h.06s.04,0,.06,0c.02,0,.05,0,.07-.01.01,0,.02,0,.03,0,0,0,.02,0,.02,0,.02,0,.03,0,.05,0,.05-.02.09-.04.12-.06,0,0,0,0,0,0,.01,0,.02-.01.03-.02.02-.01.03-.02.04-.03,0,0,0,0,0,0,.02-.01.02-.03.03-.04,0,0,0,0,0,0,0,0,0,0,0,0,0,0,0,0,.01-.02,0-.01.01-.02.01-.03h0s0-.02,0-.03c0-.01,0-.02,0-.03l.05-18.47h0s0,.01,0,.02c.01-.09-.04-.19-.16-.26ZM69.37,142.12s-.02.02-.03.03c.01-.01.02-.02.03-.03h0ZM69.39,142.09s.01-.02.02-.03h0s0,.02-.02.03ZM69.29,142.2h0s-.03.02-.04.03c.02-.01.03-.02.04-.03ZM68.31,142.08s.01.02.02.04c0-.01-.01-.02-.02-.04ZM68.3,142.02s0,.02,0,.04c0-.02,0-.03,0-.04ZM68.36,142.15s.01.02.02.03c0,0-.02-.02-.02-.03Z" style="fill: #5d4933;"/>
        <path d="M75.87,145.94c0,4.08-3.31,7.39-7.39,7.39s-7.39-3.31-7.39-7.39,3.31-7.39,7.39-7.39,7.39,3.31,7.39,7.39Z" style="fill: #9fa741;"/>
        <path d="M61.88,142.62c1.07.65,2.76,1.08,4.67,1.08,3.22,0,5.83-1.19,5.83-2.67,0-1.12-1.49-2.07-3.61-2.47-.1,0-.19,0-.28,0-2.89,0-5.39,1.66-6.61,4.07Z" style="fill: #b5b94f;"/>
        <path d="M75.83,145.94c0-1.95-.75-3.72-1.98-5.04,0,2.69-.54,6.78-3.83,7.41-4.95.94-7.63-1.99-6.56.94.4,1.1.84,2.22,1.46,3.19,1.05.57,2.24.89,3.52.89,4.09,0,7.39-3.31,7.39-7.39Z" style="fill: #999e3b;"/>
      </g>
      <g>
        <g style="opacity: .2;">
          <path d="M96.76,182.71c2.16,1.24,2.16,3.26.03,4.5-2.14,1.24-5.6,1.24-7.75,0-2.15-1.24-2.16-3.25-.03-4.49,2.13-1.24,5.6-1.24,7.75,0Z"/>
        </g>
        <path d="M100,177.2l-10.97.17,1.32,6.8h.02c.09.54.5,1.07,1.21,1.48,1.63.94,4.27.94,5.88,0,.71-.41,1.11-.94,1.19-1.48h0l1.34-6.97Z" style="fill: #ca6427;"/>
        <path d="M98.38,174.95c2.16,1.25,2.16,3.26.03,4.5-2.13,1.24-5.6,1.24-7.75,0s-2.16-3.25-.03-4.49c2.14-1.24,5.61-1.24,7.75,0Z" style="fill: #d27531;"/>
        <path d="M97.85,175.3c1.83,1.06,1.83,2.76.02,3.81-1.81,1.05-4.74,1.05-6.57,0-1.82-1.05-1.83-2.75-.02-3.8,1.81-1.04,4.75-1.05,6.57,0Z" style="fill: #6b533d;"/>
        <path d="M95.02,159.13c-.22-.13-.57-.13-.79,0-.11.06-.16.15-.16.23h0s-.05,18.46-.05,18.46c0,.09.05.17.16.23.03.02.05.03.09.04.02.01.04.02.07.03.01,0,.02,0,.03,0h.01s0,0,.02,0c.02,0,.04,0,.06,0,.02,0,.04,0,.05,0h.05s.01,0,.02,0h0s.02,0,.03,0c.02,0,.05,0,.06,0,.02,0,.05,0,.07-.01.01,0,.02,0,.03,0,0,0,.02,0,.02,0,.02,0,.03,0,.05-.01.05-.02.09-.03.12-.06h0s.02-.02.03-.02c.02-.01.03-.02.04-.03h0s.02-.03.03-.04c0,0,0,0,0,0,0,0,0,0,0,0,0,0,0,0,.01-.02s.01-.02.01-.03c0,0,0,0,0,0h0s0-.02,0-.03c0-.01,0-.02,0-.03l.05-18.47h0s0,.02,0,.02c0-.09-.04-.19-.17-.26ZM95.14,159.49s-.02.02-.03.04c.01-.01.02-.02.03-.04h0ZM95.16,159.46s.01-.02.02-.03h0s-.01.02-.02.03ZM95.06,159.57h0s-.03.02-.04.03c.02,0,.03-.02.04-.03ZM94.08,159.45s.01.03.02.04c0-.01-.01-.03-.02-.04ZM94.07,159.39s0,.03,0,.04c0-.01,0-.03,0-.04ZM94.14,159.52s.01.02.02.03c-.01,0-.02-.02-.02-.03Z" style="fill: #5d4933;"/>
        <path d="M101.65,163.31c0,4.08-3.31,7.39-7.39,7.39s-7.39-3.31-7.39-7.39,3.31-7.39,7.39-7.39c4.08,0,7.39,3.31,7.39,7.39Z" style="fill: #9fa741;"/>
        <path d="M87.65,160c1.07.65,2.76,1.08,4.67,1.08,3.22,0,5.83-1.2,5.83-2.67,0-1.12-1.49-2.07-3.61-2.47-.1,0-.19,0-.28,0-2.89,0-5.39,1.66-6.61,4.07Z" style="fill: #b5b94f;"/>
        <path d="M101.6,163.31c0-1.95-.75-3.72-1.98-5.04,0,2.68-.54,6.78-3.83,7.41-4.95.95-7.63-1.99-6.56.94.4,1.1.84,2.23,1.46,3.19,1.05.56,2.24.89,3.52.89,4.09,0,7.39-3.31,7.39-7.39Z" style="fill: #999e3b;"/>
      </g>
      <g>
        <path d="M99.01,203.15v.7s-.09,2.2,3.92,2.49c0,0,3.23.24,4.42-1.36,0,0,.37-1.05.31-1.32s0-.71,0-.71l-8.65.2Z" style="fill: #4b678b;"/>
        <path d="M107.66,203.74s0,.04,0,.06c0,.02,0,.04,0,.06,0,.02,0,.04,0,.06,0,.02,0,.04-.02.06,0,.02,0,.04-.01.06,0,.02,0,.04-.02.05,0,.02-.02.04-.03.06,0,.02-.01.04-.02.05,0,.02-.02.05-.02.07,0,.02-.02.04-.03.05,0,.02-.02.04-.03.06,0,.02-.02.04-.03.05-.02.03-.03.05-.05.07,0,.02-.02.03-.03.05-.02.03-.04.06-.06.09,0,0-.02.02-.02.03-.03.05-.07.09-.11.13-.01.01-.02.02-.03.04-.03.04-.06.06-.1.1-.02.02-.03.03-.04.04-.02.02-.04.04-.06.06-.02.02-.04.03-.06.05-.03.02-.05.04-.07.05-.02.02-.04.03-.06.05-.02.02-.05.04-.07.05-.02.01-.04.03-.07.04-.02.02-.05.04-.08.05-.04.02-.06.04-.1.06-.09.05-.19.11-.29.15-.03.01-.05.02-.08.04-.09.04-.18.08-.27.12-.02,0-.03.01-.04.02-.1.04-.2.07-.31.11-.07.03-.15.04-.22.06-.06.02-.11.03-.17.05-.08.02-.16.04-.24.05-.06.01-.11.03-.17.04-.02,0-.05,0-.07.01-.1.02-.2.03-.3.04-.03,0-.06,0-.09,0-.06,0-.11,0-.17.01-.1.01-.19.02-.3.02-.06,0-.12,0-.18,0-.08,0-.16,0-.24,0-.07,0-.14,0-.2,0-.07,0-.15,0-.22-.01-.07,0-.14-.01-.2-.02-.07,0-.14-.02-.21-.02-.07-.01-.14-.02-.2-.03-.07-.01-.15-.03-.22-.04-.06-.01-.12-.02-.19-.04-.09-.02-.18-.04-.26-.06-.06-.02-.12-.03-.17-.05-.03-.01-.06-.02-.09-.03-.09-.03-.18-.06-.27-.09-.03,0-.04-.02-.07-.03-.08-.03-.16-.06-.24-.1-.04-.02-.07-.03-.11-.05-.11-.05-.22-.11-.32-.17-.85-.49-1.28-1.14-1.27-1.79v.4c0,.65.42,1.29,1.27,1.79.1.06.21.11.32.17.04.02.07.03.11.04.07.03.13.06.2.09.01,0,.02,0,.03.02.03,0,.05.02.07.03.09.03.18.06.27.09.03,0,.06.02.09.03.02,0,.04.01.06.02.04.01.08.02.11.03.09.02.18.05.26.07.03,0,.05.01.08.02.03,0,.07.01.11.02.08.01.15.03.22.04.03,0,.06.01.1.01.03,0,.07.01.11.01.07,0,.14.02.21.02.04,0,.07.01.11.01.03,0,.06,0,.1,0,.07,0,.15.01.22.01.04,0,.07,0,.11,0h.09c.08,0,.16,0,.24,0,.04,0,.07,0,.11,0,.02,0,.05,0,.07,0,.1,0,.2-.01.3-.02.04,0,.08,0,.11,0,.02,0,.04,0,.06,0,.03,0,.06,0,.09,0,.1,0,.2-.03.3-.04.03,0,.05,0,.08,0,.01,0,.02,0,.03,0,.05,0,.09-.02.14-.03.08-.02.16-.03.24-.05.05-.02.11-.03.17-.05.07-.02.15-.04.23-.06.01,0,.03,0,.05,0,.09-.03.17-.06.26-.1.01,0,.03,0,.04-.02.09-.04.18-.08.27-.12.03-.01.05-.03.08-.04.1-.05.2-.1.29-.15.02,0,.04-.02.05-.03.02-.01.04-.02.05-.03.02-.02.05-.03.07-.05.03-.02.05-.03.07-.04.02-.02.05-.04.07-.05s.04-.03.06-.05c.03-.02.05-.04.07-.05.01-.02.04-.03.06-.05.02-.02.04-.04.06-.06.01,0,.02-.01.03-.02,0,0,.01-.01.02-.02.03-.03.06-.06.1-.1.01-.01.02-.02.03-.04.04-.04.08-.09.11-.13t0,0s.02-.02.02-.03c.02-.03.04-.05.06-.08.01-.02.02-.03.03-.05.02-.03.03-.05.05-.07,0,0,.01-.01.02-.02,0-.01,0-.02.02-.03.01-.02.02-.04.03-.06,0-.02.02-.04.03-.06,0-.02.02-.04.02-.06,0-.01,0-.02.01-.03,0,0,0-.02,0-.03,0-.02.02-.04.02-.06,0-.02.02-.04.02-.06,0-.02,0-.04.01-.06,0-.01,0-.02.01-.04,0,0,0-.02,0-.02,0-.02,0-.04.01-.06,0-.02,0-.04,0-.06,0-.02,0-.04,0-.06s0-.03,0-.04c0-.01,0-.03,0-.04v-.4s0,.06,0,.08Z" style="fill: #4b678b;"/>
        <path d="M106.38,201.18c1.7.98,1.71,2.57.02,3.55-1.68.98-4.43.98-6.12,0-1.7-.98-1.7-2.56-.02-3.55,1.68-.98,4.42-.98,6.12,0Z" style="fill: #6c98d0;"/>
        <path d="M104.26,189.12s0,.04-.01.07c.04-.16-.05-.32-.26-.44-.36-.21-.94-.21-1.29,0-.18.1-.26.24-.26.37h0l-.04,14.2c0,.14.09.27.27.38.04.02.09.04.13.06,0,0,0,0,0,0,0,0,.02,0,.02,0,.03.01.05.02.08.03.02,0,.04,0,.05,0s.02,0,.03,0c0,0,.01,0,.02,0,.03,0,.06.01.09.02.01,0,.02,0,.04,0,0,0,.01,0,.02,0,.01,0,.02,0,.04,0,.03,0,.06,0,.09,0,.01,0,.02,0,.04,0h.06s.07,0,.1,0h.02s.01,0,.02,0c.03,0,.06,0,.08,0,.02,0,.02,0,.04-.01.03,0,.06-.02.09-.02.02,0,.04,0,.05-.01,0,0,.02,0,.02-.01.06-.02.13-.05.18-.08,0,0,0,0,.01,0,.02-.01.03-.02.05-.04.02-.01.04-.03.06-.04,0,0,0,0,0,0,.02-.02.04-.04.06-.06,0,0,0,0,0-.01,0,0,0,0,0-.02,0,0,.01-.02.02-.02.01-.02.02-.04.03-.05,0,0,0,0,0,0,0,0,0,0,0-.01,0-.01,0-.02.01-.03,0-.02,0-.04,0-.05v-1.93s.03-12.27.03-12.27ZM104.24,189.23s-.02.04-.04.07c.02-.02.03-.05.04-.07h0ZM104.19,189.33s-.04.04-.05.06c.02-.02.04-.04.05-.06h0ZM104.06,189.45h0s-.04.03-.06.04c.03-.01.04-.03.06-.04ZM102.54,189.37s.03.03.04.05c-.02-.01-.03-.03-.04-.05ZM102.44,189.18s0,.03,0,.04c0-.01,0-.03,0-.04ZM102.48,189.28s.01.03.03.04c-.01-.02-.02-.03-.03-.04Z" style="fill: #757474;"/>
        <path d="M112.58,186.69s0,.09,0,.14c0,.04-.01.08-.02.12,0,.05-.01.09-.02.14,0,.04-.01.08-.03.12,0,.04-.02.09-.03.14-.01.04-.02.08-.04.12-.02.04-.03.09-.04.14-.02.04-.03.08-.05.12-.02.05-.04.09-.06.14-.02.04-.04.08-.05.12-.02.04-.05.09-.07.14-.02.04-.04.07-.06.11-.03.06-.07.11-.1.17-.02.03-.04.06-.06.1-.04.06-.09.13-.14.18-.01.02-.03.05-.05.07-.07.1-.15.19-.24.28-.02.03-.04.05-.07.07-.06.07-.14.14-.21.21-.04.03-.06.06-.1.09-.04.04-.09.08-.14.12-.04.04-.08.07-.13.11-.05.04-.09.08-.14.12-.04.03-.09.07-.14.1-.05.04-.11.08-.16.11-.05.04-.1.06-.15.1-.05.04-.11.08-.17.11-.07.04-.14.09-.21.13-.2.12-.41.22-.62.33-.06.03-.11.05-.17.08-.19.09-.39.17-.58.25-.03,0-.06.02-.09.03-.22.09-.44.16-.66.23-.16.05-.32.09-.48.14-.12.03-.24.07-.36.1-.17.04-.34.08-.52.11-.12.03-.24.06-.37.08-.05,0-.11.02-.16.03-.21.03-.42.06-.64.09-.06,0-.13.02-.19.02-.12.01-.24.02-.37.03-.21.02-.42.03-.63.04-.13,0-.26,0-.39,0-.17,0-.34,0-.51,0-.14,0-.28,0-.42-.01-.15,0-.31-.01-.47-.03-.15,0-.29-.02-.43-.04-.15-.01-.3-.03-.45-.05-.14-.02-.28-.04-.42-.06-.16-.03-.32-.06-.48-.09-.13-.03-.26-.05-.39-.08-.19-.04-.38-.09-.57-.14-.13-.03-.25-.06-.37-.1-.06-.02-.12-.04-.19-.06-.19-.06-.39-.13-.57-.19-.05-.02-.1-.04-.15-.06-.17-.06-.34-.14-.5-.21-.08-.04-.15-.06-.23-.1-.23-.11-.46-.23-.68-.35-1.83-1.06-2.74-2.44-2.73-3.82v.85c0,1.38.9,2.76,2.73,3.82.22.13.44.24.68.36.07.03.15.06.22.09.14.06.29.13.43.19.02,0,.05.02.08.03.05.02.1.04.15.05.19.07.38.14.57.19.06.02.13.04.19.06.04.01.09.03.13.04.08.02.16.04.24.06.19.05.37.1.57.14.05,0,.1.02.16.04.08.02.15.03.24.04.16.03.32.06.48.08.07,0,.13.02.2.03.07.01.15.02.22.03.15.02.3.04.45.05.07,0,.15.02.22.02.07,0,.14,0,.21.01.15.01.31.02.47.03.08,0,.15,0,.23.01.06,0,.12,0,.19,0,.17,0,.34,0,.51,0,.08,0,.17,0,.25,0,.05,0,.1,0,.14-.01.22,0,.43-.02.64-.04.08,0,.16,0,.24-.02.04,0,.08,0,.12-.01.06,0,.13-.02.2-.02.21-.03.42-.06.63-.09.05,0,.11-.02.16-.02.03,0,.05-.01.07-.01.1-.02.19-.04.29-.06.17-.04.35-.07.52-.11.12-.03.24-.06.37-.1.16-.05.32-.09.48-.14.03,0,.06-.02.1-.03.19-.06.37-.13.56-.2.03-.01.06-.02.09-.03.2-.08.4-.17.59-.25.05-.03.12-.05.17-.08.22-.1.43-.21.62-.33.04-.02.08-.04.11-.06.04-.02.07-.05.11-.07.05-.03.11-.06.15-.1.05-.04.1-.07.15-.1.05-.04.11-.07.15-.11.05-.03.09-.06.14-.1.05-.04.1-.08.14-.12.05-.04.09-.06.12-.11.05-.04.1-.08.14-.12.02-.02.04-.03.05-.05.01-.01.03-.03.04-.04.07-.07.14-.14.21-.21.03-.02.05-.05.07-.07.09-.09.17-.18.24-.28,0,0,0-.01.01-.02.02-.02.04-.05.05-.07.04-.05.09-.11.13-.17.02-.04.04-.07.06-.11.04-.05.07-.11.1-.16,0-.02.02-.03.03-.04.01-.02.02-.05.04-.07.03-.04.05-.09.07-.14.02-.04.04-.08.05-.12.02-.05.04-.09.06-.14.01-.02.02-.04.03-.06,0-.02.01-.04.02-.06.02-.04.03-.09.04-.13.01-.04.02-.08.04-.12.01-.04.02-.09.03-.13,0-.02.01-.05.02-.08,0-.02,0-.03,0-.05,0-.04.02-.09.02-.14,0-.04.02-.08.02-.13,0-.04,0-.09.01-.13,0-.03,0-.06,0-.09,0-.03,0-.05,0-.08v-.85s0,.1-.01.16Z" style="fill: #4b678b;"/>
        <path d="M109.85,182.71c3.62,2.09,3.65,5.49.04,7.58-3.6,2.09-9.47,2.09-13.09,0-3.63-2.1-3.64-5.49-.05-7.58,3.61-2.1,9.47-2.1,13.09,0Z" style="fill: #7aabeb;"/>
      </g>
      <g>
        <g style="isolation: isolate;">
          <g>
            <path id="SVGID" d="M71.73,83.08l-1.25.73c-.27.15-.72.07-1.35-.29-.99-.57-1.94-1.49-2.56-2.21l1.26-.73c.61.72,1.57,1.64,2.56,2.21.62.36,1.08.44,1.34.29Z" style="fill: #e2d9ca;"/>
            <g style="clip-path: url(#clippath);">
              <g style="isolation: isolate;">
                <path d="M66.57,81.31l1.26-.73s.07.09.11.13l-1.25.73s-.08-.09-.11-.13h0Z" style="fill: #e2d9ca;"/>
                <path d="M66.68,81.44l1.25-.73c.07.07.14.15.21.23l-1.26.73c-.07-.08-.14-.15-.21-.23h0Z" style="fill: #e2d9ca;"/>
                <path d="M66.89,81.67l1.26-.73c.07.08.15.17.24.25l-1.25.73c-.08-.09-.16-.17-.24-.25h0Z" style="fill: #e2d9ca;"/>
                <path d="M67.13,81.92l1.25-.73c.08.09.17.17.26.26l-1.26.73c-.09-.09-.17-.17-.26-.26h0Z" style="fill: #e2d9ca;"/>
                <path d="M67.38,82.17l1.26-.73c.09.09.18.17.27.25l-1.25.73c-.09-.08-.18-.17-.27-.25h0Z" style="fill: #e2d9ca;"/>
                <path d="M67.66,82.43l1.25-.73c.09.08.18.16.27.24l-1.25.73c-.09-.08-.18-.16-.27-.24h0Z" style="fill: #e2d9ca;"/>
                <path d="M67.93,82.67l1.25-.73c.09.07.17.15.26.22l-1.26.73c-.09-.07-.17-.14-.26-.22h0Z" style="fill: #e2d9ca;"/>
                <path d="M68.19,82.88l1.26-.73c.08.06.16.13.24.19l-1.25.73c-.08-.06-.16-.12-.25-.19h0Z" style="fill: #e2d9ca;"/>
                <path d="M68.44,83.07l1.25-.73c.08.05.15.11.23.16l-1.25.73c-.08-.05-.15-.11-.23-.16h0Z" style="fill: #e2d9ca;"/>
                <path d="M68.67,83.23l1.25-.73c.07.05.14.1.22.14l-1.26.73c-.07-.05-.14-.09-.21-.14h0Z" style="fill: #e2d9ca;"/>
                <path d="M68.88,83.37l1.26-.73c.06.04.13.08.2.12l-1.26.73c-.06-.04-.13-.08-.2-.12h0Z" style="fill: #e2d9ca;"/>
                <path d="M69.08,83.5l1.26-.73s.03.02.04.02c.04.02.07.04.11.06l-1.26.73s-.07-.04-.11-.06c-.02,0-.03-.02-.05-.02h0Z" style="fill: #e2d9ca;"/>
                <path d="M69.24,83.59l1.26-.73s.09.04.13.07l-1.25.73s-.09-.04-.14-.07h0Z" style="fill: #e2d9ca;"/>
                <path d="M69.38,83.65l1.25-.73s.08.04.12.06l-1.26.73s-.08-.03-.12-.06h0Z" style="fill: #e2d9ca;"/>
                <path d="M69.49,83.71l1.26-.73s.07.03.11.05l-1.26.73s-.07-.03-.11-.05h0Z" style="fill: #e2d9ca;"/>
                <path d="M69.6,83.76l1.26-.73s.06.03.1.04l-1.25.73s-.07-.02-.1-.04h0Z" style="fill: #e2d9ca;"/>
                <path d="M69.7,83.79l1.25-.73s.06.02.09.03l-1.26.73s-.06-.02-.09-.03h0Z" style="fill: #e2d9ca;"/>
                <path d="M69.79,83.82l1.26-.73s.06.02.08.02l-1.26.73s-.06-.01-.09-.02h0Z" style="fill: #e2d9ca;"/>
                <path d="M69.87,83.84l1.26-.73s.05.01.08.02l-1.26.73s-.05,0-.08-.02h0Z" style="fill: #e2d9ca;"/>
                <path d="M69.95,83.86l1.26-.73s.05,0,.07.01l-1.26.73s-.05,0-.07-.01h0Z" style="fill: #e2d9ca;"/>
                <path d="M70.03,83.88l1.26-.73s.05,0,.07,0l-1.26.73s-.05,0-.07,0h0Z" style="fill: #e2d9ca;"/>
                <path d="M70.1,83.88l1.26-.73s.04,0,.07,0l-1.25.73s-.04,0-.07,0h0Z" style="fill: #e2d9ca;"/>
                <path d="M70.17,83.89l1.25-.73s.04,0,.07,0l-1.26.73s-.04,0-.07,0h0Z" style="fill: #e2d9ca;"/>
                <path d="M70.24,83.88l1.26-.73s.05,0,.07-.01l-1.26.73s-.05,0-.07.01h0Z" style="fill: #e2d9ca;"/>
                <path d="M70.31,83.87l1.26-.73s.05-.01.08-.02l-1.26.73s-.05.02-.08.02h0Z" style="fill: #e2d9ca;"/>
                <path d="M70.39,83.85l1.26-.73s.06-.02.08-.04l-1.25.73s-.05.03-.09.04h0Z" style="fill: #e2d9ca;"/>
              </g>
            </g>
          </g>
          <g>
            <path id="SVGID-2" data-name="SVGID" d="M68.82,76.04l1.26-.73c-.16.09-.24.28-.24.52,0,.76.58,1.42,1.89,2.76,1.81,1.81,2.65,3.38,2.64,5.04,0,.88-.27,1.55-.83,1.88l-1.25.73c.55-.32.82-.99.83-1.88,0-1.66-.83-3.23-2.64-5.04-1.32-1.34-1.9-2-1.9-2.76,0-.24.08-.43.24-.52Z" style="fill: #e2d9ca;"/>
            <g style="clip-path: url(#clippath-1);">
              <g style="isolation: isolate;">
                <path d="M68.82,76.04l1.26-.73c-.06.04-.11.09-.15.15l-1.25.73c.04-.06.09-.11.15-.15h0Z" style="fill: #e2d9ca;"/>
                <path d="M68.67,76.19l1.25-.73s-.02.03-.03.05l-1.26.73s.02-.03.03-.05h0Z" style="fill: #e2d9ca;"/>
                <path d="M68.64,76.24l1.26-.73s-.02.03-.02.04l-1.26.73s.01-.03.02-.04h0Z" style="fill: #e2d9ca;"/>
                <path d="M68.62,76.29l1.26-.73s-.01.03-.02.04l-1.25.73s0-.03.01-.04h0Z" style="fill: #e2d9ca;"/>
                <path d="M68.61,76.33l1.25-.73s0,.02-.01.04l-1.25.73s0-.02.01-.04h0Z" style="fill: #e2d9ca;"/>
                <path d="M68.6,76.37l1.25-.73s0,.03,0,.04l-1.26.73s0-.03,0-.04h0Z" style="fill: #e2d9ca;"/>
                <path d="M68.59,76.41l1.26-.73s0,.02,0,.04l-1.26.73s0-.03,0-.04h0Z" style="fill: #e2d9ca;"/>
                <path d="M68.58,76.45l1.26-.73s0,.02,0,.04l-1.25.73s0-.03,0-.04h0Z" style="fill: #e2d9ca;"/>
                <path d="M68.58,76.48l1.25-.73s0,.02,0,.04l-1.26.73s0-.02,0-.04h0Z" style="fill: #e2d9ca;"/>
                <path d="M68.58,76.52l1.26-.73v.04l-1.26.73v-.04h0Z" style="fill: #e2d9ca;"/>
                <path d="M68.58,76.56l1.26-.73h0v.05l-1.26.73v-.04h0Z" style="fill: #e2d9ca;"/>
                <path d="M68.58,76.61l1.26-.73s0,.03,0,.05l-1.25.73s0-.04,0-.05h0Z" style="fill: #e2d9ca;"/>
                <path d="M68.58,76.66l1.25-.73s0,.03,0,.05l-1.26.73s0-.03,0-.05h0Z" style="fill: #e2d9ca;"/>
                <path d="M68.58,76.71l1.26-.73s0,.03,0,.04l-1.26.73s0-.03,0-.04h0Z" style="fill: #e2d9ca;"/>
                <path d="M68.59,76.75l1.26-.73s0,.03,0,.04l-1.26.73s0-.03,0-.04h0Z" style="fill: #e2d9ca;"/>
                <path d="M68.6,76.79l1.26-.73s0,.03,0,.04l-1.26.73s0-.03,0-.04h0Z" style="fill: #e2d9ca;"/>
                <path d="M68.6,76.83l1.26-.73s0,.03,0,.04l-1.26.73s0-.03,0-.04h0Z" style="fill: #e2d9ca;"/>
                <path d="M68.61,76.88l1.26-.73s0,.03,0,.04l-1.25.73s0-.03,0-.04h0Z" style="fill: #e2d9ca;"/>
                <path d="M68.62,76.92l1.25-.73s0,.03.01.04l-1.26.73s0-.03-.01-.04h0Z" style="fill: #e2d9ca;"/>
                <path d="M68.63,76.96l1.26-.73s0,.03.01.04l-1.26.73s0-.03,0-.04h0Z" style="fill: #e2d9ca;"/>
                <path d="M68.64,77l1.26-.73s0,.03.01.04l-1.26.73s0-.03-.02-.04h0Z" style="fill: #e2d9ca;"/>
                <path d="M68.66,77.04l1.26-.73s0,.02.01.04l-1.26.73s0-.02-.01-.04h0Z" style="fill: #e2d9ca;"/>
                <path d="M68.67,77.08l1.26-.73s.01.03.02.04l-1.26.73s0-.03-.02-.04h0Z" style="fill: #e2d9ca;"/>
                <path d="M68.68,77.12l1.26-.73s.01.03.02.04l-1.25.73s-.01-.03-.02-.04h0Z" style="fill: #e2d9ca;"/>
                <path d="M68.7,77.16l1.25-.73s.01.03.02.04l-1.26.73s-.01-.03-.02-.04h0Z" style="fill: #e2d9ca;"/>
                <path d="M68.72,77.2l1.26-.73s.01.03.02.04l-1.26.73s-.01-.03-.02-.04h0Z" style="fill: #e2d9ca;"/>
                <path d="M68.74,77.24l1.26-.73s.02.04.02.05l-1.25.73s-.02-.04-.03-.05h0Z" style="fill: #e2d9ca;"/>
                <path d="M68.76,77.3l1.25-.73s.02.04.03.05l-1.25.73s-.02-.04-.03-.05h0Z" style="fill: #e2d9ca;"/>
                <path d="M68.79,77.35l1.25-.73s.04.07.06.1l-1.26.73s-.04-.07-.06-.11h0Z" style="fill: #e2d9ca;"/>
                <path d="M68.85,77.45l1.26-.73c.03.05.06.11.11.17l-1.25.73c-.04-.06-.08-.11-.11-.17h0Z" style="fill: #e2d9ca;"/>
                <path d="M68.95,77.62l1.25-.73s.07.1.11.15l-1.26.73s-.07-.1-.11-.15h0Z" style="fill: #e2d9ca;"/>
                <path d="M69.06,77.77l1.26-.73s.06.09.1.13l-1.25.73s-.07-.09-.1-.13h0Z" style="fill: #e2d9ca;"/>
                <path d="M69.16,77.9l1.25-.73s.08.1.12.15l-1.26.73s-.08-.1-.12-.15h0Z" style="fill: #e2d9ca;"/>
                <path d="M69.28,78.05l1.26-.73c.05.06.1.13.16.19l-1.26.73c-.06-.06-.11-.13-.16-.19h0Z" style="fill: #e2d9ca;"/>
                <path d="M69.44,78.24l1.26-.73c.08.09.17.19.26.29l-1.25.73c-.09-.1-.18-.19-.26-.29h0Z" style="fill: #e2d9ca;"/>
                <path d="M69.7,78.52l1.25-.73c.19.21.41.43.65.68l-1.26.73c-.24-.25-.46-.47-.65-.68h0Z" style="fill: #e2d9ca;"/>
                <path d="M70.35,79.2l1.26-.73s.08.08.12.12c.02.02.03.03.04.05l-1.26.73s-.03-.03-.04-.04c-.04-.04-.08-.08-.12-.12h0Z" style="fill: #e2d9ca;"/>
                <path d="M70.52,79.37l1.26-.73c.14.14.28.29.41.43l-1.26.73c-.13-.14-.27-.28-.41-.43h0Z" style="fill: #e2d9ca;"/>
                <path d="M70.93,79.8l1.26-.73c.09.1.18.19.26.29l-1.25.73c-.09-.09-.17-.19-.26-.29h0Z" style="fill: #e2d9ca;"/>
                <path d="M71.19,80.09l1.25-.73c.08.09.15.17.22.26l-1.25.73c-.07-.09-.15-.17-.22-.26h0Z" style="fill: #e2d9ca;"/>
                <path d="M71.42,80.35l1.25-.73c.07.08.13.16.2.24l-1.26.73c-.06-.08-.13-.16-.2-.24h0Z" style="fill: #e2d9ca;"/>
                <path d="M71.61,80.59l1.26-.73c.06.08.13.17.19.25l-1.26.73c-.06-.09-.12-.17-.19-.25h0Z" style="fill: #e2d9ca;"/>
                <path d="M71.81,80.84l1.26-.73c.08.11.15.21.23.32l-1.26.73c-.07-.11-.15-.21-.23-.32h0Z" style="fill: #e2d9ca;"/>
                <path d="M72.03,81.16l1.26-.73c.11.15.2.3.29.46l-1.26.73c-.09-.15-.18-.3-.29-.46h0Z" style="fill: #e2d9ca;"/>
                <path d="M72.32,81.62l1.26-.73c.05.09.09.17.14.25l-1.26.73c-.04-.09-.09-.17-.14-.25h0Z" style="fill: #e2d9ca;"/>
                <path d="M72.46,81.87l1.26-.73c.03.05.05.1.08.15l-1.25.73c-.03-.05-.06-.1-.08-.15h0Z" style="fill: #e2d9ca;"/>
                <path d="M72.54,82.02l1.25-.73s.05.1.07.14l-1.26.73s-.04-.09-.07-.14h0Z" style="fill: #e2d9ca;"/>
                <path d="M72.61,82.16l1.26-.73s.04.08.06.13l-1.26.73s-.03-.08-.05-.12h0Z" style="fill: #e2d9ca;"/>
                <path d="M72.67,82.29l1.26-.73s.04.08.05.12l-1.25.73s-.04-.08-.05-.13h0Z" style="fill: #e2d9ca;"/>
                <path d="M72.72,82.41l1.25-.73s.04.08.05.12l-1.26.73s-.03-.08-.05-.12h0Z" style="fill: #e2d9ca;"/>
                <path d="M72.77,82.53l1.26-.73s.03.08.05.12l-1.26.73s-.03-.08-.05-.12h0Z" style="fill: #e2d9ca;"/>
                <path d="M72.81,82.66l1.26-.73s.03.09.04.13l-1.26.73s-.03-.09-.04-.13h0Z" style="fill: #e2d9ca;"/>
                <path d="M72.86,82.78l1.26-.73s.03.09.04.13l-1.26.73s-.03-.09-.04-.13h0Z" style="fill: #e2d9ca;"/>
                <path d="M72.9,82.91l1.26-.73s.03.09.04.13l-1.25.73s-.03-.09-.04-.13h0Z" style="fill: #e2d9ca;"/>
                <path d="M72.94,83.04l1.25-.73s.03.09.04.13l-1.26.73s-.02-.09-.04-.13h0Z" style="fill: #e2d9ca;"/>
                <path d="M72.97,83.18l1.26-.73s.02.09.03.14l-1.26.73s-.02-.09-.03-.14h0Z" style="fill: #e2d9ca;"/>
                <path d="M73,83.32l1.26-.73s.02.09.03.14l-1.26.73s-.02-.09-.03-.14h0Z" style="fill: #e2d9ca;"/>
                <path d="M73.03,83.46l1.26-.73s.02.09.03.14l-1.26.73s-.02-.09-.02-.14h0Z" style="fill: #e2d9ca;"/>
                <path d="M73.06,83.59l1.26-.73s.01.1.02.14l-1.26.73s-.01-.09-.02-.14h0Z" style="fill: #e2d9ca;"/>
                <path d="M73.08,83.74l1.26-.73s.01.1.02.15l-1.26.73s0-.1-.02-.15h0Z" style="fill: #e2d9ca;"/>
                <path d="M73.09,83.89l1.26-.73c0,.05,0,.1.01.15l-1.26.73c0-.05,0-.1-.01-.15h0Z" style="fill: #e2d9ca;"/>
                <path d="M73.11,84.04l1.26-.73c0,.05,0,.11,0,.16l-1.26.73c0-.06,0-.11,0-.16h0Z" style="fill: #e2d9ca;"/>
                <path d="M73.11,84.2l1.26-.73c0,.05,0,.11,0,.16h0s-1.26.74-1.26.74h0c0-.06,0-.11,0-.17h0Z" style="fill: #e2d9ca;"/>
                <path d="M73.12,84.37l1.26-.73c0,.05,0,.1,0,.15l-1.26.73c0-.05,0-.1,0-.15h0Z" style="fill: #e2d9ca;"/>
                <path d="M73.11,84.52l1.25-.73c0,.05,0,.1,0,.15l-1.25.73s0-.1,0-.15h0Z" style="fill: #e2d9ca;"/>
                <path d="M73.1,84.67l1.25-.73s0,.1-.02.15l-1.26.73s.01-.1.02-.15h0Z" style="fill: #e2d9ca;"/>
                <path d="M73.09,84.82l1.26-.73s-.01.1-.02.15l-1.26.73s.02-.1.02-.15h0Z" style="fill: #e2d9ca;"/>
                <path d="M73.06,84.96l1.26-.73s-.02.1-.03.15l-1.26.73c.01-.05.02-.1.03-.15h0Z" style="fill: #e2d9ca;"/>
                <path d="M73.04,85.11l1.26-.73s-.02.1-.04.15l-1.26.73s.03-.1.04-.15h0Z" style="fill: #e2d9ca;"/>
                <path d="M73,85.26l1.26-.73c-.02.05-.03.1-.05.15l-1.25.73s.03-.1.05-.15h0Z" style="fill: #e2d9ca;"/>
                <path d="M72.95,85.41l1.25-.73c-.02.06-.04.11-.07.17l-1.25.73c.02-.05.04-.11.07-.17h0Z" style="fill: #e2d9ca;"/>
                <path d="M72.88,85.57l1.25-.73c-.03.07-.06.13-.1.19l-1.26.73c.04-.06.08-.12.11-.19h0Z" style="fill: #e2d9ca;"/>
                <path d="M72.77,85.76l1.26-.73c-.13.2-.29.36-.49.47l-1.25.73c.2-.11.36-.27.48-.47h0Z" style="fill: #e2d9ca;"/>
              </g>
            </g>
          </g>
          <g>
            <path id="SVGID-3" data-name="SVGID" d="M67.06,73.62l1.26-.73c.66-.39,1.71-.26,3.06.52l-1.26.73c-1.35-.78-2.39-.91-3.06-.52Z" style="fill: #e2d9ca;"/>
            <g style="clip-path: url(#clippath-2);">
              <g style="isolation: isolate;">
                <path d="M67.06,73.62l1.26-.73c.08-.04.16-.08.24-.11l-1.26.73c-.09.03-.17.07-.24.11h0Z" style="fill: #e2d9ca;"/>
                <path d="M67.31,73.51l1.26-.73c.07-.02.15-.05.22-.06l-1.26.73c-.08.02-.15.04-.22.06h0Z" style="fill: #e2d9ca;"/>
                <path d="M67.53,73.45l1.26-.73c.06-.01.13-.02.2-.03l-1.26.73c-.07,0-.14.02-.2.03h0Z" style="fill: #e2d9ca;"/>
                <path d="M67.73,73.42l1.26-.73c.06,0,.12,0,.18,0l-1.26.73c-.06,0-.12,0-.18,0h0Z" style="fill: #e2d9ca;"/>
                <path d="M67.91,73.41l1.26-.73c.06,0,.12,0,.17,0l-1.25.73c-.06,0-.12,0-.18,0h0Z" style="fill: #e2d9ca;"/>
                <path d="M68.09,73.42l1.25-.73c.06,0,.12.01.18.02l-1.26.73c-.06-.01-.12-.02-.18-.02h0Z" style="fill: #e2d9ca;"/>
                <path d="M68.27,73.44l1.26-.73c.06,0,.12.02.18.03l-1.25.73c-.07-.01-.13-.02-.18-.03h0Z" style="fill: #e2d9ca;"/>
                <path d="M68.45,73.47l1.25-.73c.06.01.12.02.19.04l-1.26.73c-.06-.02-.12-.03-.18-.04h0Z" style="fill: #e2d9ca;"/>
                <path d="M68.64,73.51l1.26-.73c.06.02.13.03.19.05l-1.26.73c-.06-.02-.13-.04-.19-.05h0Z" style="fill: #e2d9ca;"/>
                <path d="M68.83,73.56l1.26-.73c.06.02.13.04.2.06l-1.26.73c-.07-.02-.13-.05-.2-.06h0Z" style="fill: #e2d9ca;"/>
                <path d="M69.03,73.63l1.26-.73c.07.02.14.05.21.08l-1.26.73c-.07-.03-.14-.05-.21-.08h0Z" style="fill: #e2d9ca;"/>
                <path d="M69.23,73.7l1.26-.73c.07.03.14.06.22.09l-1.25.73c-.07-.03-.15-.06-.22-.09h0Z" style="fill: #e2d9ca;"/>
                <path d="M69.45,73.8l1.25-.73c.08.03.15.07.23.11l-1.26.73c-.08-.04-.15-.08-.23-.11h0Z" style="fill: #e2d9ca;"/>
                <path d="M69.68,73.9l1.26-.73c.08.04.16.08.24.13l-1.25.73c-.08-.04-.16-.09-.25-.13h0Z" style="fill: #e2d9ca;"/>
                <path d="M69.93,74.03l1.25-.73c.06.04.13.07.2.11l-1.26.73c-.07-.04-.14-.07-.2-.11h0Z" style="fill: #e2d9ca;"/>
              </g>
            </g>
          </g>
          <polygon points="72.73 76.24 73.98 75.51 73.47 77.36 72.21 78.08 72.73 76.24" style="fill: #e2d9ca;"/>
          <g>
            <path id="SVGID-4" data-name="SVGID" d="M70.13,74.14l1.26-.73c1.15.66,2,1.43,2.6,2.09l-1.25.73c-.61-.67-1.46-1.43-2.61-2.09Z" style="fill: #e2d9ca;"/>
            <g style="clip-path: url(#clippath-3);">
              <g style="isolation: isolate;">
                <path d="M70.13,74.14l1.26-.73s.05.03.08.04l-1.26.73s-.05-.03-.08-.04h0Z" style="fill: #e2d9ca;"/>
                <path d="M70.2,74.19l1.26-.73c.11.06.22.13.33.2l-1.26.73c-.11-.07-.22-.13-.33-.2h0Z" style="fill: #e2d9ca;"/>
                <path d="M70.53,74.39l1.26-.73c.11.07.21.14.31.21l-1.25.73c-.11-.07-.21-.14-.32-.21h0Z" style="fill: #e2d9ca;"/>
                <path d="M70.84,74.6l1.25-.73c.11.07.21.14.3.21l-1.26.73c-.1-.07-.2-.14-.3-.21h0Z" style="fill: #e2d9ca;"/>
                <path d="M71.14,74.81l1.26-.73c.1.07.19.15.29.22l-1.26.73c-.09-.07-.19-.15-.29-.22h0Z" style="fill: #e2d9ca;"/>
                <path d="M71.43,75.03l1.26-.73c.1.08.19.15.28.23l-1.25.73c-.09-.07-.18-.15-.28-.23h0Z" style="fill: #e2d9ca;"/>
                <path d="M71.71,75.26l1.25-.73c.09.08.18.15.27.23l-1.25.73c-.09-.08-.18-.15-.27-.23h0Z" style="fill: #e2d9ca;"/>
                <path d="M71.98,75.49l1.25-.73c.09.08.17.15.25.23l-1.26.73c-.07-.08-.16-.15-.24-.23h0Z" style="fill: #e2d9ca;"/>
                <path d="M72.22,75.72l1.26-.73c.08.08.16.15.23.23l-1.25.73c-.07-.07-.15-.15-.23-.23h0Z" style="fill: #e2d9ca;"/>
                <path d="M72.45,75.95l1.25-.73c.07.07.15.15.21.22l-1.26.73c-.07-.07-.14-.15-.21-.22h0Z" style="fill: #e2d9ca;"/>
                <path d="M72.66,76.17l1.26-.73s.04.05.06.07l-1.25.73s-.04-.05-.07-.07h0Z" style="fill: #e2d9ca;"/>
              </g>
            </g>
          </g>
          <path d="M70.13,74.14c1.15.66,2,1.43,2.6,2.09l-.52,1.85c-.41-.46-1.14-1.21-2.14-1.78-1-.58-1.49-.34-1.49.26,0,.76.58,1.42,1.9,2.76,1.81,1.8,2.65,3.37,2.64,5.04,0,1.96-1.33,2.87-4.13,1.26-1.17-.68-2.32-1.68-2.9-2.38l.48-1.92c.61.72,1.57,1.64,2.56,2.21,1.06.61,1.62.42,1.62-.35,0-.73-.47-1.43-1.7-2.63-1.7-1.66-2.8-3.39-2.8-5.09,0-2.02,1.47-2.7,3.88-1.31Z" style="fill: #f7f2ec;"/>
        </g>
        <g style="isolation: isolate;">
          <polygon points="79.3 81.86 80.56 81.13 80.53 90.65 79.27 91.38 79.3 81.86" style="fill: #e2d9ca;"/>
          <polygon points="82.1 81.25 83.35 80.52 83.34 82.74 82.09 83.47 82.1 81.25" style="fill: #e2d9ca;"/>
          <polygon points="74.23 76.71 75.49 75.98 83.35 80.52 82.1 81.25 74.23 76.71" style="fill: #e2d9ca;"/>
          <polygon points="82.1 81.25 82.09 83.47 79.3 81.86 79.27 91.38 76.95 90.04 76.98 80.53 74.22 78.93 74.23 76.71 82.1 81.25" style="fill: #f7f2ec;"/>
        </g>
        <g>
          <path id="SVGID-5" data-name="SVGID" d="M90.39,93.7l-1.26.73c-.39.23-.9.19-1.52-.16l1.26-.73c.61.36,1.12.39,1.52.16Z" style="fill: #e2d9ca;"/>
          <g style="clip-path: url(#clippath-4);">
            <g style="isolation: isolate;">
              <path d="M87.62,94.28l1.26-.73s.05.03.07.04l-1.26.73s-.05-.03-.07-.04h0Z" style="fill: #e2d9ca;"/>
              <path d="M87.69,94.32l1.26-.73s.06.04.1.05l-1.26.73s-.06-.03-.1-.05h0Z" style="fill: #e2d9ca;"/>
              <path d="M87.79,94.37l1.26-.73s.06.03.09.04l-1.26.73s-.06-.03-.09-.04h0Z" style="fill: #e2d9ca;"/>
              <path d="M87.88,94.41l1.26-.73s.06.02.09.04l-1.26.73s-.06-.02-.09-.04h0Z" style="fill: #e2d9ca;"/>
              <path d="M87.97,94.45l1.26-.73s.06.02.09.03l-1.26.73s-.06-.02-.09-.03h0Z" style="fill: #e2d9ca;"/>
              <path d="M88.06,94.48l1.26-.73s.06.02.09.03l-1.25.73s-.06-.02-.09-.03h0Z" style="fill: #e2d9ca;"/>
              <path d="M88.14,94.51l1.25-.73s.06.02.09.02l-1.26.73s-.06-.01-.08-.02h0Z" style="fill: #e2d9ca;"/>
              <path d="M88.23,94.53l1.26-.73s.06.01.09.02l-1.25.73s-.06-.01-.09-.02h0Z" style="fill: #e2d9ca;"/>
              <path d="M88.32,94.55l1.25-.73s.06,0,.09.02l-1.26.73s-.06,0-.09-.02h0Z" style="fill: #e2d9ca;"/>
              <path d="M88.4,94.57l1.26-.73s.06,0,.09,0l-1.25.73s-.06,0-.09,0h0Z" style="fill: #e2d9ca;"/>
              <path d="M88.49,94.57l1.25-.73s.06,0,.1,0l-1.26.73s-.06,0-.1,0h0Z" style="fill: #e2d9ca;"/>
              <path d="M88.59,94.58l1.26-.73s.07,0,.1,0l-1.26.73s-.07,0-.1,0h0Z" style="fill: #e2d9ca;"/>
              <path d="M88.69,94.57l1.26-.73s.08-.01.12-.02l-1.26.73s-.08.01-.12.02h0Z" style="fill: #e2d9ca;"/>
              <path d="M88.81,94.56l1.26-.73s.1-.02.15-.04l-1.26.73s-.1.03-.15.04h0Z" style="fill: #e2d9ca;"/>
              <path d="M88.96,94.51l1.26-.73c.06-.02.12-.05.18-.09l-1.26.73c-.06.03-.12.06-.18.08h0Z" style="fill: #e2d9ca;"/>
            </g>
          </g>
        </g>
        <g>
          <path id="SVGID-6" data-name="SVGID" d="M86.09,86.2l1.26-.73c-.61.36-.95,1.34-.96,2.71,0,2.3.93,4.47,2.48,5.36l-1.26.73c-1.55-.9-2.49-3.06-2.48-5.36,0-1.38.34-2.36.95-2.71Z" style="fill: #e2d9ca;"/>
          <g style="clip-path: url(#clippath-5);">
            <g style="isolation: isolate;">
              <path d="M86.09,86.2l1.26-.73c-.18.11-.33.26-.47.47l-1.26.73c.13-.21.29-.36.47-.47h0Z" style="fill: #e2d9ca;"/>
              <path d="M85.63,86.67l1.26-.73c-.05.07-.09.15-.13.23l-1.26.73c.04-.08.08-.16.13-.23h0Z" style="fill: #e2d9ca;"/>
              <path d="M85.5,86.9l1.26-.73c-.03.07-.06.14-.09.22l-1.26.73c.03-.08.06-.15.09-.22h0Z" style="fill: #e2d9ca;"/>
              <path d="M85.41,87.12l1.26-.73c-.03.07-.05.14-.07.22l-1.26.73c.02-.08.05-.15.07-.22h0Z" style="fill: #e2d9ca;"/>
              <path d="M85.33,87.34l1.26-.73c-.02.07-.04.15-.06.23l-1.26.73c.02-.08.04-.15.06-.23h0Z" style="fill: #e2d9ca;"/>
              <path d="M85.27,87.57l1.26-.73c-.02.08-.03.16-.05.24l-1.26.73c.02-.08.03-.16.05-.24h0Z" style="fill: #e2d9ca;"/>
              <path d="M85.22,87.81l1.26-.73c-.02.08-.03.16-.04.25l-1.26.73c.01-.09.03-.17.04-.25h0Z" style="fill: #e2d9ca;"/>
              <path d="M85.19,88.06l1.26-.73c-.01.09-.02.17-.03.26l-1.26.73c.01-.09.02-.18.03-.26h0Z" style="fill: #e2d9ca;"/>
              <path d="M85.16,88.32l1.26-.73c0,.09-.01.18-.02.28l-1.26.73c0-.1,0-.19.02-.28h0Z" style="fill: #e2d9ca;"/>
              <path d="M85.14,88.6l1.26-.73c0,.1,0,.19,0,.29l-1.25.73c0-.1,0-.2,0-.29h0Z" style="fill: #e2d9ca;"/>
              <path d="M85.14,88.9l1.25-.73v.02c0,.09,0,.18,0,.27l-1.25.73c0-.09,0-.18,0-.27v-.02h0Z" style="fill: #e2d9ca;"/>
              <path d="M85.14,89.19l1.25-.73c0,.09.01.19.02.28l-1.26.73c0-.09,0-.19,0-.28h0Z" style="fill: #e2d9ca;"/>
              <path d="M85.15,89.47l1.26-.73c0,.09.01.18.02.26l-1.26.73c-.01-.09-.02-.18-.02-.26h0Z" style="fill: #e2d9ca;"/>
              <path d="M85.18,89.73l1.26-.73c0,.09.02.17.03.26l-1.26.73c-.01-.09-.02-.17-.03-.26h0Z" style="fill: #e2d9ca;"/>
              <path d="M85.2,89.98l1.26-.73c.01.08.02.16.04.24l-1.26.73c-.01-.08-.02-.16-.04-.24h0Z" style="fill: #e2d9ca;"/>
              <path d="M85.24,90.23l1.26-.73c.01.08.03.16.04.23l-1.25.73c-.02-.08-.03-.15-.04-.23h0Z" style="fill: #e2d9ca;"/>
              <path d="M85.28,90.46l1.25-.73c.02.08.03.15.05.22l-1.26.73c-.02-.07-.03-.15-.04-.22h0Z" style="fill: #e2d9ca;"/>
              <path d="M85.32,90.68l1.26-.73c.02.07.03.14.05.22l-1.25.73c-.02-.07-.04-.14-.05-.22h0Z" style="fill: #e2d9ca;"/>
              <path d="M85.37,90.9l1.25-.73c.02.07.03.13.05.2l-1.26.73c-.01-.06-.03-.13-.05-.2h0Z" style="fill: #e2d9ca;"/>
              <path d="M85.42,91.1l1.26-.73c.02.06.04.13.06.19l-1.26.73c-.02-.06-.04-.13-.06-.19h0Z" style="fill: #e2d9ca;"/>
              <path d="M85.48,91.29l1.26-.73c.02.06.04.12.06.18l-1.26.73c-.02-.06-.04-.12-.06-.18h0Z" style="fill: #e2d9ca;"/>
              <path d="M85.54,91.47l1.26-.73c.02.05.04.11.06.16l-1.25.73c-.02-.05-.04-.11-.06-.16h0Z" style="fill: #e2d9ca;"/>
              <path d="M85.59,91.63l1.25-.73c.02.05.04.1.06.15l-1.26.73s-.04-.1-.06-.15h0Z" style="fill: #e2d9ca;"/>
              <path d="M85.65,91.78l1.26-.73s.04.09.06.14l-1.26.73s-.04-.09-.06-.14h0Z" style="fill: #e2d9ca;"/>
              <path d="M85.71,91.92l1.26-.73s.04.09.06.13l-1.26.73s-.03-.09-.05-.13h0Z" style="fill: #e2d9ca;"/>
              <path d="M85.76,92.06l1.26-.73s.04.09.06.14l-1.26.73s-.04-.09-.06-.14h0Z" style="fill: #e2d9ca;"/>
              <path d="M85.83,92.19l1.26-.73s.04.09.06.13l-1.25.73s-.04-.08-.07-.13h0Z" style="fill: #e2d9ca;"/>
              <path d="M85.89,92.33l1.25-.73c.03.05.05.11.08.16l-1.26.73s-.05-.1-.08-.16h0Z" style="fill: #e2d9ca;"/>
              <path d="M85.97,92.48l1.26-.73c.03.06.07.13.1.19l-1.26.73c-.04-.06-.07-.12-.11-.19h0Z" style="fill: #e2d9ca;"/>
              <path d="M86.08,92.67l1.26-.73c.06.1.12.2.18.29l-1.25.73c-.07-.09-.13-.19-.18-.29h0Z" style="fill: #e2d9ca;"/>
              <path d="M86.26,92.96l1.25-.73c.05.07.09.13.14.2l-1.26.73c-.05-.06-.1-.13-.14-.2h0Z" style="fill: #e2d9ca;"/>
              <path d="M86.4,93.16l1.26-.73s.05.07.08.11l-1.26.73s-.06-.07-.08-.11h0Z" style="fill: #e2d9ca;"/>
              <path d="M86.48,93.27l1.26-.73s.06.07.08.11l-1.25.73s-.06-.07-.09-.11h0Z" style="fill: #e2d9ca;"/>
              <path d="M86.57,93.37l1.25-.73s.05.06.08.09l-1.26.73s-.05-.06-.08-.09h0Z" style="fill: #e2d9ca;"/>
              <path d="M86.65,93.47l1.26-.73s.05.06.08.09l-1.25.73s-.06-.06-.08-.09h0Z" style="fill: #e2d9ca;"/>
              <path d="M86.73,93.55l1.25-.73s.06.06.09.09l-1.26.73s-.06-.06-.09-.09h0Z" style="fill: #e2d9ca;"/>
              <path d="M86.82,93.64l1.26-.73s.06.06.09.09l-1.26.73s-.06-.06-.09-.09h0Z" style="fill: #e2d9ca;"/>
              <path d="M86.9,93.73l1.26-.73s.06.06.09.09l-1.25.73s-.06-.05-.09-.08h0Z" style="fill: #e2d9ca;"/>
              <path d="M87,93.82l1.25-.73s.06.06.1.09l-1.26.73s-.06-.05-.1-.09h0Z" style="fill: #e2d9ca;"/>
              <path d="M87.09,93.9l1.26-.73s.06.05.1.08l-1.25.73s-.07-.06-.1-.08h0Z" style="fill: #e2d9ca;"/>
              <path d="M87.19,93.99l1.25-.73s.06.05.1.07l-1.26.73s-.06-.05-.1-.07h0Z" style="fill: #e2d9ca;"/>
              <path d="M87.29,94.06l1.26-.73s.06.05.1.07l-1.25.73s-.07-.05-.1-.07h0Z" style="fill: #e2d9ca;"/>
              <path d="M87.39,94.13l1.25-.73s.06.05.1.07l-1.26.73s-.07-.05-.1-.07h0Z" style="fill: #e2d9ca;"/>
              <path d="M87.49,94.2l1.26-.73s.07.04.1.06l-1.26.73s-.07-.04-.1-.06h0Z" style="fill: #e2d9ca;"/>
              <polygon points="87.59 94.26 88.85 93.53 88.88 93.54 87.62 94.28 87.59 94.26" style="fill: #e2d9ca;"/>
            </g>
          </g>
        </g>
        <g>
          <path id="SVGID-7" data-name="SVGID" d="M84.21,83.86l1.26-.73c.86-.5,2.05-.4,3.48.42l-1.26.73c-1.43-.82-2.62-.92-3.48-.42Z" style="fill: #e2d9ca;"/>
          <g style="clip-path: url(#clippath-6);">
            <g style="isolation: isolate;">
              <path d="M84.21,83.86l1.26-.73c.12-.07.24-.13.37-.17l-1.26.73c-.13.04-.25.1-.37.17h0Z" style="fill: #e2d9ca;"/>
              <path d="M84.58,83.69l1.26-.73c.1-.04.2-.06.31-.09l-1.26.73c-.11.02-.21.05-.31.09h0Z" style="fill: #e2d9ca;"/>
              <path d="M84.89,83.61l1.26-.73c.08-.02.17-.03.26-.04l-1.26.73c-.09,0-.17.02-.26.04h0Z" style="fill: #e2d9ca;"/>
              <path d="M85.15,83.57l1.26-.73c.08,0,.15-.01.24-.01l-1.25.73c-.08,0-.16,0-.24.01h0Z" style="fill: #e2d9ca;"/>
              <path d="M85.39,83.56l1.25-.73c.07,0,.15,0,.22,0l-1.25.73c-.08,0-.15,0-.22,0h0Z" style="fill: #e2d9ca;"/>
              <path d="M85.61,83.57l1.25-.73c.07,0,.14.01.21.02l-1.25.73c-.07,0-.14-.02-.21-.02h0Z" style="fill: #e2d9ca;"/>
              <path d="M85.81,83.59l1.25-.73c.07,0,.14.02.21.04l-1.26.73c-.07-.01-.14-.02-.21-.03h0Z" style="fill: #e2d9ca;"/>
              <path d="M86.02,83.62l1.26-.73c.06.01.13.03.2.04l-1.26.73c-.07-.02-.14-.03-.2-.05h0Z" style="fill: #e2d9ca;"/>
              <path d="M86.22,83.67l1.26-.73c.07.02.13.04.21.06l-1.26.73c-.07-.02-.14-.04-.21-.06h0Z" style="fill: #e2d9ca;"/>
              <path d="M86.43,83.72l1.26-.73c.06.02.13.04.2.07l-1.25.73c-.07-.02-.14-.05-.21-.07h0Z" style="fill: #e2d9ca;"/>
              <path d="M86.64,83.79l1.25-.73c.07.02.14.05.21.08l-1.26.73c-.08-.03-.15-.06-.21-.08h0Z" style="fill: #e2d9ca;"/>
              <path d="M86.84,83.87l1.26-.73c.07.03.14.06.22.09l-1.26.73c-.07-.03-.15-.06-.22-.09h0Z" style="fill: #e2d9ca;"/>
              <path d="M87.06,83.96l1.26-.73c.07.03.15.07.22.1l-1.26.73c-.07-.04-.15-.07-.22-.1h0Z" style="fill: #e2d9ca;"/>
              <path d="M87.28,84.07l1.26-.73c.08.04.15.08.23.12l-1.25.73c-.08-.04-.16-.09-.23-.12h0Z" style="fill: #e2d9ca;"/>
              <path d="M87.51,84.19l1.25-.73c.06.03.12.06.18.1l-1.26.73c-.06-.03-.12-.07-.18-.1h0Z" style="fill: #e2d9ca;"/>
            </g>
          </g>
        </g>
        <g>
          <path id="SVGID-8" data-name="SVGID" d="M92.31,96.07l-1.26.73c.92-.54,1.46-1.81,1.46-3.79,0-3.23-1.69-6.92-4.83-8.73l1.26-.73c3.14,1.81,4.84,5.51,4.83,8.73,0,1.98-.54,3.25-1.47,3.78Z" style="fill: #e2d9ca;"/>
          <g style="clip-path: url(#clippath-7);">
            <g style="isolation: isolate;">
              <path d="M87.69,84.29l1.26-.73s.04.02.06.03l-1.25.73s-.04-.02-.06-.03h0Z" style="fill: #e2d9ca;"/>
              <path d="M87.75,84.32l1.25-.73c.08.05.17.1.25.15l-1.26.73c-.08-.05-.16-.1-.25-.15h0Z" style="fill: #e2d9ca;"/>
              <path d="M88,84.47l1.26-.73c.08.05.16.11.24.16l-1.25.73c-.08-.06-.16-.11-.25-.16h0Z" style="fill: #e2d9ca;"/>
              <path d="M88.25,84.64l1.25-.73c.08.05.16.11.24.17l-1.26.73c-.08-.06-.16-.11-.24-.17h0Z" style="fill: #e2d9ca;"/>
              <path d="M88.48,84.81l1.26-.73c.08.06.15.12.23.18l-1.26.73c-.08-.06-.16-.12-.23-.18h0Z" style="fill: #e2d9ca;"/>
              <path d="M88.72,84.98l1.26-.73c.08.06.15.12.23.19l-1.26.73c-.07-.06-.15-.13-.23-.19h0Z" style="fill: #e2d9ca;"/>
              <path d="M88.94,85.17l1.26-.73c.07.06.14.13.22.19l-1.26.73c-.07-.06-.15-.13-.22-.19h0Z" style="fill: #e2d9ca;"/>
              <path d="M89.16,85.36l1.26-.73c.07.06.14.13.21.2l-1.26.73c-.07-.07-.14-.13-.21-.2h0Z" style="fill: #e2d9ca;"/>
              <path d="M89.37,85.55l1.26-.73c.06.06.13.13.2.19l-1.26.73c-.06-.06-.13-.13-.19-.19h0Z" style="fill: #e2d9ca;"/>
              <path d="M89.57,85.75l1.26-.73c.06.06.13.13.18.19l-1.26.73c-.06-.06-.12-.13-.19-.19h0Z" style="fill: #e2d9ca;"/>
              <path d="M89.75,85.94l1.26-.73c.06.06.12.13.17.19l-1.25.73c-.06-.06-.12-.13-.18-.19h0Z" style="fill: #e2d9ca;"/>
              <path d="M89.93,86.13l1.25-.73c.06.06.11.13.17.19l-1.26.73c-.05-.06-.11-.13-.17-.19h0Z" style="fill: #e2d9ca;"/>
              <path d="M90.09,86.33l1.26-.73c.06.07.12.15.17.22l-1.26.73c-.05-.07-.11-.15-.17-.22h0Z" style="fill: #e2d9ca;"/>
              <path d="M90.27,86.55l1.26-.73c.06.07.12.15.17.22l-1.25.73c-.06-.08-.11-.15-.17-.22h0Z" style="fill: #e2d9ca;"/>
              <path d="M90.44,86.77l1.25-.73c.09.12.18.25.26.38l-1.26.73c-.08-.13-.17-.25-.26-.38h0Z" style="fill: #e2d9ca;"/>
              <path d="M90.7,87.14l1.26-.73c.12.18.24.37.35.55l-1.26.73c-.11-.19-.23-.37-.35-.55h0Z" style="fill: #e2d9ca;"/>
              <path d="M91.05,87.7l1.26-.73c.07.12.14.24.2.37l-1.25.73c-.07-.13-.14-.25-.21-.37h0Z" style="fill: #e2d9ca;"/>
              <path d="M91.26,88.06l1.25-.73c.05.09.09.17.13.26l-1.26.73c-.04-.09-.09-.17-.13-.26h0Z" style="fill: #e2d9ca;"/>
              <path d="M91.39,88.32l1.26-.73c.04.08.08.16.12.24l-1.26.73c-.04-.08-.08-.16-.12-.24h0Z" style="fill: #e2d9ca;"/>
              <path d="M91.51,88.56l1.26-.73c.04.08.07.15.1.22l-1.26.73c-.04-.07-.07-.15-.1-.22h0Z" style="fill: #e2d9ca;"/>
              <path d="M91.61,88.78l1.26-.73c.03.08.06.15.1.22l-1.26.73c-.03-.08-.06-.15-.1-.22h0Z" style="fill: #e2d9ca;"/>
              <path d="M91.7,89.01l1.26-.73c.03.08.06.15.09.23l-1.26.73c-.03-.08-.06-.15-.09-.23h0Z" style="fill: #e2d9ca;"/>
              <path d="M91.8,89.24l1.26-.73c.03.08.06.16.09.24l-1.25.73c-.03-.08-.06-.16-.09-.24h0Z" style="fill: #e2d9ca;"/>
              <path d="M91.89,89.48l1.25-.73c.03.09.06.17.09.26l-1.26.73c-.03-.09-.06-.17-.09-.26h0Z" style="fill: #e2d9ca;"/>
              <path d="M91.98,89.73l1.26-.73c.03.09.06.18.09.26l-1.26.73c-.03-.09-.06-.18-.09-.26h0Z" style="fill: #e2d9ca;"/>
              <path d="M92.06,90l1.26-.73c.03.09.05.19.08.28l-1.25.73c-.03-.09-.06-.19-.08-.28h0Z" style="fill: #e2d9ca;"/>
              <path d="M92.14,90.28l1.25-.73c.03.1.05.19.08.29l-1.26.73c-.02-.1-.05-.19-.07-.29h0Z" style="fill: #e2d9ca;"/>
              <path d="M92.22,90.57l1.26-.73c.02.1.05.2.07.3l-1.26.73c-.02-.1-.04-.2-.07-.3h0Z" style="fill: #e2d9ca;"/>
              <path d="M92.29,90.87l1.26-.73c.02.1.04.2.06.3l-1.25.73c-.02-.1-.04-.2-.06-.3h0Z" style="fill: #e2d9ca;"/>
              <path d="M92.35,91.16l1.25-.73c.02.1.04.2.05.3l-1.26.73c-.02-.1-.04-.2-.05-.3h0Z" style="fill: #e2d9ca;"/>
              <path d="M92.4,91.47l1.26-.73c.02.1.03.2.04.31l-1.26.73c-.01-.11-.03-.21-.04-.31h0Z" style="fill: #e2d9ca;"/>
              <path d="M92.44,91.78l1.26-.73c.01.1.02.21.03.31l-1.26.73c0-.1-.02-.2-.03-.31h0Z" style="fill: #e2d9ca;"/>
              <path d="M92.48,92.09l1.26-.73c.01.11.02.21.02.32l-1.25.73c0-.11-.02-.21-.03-.32h0Z" style="fill: #e2d9ca;"/>
              <path d="M92.5,92.4l1.25-.73c0,.11.01.21.02.32l-1.26.73c0-.11,0-.21-.01-.32h0Z" style="fill: #e2d9ca;"/>
              <path d="M92.52,92.72l1.26-.73c0,.1,0,.2,0,.3,0,0,0,.01,0,.02l-1.26.73v-.02c0-.09,0-.2,0-.3h0Z" style="fill: #e2d9ca;"/>
              <path d="M92.52,93.04l1.26-.73c0,.13,0,.26,0,.38l-1.25.73c0-.12,0-.25,0-.38h0Z" style="fill: #e2d9ca;"/>
              <path d="M92.51,93.42l1.25-.73c0,.12-.01.24-.02.36l-1.26.73c.01-.12.02-.24.02-.36h0Z" style="fill: #e2d9ca;"/>
              <path d="M92.49,93.78l1.26-.73c0,.12-.02.23-.04.34l-1.26.73c.01-.11.03-.22.04-.34h0Z" style="fill: #e2d9ca;"/>
              <path d="M92.46,94.12l1.26-.73c-.01.11-.03.22-.05.32l-1.25.73c.02-.11.03-.22.05-.33h0Z" style="fill: #e2d9ca;"/>
              <path d="M92.41,94.45l1.25-.73c-.02.11-.04.21-.06.32l-1.26.73c.02-.1.04-.21.07-.31h0Z" style="fill: #e2d9ca;"/>
              <path d="M92.35,94.76l1.26-.73c-.02.11-.05.21-.08.3l-1.26.73c.03-.1.05-.2.08-.3h0Z" style="fill: #e2d9ca;"/>
              <path d="M92.27,95.07l1.26-.73c-.03.11-.06.21-.1.3l-1.25.73c.03-.1.07-.2.1-.3h0Z" style="fill: #e2d9ca;"/>
              <path d="M92.17,95.37l1.25-.73c-.04.11-.09.22-.13.32l-1.26.73c.05-.1.09-.2.13-.32h0Z" style="fill: #e2d9ca;"/>
              <path d="M92.03,95.69l1.26-.73c-.06.12-.12.24-.19.34l-1.25.73c.07-.11.13-.22.19-.34h0Z" style="fill: #e2d9ca;"/>
              <path d="M91.84,96.03l1.25-.73c-.22.34-.48.6-.79.77l-1.26.73c.31-.18.57-.44.79-.78h0Z" style="fill: #e2d9ca;"/>
            </g>
          </g>
        </g>
        <path d="M87.69,84.29c3.14,1.81,4.84,5.5,4.83,8.73-.01,3.86-2.04,5.03-5.04,3.3-3.03-1.75-4.79-5.41-4.78-8.76.01-3.52,1.97-5.02,4.99-3.27ZM87.62,94.28c1.56.9,2.46-.28,2.47-2.57,0-2.11-.87-4.43-2.46-5.35-1.57-.91-2.48.28-2.49,2.56,0,2.3.93,4.46,2.48,5.36h0Z" style="fill: #f7f2ec;"/>
        <g style="isolation: isolate;">
          <polygon points="96.64 96.78 97.89 96.05 97.88 100.67 96.62 101.4 96.64 96.78" style="fill: #e2d9ca;"/>
          <polygon points="96.64 94.86 97.9 94.13 98.81 94.66 97.55 95.39 96.64 94.86" style="fill: #e2d9ca;"/>
          <g>
            <path id="SVGID-9" data-name="SVGID" d="M101.23,100.75l1.26-.73c.32,1.51.63,3.22.82,3.79l-1.26.73c-.19-.57-.5-2.28-.82-3.79Z" style="fill: #e2d9ca;"/>
            <g style="clip-path: url(#clippath-8);">
              <g style="isolation: isolate;">
                <path d="M101.23,100.75l1.26-.73c.2.98.41,2.05.58,2.83l-1.25.73c-.17-.78-.38-1.85-.58-2.82h0Z" style="fill: #e2d9ca;"/>
                <path d="M101.81,103.57l1.25-.73c.05.2.09.39.13.55l-1.25.73c-.04-.16-.09-.34-.13-.55h0Z" style="fill: #e2d9ca;"/>
                <path d="M101.94,104.13l1.25-.73c.02.08.04.15.06.22l-1.25.73c-.02-.07-.04-.14-.06-.22h0Z" style="fill: #e2d9ca;"/>
                <path d="M102,104.34l1.25-.73s.02.08.03.11l-1.26.73s-.02-.07-.03-.11h0Z" style="fill: #e2d9ca;"/>
                <path d="M102.03,104.46l1.26-.73s.02.05.02.07l-1.26.73s-.02-.04-.02-.07h0Z" style="fill: #e2d9ca;"/>
                <polygon points="102.05 104.53 103.31 103.8 103.31 103.8 102.05 104.53 102.05 104.53" style="fill: #e2d9ca;"/>
              </g>
            </g>
          </g>
          <polygon points="99.87 97.71 101.13 96.98 101.13 97.03 99.87 97.76 99.87 97.71" style="fill: #e2d9ca;"/>
          <g>
            <path id="SVGID-10" data-name="SVGID" d="M99.87,97.76l1.26-.73c.7.73,1.1,1.75,1.36,2.98l-1.26.73c-.26-1.24-.65-2.25-1.36-2.99Z" style="fill: #e2d9ca;"/>
            <g style="clip-path: url(#clippath-9);">
              <g style="isolation: isolate;">
                <path d="M99.87,97.76l1.26-.73s.03.03.04.04l-1.26.73s-.02-.03-.04-.04h0Z" style="fill: #e2d9ca;"/>
                <path d="M99.91,97.81l1.26-.73s.04.05.07.08l-1.26.73s-.05-.05-.07-.08h0Z" style="fill: #e2d9ca;"/>
                <path d="M99.98,97.88l1.26-.73s.04.05.06.08l-1.26.73s-.04-.05-.07-.08h0Z" style="fill: #e2d9ca;"/>
                <path d="M100.05,97.96l1.26-.73s.05.06.07.09l-1.26.73s-.04-.06-.07-.08h0Z" style="fill: #e2d9ca;"/>
                <path d="M100.12,98.05l1.26-.73s.05.06.07.1l-1.26.73s-.05-.06-.07-.1h0Z" style="fill: #e2d9ca;"/>
                <path d="M100.19,98.14l1.26-.73s.07.1.11.15l-1.26.73c-.04-.05-.07-.1-.11-.15h0Z" style="fill: #e2d9ca;"/>
                <path d="M100.3,98.29l1.26-.73c.05.08.1.15.15.24l-1.25.73c-.05-.08-.1-.16-.15-.23h0Z" style="fill: #e2d9ca;"/>
                <path d="M100.45,98.53l1.25-.73c.04.05.06.11.09.17l-1.25.73c-.03-.06-.06-.11-.09-.17h0Z" style="fill: #e2d9ca;"/>
                <path d="M100.54,98.7l1.25-.73s.04.09.06.13l-1.26.73s-.04-.09-.06-.13h0Z" style="fill: #e2d9ca;"/>
                <path d="M100.6,98.82l1.26-.73s.04.08.05.12l-1.25.73s-.04-.07-.06-.11h0Z" style="fill: #e2d9ca;"/>
                <path d="M100.66,98.94l1.25-.73s.04.08.05.11l-1.26.73s-.03-.08-.05-.12h0Z" style="fill: #e2d9ca;"/>
                <path d="M100.71,99.05l1.26-.73s.03.08.05.12l-1.26.73s-.03-.08-.05-.12h0Z" style="fill: #e2d9ca;"/>
                <path d="M100.77,99.17l1.26-.73s.04.09.05.13l-1.26.73s-.04-.09-.05-.13h0Z" style="fill: #e2d9ca;"/>
                <path d="M100.82,99.31l1.26-.73s.04.1.05.15l-1.25.73c-.02-.05-.04-.1-.05-.15h0Z" style="fill: #e2d9ca;"/>
                <path d="M100.87,99.46l1.25-.73c.02.06.04.11.06.17l-1.26.73c-.02-.06-.04-.11-.06-.17h0Z" style="fill: #e2d9ca;"/>
                <path d="M100.93,99.63l1.26-.73c.02.06.04.13.06.19l-1.25.73c-.02-.06-.04-.13-.06-.19h0Z" style="fill: #e2d9ca;"/>
                <path d="M101,99.82l1.25-.73c.02.07.05.15.07.23l-1.25.73c-.02-.08-.04-.15-.07-.23h0Z" style="fill: #e2d9ca;"/>
                <path d="M101.06,100.05l1.25-.73c.02.09.05.18.07.27l-1.26.73c-.02-.09-.05-.18-.07-.27h0Z" style="fill: #e2d9ca;"/>
                <path d="M101.13,100.32l1.26-.73c.02.1.05.21.07.32l-1.26.73c-.02-.11-.05-.21-.07-.32h0Z" style="fill: #e2d9ca;"/>
                <path d="M101.21,100.63l1.26-.73s.02.07.02.11l-1.26.73s-.02-.08-.02-.12h0Z" style="fill: #e2d9ca;"/>
              </g>
            </g>
          </g>
          <polygon points="96.65 91.62 97.91 90.89 97.9 94.13 96.64 94.86 96.65 91.62" style="fill: #e2d9ca;"/>
          <g>
            <path id="SVGID-11" data-name="SVGID" d="M100.27,94.93l-1.25.73c-.32.18-.81.1-1.46-.27l1.26-.73c.65.37,1.14.45,1.46.27Z" style="fill: #e2d9ca;"/>
            <g style="clip-path: url(#clippath-10);">
              <g style="isolation: isolate;">
                <path d="M97.55,95.39l1.26-.73s.07.04.1.06l-1.25.73s-.07-.04-.11-.06h0Z" style="fill: #e2d9ca;"/>
                <path d="M97.66,95.45l1.25-.73s.09.04.13.06l-1.26.73s-.08-.04-.13-.07h0Z" style="fill: #e2d9ca;"/>
                <path d="M97.78,95.51l1.26-.73s.08.04.12.06l-1.26.73s-.08-.03-.12-.06h0Z" style="fill: #e2d9ca;"/>
                <path d="M97.9,95.57l1.26-.73s.07.03.11.05l-1.25.73s-.07-.03-.11-.05h0Z" style="fill: #e2d9ca;"/>
                <path d="M98.01,95.61l1.25-.73s.07.02.1.04l-1.25.73s-.07-.02-.1-.04h0Z" style="fill: #e2d9ca;"/>
                <path d="M98.11,95.65l1.25-.73s.06.02.1.03l-1.25.73s-.06-.02-.1-.03h0Z" style="fill: #e2d9ca;"/>
                <path d="M98.21,95.68l1.25-.73s.06.02.09.02l-1.25.73s-.06-.02-.09-.03h0Z" style="fill: #e2d9ca;"/>
                <path d="M98.3,95.71l1.25-.73s.06.01.09.02l-1.26.73s-.06,0-.09-.02h0Z" style="fill: #e2d9ca;"/>
                <path d="M98.38,95.73l1.26-.73s.06.01.08.02l-1.25.73s-.05,0-.09-.01h0Z" style="fill: #e2d9ca;"/>
                <path d="M98.47,95.74l1.25-.73s.06,0,.08,0l-1.26.73s-.05,0-.08-.01h0Z" style="fill: #e2d9ca;"/>
                <path d="M98.55,95.75l1.26-.73s.05,0,.08,0l-1.26.73h-.08Z" style="fill: #e2d9ca;"/>
                <path d="M98.63,95.75l1.26-.73s.06,0,.08,0l-1.26.73s-.05,0-.08,0h0Z" style="fill: #e2d9ca;"/>
                <path d="M98.71,95.75l1.26-.73s.06,0,.09-.01l-1.26.73s-.06,0-.09.01h0Z" style="fill: #e2d9ca;"/>
                <path d="M98.8,95.74l1.26-.73s.07-.01.1-.03l-1.26.73s-.07.02-.1.03h0Z" style="fill: #e2d9ca;"/>
                <path d="M98.9,95.71l1.26-.73s.08-.03.11-.05l-1.25.73s-.07.04-.11.05h0Z" style="fill: #e2d9ca;"/>
              </g>
            </g>
          </g>
          <g>
            <path id="SVGID-12" data-name="SVGID" d="M102.16,96.81l-1.26.73c.45-.26.78-.8.78-1.68,0-1.08-.33-2.1-.93-3-.72-1.09-1.78-1.96-3.31-2.84-1.23-.71-2.33-1.24-3.07-1.53l1.25-.73c.74.28,1.84.82,3.07,1.53,1.53.88,2.58,1.75,3.31,2.84.6.9.93,1.91.93,3,0,.88-.33,1.42-.77,1.68Z" style="fill: #e2d9ca;"/>
            <g style="clip-path: url(#clippath-11);">
              <g style="isolation: isolate;">
                <path d="M94.37,88.5l1.25-.73s.1.04.15.06l-1.25.73s-.1-.04-.15-.06h0Z" style="fill: #e2d9ca;"/>
                <path d="M94.52,88.55l1.25-.73c.16.06.33.14.52.22l-1.25.73c-.18-.08-.36-.15-.52-.22h0Z" style="fill: #e2d9ca;"/>
                <path d="M95.03,88.78l1.25-.73c.23.1.47.22.73.34l-1.25.73c-.26-.13-.5-.24-.73-.34h0Z" style="fill: #e2d9ca;"/>
                <path d="M95.76,89.12l1.25-.73c.29.14.59.3.91.47l-1.26.73c-.32-.17-.62-.33-.91-.47h0Z" style="fill: #e2d9ca;"/>
                <path d="M96.67,89.59l1.26-.73c.25.14.51.28.77.43.05.03.09.05.14.08l-1.25.73s-.09-.05-.14-.08c-.26-.15-.52-.3-.77-.43h0Z" style="fill: #e2d9ca;"/>
                <path d="M97.58,90.1l1.25-.73c.18.11.35.21.52.31l-1.25.73c-.17-.1-.34-.21-.51-.31h0Z" style="fill: #e2d9ca;"/>
                <path d="M98.1,90.41l1.25-.73c.14.09.28.18.41.27l-1.26.73c-.13-.09-.27-.18-.41-.27h0Z" style="fill: #e2d9ca;"/>
                <path d="M98.5,90.68l1.26-.73c.12.08.23.16.33.24l-1.26.73c-.11-.08-.22-.16-.33-.24h0Z" style="fill: #e2d9ca;"/>
                <path d="M98.83,90.92l1.26-.73c.1.07.19.14.29.22l-1.26.73c-.09-.07-.19-.15-.29-.22h0Z" style="fill: #e2d9ca;"/>
                <path d="M99.12,91.14l1.26-.73c.09.07.17.13.25.2l-1.26.73c-.08-.07-.16-.13-.25-.2h0Z" style="fill: #e2d9ca;"/>
                <path d="M99.37,91.34l1.26-.73c.07.06.14.13.22.19l-1.25.73c-.07-.06-.15-.13-.22-.19h0Z" style="fill: #e2d9ca;"/>
                <path d="M99.58,91.53l1.25-.73c.06.06.13.12.19.18l-1.25.73c-.06-.06-.13-.12-.19-.18h0Z" style="fill: #e2d9ca;"/>
                <path d="M99.78,91.7l1.25-.73c.06.05.11.11.16.16l-1.25.73c-.05-.06-.11-.11-.16-.16h0Z" style="fill: #e2d9ca;"/>
                <path d="M99.94,91.87l1.25-.73c.05.05.1.1.15.15l-1.26.73c-.04-.05-.09-.1-.14-.15h0Z" style="fill: #e2d9ca;"/>
                <path d="M100.08,92.02l1.26-.73s.09.09.13.14l-1.26.73s-.09-.1-.13-.15h0Z" style="fill: #e2d9ca;"/>
                <path d="M100.21,92.16l1.26-.73s.08.09.12.14l-1.25.73s-.08-.09-.12-.14h0Z" style="fill: #e2d9ca;"/>
                <path d="M100.34,92.3l1.25-.73s.08.09.12.14l-1.26.73s-.08-.09-.11-.14h0Z" style="fill: #e2d9ca;"/>
                <path d="M100.45,92.44l1.26-.73c.04.05.08.11.12.16l-1.26.73c-.04-.05-.08-.11-.12-.16h0Z" style="fill: #e2d9ca;"/>
                <path d="M100.57,92.61l1.26-.73c.05.07.11.15.16.23l-1.26.73c-.05-.08-.1-.15-.16-.22h0Z" style="fill: #e2d9ca;"/>
                <path d="M100.73,92.83l1.26-.73s.02.02.02.03c.07.1.13.2.19.31l-1.26.73c-.06-.1-.13-.21-.19-.31,0-.01-.01-.02-.02-.03h0Z" style="fill: #e2d9ca;"/>
                <path d="M100.94,93.17l1.26-.73c.04.06.07.13.11.19l-1.25.73c-.04-.06-.08-.13-.11-.19h0Z" style="fill: #e2d9ca;"/>
                <path d="M101.05,93.36l1.25-.73s.05.09.07.14l-1.26.73s-.04-.09-.06-.13h0Z" style="fill: #e2d9ca;"/>
                <path d="M101.12,93.5l1.26-.73s.04.08.06.12l-1.26.73s-.04-.08-.06-.12h0Z" style="fill: #e2d9ca;"/>
                <path d="M101.18,93.62l1.26-.73s.03.07.05.11l-1.26.73s-.03-.07-.05-.11h0Z" style="fill: #e2d9ca;"/>
                <path d="M101.23,93.73l1.26-.73s.03.07.05.11l-1.26.73s-.03-.07-.05-.11h0Z" style="fill: #e2d9ca;"/>
                <path d="M101.28,93.84l1.26-.73s.03.08.05.11l-1.26.73s-.03-.08-.04-.11h0Z" style="fill: #e2d9ca;"/>
                <path d="M101.32,93.95l1.26-.73s.03.08.04.12l-1.26.73s-.03-.08-.05-.11h0Z" style="fill: #e2d9ca;"/>
                <path d="M101.37,94.07l1.26-.73s.03.08.04.12l-1.26.73s-.03-.08-.04-.12h0Z" style="fill: #e2d9ca;"/>
                <path d="M101.41,94.19l1.26-.73s.03.09.04.13l-1.25.73s-.03-.09-.04-.13h0Z" style="fill: #e2d9ca;"/>
                <path d="M101.45,94.32l1.25-.73s.03.09.04.14l-1.26.73s-.03-.09-.04-.13h0Z" style="fill: #e2d9ca;"/>
                <path d="M101.49,94.45l1.26-.73s.02.09.04.14l-1.26.73s-.02-.09-.04-.14h0Z" style="fill: #e2d9ca;"/>
                <path d="M101.52,94.59l1.26-.73s.02.09.03.14l-1.26.73s-.02-.1-.03-.15h0Z" style="fill: #e2d9ca;"/>
                <path d="M101.56,94.73l1.26-.73s.02.1.03.15l-1.26.73s-.02-.09-.03-.14h0Z" style="fill: #e2d9ca;"/>
                <path d="M101.59,94.88l1.26-.73s.02.1.03.15l-1.26.73c-.01-.05-.02-.1-.03-.15h0Z" style="fill: #e2d9ca;"/>
                <path d="M101.61,95.03l1.26-.73c0,.05.02.1.02.15l-1.26.73c0-.05-.01-.1-.02-.15h0Z" style="fill: #e2d9ca;"/>
                <path d="M101.63,95.18l1.26-.73c0,.05.01.11.02.16l-1.26.73c0-.05-.01-.11-.02-.16h0Z" style="fill: #e2d9ca;"/>
                <path d="M101.65,95.34l1.26-.73c0,.06,0,.11.01.17l-1.26.73c0-.06,0-.11-.01-.17h0Z" style="fill: #e2d9ca;"/>
                <path d="M101.67,95.51l1.26-.73c0,.06,0,.11,0,.17l-1.26.73c0-.06,0-.12,0-.17h0Z" style="fill: #e2d9ca;"/>
                <path d="M101.67,95.68l1.26-.73v.17h0s-1.25.74-1.25.74h0c0-.07,0-.13,0-.19h0Z" style="fill: #e2d9ca;"/>
                <path d="M101.68,95.87l1.25-.73v.13l-1.26.73s0-.09,0-.13h0Z" style="fill: #e2d9ca;"/>
                <path d="M101.67,95.99l1.26-.73s0,.09,0,.13l-1.26.73s.01-.08.01-.12h0Z" style="fill: #e2d9ca;"/>
                <path d="M101.67,96.12l1.26-.73s0,.08-.01.12l-1.26.73s0-.08.01-.12h0Z" style="fill: #e2d9ca;"/>
                <path d="M101.65,96.24l1.26-.73s-.01.09-.02.13l-1.26.73s.01-.09.02-.13h0Z" style="fill: #e2d9ca;"/>
                <path d="M101.63,96.37l1.26-.73s-.02.08-.02.13l-1.26.73s.02-.09.02-.13h0Z" style="fill: #e2d9ca;"/>
                <path d="M101.61,96.49l1.26-.73s-.02.09-.03.13l-1.26.73s.02-.09.03-.13h0Z" style="fill: #e2d9ca;"/>
                <path d="M101.58,96.62l1.26-.73s-.03.09-.05.14l-1.26.73s.03-.09.05-.14h0Z" style="fill: #e2d9ca;"/>
                <path d="M101.53,96.76l1.26-.73c-.02.05-.04.1-.06.15l-1.25.73s.04-.1.06-.15h0Z" style="fill: #e2d9ca;"/>
                <path d="M101.47,96.9l1.25-.73c-.03.06-.06.12-.09.17l-1.26.73c.04-.05.07-.11.1-.17h0Z" style="fill: #e2d9ca;"/>
                <path d="M101.37,97.08l1.26-.73c-.13.2-.29.36-.47.46l-1.26.73c.18-.11.34-.26.47-.46h0Z" style="fill: #e2d9ca;"/>
              </g>
            </g>
          </g>
          <path d="M101.23,100.75c.32,1.5.63,3.22.82,3.79l-2.37-1.37c-.16-.42-.4-1.53-.69-3.14-.27-1.62-.71-2.28-1.66-2.84l-.69-.4v4.62s-2.3-1.32-2.3-1.32l.03-11.58c.74.28,1.84.82,3.07,1.53,1.53.88,2.58,1.75,3.31,2.84.6.9.93,1.91.93,3,0,1.49-.93,1.99-1.81,1.85v.05c.71.73,1.1,1.75,1.36,2.99ZM97.55,95.39c1.15.66,1.83.41,1.84-.63,0-1.09-.63-1.99-1.69-2.61-.56-.32-.88-.45-1.05-.53v3.24s.9.52.9.52h0Z" style="fill: #f7f2ec;"/>
        </g>
        <g style="isolation: isolate;">
          <polygon points="105.97 101.82 107.22 101.09 107.21 103.87 105.96 104.6 105.97 101.82" style="fill: #e2d9ca;"/>
          <polygon points="105.96 104.6 107.21 103.87 111.41 106.3 110.16 107.03 105.96 104.6" style="fill: #e2d9ca;"/>
          <polygon points="110.16 107.03 111.41 106.3 111.41 108.48 110.15 109.21 110.16 107.03" style="fill: #e2d9ca;"/>
          <polygon points="105.98 97.22 107.24 96.48 107.23 98.93 105.97 99.66 105.98 97.22" style="fill: #e2d9ca;"/>
          <polygon points="105.97 99.66 107.23 98.93 110.99 101.1 109.73 101.83 105.97 99.66" style="fill: #e2d9ca;"/>
          <polygon points="109.73 101.83 110.99 101.1 110.98 103.26 109.73 103.99 109.73 101.83" style="fill: #e2d9ca;"/>
          <polygon points="109.97 97.35 109.96 99.52 105.98 97.22 105.97 99.66 109.73 101.83 109.73 103.99 105.97 101.82 105.96 104.6 110.16 107.03 110.15 109.21 103.63 105.44 103.66 93.71 109.97 97.35" style="fill: #f7f2ec;"/>
          <polygon points="109.97 97.35 111.23 96.61 111.22 98.79 109.96 99.52 109.97 97.35" style="fill: #e2d9ca;"/>
          <polygon points="103.66 93.71 104.92 92.98 111.23 96.61 109.97 97.35 103.66 93.71" style="fill: #e2d9ca;"/>
        </g>
      </g>
    </g>
  </g>
</svg>