<?xml version="1.0" encoding="UTF-8"?>
<svg id="Layer_2" data-name="Layer 2" xmlns="http://www.w3.org/2000/svg" width="203.39" height="180.91" viewBox="0 0 203.39 180.91">
  <g id="OBJECTS">
    <g>
      <polygon points="0 109.18 79.16 63.48 203.39 135.21 124.23 180.91 0 109.18" style="fill: #b5b5b5;"/>
      <g>
        <g>
          <polygon points="15.31 106.21 83.86 66.63 191.46 128.75 122.9 168.33 15.31 106.21" style="fill: #def0ff;"/>
          <polygon points="191.46 128.75 191.46 132.85 122.9 172.43 122.9 168.33 191.46 128.75" style="fill: #8f5252;"/>
          <polygon points="15.31 106.21 122.9 168.33 122.9 172.43 15.31 110.31 15.31 106.21" style="fill: #bd6c6c;"/>
        </g>
        <g>
          <polygon points="21.14 103.06 85.98 65.62 187.74 124.38 122.9 161.81 21.14 103.06" style="fill: #def0ff;"/>
          <polygon points="187.74 124.38 187.74 128.25 122.9 165.69 122.9 161.81 187.74 124.38" style="fill: #8f5252;"/>
          <polygon points="21.14 103.06 122.9 161.81 122.9 165.69 21.14 106.93 21.14 103.06" style="fill: #bd6c6c;"/>
        </g>
        <g>
          <polygon points="122.9 159.85 25.73 103.74 25.73 44.8 122.9 100.9 122.9 159.85" style="fill: #ee5a5a;"/>
          <g>
            <g>
              <polygon points="47.75 85.5 38.49 80.16 38.49 61.35 47.75 66.69 47.75 85.5" style="fill: #fff;"/>
              <polygon points="39.31 78.52 39.31 62.91 46.93 67.31 46.93 82.92 39.31 78.52" style="fill: #381717;"/>
              <polygon points="39.31 78.52 39.81 78.14 46.93 82.25 46.93 82.92 39.31 78.52" style="fill: #ee9494;"/>
              <polygon points="39.81 78.14 39.81 63.2 39.31 62.91 39.31 78.52 39.81 78.14" style="fill: #632626;"/>
            </g>
            <g>
              <polygon points="68.55 97.51 59.29 92.17 59.29 73.36 68.55 78.7 68.55 97.51" style="fill: #fff;"/>
              <polygon points="60.11 90.53 60.11 74.92 67.73 79.32 67.73 94.93 60.11 90.53" style="fill: #381717;"/>
              <polygon points="60.11 90.53 60.61 90.15 67.73 94.26 67.73 94.93 60.11 90.53" style="fill: #ee9494;"/>
              <polygon points="60.61 90.15 60.61 75.21 60.11 74.92 60.11 90.53 60.61 90.15" style="fill: #632626;"/>
            </g>
            <g>
              <polygon points="89.34 109.52 80.08 104.17 80.08 85.36 89.34 90.71 89.34 109.52" style="fill: #fff;"/>
              <polygon points="80.9 102.53 80.9 86.92 88.52 91.32 88.52 106.93 80.9 102.53" style="fill: #381717;"/>
              <polygon points="80.9 102.53 81.4 102.15 88.52 106.27 88.52 106.93 80.9 102.53" style="fill: #ee9494;"/>
              <polygon points="81.4 102.15 81.4 87.21 80.9 86.92 80.9 102.53 81.4 102.15" style="fill: #632626;"/>
            </g>
            <g>
              <polygon points="110.13 121.52 100.88 116.18 100.88 97.37 110.13 102.71 110.13 121.52" style="fill: #fff;"/>
              <polygon points="101.7 114.54 101.7 98.93 109.32 103.33 109.32 118.94 101.7 114.54" style="fill: #381717;"/>
              <polygon points="101.7 114.54 102.2 114.16 109.32 118.27 109.32 118.94 101.7 114.54" style="fill: #ee9494;"/>
              <polygon points="102.2 114.16 102.2 99.22 101.7 98.93 101.7 114.54 102.2 114.16" style="fill: #632626;"/>
            </g>
          </g>
          <g>
            <polygon points="122.9 159.85 25.73 103.74 25.73 90.15 122.9 146.25 122.9 159.85" style="fill: #eebcbc;"/>
            <polygon points="25.73 86.16 122.9 142.26 122.9 138.12 25.73 82.02 25.73 86.16" style="fill: #eebcbc;"/>
          </g>
        </g>
        <g>
          <polygon points="184.82 124.1 122.9 159.85 122.9 100.9 184.82 65.16 184.82 124.1" style="fill: #9e3b3b;"/>
          <path d="M122.9,138.12v4.14l61.96-35.77v-4.14l-61.96,35.77ZM122.9,159.85l61.96-35.77v-13.59l-61.96,35.77v13.59Z" style="fill: #ee8f8f;"/>
          <g>
            <g>
              <polygon points="130.58 143.03 177.15 116.15 177.15 81.97 130.58 108.86 130.58 143.03" style="fill: #fff;"/>
              <polygon points="176.33 115.53 176.33 83.53 131.39 109.47 131.39 141.47 176.33 115.53" style="fill: #381717;"/>
              <polygon points="176.33 115.53 175.5 114.9 131.39 140.37 131.39 141.47 176.33 115.53" style="fill: #ee9494;"/>
              <polygon points="175.5 114.9 175.5 84.01 176.33 83.53 176.33 115.53 175.5 114.9" style="fill: #632626;"/>
            </g>
            <g>
              <polygon points="135.74 146.02 182.31 119.13 177.15 116.15 130.58 143.03 135.74 146.02" style="fill: #fff;"/>
              <polygon points="135.74 146.02 135.74 146.87 130.58 143.89 130.58 143.03 135.74 146.02" style="fill: #ee5a5a;"/>
              <polygon points="135.74 146.02 135.74 146.87 182.31 119.98 182.31 119.13 135.74 146.02" style="fill: #9e3b3b;"/>
            </g>
          </g>
        </g>
        <g>
          <path d="M178.03,70.93l-49.43,28.43,3.42,7.37,3.41,12.79,49.43-28.43s.48-12.64-6.83-20.16Z" style="fill: #fff;"/>
          <path d="M135.66,95.3l-7.06,4.06,3,10.88,3.83,9.28,7.06-4.06s.48-12.64-6.83-20.16Z" style="fill: #ffb923;"/>
          <path d="M128.6,99.37v16.22l6.83,3.94s.48-12.64-6.83-20.16Z" style="fill: #ffedc6;"/>
          <path d="M149.78,87.18h0s0,0,0,0l-7.06,4.06c7.31,7.52,6.83,20.15,6.83,20.15l7.06-4.06h0s.48-12.64-6.83-20.16Z" style="fill: #ffb923;"/>
          <path d="M163.91,79.06h0s0,0,0,0l-7.06,4.06c7.31,7.52,6.83,20.15,6.83,20.15l7.06-4.06h0s.48-12.64-6.83-20.16Z" style="fill: #ffb923;"/>
          <path d="M178.03,70.94h0s0,0,0,0l-7.06,4.06c7.31,7.52,6.83,20.15,6.83,20.15l7.06-4.06h0s.48-12.64-6.83-20.16Z" style="fill: #ffb923;"/>
        </g>
        <g>
          <polygon points="19.77 38.42 86.32 0 190.77 60.3 124.22 98.73 19.77 38.42" style="fill: #fff7ee;"/>
          <polygon points="27.89 38.42 86.32 4.69 182.66 60.3 124.22 94.04 27.89 38.42" style="fill: #ffedd9;"/>
          <polygon points="177.51 63.28 86.32 10.5 86.32 4.69 182.66 60.3 177.51 63.28" style="fill: #ffe3a8;"/>
          <polygon points="33.04 41.39 86.32 10.5 86.32 4.69 27.89 38.42 33.04 41.39" style="fill: #d6b774;"/>
          <polygon points="190.77 60.3 190.77 66.12 124.22 104.54 124.22 98.73 190.77 60.3" style="fill: #d6b774;"/>
          <polygon points="19.77 38.42 124.22 98.73 124.22 104.54 19.77 44.24 19.77 38.42" style="fill: #ffe3a8;"/>
        </g>
        <g>
          <polygon points="102.95 50.84 63.72 28.19 86.32 15.14 125.55 37.79 102.95 50.84" style="fill: #ce9292;"/>
          <polygon points="63.72 28.19 63.72 35.42 102.95 58.07 102.95 50.84 63.72 28.19" style="fill: #bd6c6c;"/>
          <polygon points="125.55 45.02 125.55 37.79 102.95 50.84 102.95 58.07 125.55 45.02" style="fill: #8f5252;"/>
        </g>
        <g>
          <polygon points="121.08 149.44 107.87 157.06 107.87 127.41 121.08 119.79 121.08 149.44" style="fill: #cf9927;"/>
          <polygon points="121.08 119.79 120.46 119.43 107.26 127.06 107.87 127.41 121.08 119.79" style="fill: #fff5e0;"/>
          <polygon points="107.87 157.06 107.26 156.71 107.26 127.06 107.87 127.41 107.87 157.06" style="fill: #ffedc6;"/>
          <polygon points="110.42 152.19 110.42 129.34 118.53 124.66 118.53 147.51 110.42 152.19" style="fill: #ffb923;"/>
          <path d="M109.05,131.21c-.22.13-.4.46-.4.76s.18.43.4.3c.22-.13.4-.46.4-.76s-.18-.43-.4-.3ZM109.05,134.48c-.22.13-.4.46-.4.76s.18.43.4.3c.22-.13.4-.46.4-.76s-.18-.43-.4-.3ZM109.05,137.76c-.22.13-.4.46-.4.76s.18.43.4.3c.22-.13.4-.46.4-.76s-.18-.43-.4-.3ZM109.05,141.03c-.22.13-.4.46-.4.76s.18.43.4.3c.22-.13.4-.46.4-.76s-.18-.43-.4-.3ZM109.05,144.31c-.22.13-.4.46-.4.76s.18.43.4.3c.22-.13.4-.46.4-.76s-.18-.43-.4-.3ZM109.05,147.58c-.22.13-.4.46-.4.76s.18.43.4.3c.22-.13.4-.46.4-.76s-.18-.43-.4-.3ZM109.05,150.85c-.22.13-.4.46-.4.76s.18.43.4.3c.22-.13.4-.46.4-.76s-.18-.43-.4-.3ZM119.91,124.94c-.22.13-.4.46-.4.76s.18.43.4.3c.22-.13.4-.46.4-.76s-.18-.43-.4-.3ZM119.91,128.21c-.22.13-.4.46-.4.76s.18.43.4.3c.22-.13.4-.46.4-.76s-.18-.43-.4-.3ZM119.91,131.49c-.22.13-.4.46-.4.76s.18.43.4.3c.22-.13.4-.46.4-.76s-.18-.43-.4-.3ZM119.91,134.76c-.22.13-.4.46-.4.76s.18.43.4.3c.22-.13.4-.46.4-.76s-.18-.43-.4-.3ZM119.91,138.04c-.22.13-.4.46-.4.76s.18.43.4.3c.22-.13.4-.46.4-.76s-.18-.43-.4-.3ZM119.91,141.31c-.22.13-.4.46-.4.76s.18.43.4.3c.22-.13.4-.46.4-.76s-.18-.43-.4-.3ZM119.91,144.58c-.22.13-.4.46-.4.76s.18.43.4.3.4-.46.4-.76-.18-.43-.4-.3ZM109.05,127.94c-.22.13-.4.46-.4.76s.18.43.4.3c.22-.13.4-.46.4-.76s-.18-.43-.4-.3ZM111.76,126.37c-.22.13-.4.46-.4.76s.18.43.4.3c.22-.13.4-.46.4-.76s-.18-.43-.4-.3ZM114.48,124.8c-.22.13-.4.46-.4.76s.18.43.4.3c.22-.13.4-.46.4-.76s-.18-.43-.4-.3ZM117.19,123.23c-.22.13-.4.46-.4.76s.18.43.4.3c.22-.13.4-.46.4-.76s-.18-.43-.4-.3ZM119.91,122.72c.22-.13.4-.46.4-.76s-.18-.43-.4-.3c-.22.13-.4.46-.4.76s.18.43.4.3ZM109.05,154.13c-.22.13-.4.46-.4.76s.18.43.4.3c.22-.13.4-.46.4-.76s-.18-.43-.4-.3ZM111.76,152.56c-.22.13-.4.46-.4.76s.18.43.4.3c.22-.13.4-.46.4-.76s-.18-.43-.4-.3ZM114.48,150.99c-.22.13-.4.46-.4.76s.18.43.4.3c.22-.13.4-.46.4-.76s-.18-.43-.4-.3ZM117.19,149.42c-.22.13-.4.46-.4.76s.18.43.4.3c.22-.13.4-.46.4-.76s-.18-.43-.4-.3ZM119.91,147.86c-.22.13-.4.46-.4.76s.18.43.4.3c.22-.13.4-.46.4-.76s-.18-.43-.4-.3Z" style="fill: #fff;"/>
        </g>
      </g>
      <g>
        <path d="M81.52,139.75c0,1.63-.61,3.14-1.62,4.27-1.17,1.33-2.89,2.17-4.8,2.17s-3.73-.89-4.91-2.28c-.85.55-1.88.88-2.98.88-2.63,0-4.83-1.85-5.39-4.31-.7.21-1.44.33-2.22.33-3.25,0-6.02-2.09-7.04-5.01-3.54-.06-6.58-2.1-8.08-5.06-.33.05-.67.08-1.01.08-2.56,0-4.78-1.46-5.86-3.61-.45-.89-.7-1.89-.7-2.95,0-3.62,2.94-6.56,6.57-6.56,1.47,0,2.83.49,3.92,1.3,1.51-1.07,3.35-1.7,5.34-1.7,5,0,9.07,3.97,9.23,8.93,2.98.99,5.12,3.79,5.12,7.09,0,.13,0,.26-.02.38.05,0,.1,0,.15,0,1.36,0,2.6.49,3.56,1.3,1.14-1.05,2.66-1.68,4.32-1.68,3.55,0,6.42,2.88,6.42,6.42Z" style="fill: #3dc47e;"/>
        <path d="M79.9,144.01c-1.17,1.33-2.89,2.17-4.8,2.17s-3.73-.89-4.91-2.28c-.85.55-1.88.88-2.98.88-2.63,0-4.83-1.85-5.39-4.31-.7.21-1.44.33-2.22.33-3.25,0-6.02-2.09-7.04-5.01-3.54-.06-6.58-2.1-8.08-5.06-.33.05-.67.08-1.01.08-2.56,0-4.78-1.46-5.86-3.61,1.2-1.4,2.99-2.28,4.97-2.28,1.47,0,2.83.49,3.92,1.3,1.51-1.06,3.35-1.7,5.34-1.7,5,0,9.07,3.97,9.23,8.93,2.97,1,5.12,3.79,5.12,7.09,0,.13,0,.26-.02.39.05,0,.1,0,.15,0,1.35,0,2.6.49,3.56,1.3,1.14-1.04,2.65-1.68,4.32-1.68,2.48,0,4.63,1.41,5.7,3.46Z" style="fill: #009246;"/>
      </g>
    </g>
  </g>
</svg>