<?xml version="1.0" encoding="UTF-8"?>
<svg id="Layer_2" data-name="Layer 2" xmlns="http://www.w3.org/2000/svg" width="137.66" height="134.36" xmlns:xlink="http://www.w3.org/1999/xlink" viewBox="0 0 137.66 134.36">
  <defs>
    <linearGradient id="linear-gradient" x1="85.34" y1="546.28" x2="94.11" y2="547.97" gradientTransform="translate(137.66 644.36) rotate(-180)" gradientUnits="userSpaceOnUse">
      <stop offset=".16" stop-color="#b9919f"/>
      <stop offset=".29" stop-color="#bd97a4"/>
      <stop offset=".46" stop-color="#c7a7b2"/>
      <stop offset=".65" stop-color="#d7c1c9"/>
      <stop offset=".85" stop-color="#efe5e9"/>
      <stop offset=".98" stop-color="#fff"/>
    </linearGradient>
    <linearGradient id="linear-gradient-2" x1="93.66" y1="551.08" x2="102.43" y2="552.78" xlink:href="#linear-gradient"/>
    <linearGradient id="linear-gradient-3" x1="115.4" y1="543.15" x2="107.54" y2="524.32" gradientTransform="translate(138.02 720.3) rotate(-150) skewX(30)" gradientUnits="userSpaceOnUse">
      <stop offset=".16" stop-color="#deced4"/>
      <stop offset=".38" stop-color="#e2d4d9"/>
      <stop offset=".67" stop-color="#ede4e7"/>
      <stop offset=".99" stop-color="#fefefe"/>
      <stop offset="1" stop-color="#fff"/>
    </linearGradient>
    <linearGradient id="linear-gradient-4" x1="121.86" y1="540.49" x2="113.99" y2="521.67" xlink:href="#linear-gradient-3"/>
    <linearGradient id="linear-gradient-5" x1="117.16" y1="537.74" x2="109.29" y2="518.92" xlink:href="#linear-gradient-3"/>
    <linearGradient id="linear-gradient-6" x1="136.31" y1="522.2" x2="128.45" y2="503.37" xlink:href="#linear-gradient-3"/>
    <linearGradient id="linear-gradient-7" x1="139.61" y1="516.31" x2="133.9" y2="502.64" xlink:href="#linear-gradient-3"/>
    <linearGradient id="linear-gradient-8" x1="138.06" y1="516.79" x2="130.2" y2="497.97" xlink:href="#linear-gradient-3"/>
    <linearGradient id="linear-gradient-9" x1="62.47" y1="553.81" x2="54.6" y2="534.99" xlink:href="#linear-gradient-3"/>
    <linearGradient id="linear-gradient-10" x1="68.92" y1="551.16" x2="61.06" y2="532.33" xlink:href="#linear-gradient-3"/>
    <linearGradient id="linear-gradient-11" x1="64.22" y1="548.4" x2="56.36" y2="529.58" xlink:href="#linear-gradient-3"/>
    <linearGradient id="linear-gradient-12" x1="135.39" y1="554.33" x2="127.53" y2="535.51" xlink:href="#linear-gradient-3"/>
    <linearGradient id="linear-gradient-13" x1="132.45" y1="551.68" x2="124.58" y2="532.85" xlink:href="#linear-gradient-3"/>
    <linearGradient id="linear-gradient-14" x1="138.65" y1="548.92" x2="130.79" y2="530.1" xlink:href="#linear-gradient-3"/>
    <linearGradient id="linear-gradient-15" x1="75.15" y1="521.73" x2="67.28" y2="502.91" xlink:href="#linear-gradient-3"/>
    <linearGradient id="linear-gradient-16" x1="72.2" y1="519.08" x2="64.34" y2="500.26" xlink:href="#linear-gradient-3"/>
    <linearGradient id="linear-gradient-17" x1="78.41" y1="516.33" x2="70.54" y2="497.51" xlink:href="#linear-gradient-3"/>
    <linearGradient id="linear-gradient-18" x1="117.69" y1="585.63" x2="117.69" y2="540.48" gradientTransform="translate(137.66 644.36) rotate(-180)" gradientUnits="userSpaceOnUse">
      <stop offset=".16" stop-color="#c9adb7"/>
      <stop offset=".32" stop-color="#cdb3bc"/>
      <stop offset=".52" stop-color="#d7c3ca"/>
      <stop offset=".75" stop-color="#e9dde1"/>
      <stop offset=".98" stop-color="#fff"/>
    </linearGradient>
    <linearGradient id="linear-gradient-19" x1="137.94" y1="528.94" x2="107.55" y2="505.48" gradientTransform="translate(138.02 720.3) rotate(-150) skewX(30)" gradientUnits="userSpaceOnUse">
      <stop offset=".18" stop-color="#c4aa9b"/>
      <stop offset=".98" stop-color="#fff"/>
    </linearGradient>
    <linearGradient id="linear-gradient-20" x1="123.77" y1="502.14" x2="123.77" y2="497.04" gradientTransform="translate(138.02 720.3) rotate(-150) skewX(30)" gradientUnits="userSpaceOnUse">
      <stop offset=".16" stop-color="#c1cad6"/>
      <stop offset=".34" stop-color="#c7cfda"/>
      <stop offset=".59" stop-color="#d7dce4"/>
      <stop offset=".86" stop-color="#f1f3f6"/>
      <stop offset=".98" stop-color="#fff"/>
    </linearGradient>
    <linearGradient id="linear-gradient-21" x1="123.77" y1="505.49" x2="123.77" y2="500.38" xlink:href="#linear-gradient-20"/>
    <linearGradient id="linear-gradient-22" x1="58.24" y1="513.51" x2="58.24" y2="479.42" gradientTransform="translate(138.02 720.3) rotate(-150) skewX(30)" xlink:href="#linear-gradient-18"/>
    <linearGradient id="linear-gradient-23" x1="97.63" y1="548.01" x2="90.13" y2="493.84" gradientTransform="translate(138.02 720.3) rotate(-150) skewX(30)" xlink:href="#linear-gradient-18"/>
    <linearGradient id="linear-gradient-24" x1="-73.11" y1="797.45" x2="301.43" y2="251.3" xlink:href="#linear-gradient"/>
    <linearGradient id="linear-gradient-25" x1="52.9" y1="532.98" x2="52.9" y2="526.57" gradientTransform="translate(137.66 644.36) rotate(-180)" gradientUnits="userSpaceOnUse">
      <stop offset=".16" stop-color="#a5acb9"/>
      <stop offset=".31" stop-color="#abb1bd"/>
      <stop offset=".5" stop-color="#bbc0ca"/>
      <stop offset=".71" stop-color="#d5d8de"/>
      <stop offset=".94" stop-color="#f9fafb"/>
      <stop offset=".98" stop-color="#fff"/>
    </linearGradient>
    <linearGradient id="linear-gradient-26" x1="122.34" y1="572.08" x2="122.34" y2="565.67" xlink:href="#linear-gradient-25"/>
  </defs>
  <g id="Layer_1-2" data-name="Layer 1">
    <g>
      <g>
        <g>
          <g>
            <polygon points="0 84.17 27.01 68.63 48.81 81.21 21.8 96.75 0 84.17" style="fill: #b09f72;"/>
            <g>
              <polygon points="32.79 75.11 35.16 73.74 31.23 71.47 31.23 71.47 26.89 68.96 24.51 70.33 32.79 75.11" style="fill: #ccb885;"/>
              <polygon points="37.13 77.62 39.5 76.25 35.57 73.98 33.2 75.35 37.13 77.62" style="fill: #bdaa7b;"/>
              <polygon points="41.47 80.12 43.84 78.75 39.91 76.48 37.54 77.85 41.47 80.12" style="fill: #dbc58e;"/>
              <polygon points="27.84 72.95 23.91 70.68 21.53 72.05 25.46 74.32 27.84 72.95" style="fill: #dbc58e;"/>
              <polygon points="28.25 73.19 25.88 74.56 29.81 76.83 32.18 75.46 28.25 73.19" style="fill: #bdaa7b;"/>
              <polygon points="32.59 75.7 27.24 78.79 31.17 81.06 36.52 77.97 32.59 75.7" style="fill: #ccb885;"/>
              <polygon points="36.93 78.2 34.56 79.57 38.49 81.84 40.86 80.47 36.93 78.2" style="fill: #bdaa7b;"/>
              <polygon points="38.9 82.08 42.83 84.35 45.2 82.98 45.2 82.98 48.19 81.26 44.25 78.99 41.27 80.71 41.27 80.71 38.9 82.08" style="fill: #dbc58e;"/>
              <polygon points="24.86 74.67 20.93 72.4 18.55 73.77 22.48 76.04 24.86 74.67" style="fill: #ccb885;"/>
              <polygon points="25.27 74.91 22.89 76.28 26.83 78.55 29.2 77.18 25.27 74.91" style="fill: #ccb885;"/>
              <polygon points="35.51 83.56 37.88 82.19 33.95 79.92 31.58 81.3 35.51 83.56" style="fill: #ccb885;"/>
              <polygon points="35.92 83.8 39.85 86.07 42.22 84.7 38.29 82.43 35.92 83.8" style="fill: #ccb885;"/>
              <polygon points="21.88 76.39 17.94 74.12 12.59 77.22 16.52 79.49 21.88 76.39" style="fill: #bdaa7b;"/>
              <polygon points="22.29 76.63 19.91 78 23.85 80.27 26.22 78.9 22.29 76.63" style="fill: #ccb885;"/>
              <polygon points="26.63 79.14 24.26 80.51 28.19 82.78 30.56 81.41 26.63 79.14" style="fill: #bdaa7b;"/>
              <polygon points="32.53 85.28 34.9 83.92 30.97 81.65 28.6 83.02 32.53 85.28" style="fill: #dbc58e;"/>
              <polygon points="32.94 85.52 36.87 87.79 39.24 86.42 35.31 84.15 32.94 85.52" style="fill: #bdaa7b;"/>
              <polygon points="19.31 78.35 16.93 79.72 20.86 81.99 23.24 80.62 19.31 78.35" style="fill: #ccb885;"/>
              <polygon points="29.55 87.01 31.92 85.64 23.65 80.86 21.27 82.23 29.55 87.01" style="fill: #dbc58e;"/>
              <polygon points="26.98 88.96 30.91 91.23 33.28 89.86 33.28 89.86 36.26 88.14 32.33 85.87 26.98 88.96" style="fill: #ccb885;"/>
              <polygon points="15.91 79.84 11.98 77.57 9.61 78.94 13.54 81.21 15.91 79.84" style="fill: #dbc58e;"/>
              <polygon points="16.33 80.07 13.95 81.44 17.88 83.71 20.26 82.34 16.33 80.07" style="fill: #bdaa7b;"/>
              <polygon points="20.67 82.58 18.29 83.95 22.23 86.22 24.6 84.85 20.67 82.58" style="fill: #ccb885;"/>
              <polygon points="26.57 88.73 28.94 87.36 25.01 85.09 22.64 86.46 26.57 88.73" style="fill: #bdaa7b;"/>
              <polygon points="12.93 81.56 9 79.29 6.63 80.66 10.56 82.93 12.93 81.56" style="fill: #ccb885;"/>
              <polygon points="13.35 81.8 10.97 83.17 14.9 85.44 14.9 85.44 19.24 87.94 21.62 86.57 13.35 81.8" style="fill: #bdaa7b;"/>
              <polygon points="24 90.69 27.93 92.95 30.3 91.58 26.37 89.31 24 90.69" style="fill: #ccb885;"/>
              <polygon points="9.95 83.28 6.02 81.01 3.65 82.38 7.58 84.65 9.95 83.28" style="fill: #bdaa7b;"/>
              <polygon points="5.01 86.61 8.94 88.88 14.29 85.79 10.36 83.52 5.01 86.61" style="fill: #dbc58e;"/>
              <polygon points="16.26 89.66 18.64 88.29 14.71 86.02 12.33 87.39 16.26 89.66" style="fill: #ccb885;"/>
              <polygon points="22.98 90.8 22.98 90.8 25.96 89.08 22.03 86.81 19.05 88.53 19.05 88.53 16.68 89.9 20.61 92.17 22.98 90.8" style="fill: #dbc58e;"/>
              <polygon points="21.02 92.41 24.95 94.68 27.32 93.31 23.39 91.04 21.02 92.41" style="fill: #bdaa7b;"/>
              <polygon points="6.97 85 3.04 82.73 .67 84.1 4.6 86.37 6.97 85" style="fill: #ccb885;"/>
              <polygon points="13.28 91.38 15.66 90.01 11.72 87.74 9.35 89.11 13.28 91.38" style="fill: #ccb885;"/>
              <polygon points="21.97 96.4 24.34 95.03 20.41 92.76 20.41 92.76 16.07 90.25 13.69 91.62 18.04 94.13 21.97 96.4" style="fill: #bdaa7b;"/>
            </g>
          </g>
          <g>
            <polygon points="21.8 96.75 48.81 81.21 70.61 93.79 43.59 109.34 21.8 96.75" style="fill: #b09f72;"/>
            <g>
              <polygon points="54.58 87.69 56.96 86.32 53.02 84.05 53.02 84.05 48.68 81.55 46.31 82.92 54.58 87.69" style="fill: #ccb885;"/>
              <polygon points="58.92 90.2 61.3 88.83 57.37 86.56 54.99 87.93 58.92 90.2" style="fill: #bdaa7b;"/>
              <polygon points="63.27 92.71 65.64 91.34 61.71 89.07 59.34 90.44 63.27 92.71" style="fill: #dbc58e;"/>
              <polygon points="49.63 85.54 45.7 83.27 43.33 84.64 47.26 86.91 49.63 85.54" style="fill: #dbc58e;"/>
              <polygon points="50.04 85.77 47.67 87.14 51.6 89.41 53.98 88.04 50.04 85.77" style="fill: #bdaa7b;"/>
              <polygon points="54.39 88.28 49.03 91.37 52.96 93.64 58.32 90.55 54.39 88.28" style="fill: #ccb885;"/>
              <polygon points="58.73 90.79 56.35 92.16 60.29 94.43 62.66 93.06 58.73 90.79" style="fill: #bdaa7b;"/>
              <polygon points="60.7 94.66 64.63 96.93 67 95.56 67 95.56 69.98 93.84 66.05 91.57 63.07 93.29 63.07 93.29 60.7 94.66" style="fill: #dbc58e;"/>
              <polygon points="46.65 87.26 42.72 84.99 40.35 86.36 44.28 88.63 46.65 87.26" style="fill: #ccb885;"/>
              <polygon points="47.06 87.5 44.69 88.86 48.62 91.14 50.99 89.76 47.06 87.5" style="fill: #ccb885;"/>
              <polygon points="57.31 96.15 59.68 94.78 55.75 92.51 53.37 93.88 57.31 96.15" style="fill: #ccb885;"/>
              <polygon points="57.72 96.39 61.65 98.65 64.02 97.28 60.09 95.01 57.72 96.39" style="fill: #ccb885;"/>
              <polygon points="43.67 88.98 39.74 86.71 34.39 89.8 38.32 92.07 43.67 88.98" style="fill: #bdaa7b;"/>
              <polygon points="44.08 89.22 41.71 90.59 45.64 92.86 48.01 91.49 44.08 89.22" style="fill: #ccb885;"/>
              <polygon points="48.42 91.72 46.05 93.09 49.98 95.36 52.36 93.99 48.42 91.72" style="fill: #bdaa7b;"/>
              <polygon points="54.32 97.87 56.7 96.5 52.77 94.23 50.39 95.6 54.32 97.87" style="fill: #dbc58e;"/>
              <polygon points="54.73 98.11 58.67 100.38 61.04 99.01 57.11 96.74 54.73 98.11" style="fill: #bdaa7b;"/>
              <polygon points="41.1 90.94 38.73 92.31 42.66 94.58 45.03 93.21 41.1 90.94" style="fill: #ccb885;"/>
              <polygon points="51.34 99.59 53.72 98.22 45.44 93.44 43.07 94.81 51.34 99.59" style="fill: #dbc58e;"/>
              <polygon points="48.77 101.55 52.7 103.82 55.08 102.45 55.08 102.45 58.06 100.73 54.13 98.46 48.77 101.55" style="fill: #ccb885;"/>
              <polygon points="37.71 92.42 33.78 90.15 31.41 91.52 35.34 93.79 37.71 92.42" style="fill: #dbc58e;"/>
              <polygon points="38.12 92.66 35.75 94.03 39.68 96.3 42.05 94.93 38.12 92.66" style="fill: #bdaa7b;"/>
              <polygon points="42.46 95.17 40.09 96.53 44.02 98.8 46.39 97.43 42.46 95.17" style="fill: #ccb885;"/>
              <polygon points="48.36 101.31 50.74 99.94 46.81 97.67 44.43 99.04 48.36 101.31" style="fill: #bdaa7b;"/>
              <polygon points="34.73 94.14 30.8 91.87 28.43 93.24 32.36 95.51 34.73 94.14" style="fill: #ccb885;"/>
              <polygon points="35.14 94.38 32.77 95.75 36.7 98.02 36.7 98.02 41.04 100.53 43.41 99.15 35.14 94.38" style="fill: #bdaa7b;"/>
              <polygon points="45.79 103.27 49.72 105.54 52.1 104.17 48.17 101.9 45.79 103.27" style="fill: #ccb885;"/>
              <polygon points="31.75 95.86 27.82 93.59 25.44 94.96 29.38 97.23 31.75 95.86" style="fill: #bdaa7b;"/>
              <polygon points="26.81 99.19 30.74 101.46 36.09 98.37 32.16 96.1 26.81 99.19" style="fill: #dbc58e;"/>
              <polygon points="38.06 102.25 40.43 100.88 36.5 98.61 34.13 99.98 38.06 102.25" style="fill: #ccb885;"/>
              <polygon points="44.77 103.38 44.77 103.38 47.75 101.66 43.82 99.39 40.84 101.11 40.84 101.11 38.47 102.48 42.4 104.75 44.77 103.38" style="fill: #dbc58e;"/>
              <polygon points="42.81 104.99 46.74 107.26 49.12 105.89 45.18 103.62 42.81 104.99" style="fill: #bdaa7b;"/>
              <polygon points="28.77 97.58 24.84 95.31 22.46 96.68 26.4 98.95 28.77 97.58" style="fill: #ccb885;"/>
              <polygon points="35.08 103.97 37.45 102.6 33.52 100.33 31.15 101.7 35.08 103.97" style="fill: #ccb885;"/>
              <polygon points="43.76 108.98 46.14 107.61 42.2 105.34 42.2 105.34 37.86 102.83 35.49 104.2 39.83 106.71 43.76 108.98" style="fill: #bdaa7b;"/>
            </g>
          </g>
        </g>
        <path d="M14.24,76.17c1.85-1.07,4.84-1.07,6.68-.01,1.84,1.06,4.32,4.97,2.23,5.43-2.21.49-8.06-.94-8.06-.94-1.84-1.06-2.71-3.41-.86-4.48Z" style="fill: #d2c5a5;"/>
        <polygon points="50.39 96.05 47.03 98.51 47.59 98.83 51.19 96.61 50.39 96.05" style="fill: url(#linear-gradient);"/>
        <polygon points="42.07 91.24 38.7 93.7 39.26 94.03 42.87 91.8 42.07 91.24" style="fill: url(#linear-gradient-2);"/>
        <g>
          <g>
            <polygon points="43.34 109.2 70.35 93.65 92.15 106.24 65.14 121.78 43.34 109.2" style="fill: #b09f72;"/>
            <g>
              <polygon points="76.13 100.14 78.5 98.76 74.57 96.5 74.57 96.5 70.23 93.99 67.85 95.36 76.13 100.14" style="fill: #ccb885;"/>
              <polygon points="80.47 102.64 82.84 101.27 78.91 99 76.54 100.37 80.47 102.64" style="fill: #bdaa7b;"/>
              <polygon points="84.81 105.15 87.18 103.78 83.25 101.51 80.88 102.88 84.81 105.15" style="fill: #dbc58e;"/>
              <polygon points="71.18 97.98 67.25 95.71 64.87 97.08 68.81 99.35 71.18 97.98" style="fill: #dbc58e;"/>
              <polygon points="71.59 98.22 69.22 99.59 73.15 101.86 75.52 100.49 71.59 98.22" style="fill: #bdaa7b;"/>
              <polygon points="75.93 100.72 70.58 103.81 74.51 106.08 79.86 102.99 75.93 100.72" style="fill: #ccb885;"/>
              <polygon points="80.27 103.23 77.9 104.6 81.83 106.87 84.2 105.5 80.27 103.23" style="fill: #bdaa7b;"/>
              <polygon points="82.24 107.11 86.17 109.38 88.54 108.01 88.54 108.01 91.53 106.28 87.59 104.02 84.61 105.74 84.61 105.74 82.24 107.11" style="fill: #dbc58e;"/>
              <polygon points="68.2 99.7 64.27 97.43 61.89 98.8 65.82 101.07 68.2 99.7" style="fill: #ccb885;"/>
              <polygon points="68.61 99.94 66.23 101.31 70.17 103.58 72.54 102.21 68.61 99.94" style="fill: #ccb885;"/>
              <polygon points="78.85 108.59 81.22 107.22 77.29 104.95 74.92 106.32 78.85 108.59" style="fill: #ccb885;"/>
              <polygon points="79.26 108.83 83.19 111.1 85.56 109.73 81.63 107.46 79.26 108.83" style="fill: #ccb885;"/>
              <polygon points="65.22 101.42 61.28 99.15 55.93 102.24 59.86 104.51 65.22 101.42" style="fill: #bdaa7b;"/>
              <polygon points="65.63 101.66 63.25 103.03 67.19 105.3 69.56 103.93 65.63 101.66" style="fill: #ccb885;"/>
              <polygon points="69.97 104.17 67.6 105.53 71.53 107.81 73.9 106.44 69.97 104.17" style="fill: #bdaa7b;"/>
              <polygon points="75.87 110.31 78.24 108.94 74.31 106.67 71.94 108.04 75.87 110.31" style="fill: #dbc58e;"/>
              <polygon points="76.28 110.55 80.21 112.82 82.58 111.45 78.65 109.18 76.28 110.55" style="fill: #bdaa7b;"/>
              <polygon points="62.65 103.38 60.27 104.75 64.2 107.02 66.58 105.65 62.65 103.38" style="fill: #ccb885;"/>
              <polygon points="72.89 112.03 75.26 110.66 66.99 105.89 64.61 107.26 72.89 112.03" style="fill: #dbc58e;"/>
              <polygon points="70.32 113.99 74.25 116.26 76.62 114.89 76.62 114.89 79.6 113.17 75.67 110.9 70.32 113.99" style="fill: #ccb885;"/>
              <polygon points="59.25 104.86 55.32 102.59 52.95 103.96 56.88 106.23 59.25 104.86" style="fill: #dbc58e;"/>
              <polygon points="59.67 105.1 57.29 106.47 61.22 108.74 63.6 107.37 59.67 105.1" style="fill: #bdaa7b;"/>
              <polygon points="64.01 107.61 61.63 108.98 65.57 111.25 67.94 109.88 64.01 107.61" style="fill: #ccb885;"/>
              <polygon points="69.91 113.75 72.28 112.38 68.35 110.11 65.98 111.48 69.91 113.75" style="fill: #bdaa7b;"/>
              <polygon points="56.27 106.58 52.34 104.31 49.97 105.68 53.9 107.95 56.27 106.58" style="fill: #ccb885;"/>
              <polygon points="56.68 106.82 54.31 108.19 58.24 110.46 58.24 110.46 62.58 112.97 64.96 111.6 56.68 106.82" style="fill: #bdaa7b;"/>
              <polygon points="67.34 115.71 71.27 117.98 73.64 116.61 69.71 114.34 67.34 115.71" style="fill: #ccb885;"/>
              <polygon points="53.29 108.31 49.36 106.03 46.99 107.4 50.92 109.67 53.29 108.31" style="fill: #bdaa7b;"/>
              <polygon points="48.35 111.63 52.28 113.9 57.63 110.81 53.7 108.54 48.35 111.63" style="fill: #dbc58e;"/>
              <polygon points="59.6 114.69 61.98 113.32 58.05 111.05 55.67 112.42 59.6 114.69" style="fill: #ccb885;"/>
              <polygon points="66.32 115.83 66.32 115.83 69.3 114.1 65.37 111.83 62.39 113.56 62.39 113.56 60.01 114.93 63.95 117.19 66.32 115.83" style="fill: #dbc58e;"/>
              <polygon points="64.36 117.43 68.29 119.7 70.66 118.33 66.73 116.06 64.36 117.43" style="fill: #bdaa7b;"/>
              <polygon points="50.31 110.03 46.38 107.76 44.01 109.13 47.94 111.4 50.31 110.03" style="fill: #ccb885;"/>
              <polygon points="56.62 116.41 59 115.04 55.06 112.77 52.69 114.14 56.62 116.41" style="fill: #ccb885;"/>
              <polygon points="65.31 121.42 67.68 120.05 63.75 117.78 63.75 117.78 59.41 115.28 57.03 116.65 61.38 119.15 65.31 121.42" style="fill: #bdaa7b;"/>
            </g>
          </g>
          <g>
            <polygon points="65.14 121.78 92.15 106.24 113.95 118.82 86.93 134.36 65.14 121.78" style="fill: #b09f72;"/>
            <g>
              <polygon points="97.92 112.72 100.3 111.35 96.36 109.08 96.36 109.08 92.02 106.57 89.65 107.94 97.92 112.72" style="fill: #ccb885;"/>
              <polygon points="102.26 115.23 104.64 113.86 100.71 111.59 98.33 112.96 102.26 115.23" style="fill: #bdaa7b;"/>
              <polygon points="106.61 117.73 108.98 116.36 105.05 114.09 102.68 115.46 106.61 117.73" style="fill: #dbc58e;"/>
              <polygon points="92.97 110.56 89.04 108.29 86.67 109.66 90.6 111.93 92.97 110.56" style="fill: #dbc58e;"/>
              <polygon points="93.38 110.8 91.01 112.17 94.94 114.44 97.32 113.07 93.38 110.8" style="fill: #bdaa7b;"/>
              <polygon points="97.73 113.31 92.37 116.4 96.3 118.67 101.66 115.58 97.73 113.31" style="fill: #ccb885;"/>
              <polygon points="102.07 115.81 99.69 117.18 103.63 119.45 106 118.08 102.07 115.81" style="fill: #bdaa7b;"/>
              <polygon points="104.04 119.69 107.97 121.96 110.34 120.59 110.34 120.59 113.32 118.87 109.39 116.6 106.41 118.32 106.41 118.32 104.04 119.69" style="fill: #dbc58e;"/>
              <polygon points="89.99 112.28 86.06 110.01 83.69 111.38 87.62 113.65 89.99 112.28" style="fill: #ccb885;"/>
              <polygon points="90.4 112.52 88.03 113.89 91.96 116.16 94.33 114.79 90.4 112.52" style="fill: #ccb885;"/>
              <polygon points="100.65 121.17 103.02 119.8 99.09 117.53 96.71 118.9 100.65 121.17" style="fill: #ccb885;"/>
              <polygon points="101.06 121.41 104.99 123.68 107.36 122.31 103.43 120.04 101.06 121.41" style="fill: #ccb885;"/>
              <polygon points="87.01 114 83.08 111.73 77.73 114.83 81.66 117.1 87.01 114" style="fill: #bdaa7b;"/>
              <polygon points="87.42 114.24 85.05 115.61 88.98 117.88 91.35 116.51 87.42 114.24" style="fill: #ccb885;"/>
              <polygon points="91.76 116.75 89.39 118.12 93.32 120.39 95.7 119.02 91.76 116.75" style="fill: #bdaa7b;"/>
              <polygon points="97.66 122.89 100.04 121.53 96.11 119.26 93.73 120.62 97.66 122.89" style="fill: #dbc58e;"/>
              <polygon points="98.07 123.13 102.01 125.4 104.38 124.03 100.45 121.76 98.07 123.13" style="fill: #bdaa7b;"/>
              <polygon points="84.44 115.96 82.07 117.33 86 119.6 88.37 118.23 84.44 115.96" style="fill: #ccb885;"/>
              <polygon points="94.68 124.62 97.06 123.25 88.78 118.47 86.41 119.84 94.68 124.62" style="fill: #dbc58e;"/>
              <polygon points="92.11 126.57 96.04 128.84 98.42 127.47 98.42 127.47 101.4 125.75 97.47 123.48 92.11 126.57" style="fill: #ccb885;"/>
              <polygon points="81.05 117.45 77.12 115.18 74.75 116.55 78.68 118.82 81.05 117.45" style="fill: #dbc58e;"/>
              <polygon points="81.46 117.68 79.09 119.05 83.02 121.32 85.39 119.95 81.46 117.68" style="fill: #bdaa7b;"/>
              <polygon points="85.8 120.19 83.43 121.56 87.36 123.83 89.73 122.46 85.8 120.19" style="fill: #ccb885;"/>
              <polygon points="91.7 126.34 94.08 124.97 90.14 122.7 87.77 124.07 91.7 126.34" style="fill: #bdaa7b;"/>
              <polygon points="78.07 119.17 74.14 116.9 71.77 118.27 75.7 120.54 78.07 119.17" style="fill: #ccb885;"/>
              <polygon points="78.48 119.4 76.11 120.78 80.04 123.05 80.04 123.05 84.38 125.55 86.75 124.18 78.48 119.4" style="fill: #bdaa7b;"/>
              <polygon points="89.13 128.3 93.06 130.57 95.44 129.19 91.51 126.92 89.13 128.3" style="fill: #ccb885;"/>
              <polygon points="75.09 120.89 71.16 118.62 68.78 119.99 72.72 122.26 75.09 120.89" style="fill: #bdaa7b;"/>
              <polygon points="70.15 124.22 74.08 126.49 79.43 123.4 75.5 121.13 70.15 124.22" style="fill: #dbc58e;"/>
              <polygon points="81.4 127.27 83.77 125.9 79.84 123.63 77.47 125 81.4 127.27" style="fill: #ccb885;"/>
              <polygon points="88.11 128.41 88.11 128.41 91.09 126.69 87.16 124.42 84.18 126.14 84.18 126.14 81.81 127.51 85.74 129.78 88.11 128.41" style="fill: #dbc58e;"/>
              <polygon points="86.15 130.02 90.08 132.29 92.46 130.92 88.52 128.65 86.15 130.02" style="fill: #bdaa7b;"/>
              <polygon points="72.11 122.61 68.18 120.34 65.8 121.71 69.74 123.98 72.11 122.61" style="fill: #ccb885;"/>
              <polygon points="78.42 128.99 80.79 127.62 76.86 125.35 74.49 126.72 78.42 128.99" style="fill: #ccb885;"/>
              <polygon points="87.1 134.01 89.48 132.64 85.54 130.37 85.54 130.37 81.2 127.86 78.83 129.23 83.17 131.74 87.1 134.01" style="fill: #bdaa7b;"/>
            </g>
          </g>
        </g>
        <path d="M68.93,111.53c1.85-1.07,4.84-1.07,6.68-.01s1.83,2.79-.02,3.86-4.84,1.07-6.68.01c-1.84-1.06-1.83-2.79.02-3.86Z" style="fill: #d2c5a5;"/>
        <path d="M83.68,115.27c1.85-1.07,4.84-1.07,6.68-.01,1.84,1.06,4.32,4.97,2.23,5.43-2.21.49-8.06-.94-8.06-.94-1.84-1.06-2.71-3.41-.86-4.48Z" style="fill: #d2c5a5;"/>
        <path d="M60.85,107.72c1.85-1.07,4.84-1.07,6.68-.01s1.83,2.79-.02,3.86-4.84,1.07-6.68.01-1.83-2.79.02-3.86Z" style="fill: #d2c5a5;"/>
        <path d="M52.5,104.65c1.85-1.07,4.84-1.07,6.68-.01s1.83,2.79-.02,3.86-4.84,1.07-6.68.01c-1.84-1.06-1.83-2.79.02-3.86Z" style="fill: #d2c5a5;"/>
        <g>
          <g>
            <polygon points="69.77 93.99 94.07 80.22 115.87 92.81 91.57 106.57 69.77 93.99" style="fill: #b09f72;"/>
            <g>
              <polygon points="117.25 76.39 119.62 75.02 115.69 72.75 115.69 72.75 111.35 70.25 108.98 71.62 117.25 76.39" style="fill: #ccb885;"/>
              <polygon points="121.59 78.9 123.96 77.53 120.03 75.26 117.66 76.63 121.59 78.9" style="fill: #bdaa7b;"/>
              <polygon points="112.3 74.24 108.37 71.97 106 73.34 109.93 75.61 112.3 74.24" style="fill: #dbc58e;"/>
              <polygon points="112.71 74.47 110.34 75.84 114.27 78.11 116.64 76.74 112.71 74.47" style="fill: #bdaa7b;"/>
              <polygon points="117.05 76.98 111.7 80.07 115.63 82.34 120.98 79.25 117.05 76.98" style="fill: #ccb885;"/>
              <polygon points="109.32 75.96 105.39 73.69 103.02 75.06 106.95 77.33 109.32 75.96" style="fill: #ccb885;"/>
              <polygon points="109.73 76.19 107.36 77.56 111.29 79.83 113.66 78.47 109.73 76.19" style="fill: #ccb885;"/>
              <polygon points="119.97 84.85 122.35 83.48 118.41 81.21 116.04 82.58 119.97 84.85" style="fill: #ccb885;"/>
              <polygon points="106.34 77.68 102.41 75.41 97.05 78.5 100.99 80.77 106.34 77.68" style="fill: #bdaa7b;"/>
              <polygon points="106.75 77.92 104.38 79.29 108.31 81.56 110.68 80.19 106.75 77.92" style="fill: #ccb885;"/>
              <polygon points="111.09 80.42 108.72 81.79 112.65 84.06 115.02 82.69 111.09 80.42" style="fill: #bdaa7b;"/>
              <polygon points="116.99 86.57 119.36 85.2 115.43 82.93 113.06 84.3 116.99 86.57" style="fill: #dbc58e;"/>
              <polygon points="117.4 86.81 121.33 89.08 123.71 87.71 119.77 85.44 117.4 86.81" style="fill: #bdaa7b;"/>
              <polygon points="103.77 79.64 101.4 81.01 105.33 83.28 107.7 81.91 103.77 79.64" style="fill: #ccb885;"/>
              <polygon points="114.01 88.29 116.38 86.92 108.11 82.14 105.74 83.51 114.01 88.29" style="fill: #dbc58e;"/>
              <polygon points="111.44 90.25 115.37 92.52 117.74 91.15 117.74 91.15 120.73 89.43 116.79 87.16 111.44 90.25" style="fill: #ccb885;"/>
              <polygon points="100.38 81.12 96.45 78.85 94.07 80.22 98 82.49 100.38 81.12" style="fill: #dbc58e;"/>
              <polygon points="100.79 81.36 98.42 82.73 102.35 85 104.72 83.63 100.79 81.36" style="fill: #bdaa7b;"/>
              <polygon points="105.13 83.86 102.76 85.23 106.69 87.5 109.06 86.13 105.13 83.86" style="fill: #ccb885;"/>
              <polygon points="111.03 90.01 113.4 88.64 109.47 86.37 107.1 87.74 111.03 90.01" style="fill: #bdaa7b;"/>
              <polygon points="97.4 82.84 93.47 80.57 91.09 81.94 95.02 84.21 97.4 82.84" style="fill: #ccb885;"/>
              <polygon points="97.81 83.08 95.43 84.45 99.37 86.72 99.37 86.72 103.71 89.22 106.08 87.86 97.81 83.08" style="fill: #bdaa7b;"/>
              <polygon points="108.46 91.97 112.39 94.24 114.76 92.87 110.83 90.6 108.46 91.97" style="fill: #ccb885;"/>
              <polygon points="94.42 84.56 90.48 82.29 88.11 83.66 92.04 85.93 94.42 84.56" style="fill: #bdaa7b;"/>
              <polygon points="89.47 87.89 93.4 90.16 98.76 87.07 94.83 84.8 89.47 87.89" style="fill: #dbc58e;"/>
              <polygon points="100.73 90.95 103.1 89.58 99.17 87.31 96.8 88.68 100.73 90.95" style="fill: #ccb885;"/>
              <polygon points="107.44 92.08 107.44 92.08 110.42 90.36 106.49 88.09 103.51 89.81 103.51 89.81 101.14 91.18 105.07 93.45 107.44 92.08" style="fill: #dbc58e;"/>
              <polygon points="105.48 93.69 109.41 95.96 111.78 94.59 107.85 92.32 105.48 93.69" style="fill: #bdaa7b;"/>
              <polygon points="91.44 86.28 87.5 84.01 85.13 85.38 89.06 87.65 91.44 86.28" style="fill: #ccb885;"/>
              <polygon points="97.75 92.67 100.12 91.3 96.19 89.03 93.81 90.4 97.75 92.67" style="fill: #ccb885;"/>
              <polygon points="106.43 97.68 108.8 96.31 104.87 94.04 104.87 94.04 100.53 91.53 98.16 92.9 102.5 95.41 106.43 97.68" style="fill: #bdaa7b;"/>
              <polygon points="84.52 85.73 82.15 87.11 90.42 91.88 92.8 90.51 88.86 88.24 84.52 85.73" style="fill: #bdaa7b;"/>
              <polygon points="93.21 90.75 90.83 92.12 94.77 94.39 97.14 93.02 93.21 90.75" style="fill: #ccb885;"/>
              <polygon points="101.48 95.53 97.55 93.25 95.18 94.62 99.11 96.89 101.48 95.53" style="fill: #dbc58e;"/>
              <polygon points="85.47 89.73 81.54 87.46 79.17 88.83 83.1 91.1 85.47 89.73" style="fill: #ccb885;"/>
              <polygon points="85.88 89.96 83.51 91.33 87.44 93.6 89.82 92.23 85.88 89.96" style="fill: #ccb885;"/>
              <polygon points="90.23 92.47 84.87 95.56 88.8 97.83 94.16 94.74 90.23 92.47" style="fill: #ccb885;"/>
              <polygon points="96.13 98.62 98.5 97.25 94.57 94.98 92.19 96.35 96.13 98.62" style="fill: #bdaa7b;"/>
              <polygon points="96.54 98.85 100.47 101.12 102.84 99.75 102.84 99.75 105.82 98.03 101.89 95.76 98.91 97.48 98.91 97.48 96.54 98.85" style="fill: #ccb885;"/>
              <polygon points="82.49 91.45 78.56 89.18 76.19 90.55 80.12 92.82 82.49 91.45" style="fill: #dbc58e;"/>
              <polygon points="84.46 95.32 86.83 93.95 82.9 91.68 80.53 93.05 84.46 95.32" style="fill: #bdaa7b;"/>
              <polygon points="93.56 100.57 97.49 102.84 99.86 101.47 95.93 99.2 93.56 100.57" style="fill: #dbc58e;"/>
              <polygon points="79.51 93.17 75.58 90.9 73.21 92.27 77.14 94.54 79.51 93.17" style="fill: #ccb885;"/>
              <polygon points="85.82 99.55 88.2 98.18 79.92 93.4 77.55 94.77 85.82 99.55" style="fill: #dbc58e;"/>
              <polygon points="92.54 100.69 92.54 100.69 95.52 98.97 91.59 96.7 88.61 98.42 88.61 98.42 86.23 99.79 90.16 102.06 92.54 100.69" style="fill: #bdaa7b;"/>
              <polygon points="90.58 102.3 94.51 104.56 96.88 103.19 92.95 100.92 90.58 102.3" style="fill: #ccb885;"/>
              <polygon points="70.23 93.99 74.16 96.26 76.53 94.89 72.6 92.62 70.23 93.99" style="fill: #bdaa7b;"/>
              <polygon points="76.94 95.12 74.57 96.5 78.5 98.76 80.87 97.39 76.94 95.12" style="fill: #ccb885;"/>
              <polygon points="81.28 97.63 78.91 99 82.84 101.27 85.21 99.9 81.28 97.63" style="fill: #dbc58e;"/>
              <polygon points="83.25 101.51 87.59 104.02 87.59 104.02 91.53 106.28 93.9 104.92 92.56 104.14 85.63 100.14 83.25 101.51" style="fill: #bdaa7b;"/>
            </g>
          </g>
          <g>
            <polygon points="91.57 106.57 115.87 92.81 137.66 105.39 113.36 119.16 91.57 106.57" style="fill: #b09f72;"/>
            <g>
              <polygon points="122.17 93.7 118.24 91.44 115.87 92.81 119.8 95.08 122.17 93.7" style="fill: #dbc58e;"/>
              <polygon points="119.19 95.43 115.26 93.16 112.89 94.53 116.82 96.8 119.19 95.43" style="fill: #ccb885;"/>
              <polygon points="119.6 95.66 117.23 97.03 121.16 99.3 121.16 99.3 125.5 101.81 127.88 100.44 119.6 95.66" style="fill: #bdaa7b;"/>
              <polygon points="130.26 104.55 134.19 106.82 136.56 105.45 132.63 103.18 130.26 104.55" style="fill: #ccb885;"/>
              <polygon points="116.21 97.15 112.28 94.88 109.91 96.25 113.84 98.52 116.21 97.15" style="fill: #bdaa7b;"/>
              <polygon points="111.27 100.47 115.2 102.74 120.55 99.65 116.62 97.38 111.27 100.47" style="fill: #dbc58e;"/>
              <polygon points="122.52 103.53 124.9 102.16 120.96 99.89 118.59 101.26 122.52 103.53" style="fill: #ccb885;"/>
              <polygon points="129.24 104.67 129.24 104.67 132.22 102.95 128.29 100.68 125.31 102.4 125.31 102.4 122.93 103.77 126.86 106.04 129.24 104.67" style="fill: #dbc58e;"/>
              <polygon points="127.27 106.27 131.21 108.54 133.58 107.17 129.65 104.9 127.27 106.27" style="fill: #bdaa7b;"/>
              <polygon points="113.23 98.87 109.3 96.6 106.93 97.97 110.86 100.24 113.23 98.87" style="fill: #ccb885;"/>
              <polygon points="119.54 105.25 121.91 103.88 117.98 101.61 115.61 102.98 119.54 105.25" style="fill: #ccb885;"/>
              <polygon points="128.23 110.26 130.6 108.89 126.67 106.62 126.67 106.62 122.32 104.12 119.95 105.49 124.29 108 128.23 110.26" style="fill: #bdaa7b;"/>
              <polygon points="106.32 98.32 103.95 99.69 112.22 104.47 114.59 103.09 110.66 100.83 106.32 98.32" style="fill: #bdaa7b;"/>
              <polygon points="115 103.33 112.63 104.7 116.56 106.97 118.93 105.6 115 103.33" style="fill: #ccb885;"/>
              <polygon points="123.28 108.11 119.34 105.84 116.97 107.21 120.9 109.48 123.28 108.11" style="fill: #dbc58e;"/>
              <polygon points="107.27 102.31 103.34 100.04 100.97 101.41 104.9 103.68 107.27 102.31" style="fill: #ccb885;"/>
              <polygon points="107.68 102.55 105.31 103.92 109.24 106.19 111.61 104.82 107.68 102.55" style="fill: #ccb885;"/>
              <polygon points="112.02 105.05 106.67 108.14 110.6 110.41 115.95 107.32 112.02 105.05" style="fill: #ccb885;"/>
              <polygon points="117.92 111.2 120.29 109.83 116.36 107.56 113.99 108.93 117.92 111.2" style="fill: #bdaa7b;"/>
              <polygon points="118.33 111.44 122.26 113.71 124.64 112.34 124.64 112.34 127.62 110.62 123.69 108.35 120.71 110.07 120.71 110.07 118.33 111.44" style="fill: #ccb885;"/>
              <polygon points="104.29 104.03 100.36 101.76 97.98 103.13 101.92 105.4 104.29 104.03" style="fill: #dbc58e;"/>
              <polygon points="106.26 107.91 108.63 106.54 104.7 104.27 102.33 105.64 106.26 107.91" style="fill: #bdaa7b;"/>
              <polygon points="115.35 113.16 119.28 115.43 121.66 114.06 117.72 111.79 115.35 113.16" style="fill: #dbc58e;"/>
              <polygon points="101.31 105.75 97.38 103.48 95 104.85 98.93 107.12 101.31 105.75" style="fill: #ccb885;"/>
              <polygon points="107.62 112.14 109.99 110.76 101.72 105.99 99.35 107.36 107.62 112.14" style="fill: #dbc58e;"/>
              <polygon points="114.33 113.27 114.33 113.27 117.31 111.55 113.38 109.28 110.4 111 110.4 111 108.03 112.37 111.96 114.64 114.33 113.27" style="fill: #bdaa7b;"/>
              <polygon points="112.37 114.88 116.3 117.15 118.67 115.78 114.74 113.51 112.37 114.88" style="fill: #ccb885;"/>
              <polygon points="92.02 106.57 95.95 108.84 98.33 107.47 94.4 105.2 92.02 106.57" style="fill: #bdaa7b;"/>
              <polygon points="98.74 107.71 96.36 109.08 100.3 111.35 102.67 109.98 98.74 107.71" style="fill: #ccb885;"/>
              <polygon points="103.08 110.22 100.71 111.59 104.64 113.86 107.01 112.49 103.08 110.22" style="fill: #dbc58e;"/>
              <polygon points="105.05 114.09 109.39 116.6 109.39 116.6 113.32 118.87 115.69 117.5 114.36 116.73 107.42 112.72 105.05 114.09" style="fill: #bdaa7b;"/>
            </g>
          </g>
        </g>
        <polygon points="123.35 97.13 137.17 105.1 113.99 117.78 92.6 120.69 123.35 97.13" style="fill: #bdaa7b;"/>
      </g>
      <g>
        <polygon points="92.59 64.53 92.59 120.69 23.65 80.88 17.63 77.4 17.63 21.24 92.59 64.53" style="fill: #ebccd6;"/>
        <g>
          <g>
            <polygon points="38.08 49.72 45.74 51.22 46.23 51.86 46.23 54.79 38.56 50.36 38.08 49.72" style="fill: url(#linear-gradient-3);"/>
            <polygon points="38.08 46.8 45.74 51.22 45.74 54.15 38.08 49.72 38.08 46.8" style="fill: #f0d9e0;"/>
            <polygon points="38.22 47.11 45.74 51.45 45.74 54.15 38.22 49.81 38.22 47.11" style="fill: #e8becf;"/>
            <polygon points="38.22 49.71 38.08 49.72 45.74 54.15 45.74 51.22 45.66 51.4 45.66 54 38.22 49.71" style="fill: #c59aae;"/>
          </g>
          <g>
            <polygon points="32.49 49.56 40.16 51.06 40.64 51.7 40.64 54.62 32.98 50.2 32.49 49.56" style="fill: url(#linear-gradient-4);"/>
            <polygon points="32.49 46.64 40.16 51.06 40.16 53.98 32.49 49.56 32.49 46.64" style="fill: #f0d9e0;"/>
            <polygon points="32.64 46.94 40.16 51.28 40.16 53.98 32.64 49.64 32.64 46.94" style="fill: #ebccd6;"/>
            <polygon points="32.64 49.55 32.49 49.56 40.16 53.98 40.16 51.06 40.07 51.23 40.07 53.84 32.64 49.55" style="fill: #c59aae;"/>
          </g>
          <g>
            <polygon points="36.57 55.09 44.23 56.59 44.71 57.23 44.71 60.15 37.05 55.73 36.57 55.09" style="fill: url(#linear-gradient-5);"/>
            <polygon points="36.57 52.16 44.23 56.59 44.23 59.51 36.57 55.09 36.57 52.16" style="fill: #f0d9e0;"/>
            <polygon points="36.71 52.47 44.23 56.81 44.23 59.51 36.71 55.17 36.71 52.47" style="fill: #ebccd6;"/>
            <polygon points="36.71 55.07 36.57 55.09 44.23 59.51 44.23 56.59 44.14 56.76 44.14 59.37 36.71 55.07" style="fill: #c59aae;"/>
          </g>
        </g>
        <g>
          <g>
            <polygon points="19.98 63.46 27.64 64.96 28.12 65.6 28.12 68.52 20.46 64.1 19.98 63.46" style="fill: url(#linear-gradient-6);"/>
            <polygon points="19.98 60.53 27.64 64.96 27.64 67.88 19.98 63.46 19.98 60.53" style="fill: #f0d9e0;"/>
            <polygon points="20.12 60.84 27.64 65.18 27.64 67.88 20.12 63.54 20.12 60.84" style="fill: #e8becf;"/>
            <polygon points="20.12 63.44 19.98 63.46 27.64 67.88 27.64 64.96 27.55 65.13 27.55 67.74 20.12 63.44" style="fill: #c59aae;"/>
          </g>
          <g>
            <polygon points="17.62 65.16 22.05 64.79 22.53 65.43 22.53 68.36 17.62 65.53 17.62 65.16" style="fill: url(#linear-gradient-7);"/>
            <polygon points="17.62 62.24 22.05 64.79 22.05 67.72 17.62 65.16 17.62 62.24" style="fill: #f0d9e0;"/>
            <polygon points="17.76 62.55 22.05 65.02 22.05 67.72 17.76 65.25 17.76 62.55" style="fill: #e8becf;"/>
            <polygon points="17.76 65.15 17.62 65.16 22.05 67.72 22.05 64.79 21.96 64.97 21.96 67.57 17.76 65.15" style="fill: #c59aae;"/>
          </g>
          <g>
            <polygon points="18.46 68.83 26.12 70.32 26.6 70.96 26.6 73.89 18.94 69.47 18.46 68.83" style="fill: url(#linear-gradient-8);"/>
            <polygon points="18.46 65.9 26.12 70.32 26.12 73.25 18.46 68.83 18.46 65.9" style="fill: #f0d9e0;"/>
            <polygon points="18.6 66.21 26.12 70.55 26.12 73.25 18.6 68.91 18.6 66.21" style="fill: #ebccd6;"/>
            <polygon points="18.6 68.81 18.46 68.83 26.12 73.25 26.12 70.32 26.04 70.5 26.04 73.1 18.6 68.81" style="fill: #c59aae;"/>
          </g>
        </g>
        <g>
          <g>
            <polygon points="83.93 63.88 91.59 65.38 92.07 66.02 92.07 68.94 84.41 64.52 83.93 63.88" style="fill: url(#linear-gradient-9);"/>
            <polygon points="83.93 60.95 91.59 65.38 91.59 68.3 83.93 63.88 83.93 60.95" style="fill: #f0d9e0;"/>
            <polygon points="84.07 61.26 91.59 65.6 91.59 68.3 84.07 63.96 84.07 61.26" style="fill: #e8becf;"/>
            <polygon points="84.07 63.86 83.93 63.88 91.59 68.3 91.59 65.38 91.5 65.56 91.5 68.16 84.07 63.86" style="fill: #c59aae;"/>
          </g>
          <g>
            <polygon points="78.34 63.72 86 65.21 86.48 65.85 86.48 68.78 78.82 64.36 78.34 63.72" style="fill: url(#linear-gradient-10);"/>
            <polygon points="78.34 60.79 86 65.21 86 68.14 78.34 63.72 78.34 60.79" style="fill: #f0d9e0;"/>
            <polygon points="78.48 61.1 86 65.44 86 68.14 78.48 63.8 78.48 61.1" style="fill: #ebccd6;"/>
            <polygon points="78.48 63.7 78.34 63.72 86 68.14 86 65.21 85.91 65.39 85.91 67.99 78.48 63.7" style="fill: #c59aae;"/>
          </g>
          <g>
            <polygon points="82.41 69.25 90.07 70.74 90.55 71.38 90.55 74.31 82.89 69.89 82.41 69.25" style="fill: url(#linear-gradient-11);"/>
            <polygon points="82.41 66.32 90.07 70.74 90.07 73.67 82.41 69.25 82.41 66.32" style="fill: #f0d9e0;"/>
            <polygon points="82.55 66.63 90.07 70.97 90.07 73.67 82.55 69.33 82.55 66.63" style="fill: #ebccd6;"/>
            <polygon points="82.55 69.23 82.41 69.25 90.07 73.67 90.07 70.74 89.98 70.92 89.98 73.52 82.55 69.23" style="fill: #c59aae;"/>
          </g>
        </g>
        <g>
          <g>
            <polygon points="20.77 26.82 28.43 28.31 28.91 28.95 28.91 31.88 21.25 27.46 20.77 26.82" style="fill: url(#linear-gradient-12);"/>
            <polygon points="20.77 23.89 28.43 28.31 28.43 31.24 20.77 26.82 20.77 23.89" style="fill: #f0d9e0;"/>
            <polygon points="20.91 24.2 28.43 28.54 28.43 31.24 20.91 26.9 20.91 24.2" style="fill: #e8becf;"/>
            <polygon points="20.91 26.8 20.77 26.82 28.43 31.24 28.43 28.31 28.35 28.49 28.35 31.09 20.91 26.8" style="fill: #c59aae;"/>
          </g>
          <g>
            <polygon points="23.32 31.35 30.99 32.85 31.47 33.49 31.47 36.42 23.81 31.99 23.32 31.35" style="fill: url(#linear-gradient-13);"/>
            <polygon points="23.32 28.43 30.99 32.85 30.99 35.78 23.32 31.35 23.32 28.43" style="fill: #f0d9e0;"/>
            <polygon points="23.47 28.73 30.99 33.08 30.99 35.78 23.47 31.43 23.47 28.73" style="fill: #ebccd6;"/>
            <polygon points="23.47 31.34 23.32 31.35 30.99 35.78 30.99 32.85 30.9 33.03 30.9 35.63 23.47 31.34" style="fill: #c59aae;"/>
          </g>
          <g>
            <polygon points="17.95 31.43 25.61 32.93 26.09 33.56 26.09 36.49 18.43 32.07 17.95 31.43" style="fill: url(#linear-gradient-14);"/>
            <polygon points="17.95 28.5 25.61 32.93 25.61 35.85 17.95 31.43 17.95 28.5" style="fill: #f0d9e0;"/>
            <polygon points="18.09 28.81 25.61 33.15 25.61 35.85 18.09 31.51 18.09 28.81" style="fill: #e8becf;"/>
            <polygon points="18.09 31.41 17.95 31.43 25.61 35.85 25.61 32.93 25.53 33.1 25.53 35.71 18.09 31.41" style="fill: #c59aae;"/>
          </g>
        </g>
        <g>
          <g>
            <polygon points="72.95 94.58 80.61 96.08 81.09 96.71 81.09 99.64 73.43 95.22 72.95 94.58" style="fill: url(#linear-gradient-15);"/>
            <polygon points="72.95 91.65 80.61 96.08 80.61 99 72.95 94.58 72.95 91.65" style="fill: #f0d9e0;"/>
            <polygon points="73.09 91.96 80.61 96.3 80.61 99 73.09 94.66 73.09 91.96" style="fill: #e8becf;"/>
            <polygon points="73.09 94.56 72.95 94.58 80.61 99 80.61 96.08 80.52 96.25 80.52 98.86 73.09 94.56" style="fill: #c59aae;"/>
          </g>
          <g>
            <polygon points="75.5 99.11 83.16 100.61 83.64 101.25 83.64 104.18 75.98 99.75 75.5 99.11" style="fill: url(#linear-gradient-16);"/>
            <polygon points="75.5 96.19 83.16 100.61 83.16 103.54 75.5 99.11 75.5 96.19" style="fill: #f0d9e0;"/>
            <polygon points="75.64 96.49 83.16 100.84 83.16 103.54 75.64 99.19 75.64 96.49" style="fill: #ebccd6;"/>
            <polygon points="75.64 99.1 75.5 99.11 83.16 103.54 83.16 100.61 83.08 100.79 83.08 103.39 75.64 99.1" style="fill: #c59aae;"/>
          </g>
          <g>
            <polygon points="70.12 99.19 77.78 100.69 78.26 101.33 78.26 104.25 70.6 99.83 70.12 99.19" style="fill: url(#linear-gradient-17);"/>
            <polygon points="70.12 96.26 77.78 100.69 77.78 103.61 70.12 99.19 70.12 96.26" style="fill: #f0d9e0;"/>
            <polygon points="70.26 96.57 77.78 100.91 77.78 103.61 70.26 99.27 70.26 96.57" style="fill: #e8becf;"/>
            <polygon points="70.26 99.17 70.12 99.19 77.78 103.61 77.78 100.69 77.7 100.86 77.7 103.47 70.26 99.17" style="fill: #c59aae;"/>
          </g>
        </g>
      </g>
      <path d="M17.62,72.04l1.84,1.07v-4.1s-1.84-2.58-1.84-2.58v-12.1c.09.03.18.07.27.12l5.76,7.83v18.94s-6.35-3.66-6.35-3.66l-.58-3.61-.43-.25v-2.42s1.33.77,1.33.77Z" style="fill: url(#linear-gradient-18);"/>
      <g>
        <polygon points="17.62 69.68 92.6 112.96 92.6 120.69 17.62 77.4 17.62 69.68" style="fill: #f18875;"/>
        <polygon points="17.62 69.68 92.6 112.96 92.6 113.74 17.62 70.45 17.62 69.68" style="fill: #ffbda4;"/>
        <polygon points="123.94 46.51 92.6 64.53 92.6 120.69 123.94 102.67 123.94 46.51" style="fill: #ba7792;"/>
        <polygon points="123.94 94.94 92.6 112.96 92.6 120.69 123.94 102.67 123.94 94.94" style="fill: #bf5248;"/>
        <polygon points="123.94 94.94 92.6 112.96 92.6 113.74 123.94 95.72 123.94 94.94" style="fill: #f0866d;"/>
        <g>
          <g>
            <polygon points="37.96 89.14 23.71 80.91 23.71 37.75 37.96 45.98 37.96 89.14" style="fill: #796164;"/>
            <polygon points="37.1 80.92 24.57 73.69 24.57 39.65 37.1 46.88 37.1 80.92" style="fill: #e0a053;"/>
            <polygon points="34.24 79.27 27.43 75.34 27.43 41.3 34.24 45.23 34.24 79.27" style="fill: #e7b67a;"/>
            <polygon points="27.43 69.6 34.24 73.53 34.24 74.01 27.43 70.08 27.43 69.6" style="fill: #f3dbbd;"/>
            <polygon points="34.24 73.53 27.43 69.6 27.43 43.18 34.24 47.11 34.24 73.53" style="fill: #528688;"/>
            <polygon points="34.24 48.48 34.24 73.53 28.12 70 28.12 44.95 34.24 48.48" style="fill: #709f9c;"/>
            <polygon points="23.71 37.75 37.96 45.98 37.96 45.7 23.71 37.47 23.71 37.75" style="fill: #ac9d9f;"/>
            <polygon points="24.57 39.65 24.57 73.69 25.98 74.5 25.98 41.7 37.1 48.13 37.1 46.88 24.57 39.65" style="fill: url(#linear-gradient-19);"/>
            <polygon points="34.24 62.61 34.24 73.53 30.39 71.31 28.12 65.36 28.12 47.66 34.24 62.61" style="fill: #2a5355;"/>
          </g>
          <polygon points="37.96 89.14 23.71 80.91 23.71 77.05 37.96 85.28 37.96 89.14" style="fill: #d5cdcd;"/>
          <polygon points="37.96 86.98 23.71 78.75 23.71 77.05 37.96 85.28 37.96 86.98" style="fill: url(#linear-gradient-20);"/>
          <polygon points="37.96 86.29 23.71 78.06 23.71 77.05 37.96 85.28 37.96 86.29" style="fill: #e9e5e5;"/>
          <polygon points="37.96 85.28 23.71 77.05 23.71 73.19 37.96 81.42 37.96 85.28" style="fill: #c4b9b9;"/>
          <polygon points="37.96 83.12 23.71 74.89 23.71 73.19 37.96 81.42 37.96 83.12" style="fill: url(#linear-gradient-21);"/>
          <polygon points="37.96 82.42 23.71 74.19 23.71 73.19 37.96 81.42 37.96 82.42" style="fill: #d4caca;"/>
        </g>
        <polygon points="38.36 82.42 37.96 82.19 37.96 89.14 38.36 89.37 38.36 82.42" style="fill: #ffbda4;"/>
        <polygon points="23.71 73.96 23.31 73.73 23.31 80.69 23.71 80.91 23.71 73.96" style="fill: #ef685b;"/>
      </g>
      <path d="M88.41,112.62v-4.1s-5.85-8.21-5.85-8.21c0-2.58,2.02-7.65,4.27-6.35l5.76,7.83v18.94s-6.35-3.66-6.35-3.66l-.58-3.61-.43-.25v-2.42s3.18,1.83,3.18,1.83h0Z" style="fill: url(#linear-gradient-22);"/>
      <path d="M22.09,33.78c0,1.53,18.56,54.25,20.19,57.86l18.16,10.49s-4.06-11.17-8.62-23.83l27.22,15.71v-12.38c.37.33.78.63,1.22.89,1.51.87,2.73,2.01,2.73.28,0,1.73,1.22,2,2.73,2.87s2.73,1.26,2.73-.47v-4.76s-5.11-15.52-5.11-15.52l-7.7,1-1.62,4.23-.82-1.32,4.68,6.36v1.54s-.35-.2-.35-.2l-5.46-3.15-5.46-3.15-5.46-3.15-5.46-3.15-5.46-3.15v2.38c0,1.73,1.22,2.75,2.73,3.62s2.73,2.01,2.73.28c0,1.73,1.22,2,2.73,2.87s2.73,2.01,2.73.28c0,1.73,1.22,2,2.73,2.87s2.73,2.01,2.73.28c0,1.73,1.22,2,2.73,2.87s2.73,2.01,2.73.28c0,1.73,1.22,2,2.73,2.87,1.51.87,2.73,2.01,2.73.28,0,.56.13,0,.35.47v12.43s-26.43-15.26-26.43-15.26c-.67-1.85.04-10.92-.63-12.8l-1.96-4.99-4.91-2.13c-2.67-7.57-4.59-13.16-4.59-13.62,0,0-3.42-5.62-8.63-8.63-5.22-3.01-8.63-1.34-8.63-1.34Z" style="fill: url(#linear-gradient-23);"/>
      <polygon points="42.14 76.05 42.14 76.05 42.14 90.89 51.19 96.61 51.19 81.04 51.03 80.94 51.03 80.94 50.47 80.62 50.47 80.62 50.47 80.62 50.47 80.86 42.87 76.47 42.87 76.23 42.14 75.81 42.14 75.81 42.14 75.81 42.14 76.05" style="fill: url(#linear-gradient-24);"/>
      <g>
        <polygon points="41.41 55.2 48.86 59.5 48.86 73.96 41.41 69.66 41.41 55.2" style="fill: #eae8e2;"/>
        <polygon points="48.86 59.5 48.64 59.37 48.64 73.83 48.86 73.96 48.86 59.5" style="fill: #a0b9a7;"/>
        <polygon points="41.63 55.33 41.41 55.2 41.41 69.66 41.63 69.78 41.63 55.33" style="fill: #fcfcfb;"/>
        <polygon points="41.41 69.38 48.86 73.68 48.86 73.96 41.41 69.66 41.41 69.38" style="fill: #a0b9a7;"/>
        <polygon points="41.41 55.2 48.86 59.5 48.86 59.78 41.41 55.48 41.41 55.2" style="fill: #fcfcfb;"/>
        <polygon points="42.28 56.6 47.99 59.9 47.99 72.56 42.28 69.26 42.28 56.6" style="fill: #353e44;"/>
        <polygon points="42.87 57.71 47.99 60.67 47.99 72.56 42.87 69.6 42.87 57.71" style="fill: #464f54;"/>
        <polygon points="42.28 68.98 47.99 72.28 47.99 72.56 42.28 69.26 42.28 68.98" style="fill: #fcfcfb;"/>
      </g>
      <g>
        <polygon points="50.6 57.6 77.88 73.36 77.88 92.54 50.6 76.79 50.6 57.6" style="fill: #a86f36;"/>
        <polygon points="50.82 57.73 77.66 73.23 77.66 92.07 50.82 76.58 50.82 57.73" style="fill: #c48e53;"/>
        <polygon points="77.04 74.7 77.04 91.07 51.44 76.29 51.44 59.92 77.04 74.7" style="fill: #528688;"/>
        <polygon points="52.28 61.48 77.04 75.77 77.04 91.07 52.28 76.78 52.28 61.48" style="fill: #709f9c;"/>
        <g>
          <polygon points="62.57 72.1 73.77 78.57 73.77 83.51 62.57 77.05 62.57 72.1" style="fill: #528688;"/>
          <g>
            <polygon points="62.29 71.32 73.48 77.78 73.48 78.08 62.29 71.61 62.29 71.32" style="fill: #b4d6ca;"/>
            <polygon points="62.29 71.61 73.48 78.08 73.48 83.02 62.29 76.56 62.29 71.61" style="fill: #a8cfc2;"/>
            <g>
              <path d="M70.62,77.85c.21-.13.44-.11.71.04.24.14.46.37.66.69.24.4.36.79.36,1.2s-.12.66-.36.78c-.2.09-.42.07-.66-.07-.27-.16-.51-.42-.71-.78-.21-.37-.31-.73-.31-1.1,0-.37.1-.62.31-.75ZM70.88,79.56c.13.24.29.41.46.51.17.1.32.1.46.01.13-.09.2-.26.2-.51,0-.25-.07-.5-.2-.75-.13-.24-.29-.41-.46-.51-.17-.1-.32-.1-.46-.01-.13.09-.2.26-.2.51,0,.25.07.5.2.75Z" style="fill: #deede7;"/>
              <path d="M69.02,78.24c-.15-.09-.26-.17-.35-.26-.09-.09-.18-.2-.26-.33-.09-.13-.15-.25-.18-.35-.05-.14-.07-.27-.07-.39,0-.22.07-.37.22-.44s.34-.04.59.11l.84.48c.09.05.15.11.19.17.04.06.06.12.06.18,0,.06-.02.1-.06.12-.04.02-.1,0-.19-.05l-.06-.03v1.64s.06.03.06.03c.09.05.15.1.19.17s.06.12.06.18-.02.1-.06.12c-.04.02-.1,0-.19-.05l-.79-.46c-.09-.05-.15-.11-.19-.17-.04-.06-.06-.12-.06-.18s.02-.1.06-.12c.04-.02.1,0,.19.05l.37.21v-.43s-.35-.2-.35-.2ZM69.36,77.23l-.42-.24c-.14-.08-.25-.11-.32-.08s-.11.09-.11.19.05.24.14.38c.09.14.22.25.38.34l.34.2v-.79Z" style="fill: #deede7;"/>
              <path d="M67.02,76.9c0,.11,0,.18-.03.2-.04.04-.09.05-.16,0-.06-.04-.11-.1-.15-.18-.02-.04-.03-.11-.03-.2v-.48c0-.1.02-.16.05-.19.03-.02.08-.02.13.01.07.04.12.1.16.19.02.04.03.12.03.23l.32.18v-.6s-.85-.49-.85-.49v.22c0,.1-.02.16-.05.18-.03.02-.08.02-.13-.01-.06-.03-.1-.08-.13-.14-.03-.06-.05-.14-.05-.24v-.64s1.64.94,1.64.94c.09.05.15.11.19.17.04.06.06.12.06.18s-.02.1-.06.12c-.04.02-.1,0-.19-.05l-.06-.03v1.64s.06.03.06.03c.09.05.15.1.19.17s.06.12.06.18-.02.1-.06.12c-.04.02-.1,0-.19-.05l-1.71-.99v-.64c0-.1.02-.16.05-.19s.08-.02.13.01c.05.03.1.08.13.14.03.06.05.14.05.24v.23s.93.54.93.54v-.61s-.32-.18-.32-.18Z" style="fill: #deede7;"/>
              <path d="M64.3,76.37l-.36-.21v-2.05c-.08-.04-.13-.1-.17-.16s-.06-.12-.06-.18.02-.1.06-.12c.04-.02.1,0,.19.05l.48.27c.09.05.15.11.19.17.04.06.06.12.06.18s-.02.1-.06.12c-.04.02-.1,0-.19-.05l-.13-.08v1.26s.93-1.14.93-1.14l.42.24c.09.05.15.11.19.17.04.06.06.12.06.18s-.02.1-.06.12c-.04.02-.1,0-.19-.05l-.06-.03v1.64c.08.04.13.1.17.16s.06.12.06.18-.02.1-.06.12c-.04.02-.1,0-.19-.05l-.48-.28c-.09-.05-.15-.11-.19-.17-.04-.06-.06-.12-.06-.18s.02-.1.06-.12c.04-.02.1,0,.19.05l.13.08v-1.26s-.94,1.14-.94,1.14Z" style="fill: #deede7;"/>
            </g>
          </g>
        </g>
        <polygon points="68.49 72.21 75.84 90.38 66.65 85.07 59.3 66.9 68.49 72.21" style="fill: #2a5355;"/>
        <polygon points="54.93 64.37 62.28 82.55 57.7 79.9 51.44 64.59 51.44 62.36 54.93 64.37" style="fill: #2a5355;"/>
        <path d="M77.05,76.23v3.92c-.49.08-1.16-.15-1.89-.58-1.51-.87-2.73-1.14-2.73-2.87,0,1.73-1.22.59-2.73-.28-1.51-.87-2.73-1.14-2.73-2.87,0,1.73-1.22.59-2.73-.28-.75-.44-1.44-.99-1.93-1.65s-.8-.35-.8-1.22c0,1.73-1.22.59-2.73-.28-.75-.44-1.43-.99-1.93-1.65s-.8-.35-.8-1.22c0,1.73-1.22.59-2.73-.28-.73-.42-1.4-.96-1.89-1.6v-3.92s25.61,14.78,25.61,14.78Z" style="fill: #528688;"/>
        <polygon points="51.44 76.29 77.04 91.07 77.04 90.73 51.44 75.95 51.44 76.29" style="fill: #d6b087;"/>
      </g>
      <g>
        <g>
          <path d="M72.43,74.35v-1.16s5.46,3.15,5.46,3.15v1.16c0,1.73-1.22,2.43-2.73,1.56h0c-1.51-.87-2.73-2.98-2.73-4.71Z" style="fill: #ffa647;"/>
          <path d="M66.97,70.7v-.65s5.46,3.15,5.46,3.15v.65c0,2.01-1.22,2.93-2.73,2.06h0c-1.51-.87-2.73-3.21-2.73-5.21Z" style="fill: #ffdea9;"/>
          <path d="M61.51,68.05v-1.16s5.46,3.15,5.46,3.15v1.16c0,1.73-1.22,2.43-2.73,1.56h0c-1.51-.87-2.73-2.98-2.73-4.71Z" style="fill: #ffa647;"/>
          <path d="M56.05,64.9v-1.16s5.46,3.15,5.46,3.15v1.16c0,1.73-1.22,2.43-2.73,1.56h0c-1.51-.87-2.73-2.98-2.73-4.71Z" style="fill: #ffdea9;"/>
          <path d="M50.59,61.75v-1.16s5.46,3.15,5.46,3.15v1.16c0,1.73-1.22,2.43-2.73,1.56h0c-1.51-.87-2.73-2.98-2.73-4.71Z" style="fill: #ffa647;"/>
          <path d="M45.14,58.6v-1.16s5.46,3.15,5.46,3.15v1.16c0,1.73-1.22,2.43-2.73,1.56h0c-1.51-.87-2.73-2.98-2.73-4.71Z" style="fill: #ffdea9;"/>
          <path d="M39.68,54.94v-.65s5.46,3.15,5.46,3.15v.65c0,2.01-1.22,2.93-2.73,2.06h0c-1.51-.87-2.73-3.2-2.73-5.21Z" style="fill: #ffa647;"/>
        </g>
        <g>
          <polygon points="77.88 61.77 83.34 64.92 77.88 76.34 72.43 73.19 77.88 61.77" style="fill: #ffdea9;"/>
          <polygon points="72.43 58.62 77.88 61.77 72.43 73.19 66.97 70.04 72.43 58.62" style="fill: #fff;"/>
          <polygon points="66.97 55.47 72.43 58.62 66.97 70.04 61.51 66.89 66.97 55.47" style="fill: #ffdea9;"/>
          <polygon points="61.51 52.32 66.97 55.47 61.51 66.89 56.05 63.74 61.51 52.32" style="fill: #fff;"/>
          <polygon points="56.05 49.17 61.51 52.32 56.05 63.74 50.6 60.59 56.05 49.17" style="fill: #ffdea9;"/>
          <polygon points="50.6 46.01 56.05 49.17 50.6 60.59 45.14 57.44 50.6 46.01" style="fill: #fff;"/>
          <polygon points="45.14 42.86 50.6 46.01 45.14 57.44 39.68 54.29 45.14 42.86" style="fill: #ffdea9;"/>
        </g>
      </g>
      <path d="M22.55,34.57c4.4-2.91,11.88,2.22,16.36,9.44.18-.1.27-.16.46-.26-4.73-7.63-12.62-13.04-17.27-9.97.18.31.27.47.46.79Z" style="fill: #796164;"/>
      <g>
        <polygon points="47.03 79.9 39.43 75.51 39.43 90.61 47.03 95 47.03 79.9" style="fill: #eae8e2;"/>
        <polygon points="47.03 79.9 39.43 75.51 39.43 75.78 47.03 80.17 47.03 79.9" style="fill: #fcfcfb;"/>
        <polygon points="46.52 80.4 39.94 76.61 39.94 90.1 46.52 93.9 46.52 80.4" style="fill: #2e2c38;"/>
        <polygon points="46.52 81.18 40.53 77.72 40.53 90.44 46.52 93.9 46.52 81.18" style="fill: #3b3944;"/>
        <polygon points="46.52 93.63 39.94 89.83 39.94 90.1 46.52 93.9 46.52 93.63" style="fill: #fcfcfb;"/>
        <polygon points="47.03 94.86 39.43 90.47 39.43 90.74 47.03 95.13 47.03 94.86" style="fill: #a59c82;"/>
        <polygon points="47.03 98.51 47.76 98.93 47.76 80.08 47.03 79.66 47.03 98.51" style="fill: #ccc7b8;"/>
        <polygon points="47.59 98.83 47.76 98.93 47.76 80.08 47.59 79.98 47.59 98.83" style="fill: #afa78f;"/>
        <polygon points="38.7 93.7 39.43 94.12 39.43 75.27 38.7 74.85 38.7 93.7" style="fill: #ccc7b8;"/>
        <polygon points="39.26 94.03 39.43 94.12 39.43 75.27 39.26 75.18 39.26 94.03" style="fill: #afa78f;"/>
        <polygon points="47.03 79.9 47.76 80.32 47.76 80.08 47.03 79.66 47.03 79.9" style="fill: #eae8e2;"/>
        <polygon points="38.7 75.09 39.43 75.51 39.43 75.27 38.7 74.85 38.7 75.09" style="fill: #eae8e2;"/>
        <polygon points="41.88 79.33 44.91 81.08 44.91 81.63 41.88 79.88 41.88 79.33" style="fill: #fcfcfb;"/>
        <g>
          <polygon points="41.61 81.27 46.01 83.81 46.01 84.17 41.61 81.63 41.61 81.27" style="fill: #fcfcfb;"/>
          <polygon points="42.87 82.86 46.01 84.68 46.01 84.94 42.87 83.12 42.87 82.86" style="fill: #c9c9b7;"/>
        </g>
        <g>
          <polygon points="41.61 83.87 46.01 86.41 46.01 86.77 41.61 84.23 41.61 83.87" style="fill: #fcfcfb;"/>
          <polygon points="42.87 85.46 46.01 87.28 46.01 87.54 42.87 85.72 42.87 85.46" style="fill: #c9c9b7;"/>
        </g>
        <g>
          <polygon points="41.61 86.47 46.01 89.01 46.01 89.37 41.61 86.83 41.61 86.47" style="fill: #fcfcfb;"/>
          <polygon points="42.87 88.06 46.01 89.88 46.01 90.14 42.87 88.32 42.87 88.06" style="fill: #c9c9b7;"/>
        </g>
      </g>
      <g>
        <polygon points="16.29 23.5 92.51 67.44 92.51 63.25 16.29 19.31 16.29 23.5" style="fill: #d1d1d2;"/>
        <polygon points="92.51 63.26 92.51 67.44 126.07 48.13 126.07 43.94 92.51 63.26" style="fill: #696a6c;"/>
        <polygon points="16.29 19.31 92.51 63.25 126.07 43.94 49.85 0 16.29 19.31" style="fill: #efefef;"/>
        <polygon points="92.51 61.55 19.26 19.32 49.85 1.71 123.11 43.94 92.51 61.55" style="fill: #8a9fa0;"/>
        <polygon points="49.85 1.71 19.26 19.32 21.77 20.76 49.85 4.6 49.85 1.71" style="fill: #a3a3a3;"/>
        <polygon points="120.6 45.38 123.11 43.94 49.85 1.71 49.85 4.6 120.6 45.38" style="fill: #ccc;"/>
        <polygon points="19.26 19.32 92.51 61.55 93.79 60.81 23.95 20.51 50.72 5.09 49.85 1.71 19.26 19.32" style="fill: #d1d1d1;"/>
      </g>
      <g>
        <g>
          <path d="M72.26,95.16c0-2.68.79-4.32,1.8-3.73,1.01.58,1.8,3.13,1.8,5.81s-.79,4.32-1.8,3.73-1.8-3.13-1.8-5.81ZM72.53,95.31c0,2.42.7,4.86,1.52,5.34.83.48,1.52-1.16,1.52-3.58s-.7-4.86-1.52-5.34c-.83-.48-1.52,1.16-1.52,3.58Z" style="fill: #796158;"/>
          <path d="M71.42,100.83c-.08-.33-2.18-8.79-.24-10.77.63-.64,1.6-.59,2.87.15,1.27.74,2.24,1.8,2.86,3.16,1.93,4.21-.07,9.8-.16,10.04l-.04.11-5.25-2.52-.04-.16ZM76.63,93.42c-.55-1.21-1.42-2.16-2.57-2.82-1.16-.67-2.03-.72-2.59-.15-1.69,1.72-.02,9.15.25,10.28l4.75,2.23c.27-.82,1.84-5.86.17-9.53Z" style="fill: #796158;"/>
          <path d="M72.28,101.3c-.06-.34-1.7-8.85.06-10.41.42-.37,1-.35,1.71.06.71.41,1.28,1.05,1.7,1.91,1.75,3.58.23,9.76.16,10.02l-.03.1-3.58-1.55-.03-.13ZM75.54,92.93c-.37-.76-.85-1.3-1.49-1.66-.63-.37-1.12-.38-1.49-.05-1.56,1.38-.39,8.37-.2,9.43l3.31,1.91c.19-.84,1.41-6.45-.14-9.62Z" style="fill: #796158;"/>
          <polygon points="72.9 105.25 76.49 107.32 76.49 107.65 72.9 105.58 72.9 105.25" style="fill: #796158;"/>
          <polygon points="68.23 107.84 72.02 110.03 72.02 110.38 68.23 108.19 68.23 107.84" style="fill: #796158;"/>
          <polygon points="72.84 105.27 68.22 107.93 68.22 108.26 72.84 105.6 72.84 105.27" style="fill: #796158;"/>
          <polygon points="76.49 107.3 71.95 109.87 71.95 110.22 76.49 107.65 76.49 107.3" style="fill: #796158;"/>
          <polygon points="68.08 103.26 68.35 103.42 68.35 114.02 68.08 113.87 68.08 103.26" style="fill: #796158;"/>
          <polygon points="71.82 105.42 72.09 105.58 72.09 116.18 71.82 116.02 71.82 105.42" style="fill: #796158;"/>
          <polygon points="72.71 100.73 72.97 100.89 72.97 111.49 72.71 111.33 72.71 100.73" style="fill: #796158;"/>
          <polygon points="76.44 102.89 76.71 103.05 76.71 113.65 76.44 113.49 76.44 102.89" style="fill: #796158;"/>
        </g>
        <g>
          <path d="M67.54,103.28v.83c-.02.72.43,1.44,1.37,1.98,1.84,1.06,4.83,1.06,6.68-.01.99-.57,1.44-1.33,1.37-2.08h.02s0-.83,0-.83h-1.29s-.05-.03-.08-.04c-1.84-1.06-4.83-1.06-6.68.01-.07.04-.12.09-.18.13h-1.21Z" style="fill: #e03936;"/>
          <path d="M68.93,101.35c1.85-1.07,4.84-1.07,6.68-.01s1.83,2.79-.02,3.86-4.84,1.07-6.68.01c-1.84-1.06-1.83-2.79.02-3.86Z" style="fill: #e65f5c;"/>
        </g>
      </g>
      <g>
        <path d="M55.54,94.04l-4.89,3.46-.04-.11c-.09-.24-2.44-6.77-.52-10.98.62-1.36,1.58-2.42,2.86-3.16,1.28-.74,2.24-.79,2.87-.15,1.94,1.98-.15,10.44-.24,10.77l-.04.16ZM50.9,96.96l4.39-3.17c.27-1.13,1.94-8.55.25-10.28-.56-.57-1.43-.52-2.59.15-1.15.67-2.02,1.62-2.57,2.82-1.68,3.67.25,9.66.52,10.48Z" style="fill: #796158;"/>
        <path d="M52.95,94.02c-1.01.58-1.8-1.06-1.8-3.73s.79-5.23,1.8-5.81c1.01-.58,1.8,1.06,1.8,3.73s-.79,5.23-1.8,5.81ZM52.95,84.79c-.83.48-1.52,2.92-1.52,5.34s.7,4.06,1.52,3.58,1.52-2.92,1.52-5.34-.7-4.05-1.52-3.58Z" style="fill: #796158;"/>
        <path d="M54.7,94.49l-3.58,1.55-.03-.1c-.07-.26-1.59-6.44.16-10.02.42-.86.99-1.5,1.7-1.91s1.29-.43,1.71-.06c1.76,1.56.12,10.07.06,10.41l-.03.13ZM51.33,95.6l3.31-1.91c.19-1.06,1.36-8.05-.2-9.43-.37-.33-.86-.31-1.49.05-.63.37-1.12.91-1.49,1.66-1.55,3.17-.33,8.79-.14,9.62Z" style="fill: #796158;"/>
        <g>
          <polygon points="54.75 98.64 51.15 100.72 51.15 101.05 54.75 98.97 54.75 98.64" style="fill: #796158;"/>
          <polygon points="59.41 101.24 55.63 103.42 55.63 103.77 59.41 101.58 59.41 101.24" style="fill: #796158;"/>
          <polygon points="54.81 98.66 59.43 101.32 59.43 101.65 54.81 98.99 54.81 98.66" style="fill: #796158;"/>
          <polygon points="51.15 100.7 55.7 103.27 55.7 103.61 51.15 101.05 51.15 100.7" style="fill: #796158;"/>
          <polygon points="59.57 96.66 59.3 96.81 59.3 107.42 59.57 107.26 59.57 96.66" style="fill: #796158;"/>
          <polygon points="55.83 98.81 55.56 98.97 55.56 109.57 55.83 109.42 55.83 98.81" style="fill: #796158;"/>
          <polygon points="54.94 94.13 54.67 94.28 54.67 104.88 54.94 104.73 54.94 94.13" style="fill: #796158;"/>
          <polygon points="51.21 96.28 50.94 96.44 50.94 107.04 51.21 106.89 51.21 96.28" style="fill: #796158;"/>
        </g>
        <g>
          <path d="M50.61,96.66v.83c-.02.72.43,1.44,1.37,1.98,1.84,1.06,4.83,1.06,6.68-.01.99-.57,1.44-1.33,1.37-2.08h.02s0-.83,0-.83h-1.29s-.05-.03-.08-.04c-1.84-1.06-4.83-1.06-6.68.01-.07.04-.12.09-.18.13h-1.21Z" style="fill: #e03936;"/>
          <path d="M52,94.74c1.85-1.07,4.84-1.07,6.68-.01s1.83,2.79-.02,3.86-4.84,1.07-6.68.01c-1.84-1.06-1.83-2.79.02-3.86Z" style="fill: #e65f5c;"/>
        </g>
      </g>
      <g>
        <g>
          <polygon points="63.28 105.72 64.78 106.58 64.78 107.22 63.28 106.36 63.28 105.72" style="fill: #796158;"/>
          <polygon points="63.7 106.55 64.36 106.93 64.53 93.66 63.53 93.09 63.7 106.55" style="fill: #796158;"/>
          <path d="M63.88,106.38l.31.18c0,.11.03,2.71,3.09,4.47.12.06.39.14.44.03.04-.08-.02-.27-.16-.55l.24-.09c.22.44.3.75.21.93-.14.3-.64.06-.71.03-3.37-1.94-3.4-4.97-3.4-5Z" style="fill: #796158;"/>
          <path d="M60.77,107.68c-.06-.04-.56-.38-.7-.84-.08-.28-.01-.51.21-.69l.24.36c-.14.11-.2.24-.16.36.05.18.32.4.43.47,3.05,1.76,3.1-.79,3.1-.9l.31.18s-.04,3.01-3.42,1.06c0,0,0,0,0,0Z" style="fill: #796158;"/>
          <path d="M64.33,106.34l-.31.18c0,.11-.03,2.71-3.09,4.47-.12.06-.39.14-.44.03-.03-.08.02-.27.16-.55l-.24-.09c-.22.44-.29.75-.21.93.14.3.64.06.71.03,3.37-1.94,3.4-4.97,3.4-5Z" style="fill: #796158;"/>
          <path d="M67.44,107.64c.06-.04.56-.38.7-.84.08-.28.01-.51-.21-.69l-.24.36c.14.11.2.24.16.36-.05.18-.32.4-.43.47-3.05,1.76-3.1-.79-3.1-.9l-.31.18s.04,3.01,3.42,1.06h0Z" style="fill: #796158;"/>
        </g>
        <g>
          <path d="M57.71,93.9l.02,1.11c-.04.96.56,1.92,1.82,2.65,2.46,1.42,6.46,1.41,8.93-.02,1.33-.77,1.92-1.78,1.83-2.78h.03s0-1.11,0-1.11l-1.72.02s-.07-.06-.11-.08c-2.46-1.42-6.46-1.41-8.93.02-.09.05-.16.12-.24.17l-1.62.02h0Z" style="fill: #bd7c38;"/>
          <path d="M59.58,91.33c2.47-1.43,6.47-1.44,8.93-.02,2.46,1.42,2.45,3.73-.03,5.16-2.47,1.43-6.47,1.44-8.93.02-2.46-1.42-2.45-3.73.03-5.16Z" style="fill: #e7b67a;"/>
        </g>
      </g>
      <g>
        <path d="M81.7,114.5l.59,3.73c-.02.39.23.78.75,1.08,1.01.58,2.64.58,3.65,0,.54-.31.8-.66.76-1.06v-.07l.38-3.21h-.7s-.03-.02-.05-.03c-1-.58-3.6-1.1-4.62-.51-.04.02-.06.05-.1.07h-.66Z" style="fill: #e0e0e3;"/>
        <path d="M82.37,114.5h-.66s.27,1.7.27,1.7c.14.14.31.28.52.4,1.31.75,3.43.75,4.74,0,.17-.1.32-.2.44-.3l.15-1.32h-.7s-.03-.02-.05-.03c-1-.58-3.61-1.1-4.62-.51-.04.02-.06.05-.1.07Z" style="fill: url(#linear-gradient-25);"/>
        <g>
          <path d="M81.52,113.02v1.19c-.01.51.3,1.02.97,1.41,1.31.75,3.43.75,4.74,0,.7-.41,1.04-.85.99-1.38v-1.29s-.91.01-.91.01c-.02-.01-.04-.03-.06-.04-1.31-.75-3.43-.75-4.74,0-.05.03-.08.06-.13.09h-.86Z" style="fill: #eaeaed;"/>
          <path d="M82.51,111.66c1.31-.76,3.43-.76,4.74,0,1.3.75,1.3,1.98-.01,2.74-1.31.76-3.43.76-4.74,0s-1.3-1.98.01-2.74Z" style="fill: #f4f4f7;"/>
          <path d="M82.9,111.89s0,0,.01,0c.01,0,.02-.01.03-.02,1.06-.6,2.76-.61,3.83-.03.03.01.05.03.08.04.33.19.56.42.69.66.19.34.17.71-.06,1.05-.14.21-.35.4-.64.57-.07.04-.14.07-.21.1-.98.47-2.36.49-3.38.07-.03-.01-.06-.02-.09-.04-.09-.04-.18-.08-.27-.13-1.08-.63-1.08-1.64,0-2.27Z" style="fill: #77512c;"/>
          <g>
            <polygon points="85.15 96.59 84.59 96.26 84.59 113.33 85.15 113.66 85.15 96.59" style="fill: #b97933;"/>
            <path d="M84.87,92.62c2.28.78,4.12,3.5,4.12,6.07s-1.85,4.04-4.12,3.26-4.12-3.5-4.12-6.07,1.85-4.04,4.12-3.26Z" style="fill: #a7bb2a;"/>
            <path d="M84.54,92.5c2.09.71,3.79,3.11,3.79,5.35s-1.7,3.48-3.79,2.77c-2.09-.71-3.79-3.11-3.79-5.35s1.7-3.48,3.79-2.77Z" style="fill: #bfd438;"/>
            <path d="M83.09,92.98c1.06-.24,2.23.38,2.62,1.38.38,1-.17,2.01-1.23,2.25-1.06.24-2.23-.38-2.62-1.38-.38-1,.17-2.01,1.23-2.25Z" style="fill: #c6e54b;"/>
          </g>
        </g>
      </g>
      <g>
        <path d="M12.26,75.4l.59,3.73c-.02.39.23.78.74,1.08,1.01.58,2.64.58,3.65,0,.54-.31.8-.65.76-1.06v-.07l.38-3.21h-.7s-.03-.02-.05-.03c-1.01-.58-3.61-1.1-4.62-.51-.04.02-.07.05-.1.07h-.66Z" style="fill: #e0e0e3;"/>
        <path d="M12.92,75.4h-.66s.27,1.7.27,1.7c.14.14.31.28.52.4,1.3.75,3.43.75,4.74,0,.17-.1.32-.2.44-.3l.16-1.32h-.7s-.03-.02-.05-.03c-1.01-.58-3.61-1.1-4.62-.51-.04.02-.07.05-.1.07Z" style="fill: url(#linear-gradient-26);"/>
        <g>
          <path d="M12.07,73.92v1.19c-.01.51.3,1.02.97,1.41,1.3.75,3.43.75,4.74,0,.7-.41,1.04-.85.99-1.38v-1.29s-.91.01-.91.01c-.02-.01-.04-.03-.06-.04-1.3-.75-3.43-.75-4.74,0-.05.03-.08.06-.13.09h-.86Z" style="fill: #eaeaed;"/>
          <path d="M13.06,72.55c1.31-.76,3.43-.76,4.74,0,1.3.75,1.3,1.98-.01,2.74s-3.43.76-4.74,0c-1.3-.75-1.3-1.98.01-2.74Z" style="fill: #f4f4f7;"/>
          <path d="M13.45,72.79s0,0,0,0c0,0,.02-.01.03-.02,1.06-.6,2.76-.61,3.84-.03.03.01.05.03.08.04.33.19.56.42.69.66.19.34.17.71-.06,1.05-.14.21-.35.4-.64.57-.07.04-.13.07-.21.1-.98.47-2.36.49-3.38.07-.03-.01-.06-.02-.09-.04-.09-.04-.18-.08-.27-.13-1.08-.63-1.08-1.64,0-2.27Z" style="fill: #77512c;"/>
          <g>
            <polygon points="15.71 57.49 15.14 57.16 15.14 74.23 15.71 74.56 15.71 57.49" style="fill: #b97933;"/>
            <path d="M15.43,53.52c2.28.78,4.12,3.5,4.12,6.07s-1.85,4.04-4.12,3.26-4.12-3.5-4.12-6.07,1.85-4.04,4.12-3.26Z" style="fill: #a7bb2a;"/>
            <path d="M15.09,53.4c2.09.71,3.79,3.11,3.79,5.35s-1.7,3.48-3.79,2.77c-2.09-.71-3.79-3.11-3.79-5.35s1.7-3.48,3.79-2.77Z" style="fill: #bfd438;"/>
            <path d="M13.64,53.87c1.06-.24,2.23.38,2.62,1.38.38,1-.17,2.01-1.23,2.25s-2.23-.38-2.62-1.38c-.39-1,.16-2.01,1.23-2.25Z" style="fill: #c6e54b;"/>
          </g>
        </g>
      </g>
      <g>
        <polygon points="118.55 62.76 98.37 74.52 98.37 101.25 118.55 89.48 118.55 62.76" style="fill: #734c25;"/>
        <polygon points="118.32 62.89 98.6 74.39 98.6 100.78 118.32 89.27 118.32 62.89" style="fill: #8f673c;"/>
        <polygon points="99.21 75.86 99.21 99.78 117.71 88.98 117.71 65.07 99.21 75.86" style="fill: #325253;"/>
        <polygon points="116.86 66.63 99.21 76.94 99.21 99.78 116.86 89.47 116.86 66.63" style="fill: #4a6a68;"/>
        <path d="M99.21,77.4v3.92c.49.08,1.16-.15,1.89-.58,1.51-.87,2.73-1.14,2.73-2.87,0,1.73,1.22.59,2.73-.28s2.73-1.14,2.73-2.87c0,1.73,1.22.59,2.73-.28.75-.44,1.44-.99,1.93-1.65.49-.66.8-.35.8-1.22,0,1.73,2.47-.25,2.97-.91.49-.66-4.62,2.62-4.62,1.75,0,1.73,1.22.59,2.73-.28.73-.42,1.4-.96,1.89-1.6v-3.92s-18.5,10.8-18.5,10.8Z" style="fill: #325253;"/>
        <polygon points="117.71 88.98 99.21 99.78 99.21 99.44 117.71 88.64 117.71 88.98" style="fill: #a18465;"/>
      </g>
      <g>
        <g>
          <path d="M105.27,75.6v-1.16s-5.46,3.15-5.46,3.15v1.16c0,1.73,1.22,2.43,2.73,1.56h0c1.51-.87,2.73-2.98,2.73-4.71Z" style="fill: #ffa647;"/>
          <path d="M110.73,71.94v-.65s-5.46,3.15-5.46,3.15v.65c0,2.01,1.22,2.93,2.73,2.06h0c1.51-.87,2.73-3.21,2.73-5.21Z" style="fill: #ffdea9;"/>
          <path d="M116.19,69.3v-1.16s-5.46,3.15-5.46,3.15v1.16c0,1.73,1.22,2.43,2.73,1.56h0c1.51-.87,2.73-2.98,2.73-4.71Z" style="fill: #ffa647;"/>
          <path d="M121.65,66.15v-1.16s-5.46,3.15-5.46,3.15v1.16c0,1.73,1.22,2.43,2.73,1.56h0c1.51-.87,2.73-2.98,2.73-4.71Z" style="fill: #ffdea9;"/>
          <path d="M127.1,63v-1.16s-5.46,3.15-5.46,3.15v1.16c0,1.73,1.22,2.43,2.73,1.56h0c1.51-.87,2.73-2.98,2.73-4.71Z" style="fill: #ffa647;"/>
        </g>
        <g>
          <polygon points="99.81 63.02 94.36 66.17 99.81 77.59 105.27 74.44 99.81 63.02" style="fill: #ffdea9;"/>
          <polygon points="105.27 59.87 99.81 63.02 105.27 74.44 110.73 71.29 105.27 59.87" style="fill: #fff;"/>
          <polygon points="110.73 56.72 105.27 59.87 110.73 71.29 116.19 68.14 110.73 56.72" style="fill: #ffdea9;"/>
          <polygon points="116.19 53.56 110.73 56.72 116.19 68.14 121.65 64.99 116.19 53.56" style="fill: #fff;"/>
          <polygon points="121.65 50.41 116.19 53.56 121.65 64.99 127.1 61.84 121.65 50.41" style="fill: #ffdea9;"/>
        </g>
      </g>
    </g>
  </g>
</svg>