<?xml version="1.0" encoding="UTF-8"?>
<svg id="Layer_2" data-name="Layer 2" xmlns="http://www.w3.org/2000/svg" width="251.52" height="200.35" viewBox="0 0 251.52 200.35">
  <g id="OBJECTS">
    <g>
      <polygon points="156.72 200.35 0 109.75 94.79 55.02 251.52 145.62 156.72 200.35" style="fill: #b5b5b5;"/>
      <polygon points="159.42 194.31 233.09 151.78 224.55 146.84 150.88 189.38 159.42 194.31" style="fill: #afe6c3;"/>
      <polygon points="21.4 112.87 95.07 70.33 86.53 65.4 12.86 107.94 21.4 112.87" style="fill: #afe6c3;"/>
      <g>
        <path d="M25.67,86.34c.02-.22-.09-.44-.37-.59-.55-.32-1.52-.28-2.16.09-.43.25-.58.58-.47.87h-.02v3.08c0,.05,0,.1,0,.15v4.57c0,.05,0,.1,0,.15v.04s0,.06,0,.08c0,.05,0,.09,0,.14v7.85c-.02.08-.01.15,0,.22v3.13c-.02.08-.01.15,0,.22v.09h.02c.05.13.14.26.32.36.55.32,1.52.28,2.16-.09.37-.22.53-.49.5-.75h.02s0-8.19,0-8.19c0,0,0,0,0,0h0s0,0,0,0c0,0,0,0,0,0v-3.35s0,0,0,0h0s0,0,0,0c0,0,0,0,0,0v-4.7s0,0,0,0h0s0,0,0,0c0,0,0,0,0,0v-3.34s0,0,0,0h0s0,0,0,0Z" style="fill: #694747;"/>
        <polygon points="14.77 89.11 24.2 62.49 23.52 94.17 14.77 89.11" style="fill: #3dc47e;"/>
        <polygon points="24.2 62.49 33.63 88.33 23.52 94.17 24.2 62.49" style="fill: #009246;"/>
      </g>
      <g>
        <g>
          <polygon points="29.97 19.22 63.27 38.44 63.27 134.54 29.97 115.32 29.97 19.22" style="fill: #70a4e4;"/>
          <polygon points="96.56 19.22 63.27 38.44 63.27 134.54 96.56 115.32 96.56 19.22" style="fill: #3a74ba;"/>
          <polygon points="29.97 19.22 63.27 0 96.56 19.22 63.27 38.44 29.97 19.22" style="fill: #accffa;"/>
        </g>
        <polygon points="163.14 115.32 79.91 67.27 79.91 124.93 163.14 172.98 163.14 115.32" style="fill: #fff;"/>
        <polygon points="163.14 115.32 213.07 86.49 213.07 144.15 163.14 172.98 163.14 115.32" style="fill: #dae1e8;"/>
        <g>
          <polygon points="45.82 42.17 47.82 41.01 53.97 44.56 51.96 45.72 45.82 42.17" style="fill: #fff7ee;"/>
          <polygon points="51.96 72.31 53.97 71.15 53.97 44.56 51.96 45.72 51.96 72.31" style="fill: #d6b774;"/>
          <polygon points="45.82 42.17 45.82 68.76 51.96 72.31 51.96 45.72 45.82 42.17" style="fill: #ffe3a8;"/>
        </g>
        <g>
          <polygon points="36.75 63.52 42.9 67.08 42.9 40.48 36.75 36.93 36.75 63.52" style="fill: #ffe3a8;"/>
          <polygon points="36.75 36.93 38.75 35.78 44.9 39.33 42.9 40.48 36.75 36.93" style="fill: #fff7ee;"/>
          <polygon points="42.9 67.08 44.9 65.92 44.9 39.33 42.9 40.48 42.9 67.08" style="fill: #d6b774;"/>
        </g>
        <g>
          <polygon points="101 14.24 94.46 18.02 96.55 19.22 96.55 54.35 83.8 61.72 78.86 58.86 75.13 61.03 165.25 113.06 218.71 82.2 101 14.24" style="fill: #fff7ee;"/>
          <polygon points="101 18.55 96.55 21.11 96.55 54.35 83.8 61.72 165.25 108.75 211.25 82.2 101 18.55" style="fill: #fff;"/>
          <polygon points="218.72 82.2 165.26 113.06 165.26 118.77 218.72 87.9 218.72 82.2" style="fill: #d6b774;"/>
          <polygon points="165.25 113.06 165.25 118.77 75.12 66.72 75.12 61.03 75.13 61.03 165.25 113.06" style="fill: #ffe3a8;"/>
          <polygon points="101.01 18.55 101.01 24.26 206.3 85.05 211.25 82.2 101.01 18.55" style="fill: #ffe3a8;"/>
          <polygon points="101 18.55 101 24.26 96.55 26.82 96.55 21.11 101 18.55" style="fill: #ffb923;"/>
        </g>
        <g>
          <path d="M97.69,71.02v-6.84s0,0,0,0h0s0,0,0,0c.02-.19-.08-.37-.31-.5-.46-.27-1.27-.23-1.8.07-.36.21-.49.49-.4.73h-.01v6.69c-.02.06-.01.12,0,.19v.07h.02c.04.11.12.22.27.3.46.27,1.27.23,1.8-.07.31-.18.44-.41.42-.63h.02Z" style="fill: #6c747d;"/>
          <path d="M142.14,96.67v-6.84s0,0,0,0h0s0,0,0,0c.02-.19-.08-.37-.31-.5-.46-.27-1.27-.23-1.8.07-.36.21-.49.49-.4.73h-.01v6.69c-.02.06-.01.12,0,.19v.07h.02c.04.11.12.22.27.3.46.27,1.27.23,1.8-.07.31-.18.44-.41.42-.63h.02Z" style="fill: #6c747d;"/>
          <g>
            <polygon points="148.82 97.07 90.33 63.3 90.33 45.07 148.82 78.84 148.82 97.07" style="fill: #accffa;"/>
            <polygon points="92.12 44.04 90.33 45.07 148.82 78.84 150.6 77.81 92.12 44.04" style="fill: #70a4e4;"/>
            <g>
              <path d="M98.93,56.3v.25l-1.07-.48v-.37c0-.56-.2-.97-.57-1.18-.37-.21-.57-.03-.57.53v.13c0,.58.19,1.18.94,2.45,1.02,1.74,1.4,2.77,1.4,3.95v.49c0,1.4-.62,1.84-1.73,1.21-1.1-.64-1.73-1.8-1.73-3.2v-.66l1.07.48v.7c0,.62.21,1.05.63,1.29.42.24.63.06.63-.56v-.32c0-.62-.22-1.24-.97-2.51-1.02-1.74-1.37-2.75-1.37-3.9v-.21c0-1.4.6-1.86,1.66-1.24,1.06.61,1.66,1.76,1.66,3.16Z" style="fill: #3a74ba;"/>
              <path d="M103.13,64.29c0,1.54-.66,1.96-1.74,1.34-1.05-.61-1.72-1.79-1.72-3.33v-7.62l1.07.62v7.57c0,.72.24,1.12.63,1.35.39.22.63.1.63-.62v-7.57l1.11.64v7.62Z" style="fill: #3a74ba;"/>
              <path d="M107.73,61.81v.79c0,1.61-.65,2.11-1.85,1.41l-.49-.29v4.07l-1.11-.64v-9.82l1.61.93c1.2.69,1.85,1.94,1.85,3.55ZM105.38,59.34v3l.45.26c.54.31.78.07.78-.76v-.59c0-.83-.24-1.35-.78-1.66l-.45-.26Z" style="fill: #3a74ba;"/>
              <path d="M111.68,62.98l-2.02-1.17v2.78l1.63.94v1.37l-1.63-.94v2.92l2.02,1.17v1.37l-3.13-1.81v-9.82l3.13,1.81v1.37Z" style="fill: #3a74ba;"/>
              <path d="M115.14,73.42l-.88-4.66-.52-.3v4.15l-1.11-.64v-9.82l1.61.93c1.2.69,1.85,1.94,1.85,3.55v.7c0,1.04-.27,1.61-.79,1.7l1.02,5.06-1.18-.68ZM113.75,64.17v2.92l.45.26c.54.31.78.07.78-.76v-.51c0-.83-.24-1.35-.78-1.66l-.45-.26Z" style="fill: #3a74ba;"/>
              <path d="M121.86,77.3l-1.12-.64v-6.82h-.02s-.93,4.87-.93,4.87l-.66-.38-.93-5.95h-.02s0,6.81,0,6.81l-1.05-.61v-9.82l1.46.84.87,5.78h.02s.86-4.76.86-4.76l1.5.87v9.82Z" style="fill: #3a74ba;"/>
              <path d="M126.62,80.05l-1.14-.66-.24-2.37-1.23-.71-.24,2.09-1.12-.64,1.27-9.08,1.42.82,1.27,10.55ZM124.61,71.17l-.45,3.88.94.54-.45-4.4-.03-.02Z" style="fill: #3a74ba;"/>
              <path d="M129.93,81.96l-.88-4.66-.52-.3v4.15l-1.11-.64v-9.82l1.61.93c1.2.69,1.85,1.94,1.85,3.55v.7c0,1.04-.27,1.61-.79,1.7l1.02,5.06-1.18-.68ZM128.53,72.71v2.92l.45.26c.54.31.78.07.78-.76v-.5c0-.83-.24-1.35-.78-1.66l-.45-.26Z" style="fill: #3a74ba;"/>
              <path d="M134.25,78.54l1.55,6.81-1.19-.69-1.09-4.92-.48.98v3.03l-1.11-.64v-9.82l1.11.64v4.1h.02s1.55-3.19,1.55-3.19l1.17.67-1.51,3.02Z" style="fill: #3a74ba;"/>
              <path d="M139.6,79.09l-2.02-1.17v2.78l1.63.94v1.37l-1.63-.94v2.92l2.02,1.17v1.37l-3.13-1.81v-9.82l3.13,1.81v1.37Z" style="fill: #3a74ba;"/>
              <path d="M143.55,81.41l-1.19-.69v8.42l-1.11-.64v-8.42l-1.19-.69v-1.4l3.49,2.02v1.4Z" style="fill: #3a74ba;"/>
            </g>
            <polygon points="150.6 77.81 148.82 78.84 148.82 97.07 150.6 96.04 150.6 77.81" style="fill: #3a74ba;"/>
          </g>
        </g>
        <g>
          <polygon points="135.2 104.82 80.41 73.18 80.41 98.06 162.28 145.33 162.28 120.45 135.2 104.82" style="fill: #c4e4ff;"/>
          <path d="M162.28,120.45l-.6-.34-8.43-4.87-.6-.34-8.43-4.87-.6-.34-8.43-4.87h0s-9.03-5.21-9.03-5.21l-.6-.34-8.43-4.87-.6-.34-8.43-4.87-.6-.34-8.43-4.87-.6-.34-8.43-4.87-.6-.34-9.03-5.21v24.88l9.03,5.21.6.34,8.43,4.87.6.35,8.43,4.87.6.34,8.43,4.87.6.34,8.43,4.87.6.34,9.03,5.21,8.43,4.87.6.34,8.43,4.87.6.34,8.43,4.87.6.35v-24.88ZM89.44,102.48l-8.43-4.87v-11.24l8.43,4.87v11.24ZM89.44,90.44l-8.43-4.87v-11.24l8.43,4.87v11.24ZM98.47,107.69l-8.43-4.87v-11.24l8.43,4.87v11.24ZM98.47,95.65l-8.43-4.87v-11.24l8.43,4.87v11.24ZM107.5,112.91l-8.43-4.87v-11.24l8.43,4.87v11.24ZM107.5,100.87l-8.43-4.87v-11.24l8.43,4.87v11.24ZM116.53,118.12l-8.43-4.87v-11.24l8.43,4.87v11.24ZM116.53,106.08l-8.43-4.87v-11.24l8.43,4.87v11.24ZM125.56,123.34l-8.43-4.87v-11.24l8.43,4.87v11.24ZM125.56,111.29l-8.43-4.87v-11.24l8.43,4.87v11.24ZM134.59,128.55l-8.43-4.87v-11.24l8.43,4.87v11.24ZM134.59,116.51l-8.43-4.87v-11.24l8.43,4.87v11.24ZM143.62,133.76l-8.43-4.87v-11.24l8.43,4.87v11.24ZM143.62,121.72l-8.43-4.87v-11.24l8.43,4.87v11.24ZM152.65,138.98l-8.43-4.87v-11.24l8.43,4.87v11.24ZM152.65,126.94l-8.43-4.87v-11.24l8.43,4.87v11.24ZM161.69,144.19l-8.43-4.87v-11.24l8.43,4.87v11.24ZM161.69,132.15l-8.43-4.87v-11.24l8.43,4.87v11.24Z" style="fill: #3a74ba;"/>
        </g>
        <polygon points="79.91 124.93 79.89 99.48 163.11 147.53 163.14 172.98 79.91 124.93" style="fill: #70a4e4;"/>
        <polygon points="163.14 147.55 163.14 172.98 213.07 144.15 213.1 118.7 163.14 147.55" style="fill: #3a74ba;"/>
        <g>
          <polygon points="142.67 161.17 92.62 132.27 92.62 108.3 142.67 137.2 142.67 161.17" style="fill: #fff;"/>
          <path d="M133.97,132.18l-.58-.33-8.04-4.64v-.11l-7.34-4.24-.75-.43-7.34-4.24v.11l-8.04-4.64-.58-.33-8.7-5.02v23.97l8.7,5.02.58.33,8.04,4.64v.11l7.34,4.24.75.43,7.34,4.24v-.11l8.04,4.64.58.33,8.7,5.02v-23.97l-8.7-5.02ZM133.39,132.61v10.83l-8.04-4.64v-10.83l8.04,4.64ZM101.89,114.42l8.04,4.64v10.83l-8.04-4.64v-10.83ZM93.19,109.4l8.12,4.69v10.83l-8.12-4.69v-10.83ZM101.32,136.52l-8.12-4.69v-10.83l8.12,4.69v10.83ZM101.89,136.86v-10.83l8.04,4.64v10.83l-8.04-4.64ZM110.68,141.81v-22.2l6.59,3.81v22.2l-6.59-3.81ZM124.61,149.86l-6.59-3.81v-22.2l6.59,3.81v22.2ZM133.39,155.04l-8.04-4.64v-10.83l8.04,4.64v10.83ZM142.09,160.07l-8.12-4.69v-10.83l8.12,4.69v10.83ZM133.97,143.78v-10.83l8.12,4.69v10.83l-8.12-4.69Z" style="fill: #d6b774;"/>
        </g>
        <g>
          <g>
            <polygon points="145.7 65.36 159.22 73.17 159.22 77.87 145.7 70.07 145.7 65.36" style="fill: #c9c9c9;"/>
            <polygon points="170.93 66.41 170.93 71.11 159.22 77.87 159.22 73.17 170.93 66.41" style="fill: #b5b5b5;"/>
            <polygon points="159.22 73.17 170.93 66.41 157.41 58.61 145.7 65.36 159.22 73.17" style="fill: #eee;"/>
            <g>
              <path d="M153.55,68.64c3.04,1.75,7.63,1.94,10.26.43,2.63-1.52,2.3-4.17-.74-5.92-3.04-1.75-7.63-1.94-10.26-.43-2.63,1.52-2.3,4.17.74,5.92Z" style="fill: #bfbfbf;"/>
              <path d="M154.06,68.35c2.72,1.57,6.82,1.74,9.18.38s2.06-3.73-.66-5.3c-2.72-1.57-6.82-1.74-9.18-.38-2.35,1.36-2.06,3.73.66,5.3Z" style="fill: #8d97a3;"/>
              <path d="M163.52,64.35c-1.39.09-3.37.43-5.2,1.54,0,0,3.71-.53,6.16,1.07.24-.85-.09-1.78-.96-2.6ZM158.32,65.89s.58-2.21,3.93-2.45c-1.26-.69-2.8-1.07-4.3-1.15-.39.75-.62,1.97.38,3.59ZM158.32,65.89s3.13,1.67,2.23,3.52c.93-.13,1.79-.39,2.49-.79.35-.2.63-.43.86-.67-1-.67-2.75-1.54-5.58-2.05ZM158.32,65.89s-3.13-1.67-2.23-3.52c-.93.13-1.79.39-2.49.79-.35.2-.63.43-.86.67,1,.67,2.75,1.54,5.58,2.05ZM158.32,65.89s-.58,2.21-3.93,2.45c1.26.69,2.8,1.07,4.3,1.15.39-.75.62-1.97-.38-3.59ZM153.11,67.42c1.39-.09,3.37-.43,5.2-1.54,0,0-3.71.53-6.16-1.07-.24.85.09,1.78.96,2.6Z" style="fill: #fff;"/>
              <path d="M158.02,66.06c.19.11.48.12.64.03.16-.09.14-.26-.05-.37-.19-.11-.48-.12-.64-.03-.16.09-.14.26.05.37Z" style="fill: #51585e;"/>
            </g>
          </g>
          <g>
            <g>
              <polygon points="162.73 75.19 176.24 83 176.24 87.7 162.73 79.89 162.73 75.19" style="fill: #c9c9c9;"/>
              <polygon points="187.95 76.24 187.95 80.94 176.24 87.7 176.24 83 187.95 76.24" style="fill: #b5b5b5;"/>
              <polygon points="176.24 83 187.95 76.24 174.43 68.43 162.73 75.19 176.24 83" style="fill: #eee;"/>
              <g>
                <path d="M170.57,78.46c3.04,1.75,7.63,1.94,10.26.43,2.63-1.52,2.3-4.17-.74-5.92-3.04-1.75-7.63-1.94-10.26-.43s-2.3,4.17.74,5.92Z" style="fill: #bfbfbf;"/>
                <path d="M171.08,78.17c2.72,1.57,6.82,1.74,9.18.38,2.35-1.36,2.06-3.73-.66-5.3-2.72-1.57-6.82-1.74-9.18-.38-2.35,1.36-2.06,3.73.66,5.3Z" style="fill: #8d97a3;"/>
                <path d="M180.54,74.18c-1.39.09-3.37.43-5.2,1.54,0,0,3.71-.53,6.16,1.07.24-.85-.09-1.78-.96-2.6ZM175.34,75.71s.58-2.21,3.93-2.45c-1.26-.69-2.8-1.07-4.3-1.15-.39.75-.62,1.97.38,3.59ZM175.34,75.71s3.13,1.67,2.23,3.52c.93-.13,1.79-.39,2.49-.79.35-.2.63-.43.86-.67-1-.67-2.75-1.54-5.58-2.05ZM175.34,75.71s-3.13-1.67-2.23-3.52c-.93.13-1.79.39-2.49.79-.35.2-.63.43-.86.67,1,.67,2.75,1.54,5.58,2.05ZM175.34,75.71s-.58,2.21-3.93,2.45c1.26.69,2.8,1.07,4.3,1.15.39-.75.62-1.97-.38-3.59ZM170.13,77.25c1.39-.09,3.37-.43,5.2-1.54,0,0-3.71.53-6.16-1.07-.24.85.09,1.78.96,2.6Z" style="fill: #fff;"/>
                <path d="M175.04,75.89c.19.11.48.12.64.03.16-.09.14-.26-.05-.37-.19-.11-.48-.12-.64-.03-.16.09-.14.26.05.37Z" style="fill: #51585e;"/>
              </g>
            </g>
            <g>
              <path d="M183.48,86.93c.38,0,.69-.31.69-.69.04-3.29-2.41-4.48-2.51-4.53-.35-.16-.76-.01-.92.33-.16.35-.01.76.33.92.08.04,1.75.89,1.72,3.26,0,.38.3.7.69.7h0Z" style="fill: #6c747d;"/>
              <path d="M185.78,85.6c.38,0,.69-.31.69-.69.04-3.29-2.41-4.48-2.51-4.53-.35-.16-.76-.01-.92.33-.16.35-.01.76.33.92.08.04,1.75.89,1.72,3.26,0,.38.3.7.69.7h0Z" style="fill: #6c747d;"/>
            </g>
          </g>
        </g>
      </g>
      <g>
        <path d="M169.95,162.75c.02-.22-.09-.44-.37-.59-.55-.32-1.52-.28-2.16.09-.43.25-.58.58-.47.87h-.02v3.08c0,.05,0,.1,0,.15v4.57c0,.05,0,.1,0,.15v.04s0,.05,0,.08c0,.05,0,.09,0,.14v7.85c-.02.08-.01.15,0,.22v3.13c-.02.08-.01.15,0,.22v.09h.02c.05.13.14.26.32.36.55.32,1.52.28,2.16-.09.37-.22.53-.49.5-.75h.02s0-8.19,0-8.19c0,0,0,0,0,0h0s0,0,0,0c0,0,0,0,0,0v-3.35s0,0,0,0h0s0,0,0,0c0,0,0,0,0,0v-4.7s0,0,0,0h0s0,0,0,0c0,0,0,0,0,0v-3.34s0,0,0,0h0s0,0,0,0Z" style="fill: #694747;"/>
        <polygon points="159.05 165.52 168.48 138.9 167.8 170.58 159.05 165.52" style="fill: #3dc47e;"/>
        <polygon points="168.48 138.9 177.91 164.74 167.8 170.58 168.48 138.9" style="fill: #009246;"/>
      </g>
      <g>
        <path d="M188.81,152.61c.02-.22-.09-.44-.37-.59-.55-.32-1.52-.28-2.16.09-.43.25-.58.58-.47.87h-.02v3.08c0,.05,0,.1,0,.15v4.57c0,.05,0,.1,0,.15v.04s0,.06,0,.08c0,.05,0,.09,0,.14v7.85c-.02.08-.01.15,0,.22v3.13c-.02.08-.01.15,0,.22v.09h.02c.05.13.14.26.32.36.55.32,1.52.28,2.16-.09.37-.22.53-.49.5-.75h.02s0-8.19,0-8.19c0,0,0,0,0,0h0s0,0,0,0c0,0,0,0,0,0v-3.35s0,0,0,0h0s0,0,0,0c0,0,0,0,0,0v-4.7s0,0,0,0h0s0,0,0,0c0,0,0,0,0,0v-3.34s0,0,0,0h0s0,0,0,0Z" style="fill: #694747;"/>
        <polygon points="177.91 155.38 187.34 128.76 186.66 160.44 177.91 155.38" style="fill: #3dc47e;"/>
        <polygon points="187.34 128.76 196.77 154.6 186.66 160.44 187.34 128.76" style="fill: #009246;"/>
      </g>
      <g>
        <path d="M207.67,142.46c.02-.22-.09-.44-.37-.59-.55-.32-1.52-.28-2.16.09-.43.25-.58.58-.47.87h-.02v3.08c0,.05,0,.1,0,.15v4.57c0,.05,0,.1,0,.15v.04s0,.06,0,.08c0,.05,0,.09,0,.14v7.85c-.02.08-.01.15,0,.22v3.13c-.02.08-.01.15,0,.22v.09h.02c.05.13.14.26.32.36.55.32,1.52.28,2.16-.09.37-.22.53-.49.5-.75h.02s0-8.19,0-8.19c0,0,0,0,0,0h0s0,0,0,0c0,0,0,0,0,0v-3.34s0,0,0,0h0s0,0,0,0c0,0,0,0,0,0v-4.7s0,0,0,0h0s0,0,0,0c0,0,0,0,0,0v-3.35s0,0,0,0h0s0,0,0,0Z" style="fill: #694747;"/>
        <polygon points="196.77 145.24 206.2 118.62 205.52 150.3 196.77 145.24" style="fill: #3dc47e;"/>
        <polygon points="206.2 118.62 215.63 144.46 205.52 150.3 206.2 118.62" style="fill: #009246;"/>
      </g>
      <path d="M156.53,172.88l-14.02-8.1c-.1-.06-.23-.06-.33,0l-8.63,4.98c-.16.09-.21.29-.12.45.09.16.29.21.45.12l8.47-4.89,2.15,1.24-8.14,4.7c-.16.09-.21.29-.12.45.06.1.17.16.28.16.06,0,.11-.01.16-.04l8.47-4.89,2.15,1.24-8.14,4.7c-.16.09-.21.29-.12.45.06.1.17.16.28.16.06,0,.11-.01.16-.04l8.46-4.89,2.15,1.24-8.14,4.7c-.16.09-.21.29-.12.45.06.1.17.16.28.16.06,0,.11-.01.16-.04l8.47-4.89,2.15,1.24-8.14,4.7c-.16.09-.21.29-.12.45.06.1.17.16.28.16.06,0,.11-.01.16-.04l8.47-4.89,2.15,1.24-8.14,4.7c-.16.09-.21.29-.12.45.06.1.17.16.28.16.06,0,.11-.01.16-.04l8.63-4.98c.1-.06.16-.17.16-.28s-.06-.22-.16-.28Z" style="fill: #dae1e8;"/>
    </g>
  </g>
</svg>