<?xml version="1.0" encoding="UTF-8"?>
<svg id="Layer_2" data-name="Layer 2" xmlns="http://www.w3.org/2000/svg" width="508.51" height="139.5" viewBox="0 0 508.51 139.5">
  <g id="Layer_1-2" data-name="Layer 1">
    <g>
      <path d="M349.02,40.27v66.27h-13.29v-28.2h-28.39v28.2h-13.29V40.27h13.29v27.25h28.39v-27.25h13.29Z" style="fill: #fff;"/>
      <path d="M367.77,45.44c-1.55-1.49-2.33-3.34-2.33-5.55s.77-4.07,2.33-5.55c1.55-1.49,3.5-2.23,5.84-2.23s4.29.75,5.84,2.23c1.55,1.49,2.33,3.34,2.33,5.55s-.78,4.07-2.33,5.55c-1.55,1.49-3.5,2.23-5.84,2.23s-4.29-.74-5.84-2.23ZM380.16,53.94v52.6h-13.29v-52.6h13.29Z" style="fill: #fff;"/>
      <path d="M419.94,94.29l13.29-40.35h14.15l-19.46,52.6h-16.14l-19.37-52.6h14.24l13.29,40.35Z" style="fill: #fff;"/>
      <path d="M508.13,84.23h-38.45c.32,3.8,1.64,6.77,3.99,8.92,2.34,2.15,5.22,3.23,8.64,3.23,4.94,0,8.45-2.12,10.54-6.36h14.33c-1.52,5.06-4.43,9.23-8.73,12.48-4.31,3.26-9.59,4.89-15.86,4.89-5.06,0-9.6-1.12-13.62-3.37-4.02-2.25-7.15-5.43-9.4-9.54-2.25-4.11-3.37-8.86-3.37-14.24s1.11-10.22,3.32-14.34c2.21-4.11,5.32-7.28,9.3-9.49,3.99-2.21,8.58-3.32,13.77-3.32s9.48,1.08,13.43,3.23c3.95,2.15,7.03,5.21,9.21,9.16,2.18,3.96,3.28,8.5,3.28,13.62,0,1.9-.13,3.61-.38,5.13ZM494.75,75.3c-.06-3.42-1.3-6.16-3.7-8.21-2.41-2.06-5.35-3.08-8.83-3.08-3.29,0-6.06,1-8.31,2.99-2.25,1.99-3.62,4.76-4.13,8.31h24.97Z" style="fill: #fff;"/>
      <polygon points="174.43 51 174.43 67.61 196.74 67.61 196.74 78.15 174.43 78.15 174.43 95.71 199.59 95.71 199.59 106.54 161.14 106.54 161.14 40.17 199.59 40.17 199.59 51 174.43 51" style="fill: #fff;"/>
      <path d="M217.58,55.79c2.94-5.16,6.96-9.18,12.06-12.06,5.09-2.88,10.81-4.32,17.14-4.32,7.41,0,13.89,1.9,19.46,5.7,5.57,3.8,9.46,9.05,11.68,15.76h-15.29c-1.52-3.16-3.65-5.54-6.41-7.12-2.75-1.58-5.93-2.37-9.54-2.37-3.86,0-7.29.9-10.3,2.71-3.01,1.8-5.35,4.35-7.03,7.64-1.68,3.29-2.52,7.15-2.52,11.58s.84,8.21,2.52,11.54c1.68,3.32,4.02,5.89,7.03,7.69,3.01,1.8,6.44,2.71,10.3,2.71,3.61,0,6.79-.81,9.54-2.42,2.75-1.61,4.89-4,6.41-7.17h15.29c-2.22,6.77-6.09,12.04-11.63,15.81-5.54,3.77-12.04,5.65-19.51,5.65-6.33,0-12.04-1.44-17.14-4.32-5.1-2.88-9.11-6.88-12.06-12.01s-4.41-10.95-4.41-17.47,1.47-12.36,4.41-17.52Z" style="fill: #fff;"/>
      <g>
        <polygon points="0 32.77 0 111.86 27.96 128.39 27.96 44.45 79.69 13.67 56.72 0 0 32.77" style="fill: #fff;"/>
        <polygon points="56.76 55.7 56.76 83.23 95.71 60.49 95.71 89.42 56.76 112.16 56.76 139.5 123.5 100.39 123.5 39.34 104.64 27.96 56.76 55.7" style="fill: #fff;"/>
      </g>
    </g>
  </g>
</svg>