<?xml version="1.0" encoding="UTF-8"?>
<svg id="Layer_1" data-name="Layer 1" xmlns="http://www.w3.org/2000/svg" width="926.62" height="600.08" viewBox="0 0 926.62 600.08">
  <path d="M377.85,328.7l-42.67-22.19s-14.33-15.78-23.33-22.91c-9-7.12-11.77-1.89-11.77-1.89l-3.79,6.31,9.14,12.71,24.69,20.91,44.12,17.28c2.01,3.3,6.32,4.34,9.62,2.33,3.3-2.01,4.34-6.32,2.33-9.62-1.73-2.84-5.22-4.07-8.35-2.93h0Z" style="fill: #ffb9b9;"/>
  <path d="M266.86,309.51l-2.53-15.46-7.13-1.78s-5.66-1.74-6.98,9.66c-1.32,11.4-.3,32.69-.3,32.69l-14.48,45.86c-3.51,1.63-5.03,5.8-3.4,9.32,1.63,3.51,5.8,5.03,9.32,3.4,3.04-1.41,4.65-4.77,3.85-8.02l18.98-43.42,2.67-32.25Z" style="fill: #ffb9b9;"/>
  <path d="M325.86,526.4h9.33l4.44-36h-13.78v36Z" style="fill: #ffb9b9;"/>
  <path d="M224.05,526.4h9.33l4.44-36h-13.78v36Z" style="fill: #ffb9b9;"/>
  <path d="M295.85,271.45h-41.86c-1.79,0-3.25-1.45-3.25-3.25v-18.05c0-13.35,10.81-24.18,24.16-24.19,13.35,0,24.18,10.81,24.19,24.16v18.07c0,1.79-1.45,3.25-3.25,3.25Z" style="fill: #2f2e41;"/>
  <path d="M293,262.13s-2.19,19.98.89,24.71c1.85,2.89,2.65,6.33,2.27,9.74l-15.14,4.49-18.52-8.49s16.05-21.85,12.3-28.53c-3.75-6.69,18.2-1.91,18.2-1.91Z" style="fill: #ffb9b9;"/>
  <path d="M270.13,278.63l-15.48,13.22,12.7,40.21,2.87,8.98s-17.51,16.14-28.34,61.23c-10.83,45.09-28.55,105-28.55,105l37.41,10.71,30.43-101.99,35.79,80.02,4.13,23.67,31.85-9.39-7.51-59.36-37.57-102.74,3.9-27.24s5.86-13.59-4.32-27.99l-3.2-13.52-11.44-2.82-22.68,2.03Z" style="fill: #e6e6e6;"/>
  <circle cx="279.89" cy="253.3" r="17.73" style="fill: #ffb9b9;"/>
  <path d="M304.82,251.96h-25.6l-.26-3.67-1.31,3.67h-3.94l-.52-7.28-2.6,7.28h-7.63v-.36c.01-10.56,8.57-19.11,19.12-19.12h3.61c10.56.01,19.11,8.57,19.12,19.12v.36Z" style="fill: #2f2e41;"/>
  <path d="M279.01,274.82c-.19,0-.39-.02-.58-.05l-18.74-3.31v-30.98h20.63l-.51.6c-7.11,8.29-1.75,21.73,2.07,29,.57,1.09.47,2.41-.26,3.4-.61.84-1.58,1.34-2.62,1.34h0Z" style="fill: #2f2e41;"/>
  <path d="M434.01,437.2l-164.26,58.07c-8.46,2.98-17.73-1.45-20.72-9.9l-28.22-79.81c-2.98-8.46,1.45-17.73,9.9-20.72l164.26-58.07c8.46-2.98,17.73,1.45,20.72,9.9l28.22,79.81c2.98,8.46-1.45,17.73-9.9,20.72h0Z" style="fill: #6bbce1;"/>
  <path d="M443.91,416.48l.15.42c2.85,8.08-1.38,16.94-9.46,19.79l-165.08,58.37c-8.07,2.85-16.93-1.38-19.79-9.45l-.15-.42,194.33-68.71Z" style="fill: #f2f2f2; isolation: isolate; opacity: .1;"/>
  <path d="M259.5,403.38c-10.89,7.16-24.84,1.77-29.72-6.08l.78-.44c9.27-5.78,23.03-2.56,28.94,6.52Z" style="fill: #f2f2f2;"/>
  <path d="M395.94,423.7c-2.67.94-5.06.9-7.13-.13-4.67-2.32-6.87-9.21-8.63-14.74-.51-1.61-1-3.13-1.49-4.37v-.02c-1.79-5.13.89-10.74,6-12.58l22.09-7.81c2.66-.94,5.06-.9,7.12.13,4.67,2.32,6.87,9.2,8.63,14.74.51,1.61,1,3.14,1.49,4.38,1.8,5.14-.88,10.76-6,12.6l-22.09,7.81ZM379.6,404.11c.5,1.27.99,2.81,1.51,4.43,1.71,5.36,3.83,12.02,8.13,14.16,1.85.92,3.93.94,6.37.08l22.09-7.81c4.6-1.66,7.02-6.71,5.41-11.33-.5-1.26-.99-2.8-1.51-4.43-1.71-5.35-3.83-12.02-8.13-14.15-1.84-.92-3.92-.94-6.36-.08l-22.09,7.81c-4.6,1.66-7.01,6.7-5.41,11.32h0Z" style="fill: #f2f2f2;"/>
  <path d="M254.92,405.96c-3.88,1.35-8.06,1.58-12.07.66-5.85-1.28-11.16-4.78-13.86-9.12l-.27-.44,1.21-.69c9.41-5.86,23.52-2.68,29.61,6.67l.27.41-.41.27c-1.4.92-2.9,1.67-4.48,2.23ZM230.11,397.41c2.64,3.92,7.55,7.06,12.95,8.24,5.25,1.23,10.78.34,15.38-2.48-5.96-8.62-19.15-11.48-27.99-5.96l-.34.2Z" style="fill: #3f3d56;"/>
  <path d="M260.69,463.24c-2.81,1.11-6.01.58-8.31-1.38-2.69-2.35-3.95-5.93-3.34-9.45.57-3.03,2.79-5.49,5.76-6.36l29.44-10.41c2.85-1.18,6.12-.67,8.47,1.33,2.68,2.35,3.95,5.93,3.34,9.45-.58,3.04-2.63,5.28-5.76,6.35l-29.44,10.41-.15.06ZM254.98,447.04c-2.56.79-4.47,2.93-4.97,5.56-.55,3.17.59,6.39,3.01,8.51,2.08,1.76,4.98,2.21,7.49,1.15l29.45-10.41c2.62-.76,4.6-2.92,5.11-5.6.55-3.17-.59-6.39-3.01-8.51-2.08-1.76-4.98-2.21-7.5-1.15l-29.45,10.41-.14.05h0Z" style="fill: #f2f2f2;"/>
  <path d="M396.14,400.22l-9.28,3.28c-1.28.45-2.69-.22-3.14-1.5-.45-1.28.22-2.69,1.5-3.14l9.28-3.28c1.28-.45,2.69.22,3.14,1.5.45,1.28-.22,2.69-1.5,3.14h0Z" style="fill: #d6d6e3;"/>
  <path d="M398.76,407.65l-9.28,3.28c-1.28.45-2.69-.22-3.14-1.5-.45-1.28.22-2.69,1.5-3.14h0l9.28-3.28c1.28-.45,2.69.22,3.14,1.5.45,1.28-.22,2.69-1.5,3.14Z" style="fill: #d6d6e3;"/>
  <path d="M401.39,415.07l-9.28,3.28c-1.28.45-2.69-.22-3.14-1.5-.45-1.28.22-2.69,1.5-3.14h0l9.28-3.28c1.28-.45,2.69.22,3.14,1.5.45,1.28-.22,2.69-1.5,3.14Z" style="fill: #d6d6e3;"/>
  <path d="M412.38,394.48l-9.28,3.28c-1.28.45-2.69-.22-3.14-1.5-.45-1.28.22-2.69,1.5-3.14l9.28-3.28c1.28-.45,2.69.22,3.14,1.5.45,1.28-.22,2.69-1.5,3.14Z" style="fill: #d6d6e3;"/>
  <path d="M415,401.9l-9.28,3.28c-1.28.45-2.69-.22-3.14-1.5-.45-1.28.22-2.69,1.5-3.14l9.28-3.28c1.28-.45,2.69.22,3.14,1.5.45,1.28-.22,2.69-1.5,3.14Z" style="fill: #d6d6e3;"/>
  <path d="M417.63,409.33l-9.28,3.28c-1.28.45-2.69-.22-3.14-1.5-.45-1.28.22-2.69,1.5-3.14l9.28-3.28c1.28-.45,2.69.22,3.14,1.5.45,1.28-.22,2.69-1.5,3.14Z" style="fill: #d6d6e3;"/>
  <rect x="221.79" y="388.4" width="206.13" height=".98" transform="translate(-110.96 130.36) rotate(-19.45)" style="fill: #3f3d56;"/>
  <path d="M434.01,437.2l-164.26,58.07c-8.46,2.98-17.73-1.45-20.72-9.9l-28.22-79.81c-2.98-8.46,1.45-17.73,9.9-20.72l164.26-58.07c8.46-2.98,17.73,1.45,20.72,9.9l28.22,79.81c2.98,8.46-1.45,17.73-9.9,20.72h0ZM231.03,385.77c-7.94,2.82-12.1,11.53-9.3,19.47l28.22,79.81c2.82,7.94,11.53,12.1,19.47,9.3l164.26-58.08c7.94-2.82,12.1-11.53,9.3-19.47l-28.22-79.81c-2.81-7.94-11.52-12.1-19.47-9.3l-164.26,58.08Z" style="fill: #3f3d56;"/>
  <path d="M357.36,532.57c-2.75,2.41-6.3,3.7-9.96,3.63-6.74-.1-19.34-.3-22.27-.42-3.91-.18-2.62-3.59-2.49-5.94v-.23c.05-2.36.51-7.47,1.29-8.27s3.45,3.56,3.45,3.56c0,0,5.22,1.55,6.65-3.11s4.35-5.11,4.35-5.11c1.32-.59,1.39,2.93,1.39,2.93l11.04,5.82,6.48,1.04c.21.1.4.2.57.3,2.93,1.68,1.63,3.93-.51,5.82Z" style="fill: #090814;"/>
  <path d="M256.6,532.57c-2.75,2.41-6.3,3.7-9.96,3.63-6.74-.1-19.34-.3-22.27-.42-3.91-.18-2.62-3.59-2.49-5.94v-.23c.05-2.36.51-7.47,1.29-8.27s3.45,3.56,3.45,3.56c0,0,5.22,1.55,6.65-3.11s4.35-5.11,4.35-5.11c1.32-.59,1.39,2.93,1.39,2.93l11.04,5.82,6.48,1.04c.21.1.4.2.57.3,2.93,1.68,1.63,3.93-.51,5.82Z" style="fill: #090814;"/>
  <path d="M699.18,175.36h-2.61v-71.53c0-22.86-18.53-41.4-41.4-41.4h-151.55c-22.86,0-41.4,18.53-41.4,41.4h0v392.41c0,22.86,18.53,41.4,41.4,41.4h151.55c22.86,0,41.4-18.53,41.4-41.4h0V226.28h2.61v-50.92Z" style="fill: #090814;"/>
  <path d="M656.18,73.21h-19.78c3.06,7.51-.54,16.08-8.05,19.15-1.76.72-3.65,1.09-5.55,1.09h-86.82c-8.11,0-14.69-6.57-14.69-14.69,0-1.9.37-3.79,1.09-5.55h-18.48c-17.07,0-30.92,13.84-30.92,30.92h0v391.84c0,17.07,13.84,30.92,30.92,30.92h152.28c17.07,0,30.92-13.84,30.92-30.92V104.12c0-17.07-13.84-30.91-30.91-30.92h0Z" style="fill: #fff;"/>
  <path d="M206.67,536.78c0,.46.9.83,2.02.83h509.25c1.12,0,2.02-.37,2.02-.83s-.9-.84-2.02-.84H208.69c-1.12,0-2.02.37-2.02.84Z" style="fill: #f2f2f2;"/>
  <g>
    <path d="M663.52,235.02h-165.63c-3.22,0-5.83-2.62-5.84-5.84v-17.82c0-3.22,2.62-5.83,5.84-5.84h165.63c3.22,0,5.83,2.62,5.84,5.84v17.82c0,3.22-2.62,5.83-5.84,5.84h0ZM497.89,206.14c-2.88,0-5.22,2.34-5.22,5.22v17.82c0,2.88,2.34,5.22,5.22,5.22h165.63c2.88,0,5.22-2.34,5.22-5.22v-17.82c0-2.88-2.34-5.22-5.22-5.23h-165.63Z" style="fill: #ccc;"/>
    <path d="M520.27,230.44c-5.61,0-10.16-4.55-10.16-10.16,0-5.61,4.55-10.16,10.16-10.16,5.61,0,10.16,4.55,10.16,10.16h0c0,5.61-4.55,10.16-10.16,10.16Z" style="fill: #6bbce1;"/>
    <path d="M648.51,228.57h-108.47c-1.36.02-2.48-1.06-2.5-2.42-.02-1.36,1.06-2.48,2.42-2.5.03,0,.05,0,.08,0h108.47c1.36-.02,2.48,1.06,2.5,2.42.02,1.36-1.06,2.48-2.42,2.5-.03,0-.05,0-.08,0Z" style="fill: #6bbce1;"/>
    <path d="M613.17,218.12h-73.14c-1.36.02-2.48-1.06-2.5-2.42-.02-1.36,1.06-2.48,2.42-2.5.03,0,.05,0,.08,0h73.14c1.36-.02,2.48,1.06,2.5,2.42.02,1.36-1.06,2.48-2.42,2.5-.03,0-.05,0-.08,0Z" style="fill: #6bbce1;"/>
  </g>
  <g>
    <path d="M663.52,280.69h-165.63c-3.22,0-5.83-2.62-5.84-5.84v-17.82c0-3.22,2.62-5.83,5.84-5.84h165.63c3.22,0,5.83,2.62,5.84,5.84v17.82c0,3.22-2.62,5.83-5.84,5.84h0ZM497.89,251.8c-2.88,0-5.22,2.34-5.22,5.22v17.82c0,2.88,2.34,5.22,5.22,5.22h165.63c2.88,0,5.22-2.34,5.22-5.22v-17.82c0-2.88-2.34-5.22-5.22-5.23h-165.63Z" style="fill: #ccc;"/>
    <path d="M520.27,276.1c-5.61,0-10.16-4.55-10.16-10.16,0-5.61,4.55-10.16,10.16-10.16,5.61,0,10.16,4.55,10.16,10.16h0c0,5.61-4.55,10.16-10.16,10.16Z" style="fill: #e6e6e6;"/>
    <path d="M648.51,274.24h-108.47c-1.36.02-2.48-1.06-2.5-2.42-.02-1.36,1.06-2.48,2.42-2.5.03,0,.05,0,.08,0h108.47c1.36-.02,2.48,1.06,2.5,2.42.02,1.36-1.06,2.48-2.42,2.5-.03,0-.05,0-.08,0Z" style="fill: #e6e6e6;"/>
    <path d="M613.17,263.79h-73.14c-1.36.02-2.48-1.06-2.5-2.42-.02-1.36,1.06-2.48,2.42-2.5.03,0,.05,0,.08,0h73.14c1.36-.02,2.48,1.06,2.5,2.42.02,1.36-1.06,2.48-2.42,2.5-.03,0-.05,0-.08,0Z" style="fill: #e6e6e6;"/>
  </g>
  <g>
    <path d="M663.52,325.7h-165.63c-3.22,0-5.83-2.62-5.84-5.84v-17.82c0-3.22,2.62-5.83,5.84-5.84h165.63c3.22,0,5.83,2.62,5.84,5.84v17.82c0,3.22-2.62,5.83-5.84,5.84h0ZM497.89,296.81c-2.88,0-5.22,2.34-5.22,5.22v17.82c0,2.88,2.34,5.22,5.22,5.22h165.63c2.88,0,5.22-2.34,5.22-5.22v-17.82c0-2.88-2.34-5.22-5.22-5.23h-165.63Z" style="fill: #ccc;"/>
    <path d="M520.27,321.11c-5.61,0-10.16-4.55-10.16-10.16,0-5.61,4.55-10.16,10.16-10.16,5.61,0,10.16,4.55,10.16,10.16h0c0,5.61-4.55,10.16-10.16,10.16Z" style="fill: #e6e6e6;"/>
    <path d="M648.51,319.24h-108.47c-1.36.02-2.48-1.06-2.5-2.42-.02-1.36,1.06-2.48,2.42-2.5.03,0,.05,0,.08,0h108.47c1.36-.02,2.48,1.06,2.5,2.42.02,1.36-1.06,2.48-2.42,2.5-.03,0-.05,0-.08,0Z" style="fill: #e6e6e6;"/>
    <path d="M613.17,308.8h-73.14c-1.36.02-2.48-1.06-2.5-2.42-.02-1.36,1.06-2.48,2.42-2.5.03,0,.05,0,.08,0h73.14c1.36-.02,2.48,1.06,2.5,2.42.02,1.36-1.06,2.48-2.42,2.5-.03,0-.05,0-.08,0Z" style="fill: #e6e6e6;"/>
  </g>
  <g>
    <path d="M663.52,371.36h-165.63c-3.22,0-5.83-2.62-5.84-5.84v-17.82c0-3.22,2.62-5.83,5.84-5.84h165.63c3.22,0,5.83,2.62,5.84,5.84v17.82c0,3.22-2.62,5.83-5.84,5.84h0ZM497.89,342.47c-2.88,0-5.22,2.34-5.22,5.22v17.82c0,2.88,2.34,5.22,5.22,5.22h165.63c2.88,0,5.22-2.34,5.22-5.22v-17.82c0-2.88-2.34-5.22-5.22-5.23h-165.63Z" style="fill: #ccc;"/>
    <path d="M520.27,366.78c-5.61,0-10.16-4.55-10.16-10.16,0-5.61,4.55-10.16,10.16-10.16,5.61,0,10.16,4.55,10.16,10.16h0c0,5.61-4.55,10.16-10.16,10.16Z" style="fill: #e6e6e6;"/>
    <path d="M648.51,364.91h-108.47c-1.36.02-2.48-1.06-2.5-2.42-.02-1.36,1.06-2.48,2.42-2.5.03,0,.05,0,.08,0h108.47c1.36-.02,2.48,1.06,2.5,2.42.02,1.36-1.06,2.48-2.42,2.5-.03,0-.05,0-.08,0Z" style="fill: #e6e6e6;"/>
    <path d="M613.17,354.46h-73.14c-1.36.02-2.48-1.06-2.5-2.42-.02-1.36,1.06-2.48,2.42-2.5.03,0,.05,0,.08,0h73.14c1.36-.02,2.48,1.06,2.5,2.42.02,1.36-1.06,2.48-2.42,2.5-.03,0-.05,0-.08,0Z" style="fill: #e6e6e6;"/>
  </g>
  <g>
    <path d="M662.86,416.37h-165.63c-3.22,0-5.83-2.62-5.84-5.84v-17.82c0-3.22,2.62-5.83,5.84-5.84h165.63c3.22,0,5.83,2.62,5.84,5.84v17.82c0,3.22-2.62,5.83-5.84,5.84h0ZM497.23,387.48c-2.88,0-5.22,2.34-5.22,5.22v17.82c0,2.88,2.34,5.22,5.22,5.22h165.63c2.88,0,5.22-2.34,5.22-5.22v-17.82c0-2.88-2.34-5.22-5.22-5.23h-165.63Z" style="fill: #ccc;"/>
    <path d="M519.61,411.78c-5.61,0-10.16-4.55-10.16-10.16,0-5.61,4.55-10.16,10.16-10.16,5.61,0,10.16,4.55,10.16,10.16h0c0,5.61-4.55,10.16-10.16,10.16Z" style="fill: #e6e6e6;"/>
    <path d="M647.85,409.92h-108.47c-1.36.02-2.48-1.06-2.5-2.42-.02-1.36,1.06-2.48,2.42-2.5.03,0,.05,0,.08,0h108.47c1.36-.02,2.48,1.06,2.5,2.42.02,1.36-1.06,2.48-2.42,2.5-.03,0-.05,0-.08,0Z" style="fill: #e6e6e6;"/>
    <path d="M612.51,399.47h-73.14c-1.36.02-2.48-1.06-2.5-2.42-.02-1.36,1.06-2.48,2.42-2.5.03,0,.05,0,.08,0h73.14c1.36-.02,2.48,1.06,2.5,2.42.02,1.36-1.06,2.48-2.42,2.5-.03,0-.05,0-.08,0Z" style="fill: #e6e6e6;"/>
  </g>
  <circle cx="580.7" cy="148.72" r="39.71" style="fill: #6bbce1;"/>
  <path d="M632.97,451.84h-105.87c-.2,0-.36-.16-.36-.36s.16-.36.36-.36h105.87c.2,0,.36.16.36.36s-.16.36-.36.36h0Z" style="fill: #ccc;"/>
  <path d="M632.97,464h-105.87c-.2,0-.36-.16-.36-.36s.16-.36.36-.36h105.87c.2,0,.36.16.36.36s-.16.36-.36.36h0Z" style="fill: #ccc;"/>
  <path d="M632.97,476.17h-105.87c-.2,0-.36-.16-.36-.36s.16-.36.36-.36h105.87c.2,0,.36.16.36.36s-.16.36-.36.36h0Z" style="fill: #ccc;"/>
  <path d="M632.97,488.33h-105.87c-.2,0-.36-.16-.36-.36s.16-.36.36-.36h105.87c.2,0,.36.16.36.36s-.16.36-.36.36h0Z" style="fill: #ccc;"/>
  <path d="M564,500.48h-10.37c-.99,0-1.79-.8-1.79-1.79v-21.81c0-.99.8-1.79,1.79-1.79h10.37c.99,0,1.79.8,1.79,1.79v21.81c0,.99-.8,1.79-1.79,1.79h0Z" style="fill: #f2f2f2;"/>
  <path d="M587.61,500.49h-10.37c-.99,0-1.79-.8-1.79-1.79v-33.98c0-.99.8-1.79,1.79-1.79h10.37c.99,0,1.79.8,1.79,1.79v33.98c0,.99-.8,1.79-1.79,1.79h0Z" style="fill: #f2f2f2;"/>
  <path d="M611.93,500.49h-10.37c-.99,0-1.79-.8-1.79-1.79v-45.78c0-.99.8-1.79,1.79-1.79h10.37c.99,0,1.79.8,1.79,1.79v45.78c0,.99-.8,1.79-1.79,1.79h0Z" style="fill: #f2f2f2;"/>
  <path d="M632.97,500.49h-105.87c-.2,0-.36-.16-.36-.36s.16-.36.36-.36h105.87c.2,0,.36.16.36.36s-.16.36-.36.36h0Z" style="fill: #ccc;"/>
  <path d="M579.5,169.9v-4.12c-3.46-.21-6.21-1.19-8.26-2.95-2.05-1.76-3.13-4.18-3.25-7.27h5.86c.04,1.39.68,2.7,1.76,3.59,1.12.88,2.48,1.41,3.9,1.54v-9.85l-1.78-.47c-2.4-.52-4.63-1.63-6.49-3.23-1.56-1.47-2.41-3.54-2.33-5.68-.03-1.7.45-3.38,1.37-4.81.95-1.42,2.24-2.58,3.76-3.36,1.7-.88,3.56-1.4,5.47-1.54v-4.21h2.67v4.19c1.96.08,3.88.58,5.62,1.47,1.52.77,2.81,1.92,3.75,3.34.91,1.39,1.4,3.01,1.42,4.68h-5.77c-.09-1.17-.65-2.25-1.54-3.01-1-.8-2.22-1.29-3.5-1.4v9.29l1.49.38c1.62.4,3.2.98,4.69,1.73,1.44.71,2.69,1.74,3.66,3.02.98,1.4,1.48,3.08,1.41,4.79.07,2.59-1.01,5.08-2.95,6.79-1.97,1.78-4.73,2.78-8.3,2.98v4.12h-2.67ZM582.17,160.66c1.41-.12,2.75-.66,3.84-1.56.94-.77,1.47-1.93,1.46-3.14.05-1.12-.5-2.19-1.45-2.79-1.19-.74-2.49-1.29-3.85-1.61v9.11ZM579.5,145.4v-8.57c-1.25.12-2.43.64-3.37,1.47-.79.72-1.23,1.74-1.21,2.81-.05,1.11.48,2.18,1.41,2.79.98.66,2.05,1.17,3.18,1.5Z" style="fill: #f2f2f2;"/>
</svg>