<?xml version="1.0" encoding="UTF-8"?>
<svg id="Layer_2" data-name="Layer 2" xmlns="http://www.w3.org/2000/svg" width="174.13" height="224.5" viewBox="0 0 174.13 224.5">
  <g id="OBJECTS">
    <g>
      <polygon points="0 178 93.59 123.67 174.13 170.18 80.55 224.5 0 178" style="fill: #a6de49;"/>
      <g>
        <polygon points="93.59 201.25 34.35 167.05 34.35 115.17 93.59 149.37 93.59 201.25" style="fill: #c7a48d;"/>
        <polygon points="93.59 201.25 152.83 167.05 152.83 115.17 93.59 149.37 93.59 201.25" style="fill: #a97a5c;"/>
        <polygon points="158.64 115.22 93.59 77.67 28.54 115.22 93.59 152.78 158.64 115.22" style="fill: #e89e9e;"/>
        <polygon points="158.64 115.22 158.64 118.46 93.59 156.02 93.59 152.78 158.64 115.22" style="fill: #a11b1b;"/>
        <polygon points="28.54 115.22 93.59 152.78 93.59 156.02 28.54 118.46 28.54 115.22" style="fill: #c96363;"/>
        <polygon points="93.59 149.37 34.35 115.17 34.35 44.41 93.59 78.61 93.59 149.37" style="fill: #c7a48d;"/>
        <g>
          <g>
            <polygon points="62.02 105.39 40.27 92.84 40.27 58.19 62.02 70.74 62.02 105.39" style="fill: #fff;"/>
            <polygon points="41.22 92.12 41.22 60 61.07 71.46 61.07 103.58 41.22 92.12" style="fill: #632626;"/>
            <polygon points="62.02 87.43 62.02 88.7 40.27 76.15 40.27 74.88 62.02 87.43" style="fill: #fff;"/>
            <polygon points="61.07 102.51 42.02 91.51 42.02 77.16 61.07 88.15 61.07 102.51" style="fill: #381717;"/>
            <polygon points="61.07 85.82 42.02 74.82 42.02 60.47 61.07 71.46 61.07 85.82" style="fill: #381717;"/>
            <polygon points="42.02 91.51 41.22 92.12 61.07 103.58 61.07 102.51 42.02 91.51" style="fill: #ee9494;"/>
            <polygon points="42.02 74.82 41.22 75.43 61.07 86.89 61.07 85.82 42.02 74.82" style="fill: #ee9494;"/>
          </g>
          <g>
            <polygon points="87.66 120.2 65.92 107.64 65.92 73 87.66 85.55 87.66 120.2" style="fill: #fff;"/>
            <polygon points="66.87 106.93 66.87 74.81 86.71 86.27 86.71 118.39 66.87 106.93" style="fill: #632626;"/>
            <polygon points="87.66 102.24 87.66 103.51 65.92 90.95 65.92 89.69 87.66 102.24" style="fill: #fff;"/>
            <polygon points="86.71 117.31 67.67 106.32 67.67 91.96 86.71 102.96 86.71 117.31" style="fill: #381717;"/>
            <polygon points="86.71 100.62 67.67 89.63 67.67 75.27 86.71 86.27 86.71 100.62" style="fill: #381717;"/>
            <polygon points="67.67 106.32 66.87 106.93 86.71 118.39 86.71 117.31 67.67 106.32" style="fill: #ee9494;"/>
            <polygon points="67.67 89.63 66.87 90.24 86.71 101.69 86.71 100.62 67.67 89.63" style="fill: #ee9494;"/>
          </g>
        </g>
        <polygon points="93.59 149.37 152.83 115.17 152.83 44.41 93.59 78.61 93.59 149.37" style="fill: #a97a5c;"/>
        <g>
          <g>
            <polygon points="125.16 105.39 146.9 92.84 146.9 58.19 125.16 70.74 125.16 105.39" style="fill: #fff;"/>
            <polygon points="145.95 92.12 145.95 60 126.11 71.46 126.11 103.58 145.95 92.12" style="fill: #632626;"/>
            <polygon points="125.16 87.43 125.16 88.7 146.9 76.15 146.9 74.88 125.16 87.43" style="fill: #fff;"/>
            <polygon points="126.11 102.51 145.15 91.51 145.15 77.16 126.11 88.15 126.11 102.51" style="fill: #381717;"/>
            <polygon points="126.11 85.82 145.15 74.82 145.15 60.47 126.11 71.46 126.11 85.82" style="fill: #381717;"/>
            <polygon points="145.15 91.51 145.95 92.12 126.11 103.58 126.11 102.51 145.15 91.51" style="fill: #ee9494;"/>
            <polygon points="145.15 74.82 145.95 75.43 126.11 86.89 126.11 85.82 145.15 74.82" style="fill: #ee9494;"/>
          </g>
          <g>
            <polygon points="99.51 120.2 121.26 107.64 121.26 73 99.51 85.55 99.51 120.2" style="fill: #fff;"/>
            <polygon points="120.31 106.93 120.31 74.81 100.46 86.27 100.46 118.39 120.31 106.93" style="fill: #632626;"/>
            <polygon points="99.51 102.24 99.51 103.51 121.26 90.95 121.26 89.69 99.51 102.24" style="fill: #fff;"/>
            <polygon points="100.46 117.31 119.5 106.32 119.5 91.96 100.46 102.96 100.46 117.31" style="fill: #381717;"/>
            <polygon points="100.46 100.62 119.5 89.63 119.5 75.27 100.46 86.27 100.46 100.62" style="fill: #381717;"/>
            <polygon points="119.5 106.32 120.31 106.93 100.46 118.39 100.46 117.31 119.5 106.32" style="fill: #ee9494;"/>
            <polygon points="119.5 89.63 120.31 90.24 100.46 101.69 100.46 100.62 119.5 89.63" style="fill: #ee9494;"/>
          </g>
        </g>
        <polygon points="158.64 44.73 93.59 7.18 28.54 44.73 93.59 82.29 158.64 44.73" style="fill: #fff;"/>
        <g>
          <polygon points="158.64 37.56 93.59 0 28.54 37.56 93.59 75.11 158.64 37.56" style="fill: #e89e9e;"/>
          <polygon points="39.76 37.56 93.59 6.48 147.41 37.56 93.59 68.63 39.76 37.56" style="fill: #fff;"/>
          <polygon points="158.64 37.56 158.64 44.73 93.59 82.29 93.59 75.11 158.64 37.56" style="fill: #a11b1b;"/>
          <polygon points="28.54 37.56 93.59 75.11 93.59 82.29 28.54 44.73 28.54 37.56" style="fill: #c96363;"/>
          <polygon points="93.59 6.48 147.41 37.56 141.2 41.14 93.59 13.66 93.59 6.48" style="fill: #c96363;"/>
          <polygon points="93.59 6.48 39.76 37.56 45.98 41.14 93.59 13.66 93.59 6.48" style="fill: #a11b1b;"/>
        </g>
        <g>
          <polygon points="86.93 190.71 41.01 164.2 41.01 133.27 86.93 159.78 86.93 190.71" style="fill: #fff;"/>
          <polygon points="41.89 163.53 41.89 134.96 86.04 160.45 86.04 189.02 41.89 163.53" style="fill: #381717;"/>
          <polygon points="56.02 172.87 56.02 141.94 56.9 142.45 56.9 173.38 56.02 172.87" style="fill: #fff;"/>
          <polygon points="71.03 181.53 71.03 150.6 71.92 151.11 71.92 182.04 71.03 181.53" style="fill: #fff;"/>
          <polygon points="42.64 162.96 41.89 163.53 56.02 171.69 56.02 170.69 42.64 162.96" style="fill: #ee9494;"/>
          <polygon points="42.64 162.96 42.64 135.4 41.89 134.96 41.89 163.53 42.64 162.96" style="fill: #632626;"/>
          <polygon points="57.65 171.63 56.9 172.2 71.03 180.35 71.03 179.35 57.65 171.63" style="fill: #ee9494;"/>
          <polygon points="57.65 171.63 57.65 144.06 56.9 143.63 56.9 172.2 57.65 171.63" style="fill: #632626;"/>
          <polygon points="72.67 180.3 71.92 180.86 86.04 189.02 86.04 188.02 72.67 180.3" style="fill: #ee9494;"/>
          <polygon points="72.67 180.3 72.67 152.73 71.92 152.3 71.92 180.86 72.67 180.3" style="fill: #632626;"/>
        </g>
        <g>
          <polygon points="116.14 150.6 100.25 159.78 100.25 190.71 116.14 181.53 116.14 150.6" style="fill: #fff;"/>
          <polygon points="116.14 151.78 101.13 160.45 101.13 189.02 116.14 180.35 116.14 151.78" style="fill: #381717;"/>
          <polygon points="116.14 181.53 116.14 150.6 115.26 151.11 115.26 182.04 116.14 181.53" style="fill: #fff;"/>
          <polygon points="114.51 180.3 115.26 180.86 101.13 189.02 101.13 188.02 114.51 180.3" style="fill: #ee9494;"/>
          <polygon points="114.51 180.3 114.51 152.73 115.26 152.3 115.26 180.86 114.51 180.3" style="fill: #632626;"/>
        </g>
        <g>
          <polygon points="134.86 135.91 149.14 127.66 149.14 169.18 134.86 177.42 134.86 135.91" style="fill: #fff;"/>
          <polygon points="148.31 168.55 148.31 129.25 135.69 136.53 135.69 175.84 148.31 168.55" style="fill: #381717;"/>
          <polygon points="120.58 144.15 134.86 135.91 134.86 177.42 120.58 185.67 120.58 144.15" style="fill: #fff;"/>
          <polygon points="134.03 176.8 134.03 137.49 121.41 144.78 121.41 184.08 134.03 176.8" style="fill: #381717;"/>
          <polygon points="147.61 168.02 148.31 168.55 135.69 175.84 135.69 174.9 147.61 168.02" style="fill: #ee9494;"/>
          <polygon points="133.33 176.27 134.03 176.8 121.41 184.08 121.41 183.15 133.33 176.27" style="fill: #ee9494;"/>
          <polygon points="133.33 176.27 133.33 137.9 134.03 137.49 134.03 176.8 133.33 176.27" style="fill: #632626;"/>
          <path d="M136.98,156.39c0,.43.26.63.59.44.32-.19.59-.69.59-1.12s-.26-.63-.59-.44c-.32.19-.59.69-.59,1.12Z" style="fill: #fff;"/>
          <path d="M130.87,159.91c0,.43.26.63.59.44s.59-.69.59-1.12-.26-.63-.59-.44c-.32.19-.59.69-.59,1.12Z" style="fill: #fff;"/>
          <polygon points="147.61 168.02 147.61 129.65 148.31 129.25 148.31 168.55 147.61 168.02" style="fill: #632626;"/>
        </g>
        <g>
          <polygon points="106.3 24.54 92.89 32.28 92.89 36.94 106.3 29.2 106.3 24.54" style="fill: #d1af88;"/>
          <polygon points="81.29 25.58 81.29 30.24 92.89 36.94 92.89 32.28 81.29 25.58" style="fill: #e6c9a8;"/>
          <polygon points="92.89 32.28 81.29 25.58 94.69 17.84 106.3 24.54 92.89 32.28" style="fill: #fff5eb;"/>
          <g>
            <path d="M98.51,27.78c-3.01,1.74-7.57,1.93-10.17.42s-2.28-4.14.73-5.87c3.01-1.74,7.57-1.93,10.17-.42s2.28,4.14-.73,5.87Z" style="fill: #bfbfbf;"/>
            <path d="M98.01,27.49c-2.69,1.55-6.77,1.72-9.1.38-2.33-1.35-2.04-3.7.65-5.25,2.69-1.55,6.77-1.72,9.1-.38,2.33,1.35,2.04,3.7-.65,5.25Z" style="fill: #8d97a3;"/>
            <path d="M87.68,26.11c2.43-1.59,6.11-1.06,6.11-1.06-1.82-1.1-3.78-1.44-5.16-1.52-.86.82-1.19,1.74-.95,2.58ZM94.17,21.5c-1.5.07-3.02.46-4.27,1.14,3.32.24,3.89,2.42,3.89,2.42.99-1.61.76-2.81.37-3.56ZM88.26,27.09c.23.24.51.47.85.67.69.4,1.54.66,2.47.78-.89-1.83,2.21-3.49,2.21-3.49-2.81.51-4.55,1.37-5.53,2.03ZM99.33,23.02c-.23-.24-.51-.47-.85-.67-.69-.4-1.54-.66-2.47-.78.89,1.83-2.21,3.49-2.21,3.49,2.81-.51,4.55-1.37,5.53-2.03ZM93.42,28.62c1.5-.07,3.02-.46,4.27-1.14-3.32-.24-3.89-2.43-3.89-2.43-.99,1.61-.76,2.81-.37,3.56ZM99.9,24c-2.43,1.59-6.11,1.06-6.11,1.06,1.82,1.1,3.78,1.44,5.16,1.52.86-.82,1.19-1.74.95-2.58Z" style="fill: #fff;"/>
            <path d="M94.09,25.23c-.19.11-.47.12-.63.03-.16-.09-.14-.26.05-.37.19-.11.47-.12.63-.03.16.09.14.26-.05.37Z" style="fill: #51585e;"/>
          </g>
        </g>
        <g>
          <path d="M71.78,41.93v-5.22s0,0,0,0h0s0,0,0,0c.01-.14-.06-.28-.23-.38-.35-.2-.97-.18-1.37.06-.28.16-.37.37-.3.56h-.01v5.1s0,.1,0,.14v.06h.01c.03.09.09.17.2.23.35.2.97.18,1.38-.06.24-.14.34-.31.32-.48h.01Z" style="fill: #3b4045;"/>
          <path d="M67,37.14c.01-.14-.06-.28-.23-.38-.35-.2-.97-.18-1.37.06-.28.16-.37.37-.3.56h-.01v2.28s0,.06,0,.1v5.18s0,.1,0,.14v.06h.01c.03.09.09.17.2.23.35.2.97.18,1.37-.06.24-.14.34-.31.32-.48h.01s0-5.22,0-5.22c0,0,0,0,0,0h0s0,0,0,0c0,0,0,0,0,0v-2.44s0,0,0,0h0s0,0,0,0Z" style="fill: #6c747d;"/>
          <path d="M77.59,44.33v-5.22s0,0,0,0h0s0,0,0,0c.01-.14-.06-.28-.23-.38-.35-.2-.97-.18-1.37.06-.28.16-.37.37-.3.56h-.01v5.1s0,.1,0,.14v.06h.01c.03.09.09.17.2.23.35.2.97.18,1.37-.06.24-.14.34-.31.32-.48h.01Z" style="fill: #3b4045;"/>
          <path d="M72.81,39.54c.01-.14-.06-.28-.23-.38-.35-.2-.97-.18-1.37.06-.28.16-.37.37-.3.56h-.01v2.28s0,.06,0,.1v5.18s0,.1,0,.14v.06h.01c.03.09.09.17.2.23.35.2.97.18,1.37-.06.24-.14.34-.31.32-.48h.01s0-5.22,0-5.22c0,0,0,0,0,0h0s0,0,0,0c0,0,0,0,0,0v-2.44s0,0,0,0h0s0,0,0,0Z" style="fill: #6c747d;"/>
          <path d="M76.82,39.32c-3.86,2.24-9.7,2.47-13.04.54-1.45-.83-2.2-1.94-2.26-3.11v-12.19l18.45-2.03v12.03c.28,1.63-.79,3.41-3.15,4.76Z" style="fill: #c9c9c9;"/>
          <path d="M79.97,26.33c-.2,1.33-1.27,2.69-3.15,3.77-3.86,2.23-9.7,2.47-13.04.54-1.52-.88-2.26-2.05-2.25-3.29h-.01v-2.79l18.45-2.03v2.83c.05.32.05.64,0,.97Z" style="fill: #3a74ba;"/>
          <path d="M76.82,27.3c-3.86,2.23-9.7,2.47-13.05.54-3.34-1.93-2.93-5.3.94-7.53,3.86-2.23,9.7-2.47,13.05-.54,3.34,1.93,2.93,5.3-.94,7.53Z" style="fill: #eee;"/>
        </g>
        <g>
          <polygon points="146.46 116.53 103.66 141.24 103.66 120.82 146.46 96.11 146.46 116.53" style="fill: #671b0e;"/>
          <path d="M142.59,100.12c.19,1.64,1.23,2.42,2.55,1.92v10.09c-1.31,1.02-2.35,3-2.55,4.86l-35.05,20.24c-.19-1.64-1.23-2.42-2.55-1.92v-10.09c1.31-1.02,2.35-3,2.55-4.86l35.05-20.24h0ZM143,99.29l-35.87,20.71c0,1.9-1.15,4.1-2.58,4.92v11.19c1.42-.82,2.58.05,2.58,1.95l35.87-20.71c0-1.9,1.15-4.1,2.58-4.92v-11.19c-1.42.82-2.58-.05-2.58-1.95h0Z" style="fill: #ffcead;"/>
          <g>
            <path d="M113.23,126.94c-.02-.67-.18-1.38-.67-1.1-.63.36-.93,1.43-.93,2.35s.41,1.42,1.09,1.04c.56-.31.93-.84,1.28-1.55l.93.9c-.5,1.01-1.45,2.28-2.6,2.95-1.56.9-2.92.43-2.92-2.09s1.25-4.35,2.61-5.13c.72-.42,1.15-.14,1.33.04l.18-.78,1.25-.72v3.2l-1.56.9Z" style="fill: #ffcead;"/>
            <path d="M115.17,126.13c.01-2.37,1.44-4.51,2.91-5.36,1.68-.94,2.92-.31,2.95,2.03.02,2.34-1.28,4.44-2.9,5.37-1.52.88-2.98.48-2.96-2.04ZM118.85,124.06c0-1.06-.28-1.72-.77-1.45-.41.24-.73,1.24-.73,2.28,0,1.16.34,1.73.79,1.47.46-.26.72-1.24.72-2.3Z" style="fill: #ffcead;"/>
            <path d="M124.87,115.2c-.12,0-.3.03-.58.2-.23.13-.34.44-.34.95v1.2l.97-.56v1.84l-.97.56v3.38l.64-.37v1.85l-3.16,1.83v-1.85l.43-.25v-3.38l-.44.25v-1.84l.44-.25v-1.2c0-.81.19-2.7,2.1-3.8.55-.32,1.28-.57,1.56-.55l-.64,2Z" style="fill: #ffcead;"/>
            <path d="M128.97,112.84c-.12,0-.3.03-.58.2-.23.13-.34.44-.34.95v1.2l.97-.56v1.84l-.97.56v3.38l.64-.37v1.85l-3.16,1.83v-1.85l.43-.25v-3.38l-.44.25v-1.84l.44-.25v-1.2c0-.81.19-2.7,2.1-3.8.55-.32,1.28-.57,1.56-.55l-.64,2Z" style="fill: #ffcead;"/>
            <path d="M134.94,117.3c-.79,1.36-1.63,2.17-2.74,2.81-1.32.76-2.8.5-2.8-2.22,0-2.32,1.25-4.42,2.86-5.34,1.26-.73,2.23-.42,2.54.59.13.42.24,1.44.02,2.38l-3.34,1.93c.06.34.2,1.04,1.09.53.36-.21.91-.57,1.49-1.54l.89.86ZM131.5,116.03l1.6-.93c-.01-.53-.11-1.07-.79-.68-.65.37-.8,1.24-.82,1.61Z" style="fill: #ffcead;"/>
            <path d="M140.7,113.98c-.79,1.36-1.63,2.17-2.74,2.81-1.32.76-2.8.5-2.8-2.22,0-2.32,1.25-4.42,2.86-5.34,1.26-.73,2.23-.42,2.54.59.13.42.24,1.44.02,2.38l-3.34,1.93c.06.34.2,1.04,1.09.53.36-.21.91-.57,1.49-1.54l.89.86ZM137.26,112.71l1.6-.93c-.01-.53-.11-1.07-.79-.68-.65.37-.8,1.24-.82,1.61Z" style="fill: #ffcead;"/>
          </g>
          <polygon points="103.66 141.24 102.65 140.66 102.65 120.24 103.66 120.82 103.66 141.24" style="fill: #8c3526;"/>
          <polygon points="145.45 95.53 146.46 96.11 103.66 120.82 102.65 120.24 145.45 95.53" style="fill: #b5938d;"/>
        </g>
      </g>
      <g>
        <path d="M24.05,152.65c.03-.29-.12-.57-.47-.77-.71-.41-1.96-.36-2.79.12-.56.32-.75.75-.61,1.13h-.02v3.99c-.01.07,0,.13,0,.2v5.9c-.01.07,0,.13,0,.2v.05s0,.07,0,.11c0,.06-.01.12,0,.18v10.15c-.03.1-.02.19,0,.29v4.05c-.03.1-.02.19,0,.29v.11h.02c.07.17.18.34.41.47.71.41,1.96.36,2.79-.12.48-.28.68-.64.65-.97h.02s0-10.59,0-10.59c0,0,0,0,0,0h0s0,0,0,0c0,0,0,0,0,0v-4.33s0,0,0,0h0s0,0,0,0c0,0,0,0,0,0v-6.08s0,0,0,0h0s0,0,0,0c0,0,0,0,0,0v-4.33s0,0,0,0h0s0,0,0,0Z" style="fill: #694747;"/>
        <polygon points="9.96 156.24 22.15 121.81 21.28 162.77 9.96 156.24" style="fill: #3dc47e;"/>
        <polygon points="22.15 121.81 34.35 155.23 21.28 162.77 22.15 121.81" style="fill: #009246;"/>
      </g>
      <g>
        <path d="M47.36,166.74c.03-.29-.12-.57-.47-.77-.71-.41-1.96-.36-2.79.12-.56.32-.75.75-.61,1.13h-.02v3.99c-.01.07,0,.13,0,.2v5.9c-.01.07,0,.13,0,.2v.05s0,.07,0,.11c0,.06-.01.12,0,.18v10.15c-.03.1-.02.19,0,.29v4.05c-.03.1-.02.19,0,.29v.11h.02c.07.17.18.34.41.47.71.41,1.96.36,2.79-.12.48-.28.68-.64.65-.97h.02s0-10.59,0-10.59c0,0,0,0,0,0h0s0,0,0,0c0,0,0,0,0,0v-4.33s0,0,0,0h0s0,0,0,0c0,0,0,0,0,0v-6.08s0,0,0,0h0s0,0,0,0c0,0,0,0,0,0v-4.33s0,0,0,0h0s0,0,0,0Z" style="fill: #694747;"/>
        <polygon points="33.26 170.33 45.46 135.91 44.58 176.86 33.26 170.33" style="fill: #3dc47e;"/>
        <polygon points="45.46 135.91 57.65 169.32 44.58 176.86 45.46 135.91" style="fill: #009246;"/>
      </g>
    </g>
  </g>
</svg>