<?xml version="1.0" encoding="UTF-8"?>
<svg id="Layer_2" data-name="Layer 2" xmlns="http://www.w3.org/2000/svg" width="176.05" height="186.92" xmlns:xlink="http://www.w3.org/1999/xlink" viewBox="0 0 176.05 186.92">
  <defs>
    <clipPath id="clippath">
      <path d="M125.07,63.64c-.94-.55-1.89-1.1-2.83-1.65-2.34-1.36-5.59-1.17-9.17.9l2.83,1.64c3.58-2.07,6.83-2.26,9.17-.89Z" style="fill: none;"/>
    </clipPath>
    <clipPath id="clippath-1">
      <path d="M115.9,64.53l-2.83-1.64c-4.87,2.81-9.12,8.38-11.29,14.24l2.83,1.65c2.18-5.86,6.42-11.42,11.29-14.24Z" style="fill: none;"/>
    </clipPath>
  </defs>
  <g id="OBJECTS">
    <g>
      <g>
        <g style="isolation: isolate;">
          <polygon points="0 142.53 .02 148.48 66.16 186.92 66.15 180.97 0 142.53" style="fill: #414141;"/>
          <polygon points="66.15 180.97 66.16 186.92 176.05 123.47 176.03 117.53 66.15 180.97" style="fill: #303030;"/>
          <polygon points="0 142.53 66.15 180.97 176.03 117.53 109.89 79.08 0 142.53" style="fill: #494949;"/>
        </g>
        <g style="isolation: isolate;">
          <polygon points="10.06 69.43 10.33 143.16 66.19 175.62 65.92 101.88 10.06 69.43" style="fill: #e5992b;"/>
          <polygon points="65.92 101.88 66.19 175.62 165.72 118.16 165.45 44.42 65.92 101.88" style="fill: #edbf32;"/>
          <polygon points="10.06 69.43 65.92 101.88 165.45 44.42 109.59 11.96 10.06 69.43" style="fill: #ab8423;"/>
        </g>
        <g style="isolation: isolate;">
          <polygon points="0 63.45 .02 76.04 66.16 114.47 66.15 101.88 0 63.45" style="fill: silver;"/>
          <polygon points="66.15 101.88 66.16 114.47 176.05 51.03 176.03 38.44 66.15 101.88" style="fill: #e7e7e9;"/>
          <polygon points="0 63.45 66.15 101.88 176.03 38.44 109.89 0 0 63.45" style="fill: #f9fafc;"/>
        </g>
        <g>
          <g style="isolation: isolate;">
            <polygon points="45.41 156.11 49.54 153.71 49.53 152.5 45.4 154.9 45.41 156.11" style="fill: silver;"/>
            <polygon points="45.4 154.9 49.53 152.5 19.37 135.53 15.25 137.93 45.4 154.9" style="fill: #f9fafc;"/>
            <polygon points="15.25 137.93 15.25 139.15 45.41 156.11 45.4 154.9 15.25 137.93" style="fill: #e7e7e9;"/>
          </g>
          <polygon points="21.46 107.06 20.33 134.99 48.46 152.36 48.97 122.71 21.46 107.06" style="fill: #86c7e3;"/>
          <g style="isolation: isolate;">
            <polygon points="20.33 134.99 21.41 134.37 21.46 107.06 20.39 107.68 20.33 134.99" style="fill: #89898a;"/>
            <polygon points="46.74 150.24 47.81 149.61 21.41 134.37 20.33 134.99 46.74 150.24" style="fill: #a8a8a9;"/>
            <polygon points="48.4 153.11 49.47 152.49 49.54 121.34 48.46 121.97 48.4 153.11" style="fill: silver;"/>
            <polygon points="48.46 121.97 49.54 121.34 19.8 104.18 18.73 104.8 48.46 121.97" style="fill: #f9fafc;"/>
            <path d="M48.4,153.11l-29.74-17.17.07-31.15,29.73,17.17-.06,31.14ZM20.33,134.99l26.4,15.25.06-27.31-26.4-15.25-.06,27.31h0Z" style="fill: #e7e7e9;"/>
          </g>
          <g>
            <g style="isolation: isolate;">
              <polygon points="22.12 102.32 22.12 103.71 14.67 115.94 14.67 114.51 22.12 102.32" style="fill: #cbccce;"/>
              <polygon points="14.67 114.51 14.67 115.94 10.95 113.79 10.95 112.36 14.67 114.51" style="fill: #9e9e9e;"/>
              <polygon points="22.12 102.32 14.67 114.51 10.95 112.36 18.97 100.51 22.12 102.32" style="fill: #f9fafc;"/>
            </g>
            <g style="isolation: isolate;">
              <polygon points="25.84 104.47 25.84 105.86 18.4 118.09 18.4 116.66 25.84 104.47" style="fill: #ab3c23;"/>
              <polygon points="18.4 116.66 18.4 118.09 14.67 115.94 14.67 114.51 18.4 116.66" style="fill: #a9566c;"/>
              <polygon points="25.84 104.47 18.4 116.66 14.67 114.51 22.12 102.32 25.84 104.47" style="fill: #e06f8c;"/>
            </g>
            <g style="isolation: isolate;">
              <polygon points="29.56 106.63 29.56 108.01 22.11 120.23 22.11 118.81 29.56 106.63" style="fill: #cbccce;"/>
              <polygon points="22.11 118.81 22.11 120.23 18.4 118.09 18.4 116.66 22.11 118.81" style="fill: #9e9e9e;"/>
              <polygon points="29.56 106.63 22.11 118.81 18.4 116.66 25.84 104.47 29.56 106.63" style="fill: #f9fafc;"/>
              <polygon points="33.28 108.77 25.84 120.96 22.11 118.81 29.56 106.63 33.28 108.77" style="fill: #e06f8c;"/>
              <polygon points="33.28 108.77 33.29 110.16 25.84 122.39 25.84 120.96 33.28 108.77" style="fill: #ab3c23;"/>
              <polygon points="25.84 120.96 25.84 122.39 22.11 120.23 22.11 118.81 25.84 120.96" style="fill: #a9566c;"/>
              <polygon points="36.99 110.91 37.01 112.31 29.55 124.53 29.56 123.11 36.99 110.91" style="fill: #cbccce;"/>
              <polygon points="29.56 123.11 29.55 124.53 25.84 122.39 25.84 120.96 29.56 123.11" style="fill: #9e9e9e;"/>
              <polygon points="36.99 110.91 29.56 123.11 25.84 120.96 33.28 108.77 36.99 110.91" style="fill: #f9fafc;"/>
            </g>
            <g style="isolation: isolate;">
              <polygon points="40.72 113.06 40.73 114.46 33.27 126.68 33.28 125.25 40.72 113.06" style="fill: #ab3c23;"/>
              <polygon points="33.28 125.25 33.27 126.68 29.55 124.53 29.56 123.11 33.28 125.25" style="fill: #a9566c;"/>
              <polygon points="40.72 113.06 33.28 125.25 29.56 123.11 36.99 110.91 40.72 113.06" style="fill: #e06f8c;"/>
            </g>
            <g style="isolation: isolate;">
              <polygon points="44.45 115.22 44.45 116.61 37 128.82 37 127.4 44.45 115.22" style="fill: #cbccce;"/>
              <polygon points="37 127.4 37 128.82 33.27 126.68 33.28 125.25 37 127.4" style="fill: #9e9e9e;"/>
              <polygon points="44.45 115.22 37 127.4 33.28 125.25 40.72 113.06 44.45 115.22" style="fill: #f9fafc;"/>
            </g>
            <g style="isolation: isolate;">
              <polygon points="48.18 117.37 48.17 118.75 40.72 130.98 40.72 129.55 48.18 117.37" style="fill: #ab3c23;"/>
              <polygon points="40.72 129.55 40.72 130.98 37 128.82 37 127.4 40.72 129.55" style="fill: #a9566c;"/>
              <polygon points="48.18 117.37 40.72 129.55 37 127.4 44.45 115.22 48.18 117.37" style="fill: #e06f8c;"/>
            </g>
            <g style="isolation: isolate;">
              <polygon points="51.9 119.51 51.89 120.9 44.44 133.13 44.44 131.7 51.9 119.51" style="fill: #cbccce;"/>
              <polygon points="44.44 131.7 44.44 133.13 40.72 130.98 40.72 129.55 44.44 131.7" style="fill: #9e9e9e;"/>
              <polygon points="51.9 119.51 44.44 131.7 40.72 129.55 48.18 117.37 51.9 119.51" style="fill: #f9fafc;"/>
            </g>
          </g>
        </g>
        <g>
          <g style="isolation: isolate;">
            <polygon points="127.42 97.76 127.42 140.31 107.51 151.82 107.42 109.28 127.42 97.76" style="fill: #86c7e3;"/>
          </g>
          <g style="isolation: isolate;">
            <polygon points="127.26 141.34 126.39 140.83 126.3 98.28 127.17 98.79 127.26 141.34" style="fill: #89898a;"/>
            <polygon points="107.08 153.01 106.21 152.5 106.12 108.73 106.99 109.24 107.08 153.01" style="fill: #89898a;"/>
            <polygon points="106.99 109.24 106.12 108.73 127.35 96.46 128.22 96.97 106.99 109.24" style="fill: #f9fafc;"/>
            <polygon points="128.22 96.97 128.31 140.73 127.26 141.34 127.17 98.79 108.05 109.84 108.14 152.4 107.08 153.01 106.99 109.24 128.22 96.97" style="fill: #e7e7e9;"/>
          </g>
          <g style="isolation: isolate;">
            <g style="isolation: isolate;">
              <path d="M124.18,125.84l-.67-.39c-.16-.09-.38-.08-.62.06l.68.39c.24-.14.46-.15.61-.06h0Z" style="fill: #bbb9b0;"/>
            </g>
            <g style="isolation: isolate;">
              <path d="M123.57,125.9l-.68-.39c-.47.27-.86.93-.85,1.48,0,.27.1.47.25.55l.68.4c-.16-.09-.25-.28-.25-.56,0-.54.38-1.2.85-1.48h0Z" style="fill: #bbb9b0;"/>
            </g>
            <path d="M123.57,125.9c-.47.28-.85.93-.85,1.48s.38.77.86.5c.47-.27.86-.94.85-1.48,0-.55-.38-.76-.86-.49Z" style="fill: #e2ded3;"/>
          </g>
        </g>
        <g>
          <g style="isolation: isolate;">
            <polygon points="135.49 124.57 131.36 122.18 131.36 120.96 135.49 123.36 135.49 124.57" style="fill: silver;"/>
            <polygon points="135.49 123.36 131.36 120.96 161.53 104 165.65 106.4 135.49 123.36" style="fill: #f9fafc;"/>
            <polygon points="165.65 106.4 165.65 107.61 135.49 124.57 135.49 123.36 165.65 106.4" style="fill: #e7e7e9;"/>
          </g>
          <polygon points="159.44 75.51 160.55 103.45 132.43 120.82 131.93 91.18 159.44 75.51" style="fill: #86c7e3;"/>
          <g style="isolation: isolate;">
            <polygon points="160.55 103.45 159.49 102.83 159.44 75.51 160.5 76.14 160.55 103.45" style="fill: #89898a;"/>
            <polygon points="134.15 118.7 133.08 118.07 159.49 102.83 160.55 103.45 134.15 118.7" style="fill: #a8a8a9;"/>
            <polygon points="132.49 121.57 131.42 120.95 131.36 89.8 132.43 90.43 132.49 121.57" style="fill: silver;"/>
            <polygon points="132.43 90.43 131.36 89.8 161.09 72.64 162.17 73.26 132.43 90.43" style="fill: #f9fafc;"/>
            <path d="M132.43,90.43l29.74-17.16.06,31.14-29.74,17.17-.07-31.14ZM160.55,103.45l-.05-27.31-26.4,15.24.05,27.31,26.4-15.25h0Z" style="fill: #e7e7e9;"/>
          </g>
          <g>
            <g style="isolation: isolate;">
              <polygon points="158.77 70.79 158.77 72.17 166.22 84.4 166.22 82.98 158.77 70.79" style="fill: #cbccce;"/>
              <polygon points="166.22 82.98 166.22 84.4 169.94 82.25 169.94 80.83 166.22 82.98" style="fill: #9e9e9e;"/>
              <polygon points="158.77 70.79 166.22 82.98 169.94 80.83 161.93 68.97 158.77 70.79" style="fill: #f9fafc;"/>
            </g>
            <g style="isolation: isolate;">
              <polygon points="155.05 72.94 155.05 74.32 162.5 86.55 162.5 85.12 155.05 72.94" style="fill: #ab3c23;"/>
              <polygon points="162.5 85.12 162.5 86.55 166.22 84.4 166.22 82.98 162.5 85.12" style="fill: #a9566c;"/>
              <polygon points="155.05 72.94 162.5 85.12 166.22 82.98 158.77 70.79 155.05 72.94" style="fill: #e06f8c;"/>
            </g>
            <g style="isolation: isolate;">
              <polygon points="151.33 75.09 151.33 76.48 158.78 88.69 158.77 87.27 151.33 75.09" style="fill: #cbccce;"/>
              <polygon points="158.77 87.27 158.78 88.69 162.5 86.55 162.5 85.12 158.77 87.27" style="fill: #9e9e9e;"/>
              <polygon points="151.33 75.09 158.77 87.27 162.5 85.12 155.05 72.94 151.33 75.09" style="fill: #f9fafc;"/>
              <polygon points="147.61 77.23 155.06 89.42 158.77 87.27 151.33 75.09 147.61 77.23" style="fill: #e06f8c;"/>
              <polygon points="147.61 77.23 147.6 78.62 155.06 90.84 155.06 89.42 147.61 77.23" style="fill: #ab3c23;"/>
              <polygon points="155.06 89.42 155.06 90.84 158.78 88.69 158.77 87.27 155.06 89.42" style="fill: #a9566c;"/>
              <polygon points="143.91 79.37 143.89 80.77 151.34 92.99 151.33 91.57 143.91 79.37" style="fill: #cbccce;"/>
              <polygon points="151.33 91.57 151.34 92.99 155.06 90.84 155.06 89.42 151.33 91.57" style="fill: #9e9e9e;"/>
              <polygon points="143.91 79.37 151.33 91.57 155.06 89.42 147.61 77.23 143.91 79.37" style="fill: #f9fafc;"/>
            </g>
            <g style="isolation: isolate;">
              <polygon points="140.18 81.52 140.16 82.92 147.62 95.14 147.62 93.71 140.18 81.52" style="fill: #ab3c23;"/>
              <polygon points="147.62 93.71 147.62 95.14 151.34 92.99 151.33 91.57 147.62 93.71" style="fill: #a9566c;"/>
              <polygon points="140.18 81.52 147.62 93.71 151.33 91.57 143.91 79.37 140.18 81.52" style="fill: #e06f8c;"/>
            </g>
            <g style="isolation: isolate;">
              <polygon points="136.44 83.67 136.45 85.07 143.9 97.29 143.89 95.86 136.44 83.67" style="fill: #cbccce;"/>
              <polygon points="143.89 95.86 143.9 97.29 147.62 95.14 147.62 93.71 143.89 95.86" style="fill: #9e9e9e;"/>
              <polygon points="136.44 83.67 143.89 95.86 147.62 93.71 140.18 81.52 136.44 83.67" style="fill: #f9fafc;"/>
            </g>
            <g style="isolation: isolate;">
              <polygon points="132.72 85.83 132.73 87.22 140.17 99.44 140.17 98.01 132.72 85.83" style="fill: #ab3c23;"/>
              <polygon points="140.17 98.01 140.17 99.44 143.9 97.29 143.89 95.86 140.17 98.01" style="fill: #a9566c;"/>
              <polygon points="132.72 85.83 140.17 98.01 143.89 95.86 136.44 83.67 132.72 85.83" style="fill: #e06f8c;"/>
            </g>
            <g style="isolation: isolate;">
              <polygon points="129 87.97 129 89.36 136.46 101.59 136.45 100.16 129 87.97" style="fill: #cbccce;"/>
              <polygon points="136.45 100.16 136.46 101.59 140.17 99.44 140.17 98.01 136.45 100.16" style="fill: #9e9e9e;"/>
              <polygon points="129 87.97 136.45 100.16 140.17 98.01 132.72 85.83 129 87.97" style="fill: #f9fafc;"/>
            </g>
          </g>
        </g>
        <g>
          <g style="isolation: isolate;">
            <polygon points="73.33 160.56 69.2 158.16 69.2 156.94 73.33 159.34 73.33 160.56" style="fill: silver;"/>
            <polygon points="73.33 159.34 69.2 156.94 99.37 139.97 103.5 142.37 73.33 159.34" style="fill: #f9fafc;"/>
            <polygon points="103.5 142.37 103.49 143.59 73.33 160.56 73.33 159.34 103.5 142.37" style="fill: #e7e7e9;"/>
          </g>
          <polygon points="97.28 111.49 98.4 139.43 70.27 156.8 69.76 127.15 97.28 111.49" style="fill: #86c7e3;"/>
          <g style="isolation: isolate;">
            <polygon points="98.4 139.43 97.33 138.81 97.28 111.49 98.35 112.12 98.4 139.43" style="fill: #89898a;"/>
            <polygon points="72 154.68 70.92 154.05 97.33 138.81 98.4 139.43 72 154.68" style="fill: #a8a8a9;"/>
            <polygon points="70.34 157.55 69.27 156.93 69.2 125.78 70.27 126.41 70.34 157.55" style="fill: silver;"/>
            <polygon points="70.27 126.41 69.2 125.78 98.93 108.62 100 109.24 70.27 126.41" style="fill: #f9fafc;"/>
            <path d="M70.27,126.41l29.73-17.17.07,31.14-29.74,17.17-.07-31.14ZM98.4,139.43l-.05-27.31-26.41,15.25.06,27.31,26.4-15.24h0Z" style="fill: #e7e7e9;"/>
          </g>
          <g>
            <g style="isolation: isolate;">
              <polygon points="96.61 106.77 96.61 108.15 104.06 120.38 104.06 118.95 96.61 106.77" style="fill: #cbccce;"/>
              <polygon points="104.06 118.95 104.06 120.38 107.79 118.23 107.79 116.8 104.06 118.95" style="fill: #9e9e9e;"/>
              <polygon points="96.61 106.77 104.06 118.95 107.79 116.8 99.77 104.94 96.61 106.77" style="fill: #f9fafc;"/>
            </g>
            <g style="isolation: isolate;">
              <polygon points="92.89 108.92 92.89 110.3 100.35 122.53 100.34 121.1 92.89 108.92" style="fill: #ab3c23;"/>
              <polygon points="100.34 121.1 100.35 122.53 104.06 120.38 104.06 118.95 100.34 121.1" style="fill: #a9566c;"/>
              <polygon points="92.89 108.92 100.34 121.1 104.06 118.95 96.61 106.77 92.89 108.92" style="fill: #e06f8c;"/>
            </g>
            <g style="isolation: isolate;">
              <polygon points="89.18 111.07 89.18 112.46 96.62 124.67 96.61 123.25 89.18 111.07" style="fill: #cbccce;"/>
              <polygon points="96.61 123.25 96.62 124.67 100.35 122.53 100.34 121.1 96.61 123.25" style="fill: #9e9e9e;"/>
              <polygon points="89.18 111.07 96.61 123.25 100.34 121.1 92.89 108.92 89.18 111.07" style="fill: #f9fafc;"/>
              <polygon points="85.45 113.21 92.89 125.4 96.61 123.25 89.18 111.07 85.45 113.21" style="fill: #e06f8c;"/>
              <polygon points="85.45 113.21 85.45 114.6 92.9 126.82 92.89 125.4 85.45 113.21" style="fill: #ab3c23;"/>
              <polygon points="92.89 125.4 92.9 126.82 96.62 124.67 96.61 123.25 92.89 125.4" style="fill: #a9566c;"/>
              <polygon points="81.75 115.35 81.73 116.75 89.18 128.97 89.18 127.55 81.75 115.35" style="fill: #cbccce;"/>
              <polygon points="89.18 127.55 89.18 128.97 92.9 126.82 92.89 125.4 89.18 127.55" style="fill: #9e9e9e;"/>
              <polygon points="81.75 115.35 89.18 127.55 92.89 125.4 85.45 113.21 81.75 115.35" style="fill: #f9fafc;"/>
            </g>
            <g style="isolation: isolate;">
              <polygon points="78.01 117.5 78.01 118.89 85.46 131.12 85.46 129.69 78.01 117.5" style="fill: #ab3c23;"/>
              <polygon points="85.46 129.69 85.46 131.12 89.18 128.97 89.18 127.55 85.46 129.69" style="fill: #a9566c;"/>
              <polygon points="78.01 117.5 85.46 129.69 89.18 127.55 81.75 115.35 78.01 117.5" style="fill: #e06f8c;"/>
            </g>
            <g style="isolation: isolate;">
              <polygon points="74.28 119.66 74.28 121.05 81.74 133.27 81.74 131.84 74.28 119.66" style="fill: #cbccce;"/>
              <polygon points="81.74 131.84 81.74 133.27 85.46 131.12 85.46 129.69 81.74 131.84" style="fill: #9e9e9e;"/>
              <polygon points="74.28 119.66 81.74 131.84 85.46 129.69 78.01 117.5 74.28 119.66" style="fill: #f9fafc;"/>
            </g>
            <g style="isolation: isolate;">
              <polygon points="70.56 121.81 70.57 123.19 78.01 135.41 78.01 133.99 70.56 121.81" style="fill: #ab3c23;"/>
              <polygon points="78.01 133.99 78.01 135.41 81.74 133.27 81.74 131.84 78.01 133.99" style="fill: #a9566c;"/>
              <polygon points="70.56 121.81 78.01 133.99 81.74 131.84 74.28 119.66 70.56 121.81" style="fill: #e06f8c;"/>
            </g>
            <g style="isolation: isolate;">
              <polygon points="66.84 123.95 66.84 125.34 74.3 137.57 74.29 136.14 66.84 123.95" style="fill: #cbccce;"/>
              <polygon points="74.29 136.14 74.3 137.57 78.01 135.41 78.01 133.99 74.29 136.14" style="fill: #9e9e9e;"/>
              <polygon points="66.84 123.95 74.29 136.14 78.01 133.99 70.56 121.81 66.84 123.95" style="fill: #f9fafc;"/>
            </g>
          </g>
        </g>
        <g style="isolation: isolate;">
          <polygon points="113.4 162.87 110.56 161.26 110.55 155.34 113.4 156.95 113.4 162.87" style="fill: silver;"/>
          <polygon points="113.4 156.95 110.55 155.34 131.04 143.48 133.87 145.09 113.4 156.95" style="fill: #f9fafc;"/>
          <polygon points="133.87 145.09 133.88 151.02 113.4 162.87 113.4 156.95 133.87 145.09" style="fill: #e7e7e9;"/>
        </g>
        <g style="isolation: isolate;">
          <polygon points="116.25 164.47 113.41 162.86 113.4 159.57 116.25 161.18 116.25 164.47" style="fill: silver;"/>
          <polygon points="116.25 161.18 113.4 159.57 133.89 147.72 136.73 149.32 116.25 161.18" style="fill: #f9fafc;"/>
          <polygon points="136.73 149.32 136.74 152.62 116.25 164.47 116.25 161.18 136.73 149.32" style="fill: #e7e7e9;"/>
        </g>
      </g>
      <g style="isolation: isolate;">
        <polygon points="134.39 61.58 131.56 59.93 124.4 64.06 127.23 65.71 134.39 61.58" style="fill: #cf5c7a;"/>
        <g>
          <path id="SVGID" d="M125.07,63.64c-.94-.55-1.89-1.1-2.83-1.65-2.34-1.36-5.59-1.17-9.17.9l2.83,1.64c3.58-2.07,6.83-2.26,9.17-.89Z" style="fill: #cf5c7a;"/>
          <g style="clip-path: url(#clippath);">
            <g style="isolation: isolate;">
              <path d="M125.07,63.64l-2.83-1.65c-2.34-1.36-5.59-1.17-9.17.9l2.83,1.64c3.58-2.07,6.83-2.26,9.17-.89h0Z" style="fill: #cf5c7a;"/>
            </g>
          </g>
        </g>
        <g>
          <path id="SVGID-2" data-name="SVGID" d="M115.9,64.53l-2.83-1.64c-4.87,2.81-9.12,8.38-11.29,14.24l2.83,1.65c2.18-5.86,6.42-11.43,11.29-14.24Z" style="fill: #cf5c7a;"/>
          <g style="clip-path: url(#clippath-1);">
            <g style="isolation: isolate;">
              <path d="M115.9,64.53l-2.83-1.64c-4.87,2.81-9.12,8.38-11.29,14.24l2.83,1.65c2.18-5.86,6.42-11.43,11.29-14.24h0Z" style="fill: #cf5c7a;"/>
            </g>
          </g>
        </g>
        <polygon points="97.45 82.9 94.62 81.26 94.66 96.37 97.49 98.01 97.45 82.9" style="fill: #cf5c7a;"/>
        <polygon points="104.6 78.77 101.78 77.13 94.62 81.26 97.45 82.9 104.6 78.77" style="fill: #cf5c7a;"/>
        <path d="M115.9,64.53c-4.88,2.82-9.11,8.38-11.29,14.24l-7.15,4.13.04,15.11,36.94-21.33-.05-15.11-7.15,4.13c-2.2-3.33-6.45-3.99-11.33-1.17Z" style="fill: #e48aa2;"/>
        <g>
          <path d="M103.6,83.5c0-1.57.89-2.81,2.06-3.56,1.54-1,2.45-1.34,3.22-1.46v1.81c-.66.3-1.81.92-2.49,1.32-.56.32-.77.47-.77.97v.13c0,.37.06.54.62.22l.98-.56c1.58-.91,1.94.46,1.94,1.42v.4c0,2.23-1.08,3.31-2.11,3.9-1.94,1.12-2.17,1.25-3.21,1.44v-1.81c.41-.19,1.72-.86,2.69-1.42.45-.26.61-.49.61-.85v-.19c0-.35-.09-.47-.55-.21l-.93.54c-1.97,1.14-2.06-.79-2.06-1.36v-.73h0Z" style="fill: #f9fafc;"/>
          <path d="M109.88,77.57l2.01-1.16v3.49l1.77-1.02v-3.49l2.01-1.16v8.78s-2.01,1.16-2.01,1.16v-3.2l-1.77,1.02v3.2l-2.01,1.16v-8.78Z" style="fill: #f9fafc;"/>
          <path d="M119.55,71.93c1.8-1.04,3.15-1.42,3.15,2.69,0,3.87-1.28,5.11-3.15,6.19-1.87,1.08-3.15,1.43-3.15-2.56,0-4.11,1.4-5.32,3.15-6.33ZM119.55,78.73c.89-.52,1.13-1.09,1.13-2.94,0-2.04-.19-2.32-1.13-1.77-.91.53-1.13.93-1.13,3.08,0,1.83.11,2.22,1.13,1.64Z" style="fill: #f9fafc;"/>
          <path d="M123.41,69.76l3.39-1.96c1.06-.61,2.35-1.06,2.35,1.49,0,2.82-1.39,3.85-2.35,4.32-.42.21-1.32.56-1.37.55v3.21l-2.01,1.16v-8.78ZM126.59,71.77c.4-.23.53-.65.53-1.26s-.17-.8-.53-.59l-1.16.67v1.86l1.16-.67Z" style="fill: #f9fafc;"/>
        </g>
      </g>
    </g>
  </g>
</svg>